<mxfile host="65bd71144e">
    <diagram id="bOPWLQNw6NCdQpMu1Bu0" name="Page-1">
        <mxGraphModel dx="1316" dy="554" grid="1" gridSize="10" guides="1" tooltips="1" connect="1" arrows="1" fold="1" page="1" pageScale="1" pageWidth="850" pageHeight="1100" math="0" shadow="0">
            <root>
                <mxCell id="0"/>
                <mxCell id="1" parent="0"/>
                <mxCell id="18" value="" style="shape=ext;double=1;rounded=1;whiteSpace=wrap;html=1;fontSize=18;fillColor=none;" vertex="1" parent="1">
                    <mxGeometry x="270" y="110" width="550" height="240" as="geometry"/>
                </mxCell>
                <mxCell id="8" style="edgeStyle=none;html=1;exitX=1;exitY=0.5;exitDx=0;exitDy=0;entryX=0;entryY=0.5;entryDx=0;entryDy=0;fontSize=18;" edge="1" parent="1" source="2" target="7">
                    <mxGeometry relative="1" as="geometry"/>
                </mxCell>
                <mxCell id="2" value="&lt;font style=&quot;font-size: 18px;&quot;&gt;&lt;b&gt;API1&lt;/b&gt;&lt;/font&gt;" style="rounded=1;whiteSpace=wrap;html=1;strokeWidth=2;fillWeight=4;hachureGap=8;hachureAngle=45;fillColor=#1ba1e2;sketch=1;" vertex="1" parent="1">
                    <mxGeometry x="110" y="80" width="120" height="60" as="geometry"/>
                </mxCell>
                <mxCell id="9" style="edgeStyle=none;html=1;exitX=1;exitY=0.5;exitDx=0;exitDy=0;fontSize=18;entryX=0;entryY=0.5;entryDx=0;entryDy=0;" edge="1" parent="1" source="4" target="7">
                    <mxGeometry relative="1" as="geometry">
                        <mxPoint x="320" y="230" as="targetPoint"/>
                    </mxGeometry>
                </mxCell>
                <mxCell id="4" value="&lt;font style=&quot;font-size: 18px;&quot;&gt;&lt;b&gt;API2&lt;/b&gt;&lt;/font&gt;" style="rounded=1;whiteSpace=wrap;html=1;strokeWidth=2;fillWeight=4;hachureGap=8;hachureAngle=45;fillColor=#1ba1e2;sketch=1;" vertex="1" parent="1">
                    <mxGeometry x="110" y="160" width="120" height="60" as="geometry"/>
                </mxCell>
                <mxCell id="10" style="edgeStyle=none;html=1;exitX=1;exitY=0.5;exitDx=0;exitDy=0;entryX=0;entryY=0.5;entryDx=0;entryDy=0;fontSize=18;" edge="1" parent="1" source="5" target="7">
                    <mxGeometry relative="1" as="geometry"/>
                </mxCell>
                <mxCell id="5" value="&lt;font style=&quot;font-size: 18px;&quot;&gt;&lt;b&gt;API3&lt;/b&gt;&lt;/font&gt;" style="rounded=1;whiteSpace=wrap;html=1;strokeWidth=2;fillWeight=4;hachureGap=8;hachureAngle=45;fillColor=#1ba1e2;sketch=1;" vertex="1" parent="1">
                    <mxGeometry x="110" y="240" width="120" height="60" as="geometry"/>
                </mxCell>
                <mxCell id="12" style="edgeStyle=none;html=1;exitX=1;exitY=0.5;exitDx=0;exitDy=0;entryX=0;entryY=0.5;entryDx=0;entryDy=0;fontSize=18;" edge="1" parent="1" source="7" target="11">
                    <mxGeometry relative="1" as="geometry"/>
                </mxCell>
                <mxCell id="7" value="Transform" style="ellipse;whiteSpace=wrap;html=1;strokeWidth=2;fillWeight=2;hachureGap=8;fillColor=#990000;fillStyle=dots;sketch=1;fontSize=18;" vertex="1" parent="1">
                    <mxGeometry x="340" y="200" width="120" height="60" as="geometry"/>
                </mxCell>
                <mxCell id="14" style="edgeStyle=none;html=1;fontSize=18;" edge="1" parent="1" source="11" target="13">
                    <mxGeometry relative="1" as="geometry"/>
                </mxCell>
                <mxCell id="11" value="" style="editableCssRules=.*;shape=image;verticalLabelPosition=bottom;labelBackgroundColor=#ffffff;verticalAlign=top;aspect=fixed;imageAspect=0;image=data:image/svg+xml,PHN2ZyB4bWxucz0iaHR0cDovL3d3dy53My5vcmcvMjAwMC9zdmciIHhtbG5zOnY9Imh0dHBzOi8vdmVjdGEuaW8vbmFubyIgd2lkdGg9IjIwIiBoZWlnaHQ9IjE2IiB2aWV3Qm94PSIwIDAgMjAgMTYiPiYjeGE7CTxzdHlsZSB0eXBlPSJ0ZXh0L2NzcyI+JiN4YTsJLnN0MHtmaWxsOiM0Mjg1ZjQ7fSYjeGE7CS5zdDF7ZmlsbDojNjY5ZGY2O30mI3hhOwkuc3Qye2ZpbGw6I2FlY2JmYTt9JiN4YTsJLnN0M3tmaWxsOiNmZmY7fSYjeGE7CTwvc3R5bGU+JiN4YTsJPHBhdGggY2xhc3M9InN0MiIgZD0iTTAgMGgyMHY3SDB6Ii8+JiN4YTsJPHBhdGggY2xhc3M9InN0MSIgZD0iTTE4IDBoMnY3aC0yeiIvPiYjeGE7CTxwYXRoIGNsYXNzPSJzdDAiIGQ9Ik0xOCA3bDItN2gtMnoiLz4mI3hhOwk8cGF0aCBjbGFzcz0ic3QxIiBkPSJNMCAwaDJ2N0gweiIvPiYjeGE7CTxnIGNsYXNzPSJzdDMiPiYjeGE7CQk8cGF0aCBkPSJNNCAzaDZ2MUg0eiIvPiYjeGE7CQk8cmVjdCB4PSIxMyIgeT0iMiIgd2lkdGg9IjMiIGhlaWdodD0iMyIgcng9IjEuNSIvPiYjeGE7CTwvZz4mI3hhOwk8cGF0aCBjbGFzcz0ic3QyIiBkPSJNMCA5aDIwdjdIMHoiLz4mI3hhOwk8cGF0aCBjbGFzcz0ic3QxIiBkPSJNMTggOWgydjdoLTJ6Ii8+JiN4YTsJPHBhdGggY2xhc3M9InN0MCIgZD0iTTE4IDE2bDItN2gtMnoiLz4mI3hhOwk8cGF0aCBjbGFzcz0ic3QxIiBkPSJNMCA5aDJ2N0gweiIvPiYjeGE7CTxnIGNsYXNzPSJzdDMiPiYjeGE7CQk8cGF0aCBkPSJNNCAxMmg2djFINHoiLz4mI3hhOwkJPHJlY3QgeD0iMTMiIHk9IjExIiB3aWR0aD0iMyIgaGVpZ2h0PSIzIiByeD0iMS41Ii8+JiN4YTsJPC9nPiYjeGE7PC9zdmc+;fontSize=18;" vertex="1" parent="1">
                    <mxGeometry x="530" y="189" width="102.5" height="82" as="geometry"/>
                </mxCell>
                <mxCell id="32" style="edgeStyle=none;html=1;exitX=1;exitY=0.5;exitDx=0;exitDy=0;entryX=0;entryY=0.5;entryDx=0;entryDy=0;fontSize=18;" edge="1" parent="1" source="13" target="28">
                    <mxGeometry relative="1" as="geometry"/>
                </mxCell>
                <mxCell id="13" value="" style="editableCssRules=.*;shape=image;verticalLabelPosition=bottom;labelBackgroundColor=#ffffff;verticalAlign=top;aspect=fixed;imageAspect=0;image=data:image/svg+xml,PHN2ZyB4bWxucz0iaHR0cDovL3d3dy53My5vcmcvMjAwMC9zdmciIHhtbG5zOnY9Imh0dHBzOi8vdmVjdGEuaW8vbmFubyIgd2lkdGg9IjIwLjAwMTA0NTIyNzA1MDc4IiBoZWlnaHQ9IjIwLjAwMTA0NTIyNzA1MDc4IiBmaWxsLXJ1bGU9ImV2ZW5vZGQiIHZpZXdCb3g9IjAgMCAyMC4wMDEwNDUyMjcwNTA3OCAyMC4wMDEwNDUyMjcwNTA3OCI+JiN4YTsJPHN0eWxlIHR5cGU9InRleHQvY3NzIj4mI3hhOwkuc3Qwe2ZpbGw6I2FlY2JmYTt9JiN4YTsJLnN0MXtmaWxsOiM2NjlkZjY7fSYjeGE7CS5zdDJ7ZmlsbDojNDI4NWY0O30mI3hhOwk8L3N0eWxlPiYjeGE7CTxwYXRoIGNsYXNzPSJzdDAiIGQ9Ik00LjczIDguODN2Mi42M2E0LjkxIDQuOTEgMCAwIDAgMS43MSAxLjc0VjguODN6Ii8+JiN4YTsJPHBhdGggY2xhc3M9InN0MSIgZD0iTTcuODkgNi40MXY3LjUzQTcuNjIgNy42MiAwIDAgMCA5IDE0YTggOCAwIDAgMCAxIDBWNi40MXoiLz4mI3hhOwk8cGF0aCBjbGFzcz0ic3QwIiBkPSJNMTEuNjQgOS44NnYzLjI5YTUgNSAwIDAgMCAxLjctMS44MlY5Ljg2eiIvPiYjeGE7CTxwYXRoIGNsYXNzPSJzdDIiIGQ9Ik0xNS43NCAxNC4zMmwtMS40MiAxLjQyYS40Mi40MiAwIDAgMCAwIC42bDMuNTQgMy41NGEuNDIuNDIgMCAwIDAgLjU5IDBsMS40My0xLjQzYS40Mi40MiAwIDAgMCAwLS41OWwtMy41NC0zLjU0YS40Mi40MiAwIDAgMC0uNiAwIi8+JiN4YTsJPHBhdGggY2xhc3M9InN0MSIgZD0iTTkgMGE5IDkgMCAxIDAgMCAxOEE5IDkgMCAxIDAgOSAwbTAgMTUuNjlhNi42OCA2LjY4IDAgMCAxIC4wMDctMTMuMzYgNi42OCA2LjY4IDAgMCAxIDQuNzI3IDExLjQwM0E2LjY4IDYuNjggMCAwIDEgOSAxNS42OSIvPiYjeGE7PC9zdmc+;fontSize=18;" vertex="1" parent="1">
                    <mxGeometry x="710" y="190" width="80" height="80" as="geometry"/>
                </mxCell>
                <mxCell id="16" value="GCS" style="text;html=1;strokeColor=none;fillColor=none;align=center;verticalAlign=middle;whiteSpace=wrap;rounded=0;fontSize=18;" vertex="1" parent="1">
                    <mxGeometry x="526.25" y="271" width="110" height="35" as="geometry"/>
                </mxCell>
                <mxCell id="17" value="GBQ" style="text;html=1;strokeColor=none;fillColor=none;align=center;verticalAlign=middle;whiteSpace=wrap;rounded=0;fontSize=18;" vertex="1" parent="1">
                    <mxGeometry x="695" y="272" width="110" height="35" as="geometry"/>
                </mxCell>
                <mxCell id="20" value="&lt;font style=&quot;font-size: 18px;&quot;&gt;python operator&lt;/font&gt;" style="text;strokeColor=none;fillColor=none;html=1;fontSize=24;fontStyle=1;verticalAlign=middle;align=center;" vertex="1" parent="1">
                    <mxGeometry x="355" y="250" width="100" height="40" as="geometry"/>
                </mxCell>
                <mxCell id="22" value="" style="endArrow=none;dashed=1;html=1;dashPattern=1 3;strokeWidth=2;fontSize=18;" edge="1" parent="1">
                    <mxGeometry width="50" height="50" relative="1" as="geometry">
                        <mxPoint x="169.29" y="470" as="sourcePoint"/>
                        <mxPoint x="169.57999999999998" y="340" as="targetPoint"/>
                    </mxGeometry>
                </mxCell>
                <mxCell id="24" value="" style="endArrow=classic;html=1;fontSize=18;entryX=0;entryY=0.5;entryDx=0;entryDy=0;" edge="1" parent="1" target="7">
                    <mxGeometry width="50" height="50" relative="1" as="geometry">
                        <mxPoint x="240" y="360" as="sourcePoint"/>
                        <mxPoint x="330" y="440" as="targetPoint"/>
                    </mxGeometry>
                </mxCell>
                <mxCell id="25" value="" style="endArrow=classic;html=1;fontSize=18;entryX=0;entryY=0.5;entryDx=0;entryDy=0;" edge="1" parent="1" target="7">
                    <mxGeometry width="50" height="50" relative="1" as="geometry">
                        <mxPoint x="240" y="430" as="sourcePoint"/>
                        <mxPoint x="340" y="290" as="targetPoint"/>
                    </mxGeometry>
                </mxCell>
                <mxCell id="27" value="" style="shape=image;verticalLabelPosition=bottom;labelBackgroundColor=default;verticalAlign=top;aspect=fixed;imageAspect=0;image=data:image/png,iVBORw0KGgoAAAANSUhEUgAAAb0AAADzCAYAAAASC8jsAAAAAXNSR0IArs4c6QAAAARnQU1BAACxjwv8YQUAAAAJcEhZcwAAFiUAABYlAUlSJPAAAHi8SURBVHhe7b1XcGTZdp75pzdIeFfw5b2v7mpT7e29zdvX0MhQJCVKo5iIeZNGZh74oIh5mJeJEUea4bgIUjSiFa8hb/e97at9uS7vPcrAeyTSm1n/PnlQWWigCiYBJJDrqz6dicyTx+6z/r3WXntvRzQazUJRFEVRSgBn7lVRFEVRVj0qeoqiKErJoKKnKIqilAwqeoqiKErJoKKnKIqilAwqeoqiKErJoKKnKIqilAwqeoqiKErJoKKnKIqilAwqeoqiKErJoKKnKIqilAwqeoqiKErJoKKnKIqilAwqeoqiKErJoKKnKIqilAwqeoqiKErJoKKnKIqilAwqeoqiKErJoKKnKIqilAwqeoqiKErJoKKnKIqilAwqeoqiKErJoKKnKIqilAwqeoqiKErJoKKnKIqilAwqeoqiKErJoKKnKIqilAwqeoqiKErJoKKnKIqilAwqeoqiKErJoKKnKIqilAwqeoqiKErJoKKnKIqilAwqeoqiKErJoKKnKIqilAwqeoqiKErJoKKnKIqilAwqeoqiKErJoKKnKIqilAwqeoqiKErJoKKnKIqilAwqeoqiKErJoKKnKIqilAwqeoqiKErJoKKnKIqilAwqeoqiKErJoKKnKIqilAwqeoqiKErJoKKnKIqilAwqeoqiKErJoKKnKIqilAwqeoqiKErJ4IhGo9nc+8UnlURmYgKpzptIDw0gHYnkvngYh8MBh9sFp88P+Hy5Tx/gDAThDJbl/pqCS35XXgkHf+v1wuHxyg9U21cjLLgTqTQGkin0xBPYFPCjxus25UdRFGU6llT0srEo0r1diH30DhJXLiI50C9HQEF62EjxI5fPC2dZORyhUO7TBzgrq+Gqqsn9NQW3B+6GNXCI8CEQgIPi6HSJIeR3IoAiivb+HB6PtcgO+QqvCCwFUo1m0ZORUpvIZnAzEsO5iRhOj0fx/dpybC8LoNIr91JRFGUall707t1G/C//X8TOfIV4930RmpCIHIVoChQilwjQdN+JcNETnBbjJYrR4++40NPLZmVzTrgaW0QEK5Gl+Amuunr4mlvgCfrhaGqHo22dJZJGGJViJpLOoE+8u//WP4JPxyZwWby9X68M4bvV5XihpiK3lqIoysMsfXhzZBCprz5G9KuPED1zDJmJiFVtNx5fgaHD5qCAcfsOOENiDI035zZfO0Xs3OVlcNEzqBTPsabOhEMdfhHigHiZ/oD5jbOiCg5vzvMUD5Ph1YeEUUTWeIrKosPCypDmNfHwvhgN4z1ZzscSGJGKzW/IvfxRbSXeqq+yVlYURZnC0ooeSaWQHR5E7OvDiB7+BRLXLyEzPibClzHCtGiIUUQmJa+yH5tUDNl0LPfHAxyBShG6RhG8cvEOm+BqaBIB9Iln2AhXUxuctQ1WmyK9yJyYOitzhpaepniVWZfbvCqFIyP3MCELQ5qfjITxNwMjuC7laUQqTW657ip6iqI8jqUXPYpPOoV0TxeSV85j4oN3kbx6Fpm+++I9ibe02MKXDwUwXwRtzDGIeNGbY5sfX9PikTrlM18QzioRwsY2uNa0iOfoh6djAzybt1k/pUconmBWRJDJNE4VvoIxkc6gP57A3/SP4OOxME6KhxeTe5qW71T0FEWZDUsvejZs3xsaQPzkccSPfor46a+RCdse3zILBYWQxzEJhTouH6fl0Fzi9THBRrzB8grTfuisqjTtgyYsWl4rnmA9XC0iinUNcFVWmy04mHFaUWneK3ODBXS6kOZA3j3yiOj9TlUFflBbjldq9DorijI9yyd6xA51HjmM6MfvInHlHDIT4/KFiN5ienyFQATQhEtJSgQxm4AzJMJXswbOujXwtYrodawX8VtrVnHVr4G7ba2IpNu0BxrvkQk3xX6ey4wd0rwTjZuQ5l/0D0+GNPOh6P0PtVX4QU0FDlZ9O+NXURSFLK/o5Yc6L5xB+K//EMnb15CNRxc/1Llg5NjtK2dCpPKHSwSNWafGUU3C3dACV+tm/gFXcxu8m7bD1SCiWFUtXmIVnNW10/ZDVB4wkU5jIJHC4eFxfCAe3gfhyGRIMx+vlJV/01CL71eXY2dFMPepoijKw7h+7/d+7z/k3i89FDWnC06vD46ykMmcRCKG9ECf5UnZ6xQlclw8NrPQM82FZHncqaQ5j2xcPMDwGDKDvbL0I917H+muu0gPDsjnYdHFhJy//C4QlM0U63kuD6xPMKTZKR7esbEIPhibwKlYHP3pzGRdIx+XXL/nQ0FsDfhQ75MKk6IoyjQsr+jZsF1MRM/T1IpsSjy//l44RDToBRoLt5IEgcfK/oEuEXAa6IlxZCMTVlcNEbxU9z0RvX5kx0aRGR2U08vAwa4UibjVw0K7PkyGNG+J4B0Xz+5D8fK+jsZwT0RwJih6z4nobVHRUxTlESxveDMfO9QpXl7q2kUkfvbHSFy5hPjwsFi0Yg91zoSc00NXl39nTbseszxF6eDZugfeg6/BFQjAs3EbPLv2W6uWMAxp9sWTpuP5J+LhnY0nMCHXLckyMgMMb/77xlq8XV2O7eUa3lQUZXqKw9MjOQ/JyQ7hFZXyGkRWvJ5MIoVsbMLy+lac8Mnx8pjzFyPuaWSTCTmviCxxZIfEC7x5EZmJMbkGIogjQ/JLEcey8tx2SoesXJ/eWAKnwlH8cjSMM3J9hjIZ8YcfjXp6iqLMhuIRPRvTJUCEr7kdCFYAySQywwPIxhnuFNNH4VjJsO2P7Xi5EGg2FkO69x5S968jOypeLUeoGew3Q7A5auut61Eiff0Y1hxLJHEhEsMHw+M4Eo2hWyoIs0FFT1GU2VB8okfEgDEEyJFOXGL4s4kEMuFxEb/cANUrXfjy4blQ2Fw+010jfecKUj09yCTTpp0ToUqT4bnaE13o4SVE4L4ancDPh8P4yfgEBqWSMzvJU9FTFGV2FKfoERE3Mw5msAyOQMCEBbMTYRG/ISDFrEdr/MyVj4gZBY1inkmLwDPrM2llfk5MWKvQ28lkrOuRP+bnKoGCdy8aN4L3zmgYX4undyeZmrXgERU9RVFmQ/GKHnGK8Hl94u3VWQNFJ+LI9N1FNsp5+Oj55ARjtZALebL9klmf6f4eONjuF5kQMUwaz89Br28VCZ8d0jwRjuKvBkZwOBLFbRG8uULRe6m8DNtE9Gp1aiFFUWaguEWPiDGzQ53OmjoRgygy40PIDHWJ8ReBoFCsKnJeXzaDbCyM1P1rSN2+hvS9u2ZyXA59xtfVgAlppqyQ5i9GxvGLcASjGXbimDsce/N71eXYVeZHaKZppxRFKXlWRoaECBsNvWftRvhfeAP+J1+Eu3WDiEPazJSw6rC9VxGAbDQuHl8fkjcuI/bZ+4gf/xLp7ntWYs8KxmRpxhP4amwC74yE8VUkhpFM5pHdEh4HvT0uiqIoM7Fy0gLp7VVWw3fgafgOvQ7fvufhqqqWMxAjtwBDWbTQ22P/RG9I3rvFux1B7JuvEPvyEyTOnUSmv3fFCh9DmqOJJC5OxPDzwTF8GJ7AZRFARVGUxWbliB5hG18gCO+OvQi89WvwHXwN7jUdQDq5OoXPJtfFgf36EpdOY+Knf474kU+RvteZW2HlYIc0j45F8LOhcfx4fALdjxhpRVEUpZAUf5veVHJZnSapgzOYy9/ZaNQIwsrswD4b2M5nebSmUzu7b3AaJvmbYV/2a1wJw5dNZmkypDnPLM2ZYJveG5UhbA74ULYKM1wVRSkMK8vTs3ko1PkqfPufMf35jOFf1R6fGHOOTjI+gviZY0gcOYzUmePI9HUXfaiTd2U0mcTZiSj+emAE74mHpyFNRVGWmpUpesQOdW7ZgcBr34Pv4ItwrWkrjVCnGYvUiUzvXaSPfIjkqa+LPtSZkntybCyKX46E8Yl4eOx4riiKstSsXNEjuaxOd8d6+J55Cb4nn5P3G0UPVmlWpyEX6hTSExEk798DrpwBLp9G6ta1XB/G4mI8lcaNiZiZHoghzYVmaU4lJNdjrduFOpcTASY2KYqizMDKFj3CUGdFFXy798P31Avw7XsazspKEQYxqpzZfBV7fRyMOz46Cty5LsJ3EpnzJ5Ht6wZi0dwaywuvfEwErjOWwKejE/gsHFmUkGZIhG6tS0TPLaK3Ktt0FUUpFCtf9MjUUOeTr8Dd2IRsbMQSvlVKNp00nl1ibAyZrk54Lh4FznyF7J0buTWWF3ZN6IzE8d7wOP5j/xBuJrQNT1GU5WV1iB6xQ53swP78GyJ8L1kd2J2Z1RvqFFHJiieV5VRF8Tgc40Nw3LyI7JWzVqgzkhu7cxlgSPN6JIafiOC9OxrGvUQS0czieN0+8e5q3C4zp56iKMqjWD2iR+xQ52QH9hfgqqpa5aHOLDIUPRE/Dljt6LuH7I1zJtSZGVj6Duz5Ic3DIxP48fAYjkYWN9zqE0+/Wu69x4zHujSkUilEIhEMDw9jdHQU0WhxhJQXE3Y5SUtZGx8fN+c9NDSEuFS2FGUlsfL66T0Oqe2bsTrF63M2rDHDeGXFA0oPrt6xOrMOF1xeH3wha8Zwhwidc2xANFC+8wXMmKVLBUOatyJxvCse3h8MDKMrmURqkesatS4X1ns82B0KoMHrgZMZrosMhe727ds4dvQo+vv7kBGhb2hoyH27OqHQh8NhnD17FqdPncL1a9dQWVmJ6urq3BqKUvysPtEjD3VgLzNCmBVvgzMVmGl6VlMYjKeSycId8MFfWWF9RI8vITXwZAwOMVQOl9t0YIdck8WEIc1OqWT8WATv/dEwLsXiiy54pFUE75lgADtE9Gp94u8t4v2lt0OBO3/+PE5+8w1Onz6N0ZFRuN0uNDU1wSUCzGU1kkgkMDIyYgTv4sUL6OrqwoYNG9DU3JxbQ1GKn9UV3szHDnXufwq+578D38FX4apbs/o6sMu5cJQWzjDPjuuT5ybC5+rphPPqKWTPHkG2r8tkddJoFxpu0Q5pfjI6gZ8sQUgzn6B4dk0+LwIiPIs92S69HYb3Ll68iNNnTuPmzRu4evUKbly/YURgNYc5Gdrk+Q0ODZpzvXfvLibsOR8VZYWwekWP2Fmdm7cj8Do7sL8AV1P76uzAnkmJ+MXkvB7u9O0Y7IHj7FfInvoKmc7rxksptPDZWZq/FA/v9/uHcGsVZ2kyrHn+3Dl03r6F8bExhEIhxGIxdHd34fKlS0YQVztulxsej1fqlW44liCUrCiFZPWX2G91YD8E99pNcHi93xKIlUw6nUFSPK3M1JFOxONDNAzHtXPAhRPAzctAAbM6GdK8NhEzIc3FztJcblhZMJ7O4KARN7Ydrmlqht/vNx5PZ+dtDAwMmASX6WCFgyFCbsNOAKHnyL8pplwYPuT2KaSPq5zw+6R4+NzfmAgwk0v6+vrM62w8MP6ex8R17f1y4bYeuW+2m9uL/EkP0D4Gezs8p8cdP+H+eQ5sK7SvAX8/PDSEhFwjfq8ohWR1tulNhR7f5AzsfhMKzAz1IxsVw8BBqvNGOVmpOOX8nP4A3H6v6HxemxLbN3lu7M5gzjcNhxmkOgiprudWmjs0Z3ExSLeiCXw2OoG/GBrF6ejydA1pl/M4WOZHm5x7+SJOIEvB6uvtxdWrV3H37j14peK0betWMfARI2IJKVdr1qxBTU0NysrKcr96ANehUWfWI0XC5XJamZDyd6+IFQVjaGjQCBcF1SWL8aZyAmNji5URCvlNv6zPbfKVYcfwRNisw2OY+lsbimpUjiEi4sRz6pWF+7UFi+fGffCXdhslz5/He+PGDZO8Q7HbuWsXqqtrzO+H5LcDsnA7/C2PgaJuzmWadk7+nsdhzqG/3ywU7J7ubiOgLMf2b5ciOUkpDUpD9AgffrbzhcrN4NTZ8TFkRvuRHry/KrI6XX4fPGVBET0Rv6kGhudOoxGPwjHQjSzDjyL+joam3ApzhyHNm0ucpTkTG3xevFRehhYRveA0xrUQ0IBTWK5eu4YTx48ZwWlra8err72GsdExEbMRI16trW2or6//VkYjRWBwcAAXLlzAqVOncOvmTRGXGK5fv4ZLly7hwvlzuClick22f/XKFSMu3GdFRYUx+vmiQSGhd3bp4kWzLS7czpUrl02CTbeIRiIRN+JL8fJMU7nh/ine169fN9mY3D+PgxmZFE7un54WyxJDuBTOh0SvTyqNcnwU+fHxMI4c+RrXZHs89suXLhsRpNc7NDwkvy+TpTy35wdwW/fu3cM5Oebz587KsZ/DxUsX5TgumvZCCiLFzufzmWU68VaUuVI6okdyWZ2OoNSAmc2YziATHhWPL2x5fE53bsWVxyNFj1D4GM5NxiFVfDnfpPxIrgWvg3iJc4Hhy95kCl+MhnFYvLxvxHgvl+CRrXLO360ModbrgV+8p8WCRvymiAXb9Cgm6zesx7PPHsJoLrTYdf8+autqRWxqTfeFfC+LQkVPhgkwly9fxj1Zl7+5L0afnhE9G4rKxETEiOPwCPv+ReAXY8/wKY0+BYBCQ4+QgnXq5EmTSEMBjMtv0zmvyoQHZZ2U3COWBf6W2yD04ri/o0ePmszTO3fuyHn1G48vnbISVcZEwCl83A+9sdq6OiO6fP9A9HqNKCUTSQzIefX09Fjeo5QFnguPoVs+6+npRlVVtSxV5prxetDj5blTtC3BPY/797vMdWR/U14HbovrWMeQQnNzizkGFT5loZSW6BExCibUWd8IeMQQxBnqFO+H8/GZYI4sK/DBeqzoERPqFFGYGJElLOccg6OyxurWMctQZ0KMbq8YurORGN4bGsMZMXIjy9iG55d7tTPox3eqQqjwuOFZhAGn7TDdfREqejMUreaWFmzfvh27du02RpyhPWZx+n1+VFRWisfXakKTtofG31NsrognRC+LIkGDTiNOQSovrzCemT/gF7FKiqfUY0KhLI81tbWmPxw9NorB3bt38fVXXxkB5r6bm5vN97WyXouIQ4/8tltEi2IWKisTb9HqS8d9cZs8/q++/NIcLwWmvLwcdSJsdeKhBoMBs49bt28b8aWH2ijeXDAYNIJK0aPQ8vjDIraxWNScW1VlldlHeUW51KF8cm4MU/aIeN5HtZwXj43fcxsR+d09OYfjx4+L6J0xwugRQayprkGTHD8F0iXXbmhwyCQIxeQc2TWC4s1rqigLofREj8jD73BbCS6uhiZkxYBnx4dXdAf2WYke4bmL4UFCBG+4D1nxBmYb6qS29STSODo+gZ/2DeN4LI5u8ZbTue+XGvp06zwu7BehOBAKokzu6WKInp1o8c03J3D23FkRnTv4zne/i6eeenoy/DgiYsLwHD0ln8+LjrVrjZjRuyH0khgeZYf2XhEMig2F5I0338Trb7yJp59+Grv37MbGjZtMiJReJUOE/f0DWLd+vQkj0ujTA6NQfPLxJ0ZE9u7dJ79/A7t378aOHTuxafNmE26lV3nr1i3jcTauaZTfNxnR4zaPHjkiHl6n2d7+/Qfwyquv4bnnnzMizu3U19Wb9cbHx0TQ0uYcKVqBQGBS9BhCZfbqjp075bfP4803v4NduWPYt2+fOe94zltjAzDFnOfGa0XPlB7mhQvnjUfIc/vuW2+ZZffuXWYba9d2oCxYZgScFQoeK8Wb4q4oC2HxYkHFDrM6K6rgXrcJ/hfehO+ZV+FZtx0OqamvpqzOaaHHR0tE75ZjdV44huzlswBnY58BhjS7xMNjSPPjkXGcEIPWKwYxLl7QcsJxN7ksJhQsE/YTI288n8Y1WCOLbYDZ5tXc1IQtW7Yao94ngkNvjMkq9BKngx4LRYti1CJeIzu2NzRQnNago6MDrS2tRhTpBdFbomByW/TKNm3ahLdEIJ5/4QWTSMLfUpQoTjyW1rY2450xLEjvkgJFoaFHxmNilim9OXqXbbIuPUWeE/fP1w0bN+LQc4ewbt064/mlUklrmLscPCUeC68F16FQchs8di48Hh6/CfFKBSsWj5n98zcUe4Yx6TVT2Clmzx56Dps3bzHeZqV4jDyXhvoG8/tyOR9WOI4fO24SdRRloZSu6BEmtpgO7E/D/5wI31OviufXLMI3tzauFYmIvhmpZagbuHoWmZNfINt7f9oO7Axp9ongnZ6I4oOhUXwhnl4n23+mrLfUUOrkDOBeZNGjp0cPJzwehlP2RaEoE2PMUB0NP8OONND0cCiEDN9RWMLyG34/lYxUIGjs14g4UKTyE034nsLG79gWRpHq7bGSQghDoAyp/tqv/zqefPJJkzTDY6NnxqQQeqEUqFBZSLwtH8bku4GBQbMdCt3ERHgyu7KiskL2s8Z4cPQCeT58pRjTi923f78RWIZXGbLMh7eeAt/c1Cyi3Tr5Wy6E50ABc8s6HBuW15Ciy8qDacsU0eNx+/0+8erWmooFQ7JmEZHm+bKdkdvlb69eu2p5jYqyQEpb9AgfVnnoPZt3IPD62/A//ybcHZtzX65yaKSY2BMegfPyN8ieOYLM7WvGINrCx5BmXyKNY+MR/HXPEI5GY+gqolnPOe5mlSyLBa9FODxuwpI3blw34uIWYaKRptfCNjW+D4mR3ygeEr0lGn6r64DlXU2FnlMg4MfmTZuNiOWLHoWEYdEqEU+2bfE998+0fhtbhCkcZ8+cwQfvv48f/+3f4s/+7E/xR3/4R/jle++Z9jpbiGzYhkgB5O+5T26/rbXNeJT5MDRJb+ull17G93/wAzzxxJPm73zoqVKweS2mI1hWZoSP69HLGx4aNsfMhefC9kYKfzyewHvv/RI/++lP8OMf/9gs/+1v/ho//dlP8enhw1J5uGPWYfcNMl0lQlHmgooeMR3YK0TsNsB76GX4nnsFvh17RBDk8iRzmY4JJn6MTi7m8yKaucHpcsDjFe/N+D9zwA51xiNwXD8HXDwB3GAH9nDRhjRtaNBDIhKcVqjS5RSPL/dFAaGwMT2f7WjsQ8d9sq2J4seEEHZBYPYhsykpdFyfiRcMb9JrsZJRHoYVCnph9A5tL8uG721BotdoREO8NAoHMd0mZF+ff/45Pv/sM5OFyW4K7DfHrVCcKisqjFjaAsHNc7v0sujxUaTNftweI05Tk0MolvYx1NbWmbBpvjAT/p4CTc93WnJlhOtxf0kRelYAzLZFVLk97pcCzDZOCjg9VctbvZfrqzdqjr28PDSZBMPrOzUSoShzQUXPRh5AZ0UlPDv2wv+sCN+znIi2EVmpjSacHoS9ZRgJVGE4WGPeRz0BxN0BiE8k4pdedvFzOSl6cg7zSeRgqJPJO3134bhyBo5zx4De+xgaH3sopHmnCEKa+fBMy0XsqkT0KpjEMpMBXgAUia7cEGOxWFyMtdcY3du3buGbEyfMLAtff/01Thw/bsSH/fXY6ZuG/M7dOyaUOBUKAQeopqdDQz4Vbp/JSG6P1TGd4pUygyhg0rv77LNPTbr//fv3RDgSRpzYpnjw4EFs2brFdDPgdvIFgqLDzFB+xm1mpNxSkPLXIfybn1No2Z5GoZmrh5WS39vHnA/FjoLsz4k99+WUsuf3B4znyA71XNjeyDY+ZsGuW7feZG+Whcqm9ZwVZS6o6E2BRsjVuhbe599A4Dv/AJm9L6O/bjPO7/nH+PL5f43DL/9POPfk7+LG1rfQ3bJHvB6Rvfi45Q2u5AQYMUAMdWJMvJmzXyJ77BNcO3+6KEOa+dDTC7md5r7RiBYSGmR6HEy9p+GnZ8MUfXYCP3fuLM6cOT258G+GFJmNyJAnPRh6exSpqbjFw+KwcX3inbEvXr6g0KhTaDo7O3FPPB7+ze4ATOcn/Pyy7J9JHR0d7Xj55Vfwgx/+yGRwPnvoEHbv2WOEggkgNtQ0ngtFloJDeHwMv1KU2daXD/fJMKTpRycCy/a1qevMF26bHeeTcj15TRlKZZveCy+8gLe///3JLM63fuVX8L23vy+f/UCWt/Er3/seNm3abEKxhb7PSmmhojcFPlAczitduwY31x7CFzu+j7/b/w/xd9vfws+3vIx3Nj+PD7a8hg+2fxcf7HwbZ7d9D53rnsNA3XpIHVqe6uUZist4a2JMxfrnPpgHDHVSuNlZ/+YlOG5cMCO4MFxXLCHNfGj6KHghnvsiGUImT7C/GoWMI7AweeTFF1/C88+/gOeee35y4d/8nN/TM6Hnwq4D0yVf0BtnJui5c+dk20PGq7KxvSwmw3A4MQoDk1WYjUnGRq3xKbleU1Mztmzdiq2yMOOT67EdjYky7Kw+FYZL6+rrTDsirxe3xX5wDHvmY2V4duKbb77BiRPHceP69cnw6kJh5cTn9YlXV27e81z52tjYaNpEN2/ebBYKIcOrVvullEe521yPi6IsBC1B0xBPAX0pL74s24x3Ol7G3+/+IT5sP4AvGjfi67oOfN6yCx+vewbvb34dn+79hzi+84e4svZpjASrRfiETM7rWyqhoMF3uQGPzwjXgqCA5LI6Q72daB7th5+juBQhlDk/jegi9M0jFJbBoSHjvfH9unVrTXr9995+e8aFyR87d+4UgakwQjEoXhI9N3o4tjDzlZ6UNRLJPdNORyFjGxaTTTgW5vDI8KQYUcy48HeJZMJ4SXxPL4l9Au32NnpjPFb+fmTo22LL8CFDhnayDffFTuJMKmGfO4odj4Mjy7DPIRcOTUaPtVCix2Nm0g9FLhgsE1FLmfNnxYqeNI+RHilHl2FfwyuXxas+e9Z0xOc1U5SFUpqd0x/DtcE0PuhM4adjHpxPeTDq9CAtxtWRdcAlS8LhQsTlwbjbh85QLW5Vt6K7qh21mQQqoiMIjNwVgywGjrXShYrQ4xDjxbCkpzwEf+W3xzecF9ymHPtwWRXul9fhQrASQ26rk3Uxwa4Kh0JBbAn4UO+bPotwITDs+PHHH5nxKWmI9+zZa9qWmIDCv6dbmNpPL4sjlvT19YonkzKeFcON9BZpvBlSpAGnF8dQJzu2U2iYHMMRW5i1yDEwx8bHEAwExXs8aDw5bp8hRyZ6UKgoGFyHYklxvU3v7MQJMxYnx66k0FZVVxuPkF4UQ5sUNoZcu7vvm9+xPS0ei2NchJmiSSGmh3fs+DEzIkpZWQjt7e1ok4WhRR43hyHjOXD7Bw4cMN9PhR4uE3s4ligFlteMXS1sUWNXBoodhY39EF1yHKaSKOvyGjGsyk70nKyWojs4MGj2w/6AirIQVPTyiKeyuNKfxke9Gfz9oBPXUy6MZ53IyIMoT6PxLLhk5e+MiFlalpjLiwlPAGG/1Fo9ZcZLqkgnxPtwikCKt8cMT/7KbKPwUJw85WXwiWfhLQvkPi0AcryDwQrcrmzAmWAVBulFFhE1Lid2idfwZlU5tgb9ZjSWQkKPiWNsHj9x3IQa2Tdvz549xvgz0cIOtU1dmJHINit6Ucz25NiULikT9uziNOhMcslK2WD/Nr7SoHOEEnp9fO3u6jbrsg8c+8uxAzo9PXpC1AUKBr1Hti9ykGu279l99Cg0XI8JN1yHv2NYdv369UZs6BVyaLJUOmOSWig8PFZ2gmdIk8fH/dPz48gwu2Tf7K9Hz4znR9FjH0QOM0b4Ha/NVPh7ijgHwuY1YXiWHjC9O3p7zFolrBRwPQou2zjvyvmzbZRdRCiIFMm1a9eZPpAUbh2RRVkoKnoCQ1cx0aaeSAYf3Enh3SEnvkh4kBKxmk3kjOIXcfkwUN6AhJ8D6wZF9LJwi/i5OLOBrGM2swjCR9HzV1XCWxGC21dYb6w7VI1zta04L6I3XGSeXpvHjecCfrxUWYaOgNcY5EJCYTohHg87hjNlf+fOXabtjONTUlRmwhImERTxgtiZnSLl9XpEdDYYj4eiQmGi0X/iiSfE6GcsT01ElqFFDt3FkCUFkSL74ksvmVFO7AQUihiPhyLBwantsChfI5GoiJrbtIlxPYpZR8da0z5GYaLYULApwBzImhmW3d09iEQjph8dhY8zK/B4OV4mvTgeI4cn4/GyfY0hV4o039ML3C2iaLc35sMMVnp7bDPk8TK5htmlPA+Kr8nSFEHjhLRcj+FT2+sbGRk1YshxPLlvDtHG0WfYbUFRFopDCnHxZSgsMWxMvzyQxqf3MviLUQ9uJJ1IikxNitUs4Hr07DzpKCqTo3i+5waeuv459lz+EJXhHngyCSzGLA4OMbLBxnr4a6vhK3+QsVcIPmreij/Y/gK+8ZdjgEkyRcRmMcyvBwP4J43V2BEKPFKI5gNFhGE1jlHJQaS3bttmEium9qubDgoSE1UYKuQce3aSCUOen3zyCY4fO2ra1v7Jb/228bYYWuRMBTbcPvfH4ckoGDy3fFGnB0fviFMRMbOSfeDoTTEUWiUVoA7xjNjud+bMGaxdt9Z4bLanaB87t8HjYZ+/mAiZyTiV7TARxh7jkqHEGhEadi8gXIfnxRFT6P1SvDjGKMO3U7HbBtkmyAG4uS16avQ07WOgcJqBujnaioguM1mtCKcDwbKgGRKNQ5px+5q1qRSKkhY94+ElM7g+mMYn/Vm80+/ExZQbkSyHtsqtNEfSxjZl0BYbwRP3zuGF619g181PUTNyXzy/OFWKT7VZtxCwP1eoVTyBmiq4xegVAoZue0M1+EnrNvznDU9iQGrj0cVum5wje/w+/IPKEH6lthIbyvwFN4g0yGz/opH3iKDY0+vMxqM0/erE06P3xvcUS8IBoA8fPoxjR4+gobEB//x3/wUq5TuONsIO6Mbi56hvaDACNN15sZLG9kB6SBSftOyD22Cn74B4UhQZJoJQGLl9ux0tH5Z9em3cBgWSx8vtcD16YxR3LvQObez9UtT5ngI2dR0brsfrx/Ap17H63n37fGwhpWfIa27DbZaL4FPsptu+osyXkha9SCKDnnAK797O4N0RFz6Pe+CTZ9K1QPspmomYaNvayDCe7r2B75z+K2zpPILagdvIcDojNtoXAjEgTo8b1R0t8FVVWNmbC4SFISFe3Vfi5f1Ny1b8SeMG64si4xnx8v5lbRUOVYfM5LHFDo07kzps0aPn9c/+2e+iXbxAbadSlKWjuKrvS8ztkQx+cSuNvxxx43TSDb9cjUJkvztEOXxpoNdXjo+bN+G93b+Kqy374UuMw2kSWwoDR1FxekVEfQGgQG1uGfEYIrKtI7UtOFvRkPtUURRldVCSoscszQu9KXzYk8HfieB1Jl2Ii3vGi1EAzTM4RfjScGPUU45TDVtwsv0g7rQ/jbTTDVfy4c7A84ahNrbTcLbwBYf35IBTSYy6fbhS04ozoTrc8RYmXFpIeJaNcr4d4uG2+N0IzCLcWCx4PR7Tf4/jY3KYLUVRlp6SE71oMovucAafdKXwi34Hvkp4EF1AG96jcImOODNOdAZqcEY8vZPbvoeRUD0ybLspwGDVzNx0smNyAdrbeCRsUekKVOJEwzpcZ988EdRig7epQUSv3Sui5/PCT8FfAVjJGWUmi3Hzli1mHjq2nRU661RRlEdTck/c7eE03rmRxF8Ne3AmVbiQ5uO4Xd2CX255Cee2vI7+2rXIxoZF+B403M8Hlxh+X3kQTncBRM/hwnBlAy7XteGz2jYMsu1RKRhM+mA73r59+/GjH/2qGVvS7vCtKMrSUTKiZ4c0PzAhTRduJ50FD2k+ihFPGa5Ut+Hjza/hm82vYrBxB5KegKjN/AZyZid4d8APX2W5yeBcCFGPD13ldTjctBkfiZd3LlCOcBF6eYQVlLVeHzb4faj2uBdlZoXFgJ4esxDZBYGjk7DLAj29Qne1UBTl0ZSE6CVFV4ZiwGfdafxyYHFDmjMRd7rQ663AV20HcHTjq+hc/wIigWoTVpxzmJOG3u2B0xeANxiYt+hxrwmXB73Bapyq68C7Inqf1bTirttbdF0UbDj73+aAD9uCflRS9JbCTS8QFD6GM7lM1xVBUZTFpyREbyACnBwE3g17cGkJQ5pT4fBlQ24/rtesxam1T2NQPD/j7c1nWiK2BS2wPYj98fpDNTjWsBZ/2b4Dx8pr0V1kndCnwtvW7PeicRHG2lQUZfWzqkUvJTrSNQ58MpTFnw06cDXhNB3PedLLUc+mZ8Uhy+6LZ3W8YStuNe3CWFVrTrxmf0T0EjwBL9wLMPxRj9+END9tXI8P69fipIhfn8eLRBF7ICE5trUeF1q8blQWoB1TUZTSY9VaDoY0h2PANyJ47w448PMRYKhwXeQWxJC3DBcqW3CheR/u1m9F3F+FjD3K/OMQw8+hx7xlQRG++XVGTzrd6AtW4nRdB95v3Igvq5tNSDNWpCFNm1q3Cwd8PrSI4AUX6OUqqwuOMMNRYuyFI+Hws5mw109xJBp5fdS6yupi1VoOhjSP9WfxX7odODoM+EXw2HeuWIi7vPi6bT+Orn8W3U07EGe2ZPbBZKIzYTqk+/zwVpSL6M09w5IhzeFgBU7Uta+YkKZNq9eD79ZUYo0In6b6K/lQuDieKGeBsGagsIZKmwmKnb0+B7tW4SsdVt0wZAxp9k0Anw+Kh9cvgjcmHl+ReHj5OJBFWTqJA31X8PqNz/DU2b9F3cg9qlpujenh3HmuYBBVa1vnMJWQ3GJ5yGMeH4ZD1WYy3I/qO/BpbSv6Xe6i9/BsvlsRwu811WFtmR+VBZ5KSFkZcExPDmY9wpkZIhEzxmhSlng8Zma1YB9YBuhdUj7YRYQT5jJblpmzdkWJg2xzGibOSsFng+ON1tXWoaW11QwcwMG7ldXLqhI9Ct5IHPi6L4uf9DnwzpD1OU/QVOIy8j/5j8OEWR98G/Mpn5qpbVsckNN8bv1+yrfzxgxMLcL3jz79fWzoPg9XKvHtfefh9NPLq0B5S+OsPD2eD+cDjGYy6CurwbX6dvxV+04crWhEpwjoSsEv5/CD6nL8z62NqPEyGUk9vZngQM/0dLhYRUmqWFLe7cGkOfjzSoLHznAlPTIOYM059zh/IAf0tgfA5mLN0vDgueaks1u2bsX+ffvNINwUPnp4f/d3P8ORI0dlw1YIlNeE4vjMs89i27Zt5vpodu3qZVWJXv9EFueGgT+458BZ8fZGcx5eUs4wkcrCNZGCg8pI0YrKK0UwD/6VZj8GWVx5/RmyTgfSIQ+yPoeZHcgn2+VoK4XAgRRq4oP4d4f/Mw5e/xxVQ3dZTZUvpjfqgZpKhJoa4OaDOYuwJGd8j7q9ptP58dp2fFnTipNl1egRr6+Yk1by4ZXY6HHh12uq8G/aGs2M6Suop8KSwymFOAEuPRp6PJwkK5lMmDn9duzYgQNPPLGiwsOcfYGCd/LkSVy8cMFMtBsOj5tBvBmW5EJRtMia+iz/rqyswubNm/D662+Y6Z04RRLnGPzTP/1jfPnFl7kRcViQrML09vd/gBdffNF4htp/cvWyKkTPDml+NZTFL/uAT3szGIyz5MsDMJFGSlQvlRbjmZD/pa3wB0QEzdPxEA5kaAvkQXhID+TvrNcli6whYuiTxSGfZZhBGJCHI29aBr7N08vHkub6mRgO3T2Ot079Db7zzV/D4QvJPqcPsZQ11KKyo1V+NLMwEnaPGPcG0Vleg4tVTThW04KLoVrcDlasqJAmYQf0f1RdgR/WVOBNWYoRehoMu3EOvZ7enoemyWFx4OSznBiWE7pyFBaO0LJY/Pmf/1cc+fpr4xXZxpvCwNkcKHi//du/Y0J4K8Gb4cSynEX9woXz6JTXnp5eM2mu1QZnJE4cNstjs8/H9gw5pdGmTZvwve+9jfUbNpjrzvkH/+RP/hhfffmFfG/N0cd16TH+6q/+Gl597TUz95+K3uplxc+cnhQdG44DRwez+Fk38Pc9GYwPJZEWry4TziA5kECGaZvj8pBE5OGIyUPCRUQvKx8/vMhTRLeQ30tdYHJdeoVh2dFYGo5x8RZjGaTism1Z0iJ+afk6Lb8VPeUTZ7xAio75M2dXZjIvlJ6sCNzV2g6URwZw8NZRiE8JJ5/oKcLEaYS8lRXw1VTLd9NvMSNbTDldZpSVzqp6fNWwAT9r24GPKptwORDCmHyXWgHGzsYnx1ojBui36mtwqKIMoSIca5NGlm1MV69cwbu/eBeHP/kEp0+dxLlzZyeXvt4+I4TVVdUIiPGll1FobOP9zjt/L97eafFiXGafXCgSfX29RggOPffcihA9Xtdr4q1SwD94/30z47xU0i2vTo7d/kevlSLFhefFhZ9R5Oi1bdmyxcwEz88Z+j0vFZOu+11wS8XDYZ4xK5Nz27bt4g2vN/P+aaLU6mXF39n+qAhefxb/930HPuhOI9qbQFKWdI886ANJZBMiHjzLqcujnvfp1s8t7EOeEkHMiABCxBW3IsA1cTNvytITE4FNIDGWRDSZgWgsRB+nRlG/hT0V0Uj9bpx94p8i7hFPIB7OfWvBmRR81VXwygM5E/Rho1kfBr2VuFXdhE+atuL9hnX4OlCJ0RVac21yu/Bq0I+tPheqFzrR4SJBUeFs4l9+9aVpZ6IXx1kU8hd6XZcvX8aJb74xArkYUBB4HMlkSo7BK3Um50PLowt9cWF7a9093bjfdd98ZsRMyrE5F/k+mxvQgR5bTU2t8dA4oHdbW5t55aDenEWegqcT0So2fBJWHHwgEqkM7o9ncbgrgz+/lsK5GzEM348jMypCF5cHwnhyeWrD5z1/eRxT18/7TZZhU7p13D7DqFQ2KtyoeJeDSWT6EvD1xOEZiCMtx5MKp5AQr5D6az2m34bdKborm3Fk3bPoq+lAwlcmK9P9lC8E1ki95SG4p8nYZLtdwu3DuK8KZ9Z04Kft2/H/dOzBz+vacS5YhXExFCvJu8unXgzdwZDU2EVIvMZwFx9sJ+q8cwcXLlzA+Hg453W4H1roSYTHx8XDuI9BEUB6HIXG9vRSIsKZjNSiWHbyFxN7WBnw+jCseffOXQzL9ZoU79yDyKQczi6/c+cOPPHEE3j22WfxwosvTi4vvfSyeLTPY9fOnaiurlbRUyZZkaLHtOSwKMg34uG905nCz68nMHQvDojgGPHhA84zW4qz4z74HNKeRDPIigeYGZSatnibnr44soNihGRJjlnCl05kkBEvMCOCmUsmnaQ3UIVvGjejs2kHxssb4EzKOeX67rFDujsYgNt+eHOZZxS8UV8Q3aEa3KxqxuGWzfgbEb3/0rwFX5bXomsFZWjmw0saknNr8XqwnV0UPMUZjuM9YLsTMwp7xCthwogVMnsYCiEzBwcHB9DX22uEkr8tJAzJmfCeVBBMmxRDgHIs9uL1+uD1iQe4AipA9Fpv3rhhQppjY2NG7GzBI1VVVdiwYQOefuYZE67l8pyI3KFD8l6W5194AU8++aSZxonhSl4XRSErUvSSaQe6Iw788Y0UDt9KIj2UQpZtccWAPJdMhgmLokWYIzQi3l+/iHFvHK6eGBLyGhMRtEOg9P5sIk43evyVuNL+LHprNsIXHxPhi1k1XH9AXnMhSjGWWTGu6XQKEx4fTjWsxzsdu/Bf1+/Az+rbcD648ico5ZnuFYE/EPChzlvcA0v39fVheHjItCEZsZkGig6zDbu7u3Dn7h0Ryj7jmRVS+OjNsJ9ZR3s7WlvbECork2MKTC4M+TU1Na8I0aNnTG9vYsLqaG7DbEu/eHnr1q3H/v0HxMsTYdu8Wc6rycxgQYELhUJm4f3gNVkJ56ssHStS9O4NZ/D1jSSu3U1iWETFCF6RaJ5BnjFGPzN05RhmleNjMkyG4c+RJJzDSQRE+IIigG56ghE5B/kBk19iTi+6qlpxs3Y9blS24Y6/GsNlVXBUNYAzKxAmqtypacax1q14p303/la8ur+r68CnVY3oFK9vwhbHFYxTrsVWEbztQT8axNvzifAXIxStnu5u9Pb2iTfhsdqbcrDNyW53IoxQJBJJk3J/69Yt48HkZ3kuFAouDf3uPXvxyquv4uVXXsErr7z60LJn954ZhblYoODFRejCExPm+vAa8/HmteSxs41u48aNJjOTGak8Z4Y76c3xe3uh56uCp0xlRYkeNWQ8lsX57jQ+vpzAUL+IxUrocSFXOSOilmb4c0Ie3PE0PGNp+PoScPXFkWRCTCQNJDKm+8WAy4urwTocr1qLM2X1uBmoxkBZJcZ9ZegJVOCiCODnLVvx87X78Ncde/COCN4X5bW4KN+HV4HgWRmbTmwU0Vsf8FpTCBWh8aJB5jBW9N4GBvonM/5oommgmdAyXdeE3p4e07mav2XIs1Bw/9wfO1i/+OJLeO211/Ha6w8WtnVt277diEMxiwHbJTnayrhUCnh9jHjJ5xQ/nl9DfYOZgJfenX3NFWW2rKgSE2U73p00PriRwif3MhhlEskKJC7CNiIeIJcJEUEmvrg7I3DcjyI+HBUDeg/Xxvvwlejgl64gPki78LPRGI6UN+BPNj6Jf77/bfwv6/bjL2vbcISZmatA6PJhxuYrwQDW+70oL+LhxoaHh/HNNydMxiRDl6Ikpt2J/cb4N7MIOzrW5tZ+AMWykB7eVNgtgR4QJ6rNX9gORq+o2OG1oxfM9k++twWaXnQwWCZit8aMmqKCp8yHFVNq+sayON6Zxt+eS+DruymMiAAyeXIlwoAXj51LWjzAjJxLLCKGciyF1IB4fj33ERkexKh8P+pwQRxbXEpm8KGrAocDdbgsXl2nP4Q+j29FZ2ZOhYVxk9eDl0JB/FpdJbYFfUUter29vfj08GHT4ZmG2QieeHgUlo0bN2HXrt1Yt34dtXASrheNxjA0OIi7d++akUYWK6HF9jTthZ+tBKFgWyc9PFYM+H5S9OSfy2Ul5BR7iFYpXor+CaA9iKWAqwNpvHcliXdluSTvV5aP+mh4jlE5pTj/NzIBDA3IB2O577Im2WUg48DnjiDOO+c3nVCxw9y6cjHIT/h9eKMyhNeqy7E24ENZkRo3JlewLe/UqVNmtH52SyA00vSy9u7bh527dpkRWKzsQes8mNDCDE8K5aWLF423yDYspXRgGSl0EpMye4peOhLiFt0VL+/LOyn88kYCw8wQKdJOyvOC5Z6unyweRwwB3yicITGCom18KPhwGMT4DwQ8GPGsztTrKhG8XV43XqoKYXcoYLXjFKkHy/ti+pCJp2ayA6d4T8wi3Llzp8mW5NBjHOmjrCxkwp6EXgrDdxw1hd0XTGhUKQn4PLPNkvecryp8S09RD0PGIcZGI1mcEsH77HYKJ3rSHCGsqBI1F4R4sC5HAl5fGNmKUWRru+Gsuw6v5wpczmF4WBsMOJCpqUSivQODO/Yi1dQKV6BMDOjqmv9rbS6s+ZyIXrt4eMXaEd3m9q1buHnzpsnEzBdnDi/Gdrx9+/cbj4+i6PV4cPPWTQz094vH5zFtf5wSZ3R0BFu3bTPdCArZ1kaDyrAphXVCvNBINGo8U4rtXPqrmYQS2Q7HFDXbiVizN/B8p0uGocdq/4brszO+eS8Lj8lM+yO/4cKymz//Hde31x0YHESPSfa5a86B27T35ff75LpWma4ZvLZTf/uoZdS0Ew6Kh33BhKbN6C4mJF34Yci4TYZoeXyjIyPmGnJUHlZy2PfQdHORv8fle67Dfok8Bv6Gv+W9mnp9ZwNFldfaXFs5X94v/s3t2tucz3YJj4shZ94Tbp/lwW6fXsgx23A73CaP29xXec/rQhieLxRFPeD0mBza7cEM/vZ0HB+I6J2S9yseudqmXLjkbToKr38U3vIhRGsHka7qgrPsDqoGr6P2XgTV911wySlnqlsQa9+N3h0vIlq9hiUbcQ66K4WEG8zKw8JCtxLhpahwOfFCWRD/tLYSByrKUO8rXAEvNLYx+/TTT3H0yBGcPn1q0tPLyH1Ys2YN9u3bj7d+5VdM4ggNAQ3u7//H/w0nT36DQLDMGFqGODlTwG/+5m+ZrEoa20LB0CmNer8YVpYPGncOS9bS0oI6EYvgLKcW4jZopGmsed4UAhofZk4yMYYCTyObSiXFsCaMgeK5WkI2joR8ZtlAh+lSUFVdbcTKnrqHGaysCMQTHISBz4VlMMfk9329Pbh27ZoRBxpAhoVJKFSGtrZ27BBPmtmbrDzMFoonDfbRo0elwnJD7o0dkk4bYVjogNO8RrweNN7cHg04r+Gg3A+KTyweQ2QiYq4NuzOx4kCBDQQDJhLAa8okJF4fVpj4ntd7LkLC/TCxim3GvBd2ey632Sz3n5Wr+QoIz4nXjxW9SGTC3DP2h+RYshVyHhxUfa7Ha8PrNjQ0iN6eXhPy5zPG7XikYsOIiX1P5rPtqRS16N0eyOCrW0n8nyfiuDyUQaRw2d3LA690UmpEfieclWIsyq8CleIpVHSJp3cHWRFABxJwxZNwDyXh7Y+jMpaGIyii17AbydZXkSlrtjYlBtaMyiIPjyWACfP5SoNdEd4QwftedUiWCoRMR/Ti9fJoOGmEf/LjHxsRo1Gm6DF0SWNHwXvmmWfMiCD0RCgUrMH/p//993FERJKG0V6f2zp48CkcOnQIL738cm4PC4ftjKdOnsTZs2dl/2I4xBBxfEr2bdu+Ywf27t07K0/mgw/eN9uieFqi5zJCxyG/du/ejSYxRDTsFFmGe2m0hgaHMDIyLIZrRIxkbFKsAgE/asWo79q1Cx3t1jQ/HEj6onhd9IJkRVMZIEwG4rXhtimkHEvUhudDAaUo8FjksGYNu5KwYkKjyj6A9v4KJXo01DxmDjVH4eF1YX9Mjh3KCW45mASv41R4jSjmnMS2orzCDJtGQ8/24EapRM2lgz095F/+8he409kp5XTCXHfeN17756Scdcg2uf35wHO6cuWKqTTQS+UV5bY4HJyJbuzbZ0L7c4kmEDvke/z4cRw7dtSUNyN6UkZ9Xh+efvppM/IOK5Fz3fZ0FGV4k+UiLuX8Rn8axztT+LorjUEOyrBwkV9eXCJUlb1w1N8DGm8i23gO2Rp5FdFDYBhwS41XXDt2Uk+nxYjKQ5KWSlnMl0VMXrNl7XB6KuTJtzpBc4QW8yrrO8WwuZjVJgs/y8yhBrxc1IqHt0seaCauHCwPmrCmi8Zvlg/4ckDBY1veaRGD+/e7jCEjNJIUFhp1TlxKw2m3S3LhqP52iMtl7p3TvPLhZo2eQ2pxG/MxtlM5c/o0zp8/Z4SIXgVr/Kyh0xsrk1o5O3Xbx/YoPv74I5zkANkjI8Z740JB48wFHESbx04jePasNX/fTRr4+/dMRYBhRJ4v92+HMLlwhnJ6NzRy/M3169fMurZ3aK9riZ2VvZmvE3zP/fJ7rmcf12wWO9zKfZsKaA4K0ULDmwzJMbHpyuXLprLBqZBu3bqNLhE8el30jCisPCceP195HFxYOYjF6BlOGEFmeHegfwDRWFTWTU+Wi9l4aBRaZhTfFS+aowTxGrHMcTscqaempgZl4p3NBd4DepC8V5yrkefIfqksU7zHKamUUFwZSWBZnqsw8XpwEPbjx4+J6B0z14D3a0y2zbLR2tZqRt1hJWeu92U6irJKzVyVcDyLOyMZXBLhi9CJySukKwoeNxeXnETZCNB6DZmO40i3fC6idxaovgn4+y1BdLCwiNFjFFcexKzYpAmvE2FnRB6MO0jG74tHN2WEfjFcbjFkXjFC9uLxB+F0e/KW4uqMzCPhuJqbRPBeKy/DkxUBI3izMcTLCY0jjRvb84bEoCQS7ENmPUJsq2NNtLGx0dR+88+FrzSmHDqLGG9P/rEGznE7b92+hU6pmdNLKAQUKRoLhh1pUGhsaUQ4NigFiQZ+NjAs15ubG5ALDZ9t6LrFo7h48SKOHvkaX335pTGG169dm5zRnOdiGfS4Wdg+w+1RdKKyHW6DC4/LXs+EAGXhe35GQ21GNZoCP+F52evPdUmLES8UPA5eE94/iv/X4r3ScFP4bty4bgSH19slz+DkmKhyBqYMSLng3xQJere8HvTUWL6Y5HTs6DETQuccjRQz7ms6TzEfCpS55nKefLUrBqNSWRkSMeG1nys8ft5Penq3payy4mNfS95rDqnHV+6L5WSu8Dcsl/dzHjK3a5U5q0JA5hs2nY7iFD0pkwNyrqdF8A7fz2CMw4wV5ZE+BpZP2hf2OQiKsHWcAtq+AhpOiwDeEX3jDZUTc7AGlztB/mZCvIfYw4YpC6kdTlxDKipe4mNw+XwIiOG1F3+lGOFZ1BKXCibf7qOHV1GGN2orsElqh8XcH8+GD+KIGCYaOIpfvnjweWTozSne63TeGtvBKHwMy/F7GjkbegIM9VEUCgGPkwaSwmvEN/dqvafnmVtxllhRhQdz1tFjZAjvi88/x6VLl43Boy229/M4eN2iYkTzvbn85VGGnSFKhvWn/mYuiznYAkHBO3H8ON5//z1Z3pfrcVHEa8S6XiJm1vUQT1LuR1KEnOc8NkbPc8yIEQ08xYnXgTfGnjqJx0kv8cSJ4/jpT3+K0+K9UxTN8T8CekPtHR0m2ccIK49Dtsn9nJWKCUcDmivcju2VMjxM8THlSbZLwea2+/v6TfslKzVzhdflnpQn/paeov38sD/m1q3bTBsuP59N2ZoNRRfeZMZmbySLv7qVxke3UrgpwpfhQ1oYkV86WDaDY0DtXaBFRK7lnIjdNaC8T6otUbnysoKxPnknJ7VaB8chG5MHgKL30MMpj3tyXMSrDO5AhxRmKRg5L+NbyHat0Ke9iNGiZ5EXAjWLxyv2Y4mSYOSY6IHWi9jtEGF4vTKEZyuD2BoMIORxFeUwY1NhFt6t27dxTmrxQ0PDpiZKT48CxpAY22DYIZ2hTbY75cMHmYaNho4LjZ8RITlthrL5wHOIMCbCLJQzp08ZYaYxtcqYIPeYBrG1pQV79u4zx/O4mvMXX3xutsNzYfnhfxwTlWWRbXb0Sli7Z4iXH/NasPM4a+U0hvbCffnkvrO9Z/OWzSYMRq+Y58z2NCZZ0Duurq4xr2WhMiMY9KSn4pLyzPOora1BXV197nezW7hPhmW5z6R4weacBJZ/CvFcw5v0qK9evYoPP3jfZPKOjIzKdsUbyxMmnnsoVGHa6LZs2Wr6bnK6Iw4Vx5A2kz/YbheS4wqLEFJUeK94byhwCSkzvE4xhjrlu3apPLGNbyZYxtiWR3FjFMGIqGyLZYxivH7DetO2OxeviaLGjNML5y8Y75Xjx1rFgXaGmcis/GUn2yO5cPuz3QfDmPRo79y5a0K8tFe8hixH7e0dJrTJ6zeXbT6KohO9mHh1t0cz+I9nUjjTLQaZQ43xPBd+rouPHKqUAfFkRKDYPlcjgtchgreB3t0Vq92O06o7WJPhQzXlpJIZOJitE5ZCRXc3H3oGyUH5aRkcgTY43fLqnOW0QVJQjOCJ8XpoEdGz2/5sgeS6fOgKhXnoXNbkn5wAd1PAh9e9LrxUXY5tZQFUecQoFqAgLzY0jN3y4DOEx+SLaDRi1brl0PkgMqy5V8Rk69atJgtvKlyH4sCQHdu9aDBt4UnJ52Njo9izZ68RBH6+EBgaY4YdjZW5nyQnetz+nr17J/f9KKaKnvknwkbvhu0uFH3CbdEQU1A4GDQzRCvEo60UkaNnSxFhWxIrA5s3bTbDs1Hc+TtmLdaI2LE/o52lR3GiweN+KFD5xZFdFtimSMPNhevPduE+mdDBSgcNrR2ano/o8d4zSYVtnp999pkRJnPfeE1l4e95vVkWOtZ2mIG+nzx4EE899ZSZHWLnzl3YuGGjEb22tla5ThUmk/VBCDPPwMvfFDAeN4XTzuqcDh4XF4aZ6SnaFV6WPbbxbZLrz+vGysjj7j/hsfDcbly/bmacZ3lwuaXsyD/CV4bRuU9WXvgc1Ms5zWX7jBR8/MnHJnOT27Erkrx+PN51ck94z7m92WzzcRSd6EVF5O4NZfCLM3H0DYtRmUYbihY5XL8cb8gvxq3xJjLNp+FgKNMnxkdqwA/EbgYmpPbJuC4bNadibrgbWVcAGXm43L41Inxza5D+FrJNCp9HCpeHD5Is5gFJFCYTlAXUJ4bQGwrB7Q+YtsVdPjd+oyKAjQHOkefKeQ4rg+vy4FPwLl26ZBkmHru80nBvEAP2zLPPGiM31csjXD8ixoMhTLbZMFT1kGGV71nzZ0o/je5CWCzRm0R+Z4ypvNL4UqRYI9+zxzbsT2P79h1GRJgtukMWGvntO3YaA0ZPgCLJ3zG5YpPU5Fmbt4WM4SxOi0RDz3NgWM0+1qqqSrNtZvQdeOKJyd/MZlm7bp05/85Oa2ABUyGTf7w3cxE9GmYeE7Nxj584bu6ruZ78jWyLBp/nSIPNTNfnnn9ejnm7EQSm+PPced2Y6s/7bcSYXUnkb/7Wbq/kcZnrzuvN05e/o5GoqVBQBGaCx0LPzLTHildmQsKC/Fx+12gqJjw+7utx8FiYZMKEJZYpeou8NvnlgcfJ82HFhhmoPM/ZZpxy+4wYfPjBe+aZMP1YBe6joaEer73+hrknFPrZbG82PMICLw+94Swu9aStuejo7BTmPBcfhxxsWRip2nuIt5xHpv2klLCbyAbCUgrp/vNEHnMyFDuGN1k6p4M10+QIsuOXkY10AokpSS3zgJPTOqSg2YtLxMkbKi/YYrJJZbteecBe9bvx3YAXm4N+VEht0V2gQrzYMGTEB7Kru8sYYhq9fFizZdiJ3gQfzungQ8z+cUzzp+EpF+PH2qxtkAgNMQ0Lt29EtUgxBk+Oj+1U60RImE7+wgsvmBnMKXA0UlwmBWfTJiN29PAY4qSB5PWgZ2D33aPBtBeKIUOcNJxTxYcGneJAw5//m9ks3C5Fh6HThVxfdoanCHCSW7ZlGVHicco2acQpYqxYsNvKbqkI8LwpMrao8Zx4HrwOvAYU2UYRMXYlefbQITz55MGccHhMGbGfEobE2b+Q3RHoaee3KdtwuyyD1XKuVVW5rglyXBQMftfX12u2QdGeDVyP7dgUUWbX2sLDcmuXXZ4Pj4UiS2+V18eEaWcBE31Y7tlObG+V3n15eQhrmprMdTOVrgLaiqIRPZbBpBj9m4MZHL2XxjijbkUnydPA++6UG+yLADX3kWy5hIn2E0g3XgAqegG3nMRsbpiIHXXzsaRFRCN35OUm0vE+2b8VTy8UDIPmZ4IuZPGI6DnkIQ/J+W9wO/AjEb03Ax7Ui4fnYxx4hcAHn0amp7vHhCVNDTnvnjY2NhjBYyiPhmw6+NDS6NEAtrW3mTDbVPFkY/49MQAU2WIWvXxjt2XrNjNj+cGnnjKzlNMDoSGnuPF62Av/to3+46ABZRi40PCa8tpOve5zhe2YTArhiDFsa7OqAVZ54H3mPT5wgBPcHjAhW3rYjzPa7LfIPnTs5/nEk0+aShSvo6kA8XrL79lfkZUuhi3ZZjed6HE/LIMUC0Yd+LcpS/JK0WM5vndP7NQsyxjbhVnm7xvRC09WQqwzlm3zvVTG2WZIj43Cx5FvZpshy8xPet48Fh4f4XkxEae5ucWEs6dWfBZK0cgKm7AGxzP4pjuF9+6IS71SMjZ5b33j4tXdBtYfAdq+BqovAZ45ZDExgWVcajrM2pwFUsdGItmDVFJELy0PHdv7ipi9Hgf+XZkPz4iXVyOCt9Kg4aHwcRbv/G4FfOj5QHK6Gxr0x0FjxFo9DRqTF4zhyTMOTGRguwvbUOgxFCs8ZnphNO4bxIOjYS9kdl2xw/5zTN1nmyNFhXJGYaLRrqmpRXMLQ3xr5HrMvaybdkDxfDeIh1wjr3YI1hYYztDB7gszdT3hPeC9YUSho6NDfm9lgtrfUThj4jGyK8B0v58KvUt6Y4MDVqiZ4ikKJZUXJhQxjG95Z/RI+YwwiYZtj7OtWIyPh02fRK5v2lhl23xPT5+VyZBUnGeqSM6X4hE9uaPjSQeGI1kMhbMmylfU8PhYaELDJoyJ1tNWn7vAgFg3Fo45nIApzbJ+fJa1W/HuspF7SI1eRWLkJrLJwvTvKjQsqq/6XPi+34MnxcOrY2YfH5oVBMWH3RMYgqGxiUSiVijLGCE+7PT0Gh/ZxmJDA0lPp6KCSR6V5r3tATALjkaFtWTux2ReFhkspjxnHjdDeGzDpOAx/ESDap/LaobeDjN3KXg08vY5M5zH68CO/x0d7cbTsj2XucDryLa+9vYONDc1ozLXvsvrzv8zIYX7Zp+7hJSR6cSF26CXWFlVBb8cE4/DyKZ8TrHj7zlCDI9/JmyvmEkm9N4YfjSeoYgbvVsK6oEDT5jtpmQ9uRBmv5Ynec9cJ/5+JkxboXiQTA5j/1Fu2zxXsh2KHKMDdvs4t1tIikr0hqJZjPNZ50RzvMfFijk2qYm7xZurEw+v+YJYvvNSTRuUK8oaOkM4szQA3BY74DKcM8vakQlpJqSmN3YNsaFzSCdGrM+KCDuk+asrNKRpwweXI2RcvnTJGABmqvFB541zizFhGxHHgGQW3mzhb2iQaJhswygmwxghGgIaDXqUswk/LS1ieqWMWmHadjz99DNzOu/VgBE9KQeslOQLDt/TQHP+RFYIeI/nWwngdhguZ7mqqqmhDsilt8oCywTLBrvPcCDxmSIC9BgZUqb40vOjaLLcsjzTE6P3Zjy3GcgXPYb1TduiHAgHC6CHSE/04MGD8PqsdkfCyhAjFbYX/KhoBb9j5Y6CZ7WTW8fHxDZGDVgpZIgzv2JYKIpG9OKJLC7cTeLesBhvMZZy/sUJyx5Dr/5xoOU2HB2fi/CdkWMes47ZZGjOAd5sdk6cpd49RKYfjtgpZBL3kE2Fcx8WB/tyIc2nV2hI04YPJ9tPjhz5GqOjYyYJgtD4MzGC7TYce3AuIRj+jgatta3NGDg7xGmMjBgCzrPH10fVlJcFMYQ07rW1debYWROncS0lKHYxWaarkNA4e6R8zCesmU9+mxyNf77Rp9fDytG4iC8jEDN5axQORiCYVczyRk/U8hbZ744JMTdz42c+GnbtYLubLfAMtzKE21DfYI6vsaFRykDAlA2qMz1QVtp4XI+qtHF7ZnCCPGHk8bESyMSmquoqBKRsFdrLI0UhelERvK6xNL68m8L1Ebm4PKpiFD1zD0WgKsSzWnMVaDuCbNVdqZqJx2eO2ageV5o9jONGZJtT++XNhqwUrMwokpEbSMXuSUkSN3mZ2/fskObbKzikacOHtvP2bWMgWMNnVpnl5TG5JW4MC0eMYChmLrVRekoMh7KLAkOdVrjUgvvh/pjUQq+v2OA1YVYhvQcTNluh93a+sL2VKfz5nh49Hc5iQe+OfRV5bRaCEU8RPi70dAivO8sey4oJg48Mm6zKmUSPx8B+kgw/2wkxNjx2husZSp8J7o8VPjPzQW+vmRaKeNwe0+2DosxoBSdLZgXO9uoY6uQYp0y2oUc5EzwGeoQcXHoy6UX2QZFj1mmVeHnMdl7dojeawam+DO6E5eIWxVFNg52l2SBC13wBjjWnpEolN9aE7eYQ0rRhQaaXF5UCwxDnfMimkOLwZBNXkGU2ZyYmny2P8JXLw2qFND0rOqRpY0Svs9Pq0yUPn23gWSNliIdeDlPxZ5PEkg+9O9aSt2zeYmq1PjFuvPtsyGfbCTuvm4GKZ1ETX07yDWmpQMGhMbdET+6alAmWE2uePytTlaPPFAJ6VVZ470HZo/Bx35x+iccxk+ixQsKMUJYzJoPkiwd/w64LDJEymsDjnwo/Z/ljCJLddWhTuB4rPBxSzw7PM9t0zZomKymG9kyOk54wB3GghzjdtgmvI58thk9tL5Tr8rhN9xIRVT5fq1b0ElkHIhmnGaayqAmKwDXeBtq/sfrgueWhZzhzriFNwuclKb9n++VCENFD+CqSQ8cQGTkqzh67MczcQL2YMEvz35uQpmdFhzTz4cNs12KJeTjF2HNGBYZ5WMulxzdXmMXJCWRbW1tQLjVyY1TkH71Jhn1YW+aoLzMZDWV5YNYivSirEpT7UGAZsLtl2CHwhcJtVVRWGEGdj/GnYNr9GU00Qv6xPFmhxdikqE2Xxcnyx8737IZgQtgivPwtt9nW2ma2R0/U7qJiQ9HiYNdnzp41A0hPVzHiZ1xYtCmSk4Iu58h91dXVmmvJ62x/V0iKQvT6xzO41pNCjAMzFxu8MWKQvK4JuMt7RPSuA5Xi6XnHWBUzhUH+Z607H5jBk5CCMe9Tl9oVsznjPUgPn0B86CJSYRG+JYT1WjtL84kVHtK0YU2XNdzOO50me40Ps7Fy8qTSSHDGhE2bN807u4wGgw82jRKNW7648cpxHMeBAWu2gnzRVZYX9h9MJBOmDOTdMjNNFNvyGAYsVEWFA5hTZObr7bCMsfsDhWmyo7pAwWFHcwoap0OarnxxNoZbZjxRa7g8nixHS2E4nt1t7FFrKFLcPit/psuBwO339nQbUc0PA9vQQ+W+R4at7w2yfa8cb7lsv7au3oSK53vej2NxtjoH2JR1dziDk/dTCC+Pg/JIeIHcjgw8/lG4Ku8DdTcA37B8wYIyj5DmJPJgMDxivD0rNDA/ZP9OHxxp8QrC15EYPodkuFMuLPvvLb7vnB/SfGMVhDRtKDZ3794xQ4YxTEODZteUyZYtm02SAI3ffBa71sxaMkVvsrYrr/QUmAVnDEMuBKUUBwwN0pOhUNAzz4f31L63xQDLF8OQDKHTM6OIsnxRmFm+mTXJ9rqpose/2XbJzEr2u+NveE5lZUHUN9Sb7VHs+DmFlSOnrF27TsTR8gYpcvw9uy+w/PKa5MPP6AUytGlnkPJ3PtlmdZXVVWGuTQZzYVlFjzZ/Qry7K+EsvhjNYpxlZdll+GHEgUG5P4NU7RAStV1ASLw9O6y5EHiu7Iw+2755j8PplUMS8UuJKEfPIBO+aQnfImN3PF9NIU1Cg/D1V1+bxBJOcWJDQ8JaaEPjGlRIbZffz2ehUWAtl2nZ7IRs2m34T14peux8zJEqaJQelVquLC0UPU74aryXIhG3maAosbwyIcQOF1qRKcsbYxYn5zmkKOV7Y7YnxolirdnvrRkf6usbsGH9BlP+6f3RE+M26eVxXFN+xvX4OcO9HJKME85OenM5WJ45wLo1CEPahDX5O9vTq6mx2vMWi2WVGJYZ5lxMiN0fFfv/bSd7mTHlIIGsZwiZuovIVnIOPHFHHSzsC/RmuAluf74JLN9CjocFOhtFMH4fa8Jn4Y6LQC+S8DGk+doqC2nmwzaN6zeum/Y1E97JQQPAvzkE1ekzZ/DVV1/Oc/nKDOjM8RtNokAeFD8aCgovJ2rlK42tsvywSwINvSkTU8q7XTb4WgzYx8PUf4oQ39tBGH7Hyhe74/RJxYrzG9qwPFLwOLSYfS4UJXqLdhu2OX+BAsdoRZV8R6Gyr4vL5UZ3dw8uXb40WXa5DT5Pg4Psn9djxM8aW1TWl+vKtkfTxs0hDEUAF4vl9/SS4uwkmRwgHxTK/hcKOZ60K4JkoFcE7yoQFE+vEPA8jeJbfxYaX3IIleGLCEZuwBnvlwstF7mAtdLVGtK0oeCMSk2U7R3MppxqxPjwch41ihenlZnP8umnh/Hxxx/j7LlzxuhMhfsYHRnFlSvWJK1Ta8vK8sAQHI0+PSgaaxum3TMJiZ2rp5aX5cS0u8nxlleUm4iFfWz8nKFLZnEyqsCO7jacGb2np9d4YLaI8XzZ/swxYyfFLQfbtZlww4xLvifcPsXt9q3bRuhYnrkwrMryzK4KduYoD4kDPbD/J0ehyRfVxWBZRS+eyuJSdxp3+9JIRTIifIukAvNFrk6yYgyRpntIl0mh4Fx4hUDO02RuLlJ4ZDgTw7VoL6qHj6J+/BTSiUHZV+E8Bbvj+VOrLKRJ+BCyFnr/3n2rJir/7AZ6wtovBYhCdffOnQUvXffvTds1gUbDHnJK2/SKh5myN2nYea9o1Dn7RDFhPKiWVhPiNB4U7Y4cPMsXy3g8ETchTpuu+124fv0aMjlPj96tNR9ho9kGzz0ftr9xrFHOlch9mRkWzPbT8qxYXTzo7VH0WJb5npUEbtsWYYqqVwSTAr3YlYZl9/QiiayZODbLLMbF0YD5I9c+W95j5sXLsn9envFbECx0PPlCdFmYhqS4zRMifP1RdnA+jWT/h0iPX8FCpyKyQ5rseM6QZv0qC2kSih69OM6dx/fTwY85kgQf3oUuNALTjkgv15XfcWQWhqCYFDDT8ShLiRhqJ8ddnfxrsk0qLveTfdQ4w3khYJSBc/WxnNidw1kJozfFqalsj/NxsA2OySYc6JyiRXjcLF8McXKYMQo2BZAVvu6e7odGa6HXRS+Mk/0ylDlV9Ewmcnm5CX1y8HVbQClerAywXY+VRCbIWOW517yafo4Ct8dj5ADT3MZihjbJsooe72NCxC5TjIJnExwA6i6LxWcyQaFETxamrZrhx6YxeAWA3T170hH0T1xHcvAwUiPfIDVxSxy+MdmneH0mnjx7GNLcOCWk6V1FIU3Ch5U19RtSy71zp/OhGufUTD1j7KQSVJBF/hHuw94PP+Px0Bjdvn1bPM975nNleWGRMPc+9zex7xXFiZmdttFfKNwWQ5AUJ/YNNaVDXulpUnxmGwbkesy45KwY7Gpgw+M07XoiSGzDpug9yKp8EE6nsDLZiuFLbmuq6PEYGPa1OsI/EEU+P4yKsBLZ19+PpFwfhlIprKYSlyvrXJ9Dpa0Rb5HdH2Yj5AthWUWPdr9/LIOxiJw8bfDDdmX1QrELy0KxXwKyInKJkeOI9XyCSPcJZCK98uHcwp0Maf7b0OoMadowDEMPj6Po57ehmYdTamj8R6PH1O/FWMw+8ipB9CBo4K5du/pgtnZlWXE5rclfPbkQpw0Fj5OnRqIRa9aBRYQiSK9yLuWBx+oP+Kf1ouil0julKDGhJf/4JzuMi+jRm2N5nC78SKHiIAscsIF9Au1qgVWxE1PHbhCybXaGZx9A+9rxHPhbDtJtBmlYApZN9Dj0WHc4g2NjWdyKy83jNfr2tVx+0n4p0ZVSMgroctOuUfGXzIiJMU2PIxO7jvTo54iPnUSKM6+nxXvlwkSXGXgopCnLagxp2tBwsQbKkVBYC+YDz0LJjsd82NtaW7F9+3Yz9NJiLJyuhQ8+EyKM0Mq+ORSVNf5hj9VeVCAvQpkf9Eg4wHjQeDyu3H2yhINiFJmIWOHIvMrLXOFvGRYMT0yYufuILTS2SFCIpiaUPAqGRNeuXTvZPYZwmww5dnd3mWHvurq7cevWLQyPjMh+OGJKxgypxpAoZ9MoC808cwTFlF4ax+Wsl3VZieOxclaSvr5+3Llzx0Qs+gf6kYg/ED3CTu/sDsEQ51KwbKI3Ecvi3nAGZ0fllU7Hsh3Jo3EkA3BF6+BI0+VeKpFaJNJDyMbPIDF2AsnwJTNkGZdscki+k4fLhD1TstALjcEnnzUhjh/4nKs2pGlDQ8PwDgcT5iv/tsNYNCwMC23cuAlPPPEknnvuuUVZdu3ejeamJmMs5H9m3zwCDhk1Mjpiask8NmX5YGdveiVsu2JSC+8TsQWEoUGTuBGffiaGx8HfMMrAe83KDsOPhjyxYWizurrmQd+7WUCB7OhYa8KcHo8VPqT4cVJZzopAsbtx44ZJYGF7Ho+DC8WSYc3HdRg3IdCaGnNtGhobJsXYmu29Dzdu3sDVq1esMiznR9Fj2aaw8jpylBe7vXGxWTapGRPvrm9UahLjaQSKcfixHJ6EH8GJSjhNu+MKr2U7PeK9BOCIdSM1egaR4S/MEh89hcy4eIHRbtG9YSA1jmzkLtoiN/Cd5F1sd6dWbUjThjVr9oe7Jg99/igS1gj61qSWnCttx86d2L1nz6IsBw8+hW3iSXJ/dm2c8O9oJIpz5859q0+fsrRQBCg6TNHPFxwaeVZILl26KOJxXTya6ce0fBwUTt5jzt/IdH9bgKwKmNV1gJmS68Rro9c5W9GjyHBdHjs7qxN6qfzHfVL4eOzMJKanShFnxY+/YYWPgkbhnAmuz30Ey4JGvHicRthEq7kddlRnn1R2A2II1S7fiUTSfE8PkeezFCyb6HFGHTlfIybOYuuqwMORxeV1YGdlPX6zZjue8jVjjZM1HaYjL+B4mQa8bOcrJZCFLSO1UBG+9Nh5s6SGv0Fq6DPUjHyJcvEC42NnEB/+ErGhrzA+chJ9YzcwGltY5mcxQ6PCbDJ2IbjT2WkE0A7j8Ds+wKxZNzQ05hrrQ4uymJEt1q4zSzAYMIJLuH/W+M+cPmVqyjRSyvJAcaNR5wzprAhR2EyIU8oLu7PQ07t27ZpZKB4sP3OBIWwmepyWe81h8FgWuQmzD4FlwRJda8Dn/DDh4+C6nGNvbUeHESO7/ZhlnTMucL8sZya0L3aC22d5b221EmC470fB7bBjOfdBAePveezcHr3fSS+Y10X+MYzP9ZhVag9gvRQsm+iZiyELM/aLSvPkWHhRAi4H1ta58FrzGvxu8258p2wLtrsaUA6X/MutOFfkJw5z0lLY5h/yLwzpCTiid82Smbgsnt8xlA0fhU+W2MhRJIaPoX/kBC4MncHJgTO4MXYH8TRTp5f7wAsLjRJrmvTyOIedyTJLpsxDbxsaZqxZg/ZWmfeLBQ0L+0Ox3ZAiaHsKNFYTExFcuXIFXV1dD0JeypJDw857s23bdtNR2xYdE6qTfwxN3paKE0fSMVmRcq9mU0lhGeRvKQycZ46JSyyTk96ilFOObcnwKsONPIa5CJ5NS3OLCPZm81sjbvKPbZMUV3ueQEv0LK+WbXkMuc+2/ZAVAnqinG+Pv2fFjdszbZRyLZiAY3e/4OcUVQ7ezu3bFc3FZtlELyH3MpzMYjSRRXTuUYDFQ2y6T659Rznw757w4ne2V2JdWRteDR3A64FdeMLVJMInl20hoU4KX0IehCJS+7QUztvJMXRH7sExfl2OLYJh8QjPRvvwUf9pfD1wFvcnehBLr66RQWhsGJZiDZTZd8wy44NqBE8eToZ3GNpZv2GDEaX5GJrZwm2zxrtlyxbTZsRjI7YA8zjZ5sIw0Vw9CKVwsG1r3bp1ZoJW3i/C+0MB4XBaFI/Lly/hvV/+EhcuXDDhSvtezgTFpksqXefOnsXZM2eNx0fyw9wsf/v27cPOnTtN5ehxntd0sM2Nc0Cy/EwKqsD3TMThcVozRVifc9JYdkeYrSDxGOnp2Z6o2Z7YOXp3Jmya+8cd8Ds7fLpUgkeWTfR4TZnAaJyeYnh+eQyyuPwO7Otw41884cOhdjfayj0IuaWQB1pxKLQL3yt/Ck962hYW6uRPisq9tQ4plk0hztnXM1H5IC1eeAbj8velSA/e6TuB/+vGf8N797/E9dFOU2BXg+FlLZwD3zJsyLY88/BxyT2U9O4Y3tm4caOpXS82NBSsJVfkho2iMeU/wuvNNpGu7gINh6fMC1ZO6PFv2rjJeHw04vZEqHzPwQYofBcunMfhw5/gww8/wJkzZ0ybGTMYWcHiwvLG4bjOnD5t1nn33Xdx7NhRM66r8YakHHKbZsZ+ET+Wxb1795r+dvP1jChgHCezqbkJnDXhQdl6sPB/9CopXOzUTqGcrcByPVYK6jg9UF4lkdu1O6PbsDw3iXhvlkqeX7zCpWJZRM+InVQy6O09fBmWESk/Hq8DHfVuvLHNi98+4ENHtRNe8eidUuCqfZXYUbYBb4aexKuBHdjpltrMQkKdKwT6PL3pCL4cuYL/79bP8Ved7+NI31kMRkfk/q384bFYw2Y3BU6jwul8pnpyDGuyKwEb2hcztGlDo0FjwSy7qqrKh/vtiZGjoWQIjMdNUVaWj/XiMe3ZswecFcC0R4kRt4UvIV4TQ9Enjh/HRx9+iC+/+AJff/01vvnmhHiBl82YqgyBMjnp888/M17hJx9/ZL4zlS8aJCLbZNeZysoKtIhnydAkIw/zjTiwDDGRZeOGjaad2u70PhV6YPTYWO7n2mGcv+Xvqquqpz1Oc43EplIcKeBsH+UQZEvFkosexZ7TCQ2MZ9A3ljZRvqIgIMLW6MH/+JQX/2CLGB4f+2flvsvhd/nQFGjAmxVP462yAzjgal54qHOl4PQg6fTj0+EL+HHXJ3i/6wv0RQZXvOGNRaMmrHTnzl1rDEx5GGlw+FDyQW9ta0ezPMBLBQ0Ga/TsHsEGfnN9WU3OwaGpxkbHjEG1Q2DK8sC2tS1bt+Kll19Gu0kOcVoeX/bBzAHsZ0mv7vjxY/j08GH83c9+hv/jP/8n/F9/8Af4oz/8Q/z5n/9X8e6OmYqMU9bnb+yQphVqByorKrF7z16T3ct2soXCRBhuj/3pGNKcDnqS69auM1GHucLKIUP09BA5bqdVFXhQhq1RZTzYvn2HrNOU+3TpWHLR402UMoFkOotkSi7Fg2uxPMgVcJY7sbfVjX+x3Y1DrS60yN8UvKnBA3p8fqcPbf5GPFO2vTChzhWDA1k5/9FMEmfG7+Bv7x/G4d4TJsFlpYY6TeLA0KDpn8R+cMYAsD1vcrHaKJYirGnDmjENG/st0SCYNHGGuXKVi0iEI+P3mVmtGZadDvOMyf/MfcmJJv+miM+lxm5hNib/WffYute5r5aAB/uURf5REOhVzdfTsTHlNXde3D7vfTozt8orj6O2tgb79+/H/n37sXXbVhMOZCduhge5fcJwJysovF8UQEYWKHKchYAVLSZ5mPa13DGZwQnkuFj5oRfEPpwHn3wSGzZssDzKBcIywBAnPS1zHXPXwV4o3PycnfDnU/btfq2h8pDlwXH79j3k9uU912loqJf1rA7v8wnVzpeFlZx5wvBmVJYR0Yll85FYHhnSFI+urcGDNze48d9tdWFtucOENGeCU4eUuYPYHOjAm6EncqHONSUR6jQXTES/OzmOj4dO453uz3Gkf+WGOmnoxsfDZpQIPug0BqaWLfeY7/lAcuilR3XKLTR8+GlwGN5kFwbWxtnewRAXs+x4zJyAk+nl9FKng4bR57OGnOJveD7cLsOmHPFltgaGv/d4vLnfs8+VtR16o1xmu525wu1SNLh/3gd6S9y/GRnH5zXhufkYf2u7LjPKiPGYzPnwusq+xPNg0sZsMhTzCQSCWL9+A/bu24snRZjovbQ0Nxujz2OUPRijz31zPzwfVmR4/fjeKnOyjll4ja3+dMyC5Ha5zRdefNH0D2VZmOvxTQePg2Wa3QvsPnVWuc+VfTluCjf3N5+yz/PhOZSHyiezOFkOrTJkTZIckO1aorq4yWHT4fq93/u9/5B7vySkM1mMRjL46G4GP7mTxlhMajbLoROsOPudqKnz4F/vcuN7a11orZQC5+aDYK3yKFwOFwJuP+pdVRDTgvHkKIayEZMMYgrPDJg+ejGR+lixxHXngZxfRs6/J9aPcDIMKdKo81Wj3FNmCvxKwaRSSw2cgzpzChSrBiqGydRCG7Bz5y4cOHDAZMot9YPJ/VGImbHJ47SPjcaEbTpr161Fa1ubMVpTYao7vVhrTE9LrGjY9u3dZzrBU0xncz4cHZ9zq9HQWgJoLTt37cbWreLViDe6GNeFws4uGoMDbLtkXzdr1A4a4KamZhGYfeb+zKeNlcfLQZXtpCVeF3ozLS2t2LN7DzrWrp1TkgjX48JsWx4TJ0H1+Tn7gTUFEWcnt/u+2ffRfp+/WNsIGJFgOxe9x4NPPYVdu3aZtP75Jq5MB7dDYWO7I71K7p9lheWeFQteC+73iSeeMNmpc73H3D5/w3PneJ70dK15BnPeMbOh16/HU3J+LIuFCNnOBYe41ksqOXGx9XeGM/jD0wmzcDgyCuGSkdsVO57vb/fgra0evN3uxDoRvCD7KswBhkgi6SguTdzCF+Gz+DB2HhdSvegR8ZM9yDJle7JvBwebHkkAwyt9OCk5mUwCTd4q7K3YiB82PYun63ZiQ0W7KfSFekAXE2ZuMrzUefs2enp7xesbQzqVNp/zYacBZEiJYaalhsdAw8xj45iI4yLMJvwml72qusqMo9je3jGZMp/PzZs3zawMA4MD4g3GTKo4t7dr9y7jPdCLnM39OX78OG7dumkE1NxuEZ9UMiWix+2sN8Z4Me4zhZ735fatW3IOg2YGAJ47xZf73CWiy3syV9Hj88rrwG4EPC+GGzmHJ708ehxbt24xmbo0wnM9L26b4sFrzQzb3r5e01WBHvnI8IhZh2O6mms5DZxHjokj9BCZAMLuEPSEWKnheRfyOtvXge3C9+7etaIGUulj2U+mkiLejSZ5i+1yCxEk9lO8f/9ebhaHsLmvpCxUZsba3LFjx6RHvJQsuejRwbk2mMGfn4zjz04lMJrKIrlURyD7YZ3F53KgeY0Lv7Pbi/9+t7jyInbuBVRYR+OjuB3twgfhEzgcu4Tjqbtga4sVus0rrLJ/I3qjInoj7BqwpJd+0fA53Xizeid+Zc1BfKfpECp8IfjcsxseabmhkWKbCo0RjRahp8FaOgWFr4UIKc0H24iyPYivNjQSTEaY6di4Lg2M3eZnt1nRQ5xLp2b+ntux9z3f7cwVez/2vmmgbXjOD0Jy8xMCXk/ec+6DAsDz4HbpSRbC6+B2edx8ZRueHYZmu/FMAwswTGpnCPMYeH8X6/ra2NeY14PXnNeCn/HecuE1WYjY2teB9y//PrL8LtU5TkdpiZ7YtIDYiLVVDvyrFwN4fq0bbRWM6T8kTXMmnU1jIhXF9YlOfDZxDu9HTuFUuhcjnL7HkZc4YIteOAmMy4Uosg7q84XtFhUuP56p2ohfbXgaL655Ei2hxmUp0HOFDzofeC42/IwPu13DLmQtey7wOOzj46sNj4fXdqZjm3pO9nYoFHMRcHsb9r7nu535wP3Y+7b3T3i+9n2ZL1PPixRiuzb2MXNhxYX7IhQBu2I1Fd5PhjDt+7rY15fw+OxrYf/NhfsuxLWwt5e/EG53qc5xOpZc9CKJLM53Z/CnInp/cVpq2WIXH5ibRSJ3hgxpPt3swg83ufHWVi/aqpwo1DjKDP2MJcZxLXYXJ6PX8Fn0Es4ku3EjkzdAsByHEb0JETsKH2sAq8TbI03uMuwpa8KPWl7GU/W7sXEFhToVZbHJN/zTsRIqiauBJU9kYZteZ38ax++kcKorjaxLDOIi20QWJZ/TgcYaEbztXvzL/V7UhwoneISG3e/2o9pdjmZXDcrhRjyTRHdyDEmH1KZyymsSWcxo27LwdfVoHsKpCXRGu5DNpBB0+tASqIfb6ZZleWp0ilJM2BXAmRZlaSiJqoVfbG5LGfCP1rnwcpNz2o7nhcLqwF6P16qfxq8Hn8EPUptRn82l/Uq5znpkx+5VWsCdHqTsDuz3PzFDlvVGBibDJ4qiKMvNknt6HHqsaySDMz1pnB8QN4dOwCJpAHUtIP/bWuPEq+s9+M4mD7Y2uBDyS83KWqXgsMZmujO4/ChziOfnCiKRiCOaiWHQEZYV5ICysn/qAC/GKgpvmhsp508PN5KOYyg+JNffB6/LJV6wT66L03TwVxRFWS6W3AIxRZj5G/KfJXiLBE+MHl5buQOH2tz44VYP9slrfcXSnXJTsB7P1e/D9wN78ayzA3UZPzwieOa8mVHDlNFVF9aQ83moA/sX+Lz3JG6H7yOcnDBJP4qiKMvFknp6DHNNxDM4dS+NU91p3BwVL4c2fxHsPj285jIHfrTZgzc3u7G71YkyHzM1l1Zk6PU1ButQnvXBMR5Dl3ME49mYeHpyHPZkgqvK28shHl3W4TYd2AfF40unEqj2VZgO7D7X0nZGVRRFsVlS0WPmUiyZwe0h4FJ/BtdHMosjerLZLbVOvLHegzdE9LatcaG6zAkzHt4Sw3An2/mCTj9q3OVgN8x4NoW+7CiQELGT62Hm11t1yE3NhTon0kmMpGJwi5frc3lQ5S3XUKeiKMvCklodZutmxfB5XAvrDD4jsn32imsIOvAUuyZs85qQZkOla9nTgRnqfKF+P36j4lm86N+EWmdQroNL7sDSep5Li5yb04dBEb7j4U580HcSX/ae1lCnoijLxpIqQTLjwHjCgd7RNMYWo3ug2NBysbP/eJsHv77Ti12tLjPaSrHgdXqws3Iz3gzuww8zO1AfqOTwMLlvVzecmf30xH38cuA03r37KW6M3xHh06lxFEVZWpY0vJlIO0TsgMvdaVwZTONuWISPmlQIXWJIs8aB72zw4O3tXuxsskKaxeRIMdRJ4Qs4fKh2hZBIJRBNRDGYmDBe6monIZ5dNB3HsHh57MvndbpR66vUUKeiKEvGirc0PAGf/K8x6MBz7W785l4fDsjrUmZpzpXJrM7QPjxXtglrQtVyDks76OpyMZiK4ET4Dn7RcwyHe4/j5vhdjGuoU1GUJWLFi55fzqCtzIHf2lGcIc2Z8Lm8eHbNfvzj1lfwzxoOoUk8nlKBoc5LE534oPcY/qbzA1wdu62hTkVRloQlDW9y2Mm+aBY/60zj3GDGatebZ3iTas1uCdtqnXh1nQff3erB9lyW5krIDbGzOkMuP6q9IWQyKUQzCfTF88bqXMUkszzfOIbjw3IvHeLpejXUqSjKorO0bXqpLLrCWfzRjTRuDGWslP15ih5H82oNOfDyWg9+tN2L3a1u1IRWnrE0E9H6qlHjCSCejuNOpD/nfmeRXs0NfQ43Ypkk+uNDmEhOiNgBTYE6BKQi4HF5VPgURVkUllT0ovEs7o1k8KF4egPhDLLsnD1Pr6zC58D3N3rwnc0eHFjrRtDrWBEe3nTQu6n2VhiPr9bthSstXlAqjlHxhFY1FDYRv5HEKCLJCLJy3lW5Duz0ghVFUQrN0oqeeHZd41l8dE9ET14zFL25Ig4ihxZ7qsmF727xYlezCw3lKyOkORMcCZRZnUEx9LVi9H1ZNzLZNMYTYSTSUaSyKVlpNXZtkJsmwpeUc41l0hhOReGWIuGXa1Hl0w7siqIUniUVvZiIXk/YEr1+eZ2T6MmqNPuVnBNPBO9t8fAOdrixpqKwUwQtJwx11vmqEXIHzLkmUhHxgMJmBJfkajb+4u1Fsxn0cBqmZMwMMFDvrzLenldDnYqiFJCVI3rseC6279W1bvxguxuvb3WjLuSEz825qHLrrAJo4Ms9IdSJ0V8TqIVX/o6kkyII4dwaq5es/BsSoR9jqFNe6e3xWmioU1GUQrEyRI8hzZADz7S48aNdXjwpHl5zpXh4bk6tn1tnlcBQp8fpNoa+2luOxkCdeH9VJstzKDGOiVXezmd3YB9KTCAr771OF2o0q1NRlAJR9KLHrD4T0mzhWJoevLbFg5Zql0n5X81Q+Mq9IbSHmtAeaECTtwJ3Yv1IclZyl9e0g7G/22okmqVnO4ZwfAROqfGs8dea+Qk11KkoykIpetGrEMF7td1lhTS3uFHJ2RJW9SDN38bn9hlvr94dwvbyFmwpX4PO6ABGVnWH7ixGEkMYTYxhIhFBrb8SlZ5yDXUqirIgllz0+saz+Px2CgPjGaQeM/KUydJsduGtzR480e5Ga7UT7mWYHmi5YWiPXk6lpwwtwXq0lTXAnXWJCJZhjQhBUL7n5LxRZnmuIiY7sMeG5RpYGa4a6lQUZSEsuej1jmXw+fWk8fSSMzh6JqTps7olvL3Rg+c2eETwXPC6S8vDy8ckuHjLxOOpRoOvFmu8FWj31aDRW45yEUSX04U0HHDnwr4phj5N+FMu8koNBTvcZj6+/sSg6cfnkvNrCtRqVqeiKPNmyUWvW0TvnctJdIfFHM9gsxjSfK3dhe+Kh/eCiF5jhQN+z+rK0lwITrkQzGqs8VehPlCN9eUt2F7ejp2hNoTkO47s0p8KI5uOiEyI8K3kwazpxTo8GDUd2CeQTaVQrVmdiqLMk6UXvdEM3ruaQj/H3aRLlw+zNPNCmgfa3GgTD4+CV2LNeI/EzvD0urwIugOo9VWhwV9jQp+1IggtgXqsL2vGjrIWrJHvvHAilkkhwcxPLvSQVoyXJDdejpWJO9FMBsPJKNzymXZgVxRlPiyLp/fBtRQGYnmix7fywizNZ0Twvi+Cd2iDB201LgTESVEPb3pcDqkQiLdD4avwiufnq8SaQB02hVqxr2o9dlWsQ5O3ClJnQFrWpb8XkPdBV0Bk0CkimJBPGGPOLeZCF+nFnuzAPo6kET52YK/UUKeiKHPCEY0uxhTm0zMczuDk3RT+7btRXBoWt47WmKRE8ET1Xtvgxtvb3XhlkxvlAasNTz28uZESjygj4sAlLZ7RSGIMvbF+RMTT65HXzvBd9MdGcXL4Gj4fOpf7FRH/0V1mxKWYYXEIOX3ixTbjjdodeLX5GWyuXCcVpnJrBUVRlEew/KInL83ifuyrd+I39vpwsMOFjhoRO6fW3AtBIpNELBUz7ydSUQwkhxFORHAn0otr4XuIpGPojw6ha6IPaacb3SKS16L9Zv1ipsYVxKZAPb7beACH6vdgV81m8WD9cMs5KIqizMSyip7L60C5eHOHmp343iYP3trlRUMRz3i+2shksxgTkbs+1onzQ9eRzCZxMdKFz0aui5eYNn9TNBkKJZzdPJFOmsxQ/lb+Dw4dRthmuNRTIbE975myNrwiovfd1kNoK2sRjy9kwr6KoijTsayix47mr7W58P3tXry62Y2KwOoZPHqlQCGLpRPiDcaNgHEi2zHxDNkpvDvah7uRbgQdASNw4UwEnWNdGIyPmt+Mi+eYFHGkCF5PjGBsiYdIY6izLJvC5mAjXqjbi7dbX8L2qg0a6lQUZUaWXPRO3U/h338cx3g8i911Try9xYOnOtzY3KBqVywY8TPCN46h5Ai88o+fxeXfYHQUE8mY8QCH5fu4iF9aBPFmpB+jqQcjxNDvS4inSBKyzkQyKv6idY/TIlQUTHqLnpxXxiHV2Bk9bjzJx4xaIIRl/wPpqMlGrXQHsS7QiH+16dfxYsM+NATqcmspiqI8zJKK3mgkg0t9afyvp1KokGr6y2uceG6jB2sqnSZLU1k5ZEWw6A1S/Jg00xsZMEJpk0ASkWyuLTEREbEcgdvhMeKZzCbQGxs2XiK7HhDTJSEdNzMscJuPo1/WuxYfMu/ZhSPg8uLfbvpVvFK/H41BFT1FUaZnSUUvmcpgPCbC1y81fKcDDSEnGsqtjueapbnyYGiU3hp9Qw6Ebb23oLgxJGreiyimROAoTlyDIjmYGDZeotMEKa316e2FxSPkth6HScqJjZn3frcXFb5y7K3ajMZArenDqCiKMh1LKnr0DtLpLCbY9CMqxy4JPrFPKnilhR0+TU0jbhS82cwewd+yHZIwY5MT8LKvok88PkVRlJlYUtFTFEVRlOVE+wcoiqIoJYOKnqIoilIyqOgpiqIoJYOKnqIoilIyqOgpiqIoJYOKnqIoilIyqOgpiqIoJYOKnqIoilIyqOgpiqIoJYOKnqIoilIyqOgpiqIoJYOKnqIoilIyqOgpiqIoJYOKnqIoilIyqOgpiqIoJYOKnqIoilIyqOgpiqIoJYOKnqIoilIyqOgpiqIoJYOKnqIoilIyqOgpiqIoJYOKnqIoilIyqOgpiqIoJYOKnqIoilIyqOgpiqIoJYOKnqIoilIyqOgpiqIoJYOKnqIoilIyqOgpiqIoJYOKnqIoilIyqOgpiqIoJYOKnqIoilIyqOgpiqIoJYOKnqIoilIyqOgpiqIoJQLw/wNiAnPujxwy6AAAAABJRU5ErkJggg==;" vertex="1" parent="1">
                    <mxGeometry x="460" y="48.09" width="150" height="81.91" as="geometry"/>
                </mxCell>
                <mxCell id="34" style="edgeStyle=none;html=1;entryX=0;entryY=0.5;entryDx=0;entryDy=0;fontSize=18;" edge="1" parent="1" source="28" target="33">
                    <mxGeometry relative="1" as="geometry"/>
                </mxCell>
                <mxCell id="28" value="" style="shape=image;verticalLabelPosition=bottom;labelBackgroundColor=default;verticalAlign=top;aspect=fixed;imageAspect=0;image=data:image/png,iVBORw0KGgoAAAANSUhEUgAAAZcAAAFYCAYAAACf2LFsAAAAAXNSR0IArs4c6QAAAARnQU1BAACxjwv8YQUAAAAJcEhZcwAAFiUAABYlAUlSJPAAAOW7SURBVHhe7P1plGXXdR4I7nfvG2POiJwzMSORmGeABEGQoCiKokRL1mDLli3bWtVldVV19eq1XD+6elV59ep//bPX8uruqlUttyVZllrWSJOUKBIgQRAkARIgABKJIQHkPE8xvXno79v7nHvve/EiMiIzEsiMOF/Efmce77n7O+fcKdcDJCAgICAgYB0ROTMgICAgIGDdEMglICAgIGDdEcglICAgIGDdEcglICAgIGDdEcglICAgIGDdEcglICAgIGDdEcglICAgIGDdEcglICAgIGDdEcglICAgIGDdEcglICAgIGDdEcglICAgIGDdEcglICAgIGDdEcglICAgIGDdEcglICAgIGDdEcglICAgIGDdEcglICAgIGDdEcglICAgIGDdEcglICAgIGDdEcglICAgIGDdEcglICAgIGDdEcglICAgIGDdEcglICAgIGDdEcglICAgIGDdEcglICAgIGDdEcglICAgIGDdEcglICAgIGDdEcglICAgIGDdEcglICAgIGDdEcglICAgIGDdkesBzh4QsGmx3EmQc2ZAQMDaEFYuAQEAyWWYBAQEXBkCuQRsSgQSCQi4tgjkErDpMEgsgVwCAtYfgVwCAoBANgEB64tALgEBQ+AJJhBNQMCVIZBLwKbCMLJYjkDoPygBAQGrQyCXgE2FQZJYDWH4NKuJGxAQYAjkEhCQwSCJLOfO+gUEBCxFIJeAgAyWIw7vF4glIGB1COQSsKnB91PwJRXdble6mZdVKIkwzJwBAQFrRHj9S8CmQteZBEd+B6TSg1TrNYnzBUisr3zJ5fCL8DiOJIZd3RloHLMGBAQMQSCXgE2FfnLpSbvdlsVqTc6cPyfNVlt6MYgEYaPlikxNTsnE6IjEkS3wB8kkkEtAwPII5BKwqZAlF26DzS8uyplz5+TdgwflwuxFaWEVwyXLrq3bZf8dd8rNe/ZIPnarGU0VEBCwGoRrLgGbF7mcxIWCNDsdubg4JycvnJNjZ07K8TOn5OLcrIYHSgkIuDIEcgnYVOCAz9JFr5eT+UZdLjUbUo9zUs/1JFcoYlWTkyjK67WWQDEBAWtHIJeATY6edHo9aYFU2jgb2iCTrgqCHLEEBASsHYFcAq4KvGBnVylufCipgE56MPuXN868zuGPxaCEi6oBHwcCuQQEJCCxQCGTXAbXLEFDBwSsCYFcAtYOKtp1ULZ+Zv1RQ6kD9Tf64C9PA0jPmX326xc8BGGFEnC94vo+ewKuPyyjwbyi6zhZi7L7yJViX4G8roI/kIkSDszILrg4CQgIuBIEcglYF2SJJUswnmSGicege03IZrhaAZQ6nJtmjIrGNJ07Gz+hmAH/VclHiI+5+ICAPgRyCbhqeEVGImlnxBPLcgSTxaB7VVgu0bACsnDhyfoE9gii5ILK0q4E4zOh4WWtuJI064irqXpAwNUgkEvAuoDKa9iqhUIMU24cfFm5LFajJbPhPv6g0ACrqBU/LDvu9SSPisfdHsjFRQJoTV0AHSvJRwDfr764yxXNsC5+O05o54s51iIBAWvFqs7pgIAlSPaKDFkFN2gSySohI1cMn/FqMsvGcaLEkhEih0xJKiQZnhQ5LF0YpkSZjXs5GcQwv48c2SMREPDRIJBLwNowoCyhgvU3wnw4kjakJbE0IQ01I5UWkrUl1+tKDisDE022Nr3ny4bJZNksSAA6o6fpxBMH4eP7OMkqi3Fh9leDxIIZPsLajJsxfbokryHi66SElHU7udYYVtag3dctIOBaIZBLwJqhyglatAuSEBJFD6TSA6H06lLoLUpRFqUAyUOiXhVEAunUoZVbEKhmTYdMEoF7lVswVIpegXN7x8T8VPmDFLLSVtOHGUmgFnpNSE2cAZ2Iz7eAHnP2ACWFdqZtufiJJPn0l9MvrjzE93X1st5Yrr+0PNeffEHnYPnXoi4BAVkEcglYE6iUPB8osXSxImk3oG0XJGrPSdy9JHHnvEquTbmIsDlo5SpMTzBInCwBYGdeFIflSCYbTcnEKU0OYprNXkfqILqakyrqVuvCD9JAWAOMWEdME1Fpglhy5aJIuWTEEccq7TiSxXYL+fWk5uKiBbKIPBaQXxUkudhpL5EqwmqIgx5RMmITWUtknciVwrff59Nhu1pN/R5NNn+SSavdRlhLzSFdGRBwzRFeuR+wJiRcoMTSwQBqQsstQhbgW4WiV5UNjY9YUQwpi8SjSACzDaEpJUgeApAZEI3bUH4by3+Ya/ADXVquE5JLC4TBXKJcDKXekosLc7JYXdRwBSz2djDLhyreCMlWJh1IE8r31Okz8s57B2V2bk5JrVjIy9TkpNx2y82yfft2KYJs+E0XVifCD/hIqx2hzh7ZmlYqIzJRGZWRuIAVnIVd7SzOt5tgXq12V2rNOsymFIsliVFHA0rTOkboVkdrqDDrnK0jweoP+i2HwWMREHA5BHIJWBM8ufCzwFy1SLsqvcYl6dTOYWFyTrqtWelgFdPpNBGXr7QflWJlRkoj26VQ3iG5eAKjroIcoHapr1RLI0+QkScXQt9GPKDQ/EDV8iEt/QWvYQhfrM7Lex8clKPHjupMntD5PDLNQdGqoKAeSEIFeZNgGHOhWpfTIBjmE3OLDCuPPOJMTIzJ+Oi4FEA2TM0cedGff8gBPtYZWkuasDDuzp07ZO/uvbJ1fDIhmKshFytRS9O2XTh/UU6cOi0XLl5AH7clXyxoX2n/oZ0jlTHZvXOXbJuahBNtRJ3z/gubzCQDrfsqEMglYK0I5BKwJiQ7WUouLYnaWCmAVGZPvifnjr4lUeuSdJuz0mpWpQPNXShPydiWm2TLjrtkbPs+8MpWaNoxjDySCxQWdZYSC0WLSBTZcgqNA9bIpafXThrthpy5cE5ef+MNeRcrEG4XEfoCSr7GRU0IFG9KKjQjtIdqO5JarS6FUlHyIIdupy3Nel2TFQsFycd5xGFdEBft7uWMZKjucQKZIJT1HRsfkztuv1Xu3LdPdk5vk7G4KEWE+XXFlaCLP1eatNsdeevtd+WNN38qx0+ehB+IDsQBwzUxJ9tmtsojDz8i+2+7RUpoD+PoB88Qh/W8EgRyCVgrrmZCFbDJkMxCVJPSAhUNYoigbLv1BWlcOCXVkx9K89SH0j57RGQOq4HZM1K7eEp6zUXEBxVQwyFNF/qwi9Gnd3UxK4AKbDVKLCleNSoUL5U72Qacgok8BIrYCXkGXIGVVE9aYDtKu9WDH4VpImk1MPvHCqMD/xwqlevlEZaTRq0NkgSBtbpwU2BHOZonKs4FUo8NYNnGuI5ouA0FgaJP63olYM/43jEbyXCh3ZYTcwuQmhyfa8rRS3U5BjlxoSanzy/KhdlFtLOD/kVbIH7L7MrrERCwdgRyCbhC2FyamrXbbkrUach4viejvYaMtKsy3q3JhDSl3K1jabGAgdbik4oqJBXodL2jina/Ylkr7JZmXnfJSaVQkpFiWUpRXqUYFZzQHkseZgErlRg10Q0yrGjyKDgHosiBIIogF/qTXAq5olSKo7JlYlpGyiNSYr4FJ/mSFFWwIolhIp3a81Yem9jD6kJZiDcuXBWY3udhJnKWNlYqNZBXI1+WejQi9dw4zDFp5kZB3xUUzW2yPBpmKzX9u9qqBASsEWFbLGDV4EDRSTpsPSj1CAQSdapYnRyX+Q9eldrRN6V78YhE9XOI1JJccUSahXFpj+yU3fc/LZVbHxMZ2YFVy5i0cyVkyA0pLmS4+kHuA6uWlVYxvI7QwUqhg+UD68RtrUOHj8jR48fhZ3ml9Gd1ZlyuYLAAQVrknYvVnFtYkEtzs1JHHpWRUd1CKhWLsnPnNqw+QEYU5GG1QW66OkH71UTdWX8tpYd0Bdm9e5fs3rVLxkfHlNi4bmD6QVyeU5mn1Z3beG1IHcT143fek+deekVOnplDm4roRtJrT/JoXxH12rNtXD7/mU/IfXfdBtIFnbI7EH758pZH2BYLWCsCuQSsGqmihrpLyGVBurMnZOHD16R65HXpXjgsce08lCnCixWp5cekNUpy+bSUbzdyacfjCCW5mNI25Qzlt0py8UOWNxWQZFinTqcri9Wq1BvNzEqI11bUUJPJmFbbgEh87LOOVcuRYyfkrQNvyywIplIuSwxCmJmelvvuu0emJickjrnNpSeLdoIpam6BUeWTOOB2dWLc8dFRzcfuLDMCHWwJ3YN+S6G1xy9IEbmQXBogl1fffV+ef+lHcuLMJZBjEaGOXHodKaJOu7YaudwPchnJc7Vmdb4aBHIJWCuGTagCAlYB1dROqVLZmpsXJHix32brtiKxV6kgjBdGMvszib5Sy+qVl1d0NLmVxbIKcSRT4+Oyc9sMlOtWFbWre0Z2b9sqe3dslZuwGrkFcuuubbDPyPaZKdkyNSVlkEEhb1tjPCl4IXwL8ts2PSE7ZiZkJ8ydM5Oyc+uk7Ia5e2YL8p2Ge1p2IH8vW0FKzMt3h+McOq8AS/uEPZ3DiisHAowg7IOkHxnf28mw/oJWpnBe3L+Sv4CAtSKQS8BVw9YANKGG9MI2CQVur/Vo6N4MxZz8panxnLkWZPNmTnEukjwIhiRTwOpBBcuNRFB2HvUsqDg70hbzqFoEGgTvtVt84NDqrx5YCTBOiYIGUioU5G0SSRlSghTzMcgJ4p6JieHH25pZTeR2hUDiRFLwIj2f7THRK0XaH9qXrl9YphcPpQlH9GuVgIC1IpBLwDrAbRvBxu0yVc6q6GzVkq5WaJpc7TaNhylWmtk80zL0nWcgighEEevmEomQdk+IBk2BjDrw4WYUU7Pa+rZkPqyJPAoQmjHz0xh2Avk8vOlB96Df2pHm4ltnRAJSoQmiSYhF/xy0QSAGnygg4CNGIJeAdUEyY3bKTBWeWaHn+OdhSn+9yIWFqGLVwrJ50u7Fro1YsPezwW8nQE+6ua7dwUZBZkYdDDdCIcGQVPjUu9YdDfWxKMzHUqwvsj2XgH2rBdOEaCPgwX8LyDZzWA4BAdccdm4FBKwjqN54kb5PqzmdZ7CArNeVKEBPaGlOWbcf2rCr9vV+/t4ti6u/WKJw66eT6yjJdJ2btdI7wnpQ4E6sokzlpd9FSXM3ZO0elvvlxP/Zhf21QqsL8Y/iDK1IQMA1gj8DAwLWDU4vJzAlN+AJZHUd41wpNGcSTUIiXuh2kgOpUNRNk2sQD5JJNyPcHLMtNCMVy0PvaXN2y78fvkRfOuHt3p2F75GV5GpheeCXhLkuOQYErA48FwICrhFMRfq/LOus17aYbgs5IdISCNu4Gi7ZeKidrlggkRGMbqVpBMY1UknSwj9Ne/3iRqhjwMZFIJeAawJVyXoBBrJk1kwVbabCtPhVw5WWwLuXE4Nz6YqF115ot/pZHe3xSL3IDw/dZqId0bR5AQEBQxHIJWDNoNLlwBk2eEwhD9G6eiuyqmVzryPSay+XB0v3QjBlso5B/cxtfqkdwp9MYjo/ely+VFZP4aPCvJotx4CAK0Ugl4A1gXpKFxqqsZZqLVXKPW4peSLhmgWrArWncPdvARbH1gODsjKy22EEbRzQ3se7s0K/JYIfy4sm6q8m45tdIzn4sKxfFvQeLO/qsbqcsoelv7d9L/tjcXkZBN8SkP0LCLgcOGoDAoZDNZSpJYrTWxlQi/GCt2kzEoo9U2Kir0hRYVrNLIOs2+wum0T6XeYziJVD+8OHxbE2MYQK02LRbe/jckgsDoPuy8DKGBQrZ3mxflu+5obBkL7YLGgofKzhYskG/byskG1AQAaBXDYbvL64HHwcNX0i7+lUjCMWuviwYdylUuazIHzIkMI7ruyuq6V52Bw5XdE4l2XriCabxsdLMRg6GGO58Kybdbe6woSHrlaSa0WMYCbrY27IGpAmyypoL1kCHiZ8B/KwvjN4l4agEOuzpUJYfsPqsFSG5ZKGr7kLAjYpArlsVgzXIakMxZBAaDReSqFi5s299lwIFaIpM4L6OfLvuQJSQlE6wR/jmzuJBPS7iJXCLg+fJpuWZJJHnQsgxiLqWOjA3UXd2QYKKr+kHCUcJ6sC43lhW4eRxqBYuN2jtjwYcxBZojF4m8/7clhNnICAlRHIZTOAuoK6yuszb89KoncGI6inM70detWJ/pJgNJg/HTixCoEHn3ZX1djjVxB1bWDxIT53y9MTjC/P223/3/5spZPafcpU0hQmRgsmlsKlhReryjrnIZVcJBOgxq25gozVO1JqtCRut8At/JqYpWe6Dn5T4R9Ny1lj8ceBxOrvM0trvBaxcg3ebzg0JrpV+Zvd69za1Uk+tvIgWdlKbZgwzI7SoNvgMldk6xkQsBTpuAnYuEh0glM0gzPuJHxQWTBuqkSyf33IkSygjmB24ljaUSytKC8tKOt2rgh/e1UkScbUG9Uc8/DleSEGy/OhWTd/062jVJguC5/a8jSKgGBFwhdU8vsujVYT3dGT6dEx2TExKdsnJmTb5IRMT4zLSLmk70xL84BpLErPPnhiMcPipL/mY7VIidXClxciax+G7AplmGl9bT1l0k8nK4ul0U9Fw50ZKA6D7oCAFIFcNgWgynL8xHAHRxzmoGgYRb9zmHFDoLR1NQJ/E7hJOBoX6ourFIwiflWyBWXTjgrSzJekGVPKIJkSSi8iJsgFw83Ukc2ePSkwf1O5Zk/VcD9xmPCrJl5ayMeEdsbrn33bK/lZpi83FcuvUirKtplpuWvfnfLgA/fLgw9CYO6/606ZnprQTxUnaZRoaR8CREtWDZqzKXUGmDursFdeP6Ti8zFCHgaSpLbGle9NrbFz+zJ5Ncxe35lfRtKrZV60nljZDfpbmG9jQMBSBHLZ8KBCBEn06jBrkCpkEW6YXbgpPS8Mc6YK0qjUMGGvSQSJ4W8Cvy7jNyQHguqCiFq9NlYuUPF5rFpirlyghLhagZbTT/92QADdpuRRZgFpizDzMONuHYK8VVK7fowM4Sw3Qj3M9FJFnVw9ES/XwwqE5NcDEar+90rPrx3MRxceCUlANUaRjIxWZNfO7XLX/n2yf/9dIJZ9cvPuvSCeUqo6l1mxDILx9YNkiErFyy9dJoLTzSv39oqC1Z8TT7u+ZK0FM3f2Lr+f40LTuiIN6msUjW5HcBtlJ/nimCwRLcuZcKeCXtW6Iy9HZPpZApr6GxAwHDkMlDBGNiCoVDi3VBsUc6ezIFHMd2pBGVEZN1sWiVFUK9EBUIlSOlAnXfh5pZpoLuTKIKTPtZoS5ZBP46IsHvmpXDj8JvT8WSUFfl+lqyuXMemUpmXrLffI5J59khudAQFhNYNwzZo5Ygj6LzmyIHt2BaJlos4x5kD6bjCYnA7R1PhsG4NKIsVRhFXgrMCvAHHpdbVmbdMU8KeK5AaZeZL8zJ59bkY/uwwwvoEFuTQJuCryayMDq9fqWO7Mt4Z+6mg6xNJ2sAykcdVbDqyj0gq/+Il8qNxJNDV094/ffFte/em7curCPNyIExdwbFGTHr9R05Wbtk/Lkw/fJ3fdfpOU81iNgIzyIHwtVDMfUrJrG0N4LGxNwuNifvxeTRdjgt/M6bbaUimDeNkWlyYgYBCBXDYoqE6NXKCNsBrp9eak1Z6TixdOyYXTR2Wy2ZMiprQWh/qGJlSaN/XPKWXnZ1rEk0tbcu22lCMov/aCNC4ck9bCCek1Z6HkGogFpZ0rSTs3It3ChJQmtklhfLt0iiPSifipLhKd1VGVmVXDAQWpIlQmUaGq4zfz9bPGCCM5jU5NydTWHVJA3rniJKKNIC5IpgeyUTJie9AGCvkIocPJpWvvvATsu5boF6cxVyQXhClRaB0NzKbZ5iV8rBFrNfng8FE5de6c1p1t4KKDYbb4sPz0N81CwYc5/RUqblgxvIeymqjv8bOzcvTUBZmttaXBfS/9IiXrYZ8G2DJalJt3zcjWiTHp8sYE9FmxDNLVRmpGVkgfUAvXPpKUrxuJjfWo5AsyNTYqt9x8k5QKBZkYH9GPrDGnYbkFBARy2aCgelAlkWvCVoWCmZXq4nE5euSAnHj3pzJTb8oolCC/UUJ1Sx3FVJ5IbO+eCtHc5u9UCZUqiIlpS9DFhU5DOvWLcC9AEYFYerweQm1egFrEKiUaBaHAjCvSgtLvQMlxz55IyIU560i0MvQtxxqHprXHyMW2eDpxXirbdsvOO+6VCa6IilOIUEaScZQLkslxpo5EID/WXetPUoKXa5H+peSihSMJSclKJpaSC9wWFfDkkvECOqgkFi9y+uw5+eGPX5P3Dx+RFvyyxELR8gEWkU3PDJknr4BQ8jm0WNvAra28LLZykEhvmCBRc+tKM9BvznSkiPijWLwVkabbIrmI5AtF6YGEsn3aD83ArJleYmx+z2YEmdy0bat8+lNPyTaYoyNYuYCBh+UUEEAEctmIwBHVCa0qCV5rWYSCuSTVhSNy/MM35OSB12X80jkZa0FVUbFiCPRUuZpQEesbgulWherUoGoSKjLbDMpDWRehfTiz7rWqko+aEFX9IBjGy6Nc3ilWlhbsrR6UI/y5xeMVK4mNLi1GwUJMlF9YEpQqs+OKpQeF1uVNA3FZuuM7ZMf+R2XmjodBLluwSMOKJZpAGs7Si5ZNzFagH2C3PFia2XXomwXprAIsizDKIAmYqalYSb1zyoN1NAXL1BRVy7BwV/HDw8fkhZd+IO8fOabt7mGmn5Am7H55xDQeaXE8LiT/FoTXzLQV0kQDGrwWAqLulSD5opJLl2zWRfxuW+JODZzawHEhMVkdO0hn0wjW3xcyCN8KiDvuTFXqdmQMee+dmZZf/IWfl5u5einl3fEJCBiO7JkScIOD6oAKiAo0hTmoJPiwIOb2MhZBCbXrkocSKnaqkEUptRYgMNsLUmzThNBf7VUpdxAOO8OKsBe6C8gPKxVeWOc1nFwDZXDFwisDfjuHyhFEw4v4vaYUuw1IXYq9upR6NZUi0qtgdVUUlC3zmHFDojnY57DuMSnDrwy/UoSyc4tQmg00lMIy2fIBTWdLAxMN41CHgBz4zE3UjVA3mKwrFCndUTd2JuKxE/s6EvYBYllSJoED4H1bvNUZq8MO0inl0kQZJJo28m53cohjF8wpLe+vwnh5mCXICOxjkAlUaQKEMoZVYFHz1DTMFyu1LlYmHZAWV3W9fAFxkJ63hbNsmF1uR15WkI4m81PhSpNt78lIpSJ55BmTFNm9aCuJNMxPA4YhkMuGB1WdKVYq1ViVagxf+HFbg0YM5QrCyVGgaGOsWqhwoVpSgf4oQIlA9Wg4NDBsXWnlOtKKO1Bo0KuY/etqB+DKxHQOVD9XHrpzD4HiEgjNXoy6cacG5feQRw6rDBPYkS/rFGElxLvRJGqp9HKUNoT1RZuYX67gxF205qzbCaugwm5YAnpqJdcIphuaYTKbt3LhcCshg61yfKVMMafit8tUENO+IYPe7xUhdkt3FyuyHgiAqyBOJLhVyBvEyYN8aJVmF8fVVniIgwqxHshS5fJgLNZSa9qHmMQS20oyxepyDdh8yI6SgA0JKgke5gJ0bQmcUIJZxky3rM+iNDADbsQFaWCm24SpAuXVcQ9AdpzwQUgvdLdhMl6DW1QQPjTZhtLhkzFtKDwqR15b6eiMGvGjkjTzI4g/InUK7PV8BUJ/5KHlF1VaiN+i6aSNOnU0jzSsDWG+AoWbCOpkbIX2otmm9kxRegU+XG2uBj7lKnJwUSIodvY8VTuvT+l2oQrsuuWVCt0qDEN8Xkj3d9EZNeia1EiV5A4xKleKgcnNRoazkRZOf65Y6c98sQaBezXC1aAX78d2cIuN5AIHoaZtuwUEDCJcc9lA4IHMHkwqKbtbrAn9Mi/tuTNy4dABOf3+T6V6/piUcw29WJzrQXlAfA6mzDyg5DL+RhjIjrNjKJU8Vh8F3WarSqG9KDGvvXSbUuSKguscEFkvHpNOfgzEUpY6t4KQUwerHCqvSMvnBg+UpivWqypVzCiDM+YIM2Z9UDMX64OaLeSZq+yUXbc+IjO3Pii58hboUpZZQi350KabN6Gc7KqFF+6tNQY+GKolYpVA6IV9TWCJuBIwpH5ZUK/S1+epZxM8+FjPh0dOyovf/6F8cPiIXuTndRYGM4LWD//aqy5bhnGlYZEcMaEClj9ogvmi3yl19FeLW13oG15zYbkkkrjb0S3IEnqZ19MilGuLOObiytUch4GkxMKZRmuD2Fg7Ic9RtGf/rbfJ5z77Gdm9ZztWryQVRFkuq4BNj0AuGwimFlKYKoPC6IFgOg3pVi9J7cxxuXD8MLRUVYqY6MeRm/Gq+Bz6c/KzYfWFRtF5LBwkkKjdktbiBenMnxWZOy296jl9QLICMqAia3FFAcVfmNol0cQO6ZUmdBXT5q3CyMNm6JxdU0/1K37ejURfPl/B1ZC+IwBeOv/HqisuT8mW7bfI1LabJS5OSK/LmwcgPa5eNKmKV97mNLKxkuhhZSvUyyVy8OSihoYbCXkk5OLi8WzStQJ+zp6/JAfeeU9OnjoNAkCAamMAJsnCTLota00HGx86ZUa6AHEZazisJJYmqvDhiROywDvBsOJr4RDywUoSAh/BrIDs92yflsnRiuTQdzESu6tLyIWm5bkUuhkHk3n5mJZvAWy5Y2ZGHnn4IdmxbVrynFwg5nI5BQQEctlAMLWQQtUgDy+Vdwcz9HZTurUFac5fUsURFzD7VH3D7RSSDEC9xlwyWsPfysu8dQ8f2fEtxwXMmqXVlM6FE9I48Z4sHH9HmheOSLEzLyPgFCrKeq4gufEdMnnT3VLctU+ise16QbqnK4w8BiArgHowcy2bJiws35m8E6qLQiltaFxVwCC2XKEkpcqoFEFYUa6EcN5WTGEmDpqPWQldmPBPCwSy5EK4FYxHQi6Ibtb+cFaRsHrDdNnyeZxGsy2L1Zo0GrwdHHBxtUTfRoBuckjyBDwK1dPSrzrwRzXPujSwwnzv6FF55fU35MLiAlaQoBMk5sJISQC5bR0vy5OP3C933nyTlDkBcPmy7kYXw8HqaAwtE3B58oDnwJalUkEmxsZktFLWu9B8Pq4ZAQF9COSygcADmT2YVKQKp6h0Os17ZDtQdtwG45RWp7WMqCou1RSqNSkMM2VMG/14oZlJ9MIu87p4TOqH3pSLH74mtdPvS6l9SUbLXOGI1KD0ZXKXjN9yv4zv/6RElW0oE+SS431rvA6EMpgPM9ci6XayBFxfudedIDwXxRCQDFcresMA64ZYWb7w2TBLxmC4/jkMkgsjpoFQ6OZgNmY1MvTw1dQgtbvEMNjlrJOHt6VxzaTb9b7Vn25V6PQgtdDPyKWOScJP3n5HXnzlFTl5/qK0GB99wIdGuQIkuUyNFOTzz3xSHr/3XhnJ83pUtuzh5MLwQWFEmnpdh3Y4WK8i+p3Xk5iPxgsIGIL+aVjABgVVAA41t6JiKJviiEgZwuckinxWoiy9QgW6HpKHPyWGXcXsuagiUcSnskclol8Sp4i0eenmofz4TEnUghJsQvHwfWMdvbZiWzkoG+V08xVpIT2lzdfDwK/DB/yKqBdWIlIE6VBo7xP6oQ6FUay4xiTOox6oUw4rIFTCtdGBVidUiCqoEb1MvVqwaswlQo3upYO0bSegyiwR+egemmGaN3f0uHWExaEJuj/vhPbEH3Gp/tkKCjgZ0pMK0lZiCtwQmomgvwu8a6vbwWKUW5681gJ6hUSYQPT4yYAOrzyh1W0cD6xY88jTyoQ/zKyUnNCe1IuS1DfStnC1QipHkMKbAQHDgKETsFHAk93LUFDLUuvxHWOY7erzDLzVNceZPy+CU81R3Q0K/VNhPJsj8wI6nyHHKgXZclarb07u8alwbgVhlQFy4W3KJCC9oK3PTvDJfd6NltcbBPStu6iXSl/l6fBCcLgisz6hn4X7mGyib6qF8moDr+3YvD0V1Bd+XShkvn7fhLTClQ1/W0jTVuFNB3yoUdNpPq5UEgwUNvNimK2JvInMSEiQ/nItLeuWFd8iW4uZMvcKHl2XtIew6zJ2e3lOn83JOYmkCLIeAUHzRggWxDu+bUPM3YmWEa73mKeXbI8uETSJD8em9BIQsDz8WA3YIPCKgKD+UdDMagzY+RyEPUdh6szUDE0SBoWkkrWbWBx7MYmqJRRCRafv/MIfb4nlXWB2FxZm+7yeE8OXmpHfR8EqJMJqJ+IdYNzSgvAmAZKKClKacidMURt85SlsjG+QIRuSNZVkaHK/CXlZPChZkkaXROjr6oXEaHfYYb1lQrfeTce2kShc3hCDr6eJ/0vb4vuGfxbrcmAcnz/tto5ytQQJdsnmOBYxr2nxWPAmBiUbElIRBFMAGUV6XayYhx2xjdhY/yzJZPoKBS0nRiqws0MDAlYBjquAjQyvC1QzQDJH3F5d4j2hmJyZzl+zMjCnNSYwdKE0oYDwD/CXAZyxUzMxKsI1C14jiSXGNNz/rTwPdmUpBs1lgGCfSmOyOloxn87XDysRaUi+V5eYr/OXGqQKWYSbws8LNNAEXp+iML5m1FeG/SwHi2WpTLX76gzKauDjddH3Sgs5vrASBK03MYAq2MldRzIMV1gfD4NvQ1b6KpUVhTtaiTsgYHn4ERiwGdCnRczwD/p5Na/KYwUkyb2Ccaxi94XY3Jx/JJbkxZd9CTTIlQlBOp/noAy6Vo0lyWhhaTC1GiQXrFA6NRjzkuObnBuXJGpehFyQqH0J/rPgkwVwUE1y7aZtjSEx32CQzZ6z/+HwMQwWK/Wje1BWQn88tIXXz3QVya1NR/x6C7br2b4Mrab+2Ka1SuuTyXxlpIkDAlYER2LABkSfDvCOAcVgKxfzHghaHZJ9N6+ZIPDyixrVVRqFPy6uRdGBZwsb55+Bywmi1HT1SIqAxZFhp9mUueOH5cSPvienXv62nHrl23Lyle/IsR+9IEcgh199UQ69+n059tM3pHnpkuRaHX/5ROvtMUjHS1tjyMaiTds/IFmkbrMNi2P9b2KU55D4L4X3HR4aELB+COSyQbFEvQxok3XZO89qWQJZLk8G2RrBdOUvVw1PLP0Es0zklZAp0mUIyUmn0ZD5Qx/Iqe89J2e/87dy9oW/ldMv/p2chBz/3jfkyIvfkkMvfVuO/fgVaVy8gJVMG4yJxGTNhDmJrFq3Aug28fY0Bm3DiGWYrCeyeV5RGdlEa0oYsFkRyCXgyqAKBso0UTamWFPJIJlJe7UKJKuepehfrywf74rgyuVDgfl2Q0rNWak0LqiUnFluXJRy8yLC5qTQqukXN6XLy+ma0pkArX0Eqx5OiKz9StHfl5obfpSUvXnVZQQErD8CuQRcIbzSownRBzG9GFTleWJJyMS5V0SGhJL4l0uzApKksKg2xoqixy/G81spDZg1yUtVSvr6f/sMAO0FvdjPTwnw7jG0i2mZ3IvCWwYDsvYrRdqXRJKz1gPrIQr7KlNMf4qAgI8PgVwCrhKDhGJbQfoEP8W8V4RtG3nhRWlv98Nz4JrCVQGVwqrFvgPTRtZNKOkmSKQpef+9GZiFbhPCzzXrazYRzzVmKMF4LBfQ72ZvrSRLcZnWayK33sPPsHz6V4NZZPxXLCQgYG0I5BKw7kh3igYU7cBWmOlp/vhbZymWJlWnZh+mMFeCKdNhKZAvn1np2rMr9vxJ11YynY7kVdoqdocYVy3cEuOFFsCtGpLqAbR6guz/G/Qx+JotJ0thIWkYbOqgn/vTKBbPblqgeGdq19ft0K5wnr5thFX68hIQcBkEcgm4CiRaCnB2p3j79Y/XSE4GSCaF96eZEk0WXh2uJP5xRdqHgspWr6EorcAJxQ8vfc0a9GxMoR3x+P0Vu0UM0bOrlgRWSn8trw7M0XIlzGWtcb/4IWF4c0UgeLUryICA9UQgl00EU0gmV4M0NW2c9VKowaCqqX/5QzB4UKDmdFWi9suhXyUOZnU5cbVaCrSfF/T1bcGoK18/459u5xoqpomEdhnJ5cSq+Op4e7pEU/TX9sqhxSa2FHRpGYm3s2gdvWfWHhDw8SGQyyZAllSGyVrgVZelgtLl+8T68smGYmXQTUWf5KfJ/6wwm2Q14zX3NYLXzu49YeaCDf50KV84GTrjh8eypLWOGNYD6cYa7awFxa2sFK5mWvGrryGPaTe5Sy4gYG0I5LJRQd0C8Yq7A3sXpr46RMUIwdQT7JpoeSiBaBo6qNzM1B997xZXLWku+m0SV7aVRzvjWrlqdeG+cB9P3Uzn/pYD68ABPChZxaxZmTXjIJ3Ye8L6wKpkEyvo4T2ZgvXKZHUZMOWwOl5O+qthPt6PbwWwWqEGCZEYyfCtCHaNyNfOTB9NRX2WB/u8A1KhNFoNddsx86KRVtcBAZsWHLUBGxSqwGFS3ejCQZVEF3ZbbdjHqfjnwtQ2BMzHx3UrD/+GYLAVIniFBlMVHOJB9J1iLmcFK+RJzayuDhbkkdiVeEyZrwWmeJeBL8wRon40zIqxIIp3O9EI3DqD6VvLePZrNkYbJusNIx9u6fHlkxS2w7fF145CoG7aPrhpurpeDjw+zWZT2p2WbnO2QDDVWlWqVUitJvV6A8STHrfV5Rqw2RDIZTMACoJKUtWOt0NreHVDNUGT4WbLwDmRRJWOUynu2grsqtAykZL8aaIMCP/0zVaDWTOO2lyi5TCQbi0YmtQtj4wqfIsgrhpLquLcmfVCBklqF7pUrgb9ZXmgLLQhJsGAJNmOXsT1pxGMfdjNyD19GzPbugJcZf0xqYNcjh47LoePHJNDlMPH5EM1j8rho8ek2eaddmn8gIBBBHLZwFDF5hRGu9uRWqMui826LDQbsoDZaAPKSee90A5LFAQ9hmiN7L5/EklJBraI32WJ9RstLZBKh6/Tj4oSxyUpxGW3W5NNT9A96Le+GNIMwOrO6pAIlQwtwPlBZZMck/pRljtdLK80h/XBcrmyVuhl/WQAVzD6HA78EmLhR9pILAjjNROuVl3CFeHL4mry9KkL8u3nfyBf/9q35Zvf+oF86znK9+Wbz70kL770siwsNpJVZ0DAMARy2WhQ7eBMgPqk0+nI+4cOy9+/8IL8zbe+Kf/lhefl69/7jrx38phU+Q18KiEqCt2yQgLuV2WhuhW0AjEFxfC0ICpgqDlp9mJpgUSaxRGpR2X9fn5TPwxWRLo8omK4+WQAs7MR6C1etJAlWDGWr9IQDM9tKRKiQQq2yUta4jCgUHaaCht2ORleSfoujem/uJKCx6CYj/XLkLol1mkhcvo8Dr+n0+WWn5IOaq9Ps8J5mU7I1qyL41StxXL0yKy8f/CCvH3gjMo7b5+GnJCzZ2vSYhHaN2m6gIAsljtjAm5E8CzPnOleWfILi6fPnpEjJ47LYcqpE3Lq4nmZqy1KkzNbjALGVQWk7OJMbx+AbnQxrpKN7fy3unyWvQRyGZVGNC7V3KhUeyCYXgkrpDzKoaLkh8ciTcZvh/VjiUcCH7JsjGw1YWe8rCwHn4ymX7mYX2pbFbhy82m039T3quGzMdOojidsuViUUiHG6gUh7UaygrEjgV7GCrKATjYT8WBnPyxXray/2jEQupwodPLSahek1cpLuxlDYLZi6fLTolqbNO1yeQdsXgRy2ajIaFWe+JzH6ueEIZzfXpqdlYUqyKXDLzGuRgUbGJODRj+vq98PAWHkSpIrTEhxfLtUttwk5ZmbpbBlr+QhhcldUprYLuXRaYuvDLZSeSlMmaZrh1Uhq/EuAx9ViRVmdmuMNlOfHivUW6NpTk6wDuAqRlcy2TyuDr4fSvlIxiplmZ6alB3bt8n2mS2yDXYvU2OjiJNXKucnjj0NKAdm4Gqa1NBiQbSZ1vMmsGPc+JUUxxKRxHeyvq0NuNERyGUjAzpAT3z88MTnpV1Kp9OTarUm9UZDOj1SjYWvBqZWAM0Yrm5Bovy4VEAiW3bfLdtufUi23vqwbL/zMdmx71HZue8h2XHLPTK5bY9ExTK0HVQely0uo0GFR/gykrK0MA8t2KzEYNAa4XNTgvHCAC0cqjQbOAwaOcnFe6QYcF4JWLIXfsVz28yM3L3vTvnkk4/J5z/7GfnMJz8hTz3+mHzqscflk489Kg/fc69MT4zrykYnAhTWY5kmENnaU0i0jO+brf7eTVN9DVl7QIBHIJeNBqcMBs94fd7ECb8+OTaK2W2phBHAmaiqDoTBpFWvvXhhWstM7/iCqe+n4jZXh+qrJHFxi4xuuUWmdt4tW256ULbc/hjkcZm57RHZessDMrX7dimMzWCRA3LhFxS5D5cBX7nin4h3lwhMqV8O2TiriT8ETNa/YgFYAbS5n/jouQz64mmOziRg9q1gfHhWhoMlWqnseaMJHrvJsTF55P775IlHHpaH7t8vjz14rzz50APy+IP3yxMPPCCPIWz71BTqj7z1ADIPl5sSu+W6FjAL3wLC27N+64/V9VPA9YlALhsZ7swfVAxUMvq69mQvnn8eg+oiG2YwwqGQmLASiUfAG9MSjewQGdslMrpHeqO7pTe2G+4dkqtMSy9fQcoCpH/IDVVzgwUmYMCQwCFezDcryyX1UL7UiIiPeM7qsDSx5pv17g9eimz45eIuA18nEkyhUJBSIS/lfF5GYZ8qFWRLpShTIyUZL5elgBWivaSS4hIui/7WroQrrHrAJkQgl42KjF5JTA3ot68KmfTcg/fI5TijhhKLiljIVKQTj0ornpBmPCnN/KQ08lPSgtmKx6QbV6C886gLhpwjtSSnNEtF4kSBiaLXCuuPMzOSaPmsWLo0rUd/HI2B/74ogKWFb5I3Z84WS/NU+DCCmWQFXssJ4U0H5ullJWTj8eTVq15wFBLh6satdLL1WRYMWyk8IODKEMhlI2FAR/gdkUScnlFhBCiipYoldVtcVbEQmpm4DIOhL37EMOrl+HwLbzsuSTtXkbaMwE0TpJMrQ0qIY3eLabn6b7m6nCDwg8FSvCRh+rAmQbdX9BnRhM7ujD4kblpcXo7olsKv5ZxoFLOnsX04DfhS+mruhacYhfaV4VMsBx/uxedMgsmaCR/63IYe54CAawuOxYCNhCF6RHUN/EwVOoWocXxkDIOevxuIZMHIzg8J+c4vgnnQ2lUNRnsX0oZ/B35Q2PCLokjyUR6z6aIUpKhmDNKhguNDliQjex0JSolQWla0ZIT1uijXCMDqjTqTKdXDDCUIl4+RRVYYXyuYxofV/F24eajNR9G0mh9KRD31Qco+fwszwFQtTjAv669ETM0704n6w0+Lxk8SD1aIL8HFSkB71k3QzXgklIRUIAqfQPt6MLcbAewNStIQJwE3EmxkB2wceH3nzQFkvf0pnIXqcAh1s8JFUG/vB5MEY0+Dgwgie0JcFwIanIPC48YMn8Ww2wBsIyyTRx9coQnMbnEtxySUCtPllSDrzKRJkCROyyGVmSxVvvSnn4W5U0SJhLc+2JomyVTr4/PIiFbepSV8kA9TxU/3cKwQlIBxholiqOeNANevATc8MqM/4IZH5rzUxQaEXiq0Q6GpzlNloz9rBtN7FWuTdJhUvMksHshYfXFWJChGHeoaCq2ns9NCu7kH02hGqVjGzg7Dw2eWZEpYfL3+49JovzikVsaj4X1IOGmdjISYh8vHOtnsK7RxaT4m/nc5ZHPUUhA9K0lGS4rW2GZdE5CG+V2mXgEBwxDI5QZGeruwE/1LdQzf4qIrEYJmRr/424sJ77069WPpUj2KIURFuqIyZd6eWPQf9mx8C+Cnhu1tyxBvojxVxfpKk7ZJl8LXngxIzwnDNR7S6PfyIdwO0/SM05YcwvgKFe0g/PvaqKJWE+sWrMqKMerFK+aw55BWP4fM9JqHqwvrlpThyus40/sn4WwH2+naquWjjWq3p+w9fJ2y0LqZVeHdg/7sbOScCXCEhrK8sFyzqxU/qWgyHFuG8/VBGq5+Li7gTSK19o9BFfyk5ZofWzlMGBawMRDI5QaEP+Hb7Y60WgPSpHRh70kLeg9OmD2pN5qq21TJIH2tVkO8pkRgiCKGgb0ihARgKopKQD/yxbJg8hUyJubH8GSW7mfuzk6l5IeWVxamcgx63Qbib4XWVKqIocTaDShmSK8Jd1NyzQXJNeZgzovUZ0WqFyDnRBYvIwvnIYi7eMnJRUvfgDl/FmHnJG7V0G6+VRidhPoZT7L+rBPfOtySSgwy6dbRiSi/dl5ydeRbvyC5GusBuwrKqyLfKsrxUlvBrM1Krwqpz4HrFkXaNWtzp4U+b6Nv9UC53kx7dwl852Xh3H586EfakEO305M2BkSr1Uqk2YaZSBdujBdwb0PHDo41krZAkm1Io9FA//AW6KI0+Dp+xEERKm3mjePHl6O2aMKzgzReWu020rekXkeZGKNWJ/R4OiQS0Cu7+dgPT0FeAq5nYOI07BAHXE8YdogSvyVBpl309IOWhL6QxWZDvvG9l+TgkcNSa9clX8CMtNOWp594Uh7ed4/MVEbTi8ID+bEY5qVbXxmoC4FQMQOJUoIiTP+Z2x4ETBFZJjpj15k9iIXXcHJQsu16TWrzs9KsLSCsRfWI9JzZQ9mrHYlZOWSdlK5OeoAgennY3C25QA4kwpVIBELpgBAas8dl4exhOX/8HfDYnBSg1AuoR9xlGihN/LaivJRmdsuOBz4hvS17pRmPSycekVxsr1bJo85sA1+FIyjPrtEQ6BdrssHV0e68QytAYN0cWhHHkiuWpTI2KcXKmEghr+/0khh0j7K1H5nQ5aV5mFVBbw0a9ARILvwmC8dJzLciaBz8+Lxg+jr2UCbfs8y6EU0Qx5tvHJX//GdfkbNnL8rY6ITmxaddS6VIduyckt/9V/9UZrZi3KC67FttGY+dZgi/ZOKRgsQdg6AoDHIckwLjyFJYgB2JLAYT9I+ngOsLgVyuQ2QPCFcJfG16l8o3CTClqYp08PxzYNQOwtqQxVZDvvm9H8j7Rw9JrQVyKeahFHLy5MOPyL233ymTpYqUoezyKEJ5wg0J/nIW6ckl1RdQEFB8dmr7RB4ZckECWlNycf4O/Ia9bgsxD25ZgfiU5ZpYVZ0/Ix+89YZU5y5ApzUk4oerQDIkHr89RYWm1XXl2S/6RcmFtbPbCWiLwAKxEhOUJFYLncYlFDMrnfol5M2XP3K7C/TAOuvKATNwZl6ekIndt8tifkyquRFp5Yq648VvqRQYHxrSyrLytD780z7x7UVNYVV65C3bUYx88tKOClIAsdx29wMytesmyY2M60ogV6hIFJf0YUnN0GPASfgSNCBxoCyuILBS0Vf8YGURoUxdUbo4Wk9XR6p0EwITEtTh4Hun5a/+8hty/MQ5yYPs2IAOVpKlck527JiS3/7tX5Pp6THUE60iuSAvkj/HDntC+8NVluOBz97EcaT1yDszF+HooD7u8MGitUI+Bh67frgME1hJAdcnArlcZ7DTy6B2HJ5Wq4nZZEtno1QU5Bm+Fp2fLV5y/jkwLcmlg/OvCoX88us/kQ+PH5EqVgd5zJBz7bY8dO99cvstt8hIviijMRQdEukdxVCYvh5GLhCe+CwLQkUxVi7LKERPb6cUDFlyMfXg3c43gX6LRIcflRLIhVtDeeRYn5XGsQ/kJ9/9FqxnsaqogwAgfANwp6kkE+mazEpVdZSUSXIwSiGZeQVFxcfrJHx3c5zTDwRomcyHqyIjFcSDkPToz+2bHhRrPDIll5o5qUcl9GdR2m3Ex8qPBMPcdQWGMpmKh0R7z1WHHqq4UT/G9sTSQj4kqnhiq9z35Kdlx777JJrcqttRcWUCyreI2K72zJ/wea4C3I46f+6CHDp0WE6eOosxBMbQDFgXy9KvRtH7CtY/B/KL0OaLF+ry059+ILOXatKokzwiKZcLIBeaIvfed4eMjZVAGEyNcAwcHktrLQvQX4eeNBt1pCvJ3j175Kab9srUlinJ50l4iOcjunHknf7YpfAd4RHI5XpGIJePEcM63k6vFLSTVGr1KpTEKTl24qTM19vSgDKjuujPw1w8R2nj7cIklybUx+lL5+RidV5amPHzVexRsyU7pmZkamxc8ji71Q+JdJtH9ytM+MufDpQpn2GJsOIZHx2T/bfdLnu370Q6LjW8enKgwjBL5pfeqbKgjeSSgCsRXpQnaSyelebxd+WN7/ydNC6clFK3JkWsXgq9hsSIw2shJAQOXVOUiUrTutpaxdcBdg5xlNUDmfR6ICcqQ7eFw8k8iYW3TVsa1w+kAuaFOvewwqhhCdjKFaQLEu7pdljH6o847kfrwH/zYl6sF600uRWGVQGUdzMCufBbN1FZcuNb5Y5Hn5bt9z4i8cxOEBdqUplEmqLWS/WtVpSZrgDEs1oYms2efPD+IXkRK9a33n5br5lYZ1ldzMr+4zG248y753KoVwQSbbfyUq+xj8qwsz9IKiCTPNKjD+N8EysQtJizEe1PXwH4wbQqs+/pxy26eamMxPLwIw/Kpz71KZDMbpALj5NBh4Y21sR6rx+Dbj22AdctArl8jPCnUhZZtw/nScVvl7/19gF5/a235NxiXWrc5OFDiZkUevLpasAcvGhOcmlDW7agBFowuQKBTpByuweFnYMdJzHicX1i6XVQwM5MLG/qjzbIqBDHurWxfWZGnnz4Udl3861SyPMdVhZvEFkyIXSbx4E2KmctySoAcuEdWFXJzZ+U9sn35MALX5PW+WNS7oBcenWVGCuXvG6LWf34C1Wv+aS50+VBGxUiycV9SItkyCJdfeypHEiPM2leq2HdkB9Iltd3qMRAJdKBH6+X8JThqoX56DUnVw+FL9i0NyzWPtaoA2JpRXYtp4mVSUPJZbvc/vhnZeqeh0Eue0BkZenmR5EOSp7Xf5gxdajPdzkgnvYIi0WVeInk4MHD8vx3XpCf/ewtkFYL9WYgMyO56CYWTNQ911FTwQdeeyTQIoRbcxW47fqVvlZG+4wTDZI0JgJIq+IrADArqy7Lwy8ftJVFKZa68uijD8izz35Obtq7C3loJAOiKkFZK5yX5eKxlEqW+gRcPwhH5zqCnVLp6eXdBretAo3QgXIjGXBfnXaKbpVxGweJVODWL0siwL4wCfUGf15opUlFwwUK8+gi0x6kw2s7qoB9vgiHmIkyWDg9YGd+akXNOCNX7bBELg/Vd4hrys6nUx8o8LYU9RNkDaxe6lLqwATBFLpNEE0TbpiQEq8F0A+rGq5wdJWTCON7ckIY8sujjXmUFsO06yxcibB07WHY2VdGWbaa6yKPDvJtg+haKlYWpWnlIO98RgqODLVMxqGZ+LE+NfXD+kUJzK7zoFxeIVewZ1NjLUD1zeQf7OmxMpKjeEKmKOHgQJibf/DjMaX2Bxny2giXeOqPX00Cg9Sqn1LW/F16NTUWftgmftKBMX2Yu1GBefh4CbI+/SEBNx4CuVynyJ5atDvVoyc9D1oeJ3QRJ28J5FCC5ijCzWsmRUTkhWZKEe4CTmh10x8TzAImm6VuXmK3auGcPc84MLmSsfSUCOkjNfMo0SSZ4+sf/03hQGkMJZjVgK0zsdkzhAaQnbmazcI0d43j6oH62x1btNO0La5+IUzB6bCHaS94zIYbwZgytD/OyVV5wqRSpHr0sZEJBC71YMV8KvdHdw4pKXCrmQhn/JzRQ/mCuHR2gCjaLEItievyyDRDD4WmpaAtWo9snczf4OL5ZjgwLomjDULFdAOBaDeYlqscyWEVlGuaRLSnIvBTwYTA7N5kGRy5FB4HK3k4lg8JuHEQtsU+RrDjBzvfu7NhNOcWFuTgBx/KOx8clLnFqnQxo9TZoKqEjJJ1PrTrthiEW2LzjZpUmw1VrsVCQfdNxssVGYMUdKsHrIOhYJNKKl5aNFfLD8qPM/o4imVmelru3r9fdu/cKXneTosKahzAm4QpuRRZN61cEXDVw2sACrjj9oLkZk9K6/R78vZ3vyad88el3K2C9GwFEmPVwBUHU7GNNhu2bR5rue85Voqmc0JB2izblCr1nNYHYTwDrAf5B2JCnhqH6ajz4Y5zsbadMXnKqIAkSDt8x5oSki9PYblZXlY3blG2UGgrH0lTr7lUJBrbKTc98LRM739U8jtukV5pEsesiLJB57othvR+MeNh1VuCpHRY6vWuHDz4oW6L/fStt6TFW8C0HhkFz6haZ1IJvZgx11EFHO6CtNvcHitIoVDGceb0glG5FdZAVD73gjz1OhbvZkQO7Fua2mlWAsma9eXF+3K5KA8/9IB89rNPy969OyVGPyRjR48Hjw2FebD3rJ4eXDv1Q2sUcJ0ikMvHCHb8sM73fjSptvjgIh96nJ2fk9mFeWnwabfYKQeNiRPRKTE9WekJRUF1QoJpYPb51gfvy5nz55G2pRfh81AEt+29WW7evVsmRivQC5y1k1x4SiMfnuz8Q3pd3TC/NuLAHBmpyOTEhJQrFVeuwZRJCtufT8GZbxaD5KKqpAVymT8tzdMfyGvf/po0zp90W2GQDrecmkYuyIov1DRisS2bJHenMNOehA1l6fpDickuxuvT9qgiH7vQh0hpR2v1jPD9yc8EsAzYuyiPO4OaK34YhbN6XsfSP+18CyM0B5cPjwNvC2+jkS0U2ooKIJGyFMd3yF0PPyMz+x6SaNte6RUnQEIlEEus4snFZanQBcAwZCLxWZVTp87K62+8Ke/h2PPuMX1xqNXKibXBt9XCeG2pIAsLLTl9+pLUeQNfvqikwQlIhNVWsSRy095t+swLb0Pmyovbq1Qlei3MOhBiuRJFkEupVMSk5E558MH7ZHJyXHIxR5qrCX6MXHxajj4dERADb7Lox3IdEXA9IJDLxwh/Gg3C+1k4VCJOXH06HoeKh0vD9cT0Me0UVZ3KUxImrX7lUmu15MVXfiyHjh+XBa56MIstQqM+eM+9ct/+u2TXlkklAsvFfryd+fAUpvA2aCpgfW0KLLzAnR09GfWuuDJyWRQ+hV8/e1QO/OglWTx/Wp9DKYBUeK0l3+UdY3ZdhLdjM61eZLeaAywDAqeVZhtdrEqM8mNehG7XpduoQgNX9dZmff4FYew/f9eYpuNqpTwqxco4FHNBqrxLjxeg4E8NT52sBA6hXbecXGqrAmrnTBJQBw4lF/RfGwTfk6KMjG+X/Q8+JZO33iPR5Db77k3EO8V4Qd82IF33aN7EsuRCIBKPCYUTiQsXL8n5ixe1jlTmaT8BrLP+pBmyPztYYh07cUGe//YrSF/F8ebt100sdqsCfpDt26fki198ViYmSnzuUy/N+GOvOfmKAt6fKxs+PLlt6xasfKesXPvX+DpUEnIx6Coyg0AuNxYCuXyMYMcP6/yhflDE+loNmJxq81vqvGaQwmaBeqLCoJBceDouNJvynR/8SN47dEhqmIq2QTbFfCSPPvCgPHTP3bJraly3wTS9h6uErwvD+HwHCSOvt6Mibycp+hwrkgtDOMulkrEbAkxV5Fo16dXn9fmW2TOnpIaVGp/Q5y3IJJcYwtuANS3JDQqIedg1H4JlWDmetPhyTVp562vMawO1OWlfPCPNi6dk4cxJyfEZGs7KNQXz0RuRQQB5KU5My9Zb7pQ8FH+9CWLglSfO5JVcTFmzD9zkPwXqxzqaN+gNipPbZx3oyw6OHy+oc1VUKo7JzM5bpbzjZpHSOPLKg1zyOB4gGL9ycYfZ996K5ALwBg5qa3YJX7fSxKol4oOLWD0wD5/PErAdMMif779/Sv7gj74qJ06eRz4gOoy7KvptbKwg+/bdKr/9T39dtmypoP45KQ6urJx4Tx0rqBP7Vp/oh5+OG1iSuITOjtKcbOWSIpDLjYVALh8jBjs+687a/Qlofvx1qxcHO8WSU9TZbM6o5NJoyjdf/KG888GHUgexkKjGRivyyAP3yf137ZNt42Nuhg2x7FUhqOBPaQf/XZAb3y/F25GpuKggVEkk6HMgjtXEw241NWRDqMgJqmrBSqLXwsqi1ZBeh3VV6kC9urrC0JdFglysckyXFYf+aqhih6aWHD/VmEN6vtvrzDGpHXpHPnz9FeH7y2I+XOlqQjXYhgZvxwWJQSq3PPmMjNy0D2krIIAxsBTIRZEt24lvs3UeLRAeBZiuk3m9TOvOKDDjwogIV0dQ4kzGL3aSeCLeGs14mX5kbiuRC8M1XzV60uKEBKvemNfGdLUE/zS7BPTyVebW37sHT8of/OHfYAVzDsSAZoOY2jguIyN52X/3bfJPfusfypbpUYGTi2gcGa4k2U7C0YJbEfni/BakluXEfhwy44MYmO7Y+OhDf3jA9YVALtcReCCyByNrt9MojZE9rYaeYohGJcnVS7XZkm+/9Jq8i5XLXHVBZ9ClYl4evh/ksv8u2T45oXeO6QQfYgSjGfCMBlgCHYYctIT6uCirxQDXIA+oP/hRpTMvVR4gD77uhh5Uogy3+b9XLiyUYrXib6KT1OQP/RhKOzfF+BwH8sSqhdcMpF2V3qkjUv/Zj+WD116SfHMe7ceKiOSFzFifFhRxKy5Jbnqn3PbsL8no3rtFChNGLiAdzduXqzXhFo6toLReSVhiMWig1Tw10dBM53A7jn45fc8Z/dMwxWBHesDbaMzqpi8YhR9rwBTaj86drRXDtBxLJi1k8rO3T8h//OO/lDNnL8Inrw/Zxhg37L9bbt0lv/Mv/rHMzIyBdJgnr7fYBiH7Xf+0jlZ/zZ/RaDo3wcOYxXLN8jCqCrhREI7XdYxh55qdnP1//rRN4c9aM6l8LSbUM7dycBbrlhkVKYSxVBczLgVnPQeG2bP5OmSVQtYOcK6ypvlKNn/YdZ0C5cqtIb5qJZG4qMq+HZchFenk+c1+Xp8oSxd+NHswe/AT2AV2gb0Xj0gXK4NOgfEZjlVHVEI5Bel00CeYXbN/+GCpPvOCpZjWgu1A1fiSSsmXVLoFlsUyka+WgbycMN8u6tdj3n2CMjMiuawgXxWSletxHB8eJ39krYMHZRlkguyoGtIezuZh4nocdqMlhTPMAsLgqg8EYu8Ps0C+HyzPpQjHEFYstmqBsDMpSZ4+X0uXybyPTC5HLAE3HgK5XOfgOefPO1M4Xu0sJwRNd6L3IQ33p7sXPbl1NFCBEChluTM+mzCDLKl4kjEl52Qg/iDSmChXSZAVSmhORdWbkqPZ1R8ssFyfGJmCrEASvTiGne8zRp70RzhzoY3XFPSVLrDHIBh7uBLRqOwjxMLMvY20bZISZvJ8GBCsonm5HPrF1V/bkBFr0/C6qniy7eurtGdU2M9Z6cOge3lYDxoB0Mz0qMsX4oiCYQbrab74lC3RUBdXjwLiWz4URy7cllwGHGLLDbOAGxscHwEbEomayAAnPPSAvksL5mCoufGbDVgSyTwGdZo+6Q8Frd8icWaXz0B07TkI80ciZ/j0atAb2XIDi+6l12qcZRDOf0m4r6PaKfqD/xhWXlF2CWiwXryo4OpnF+FNMVIiXiTQiPTlJWUjD6+KKT7cxMr1sgRDPQGSiicWYpl4CWlnBD8qZncRhyGTfVpbZzKtmmYYBaJPEhkAEmlU/HCdFYM0edyUepID4twqAZsNgVyuI/AU5AHxclWnpFeoCZwaVGVgIUY0VJXmVlMLh0tNC9Cs1I8O5OQkAbeSkE+OtxnxeYpOB35tWwlA7KuLvBgPlcy40FUsW18ZQtNlo4Dy1xk/VgqqrFw7vL1PnP9guAKGC3I/VIHME41CmQSbZ1YoZtRChUSoZMMQbvnAVKvVlVbW10K9fypkyVxGGNlew+MEmQwV/8cymIZZuzDtMA3FL/vGp3HinzEh2K9WQbZXG69g1Txo9U61I01yuOHhDrsL87l4H/PjHd0sh6Xwekwex40fOOCt3PwF3ThJfSz1cDDM12E5CbixEI7ZdQ5/Sq90Yl4WqnFMoAJVjFRS95JyYFGF5EwVOCk+Eu1KKhQoTl6vMMH8nm9RbrdBODBJNPqKExPe+aXKMMnbck6uATm3/8vWv09c3KxkofV3JpVb+gwLDcTF6OfF/q7d6wSHz5dE4/Nyfupk2qXCrLwMB+K5TmSK5ZHmmRQP0Mobr/QtBHDo62iUUEw0DgNU+M8jiniMT/sKhSp5IHLkrj05HrNaaBiFaoJ1Nzcz1GJ9PHSk0YdRSPLnwvuxQmUCNhQCuVzHsBO3X64EOMcBagPbzKFmoIL3L0skdCBoIdQITit4USUMgZ3CCTlNBQNAKDmsViIv/N5JGySi5NLiAzJY0YBYaNc7wVA2FV82HysB7gxReKG/+/PxEj8X15OSpUOoy5cxCa/wrKUuUOOTSKxvTHyKQZNgumweqdvnb2VkAR9UJglLGzwAnxd+rQkGdVgdrL/8hh0EHokdgp7VY6MtoclMkoyGQOtCce1xddPitDBPGBC4lVjgsnZoVNqcZP+Yxvz7oHk6+4rQCgyRgBsJqlMCNib6T0nOYaHwIXbVgG5/BcHHoEJySt+8lugD7zYTf5gtdxp1qc/OS3NhQZpzc9KahVyaV7NJc35ROjU+HNkAwfA5lUytmI8qebMPg5Zn1iXwdUntyCuy/FTBOr1pUVxEBWKr4oZaNm1q3oqs3YNpvRCmRi0qTbj6BL5OrhxMbJJQII5Ps5OT+UZXLtY7cqHWhbRhd1Jr6nNNTZD52ov2bfN1B0nwdmhI9mNqPuOlbcv2jwGpzIL0BKp/GfgChknAjYQclEM4ajcoVj7lqI64TslJrdmU7770Qzl46JDML8zrCc5PHT/0wH1y3/79sm1q2i7IIpWXJF9YdAY8ACqWnq5QelI9f0EOv/GGnH3/fcnX+Wr8jvC19q1uW5oYXoXJSdl22y1y8/33S35ySqRckR7Kb8ekt7QsklUWiWJyyNZvSJUyYD4+L2MX/hqJNkXq56V7+j2p/ez78uGPn5dC45KU+FoZXcmx5yJ991ejOCq5HbfJrc/+ilT23Af3tPQKk5KL8sLXyPC1/bqNxJzd1tESZLWxAvalWnlF6NP9KIOPkTbAzQfePyM/ev09OTdbxYKQTzHyjQFsY1PyuQaOZ0meeuIeufPmXVJAeRwJumM2WD34aa21OmyD/utnjt96+4T88X/8azlz9hKytudc+KlofsPlllt2yb/83X8k09Mjwneg8iHKLFjMoFYZJBU6+72YwCfy9oGMl+By4QEfJ8LR2WDInqJEaoci5EV1mly9QJHad0vSk9yn7ZMBpdDvD1sXM2SsXM4dPixvvfQDeffFl+SDF74Hofl9OfjdH8jbMN955SfSaXJbzObgPt8kP3UNwnwZdVCWR5qjkZVRbAqXAxquqxwNU/Wb/iVhWQyW7N1ZP2LA3Z8JMBh/NbB28LeF/jt0/JS8/JMD8sL335Tv/PBn8nffflW+9q1X5Kvf+qF8/fnvy0uvvCZnz19SBc8VTLKKGawLqqI5uyqp3Vn8uOAY4ecddIXL7Uz0la72EEbCcEnXEUktAm5wBHLZQMiekv2nqLmMWExUUZBc+lL1w4d4BUJ3dqWh/pztt1rSXViUNlYwvbMXpXfuouRg5s5clC5mvi0ousbFS3onmcZHQl47yOasSsuJ1k9NKrXU7e0ri2+TiacIq2tiU+j1FiUS2hHoJUlH8fXUSM5ODPhr9MEwgmE4zZIwYNDtofkwzIuPY/VhEcwuivNYgVaxqjgv585fhHlBv5N/6vRZOXn6jBw/dVqq1aq00ddNkD8v/vdVKQFyZB/AxtWpFufEiCPT5zox8dJGOPx8/KuGdl5GPNIxYRJwIwEjOGCjYLnznNtL/J4GX3legZRLJRV+tljTUOHjpPbplzvVPbyfKiAorlyrLXlIudGSCmS0TmlDOjLS6EipiXAQC/W23vGkksknUwoHJOtBoZ1ijyqm/hqGJMOEYYSZ8PCg1YtqRVhJLMjYFKtPSfgNOfSJVpQuCmth0Bg+jJn4sEyRvhaKjFUx6FaPAU84mb1Xq5Z1Dseuoq46VoyNln2IK9JtKxPGayJRFcekzVXHwL6V51BK4pFR3lYTEEuurZLLtSSmPYIdwlfv0yTBDCr+gRasAayDr1DARkD/qAu44WGKgeChNRs/6HXnbbfJM09/Sr74hS/IF3/u5+ULn/s5+N0OsilLh5vs/hkM90cwNW16F5KzZ6FPr1MpY3bMu8MKLRBJoy0lEEuh2pRKqyvjiFPq8Il35MDnZNzbC20+7Euy2pLq+MerPxT/pMSgMCz7XEtWfDoz7QZZ/WNjVJwFdWB8KlY++kK7fu9ExcIZ1+K4d33BzvysZ+nPhJoYPg4Zq8HyUfH5at5Mxwc6vcCdDdc4WorL0n55jEgq+uZj/DcbTeG3WqyeFps35FX5CmcwU6nA7+Ajf8T1hJKQMWLrLelYlURYjUTSguCowN3t1GR8tChjowWQWU7GJ8oyPl6SCUi3s4gxxc8UMI3faqUgUwdfnaRalwUjsUbZyFrDjATcSAhHbIOD6puvL9m2bUZ27dgpuyF7du2Sndu2y+T4hBTyfK+VKS38GMHQvgJ8qKk+AKuXCAquCBIhkZRBKpQS/RBGYuHdRvq+db6GBfXJEgtzWUmWgAlXkivAsKSpaudpsmxtriGWlqf1zB6fJcfKVLxxjydHH4KWZKN7O1cgfKEnvyxJsoB7enpcPvdzT8sXvvis/PwXnpFnP/cpefbZp9V86lOPy+goSYukxqcpmW6wHgGbHYFcNjioIKlgOIPlVhhXKpSRcsW2xvJ5zEA5c3YJVCn1g0Fe+uA8+ABlDCIpOHIpwl2C0uN3+/1Wle4cFVBO3mbpiV6DZFV31k7RiJeTQQz4aT5DYNH0UjUm+Va62TXgY4Bv9aCsDb753kxyGdZX6ukFJAGCieKekst9990pTzzxgHz6mUfk8Sfvl8dgf/zxh+WRRx6UQjGPTLme9UKsva4BGxeBXDY8uELo6VPdydcs4cvVTMTPHWMlwW0z7tUP02XeK+uduPWH82N70WOeJEOBnTcL6N1ojIEf/YYJiSXuV97eSlMFlVNC8vpuGDLp++weGb9hwcPRnylrrps9mZn/tQULGRQia79KDGajnawWJ/zFpCDO6fd+JiYqSjLTMxMyM2PmlulJmZqawGHMZsZ81qmOARsGgVxuYPB05gH0Mnh6061CZQ0lyWdZ+MVJOJzeNuVPtxkgHI2H1Q7TeN0zAIsNgDw86MfX1pMY6MttLz4134Hw0772tHiSMs0D0CCX1hPLcmUn0ETDhUmNUi+XiQcTZqF0iTqDDPvu2roMGC1bpKtP2iAvgxh29LJYZfkrAeXrG4vRwTFMFXjzWPPalBe7SsW4Vipfq8+qc3Gru5oQvszT/vzIY04rg3n52EtbS5f3ycYcRDaHYeEB1xPCEdrgUCVAsvDujII3VTdM2WWQCfYqwIvBckn8oIl4iy9Jhd+M72CE+W/Hex3t06Z5mJ1KbE3IZuBgtTFZEVoZDn8t2YmBreFNuNYq81lFjikGo2o2a8xjncEqsLUk76XwoSQJW7VpXfVaDE1P1f6P8PEpmjMkICBFGBGbAF5FZonF43LqTlMwkovYl4OygVNALhL/SCxdaLFk5YJE9pS/ZcLofuDRuy/P1WIgUVoDX0pqrgQjElOods+TXXfxSJ9/cR4fFbQhLHQdT9FhHcIyVFBOItnG8nrKYEJfryy5BAT0I4yKTY50TbM8GEPF6VgvisSi2lDdvDhOMjG1BMUNt6kn/PZ4qytC+HyMS8PdNT8fvhJYLqkQK+eGYa918qsTIxe/F5R9Dmfpk/rLgNlkMehWD55uSwKWYlUFrgdYl+Uki2yFfDjbQvEEExDQj0AuGwj+lPenf6oG7FqKDze7/XmkPvbH67UU1bcZ8SoF1hRUwPRwksTFj7drmN4fS/EfFiOxUHHRj2RERe7+NN6ADAF9fQhNFkN4kwTXD1eZXoz4aUts5WLvAbA8eeOBb+1SuFwMiQWgPZuEbu0cn5eJki7EyrR6JoLow1t7ZWDpFI9kMYZ62Weel8pgfa89lvbRUgm4kRCO2AZEVpF4eAWTvf6yEnx8DhBv9+hLD4cRi6lkFdhtVWJxvShBgGD4ACDvJvNfp0xJxnJYlWYdEkfLSJCUmkZNIrBVnG0XoMxjFX8Bn6ZJSgAan4o447MEvrhsYNY+pL4rNVP7NIPVdMlKSKq3iowGyw4IuBIEctlEoHrUGatzL4c0nJrIK9RUvL8J59owkbG96t77DwEJRIV2DD6Ivt+MQg91W9hl9VsmAq1Z8dD29vk4wIurEn4Tv5MrSitXklZUlrZAYG9LEf58n3AR8YpIQCLCag716iNb1nVI9opB/4zbNfHySAoxrCrNclimUO+dCMpc4gcJCFgrArlsJkBxUF95glleBlWLSUowJBQiDeOffbAL6eGVLYNRjDTwo0Tiwnw8Dcv4waR7NUjyysjgoKafgnnq1hz+o7z0CiPSLkxAJqWZh2TMVn5c2vkxiYoTkouLWPHxJt30CoPWWQFL6kgr4THgZkyLPRhxKaxX+XdtoPn6ajhRcqHAkZWAgLUikMsmQQQFQeEFEL81ZjKoRqhy/O6/V4WpmKrzkoIKqQPxtMO8GYV611Yo6q1QAtEiYHErGX+Npe+P7owwvE+WwFrEP7bVXA6MrkksXVQoy8jMLrnl/idl732flB13PyFb73pcZvZD9kHufEy23fGITO2+XeLSOFLwKRBX9yQvh6SRtKcybBXgMeifFY/U7Xt1/aBvJNCLYYbk6KPSavr6O1nqERCwMgK5bBJQHVCGKbF+3+GkQuEfL7rbm6ToZ6CuIbHwWRY+1+J1jzPUpO7VJD4ZPFVP4c+veGj2C/1MNC4kQTavPjCSp1I3vBEv4SP9wSqkPCqVnTfL7geelF2PfFp2PvpZ2fnYs7LjkWdl5yOfld2QPQ89LVv3PSCFsS3glgKS5ZGWFWKmALNK6gQH6uxsl5V+9Ida33rxxyNFEsqqQPr6RUGPJZ4ZLA3P5hkQsB4I5LKJYAqE5HB10oLCo+ln7LzOQmJpxQiDkGhYFvVXVo2pqQrYEQr+0octnd1JG+42zYywzCz5eGU+HFYqf61E/tgdasJX3ZQqEk1skdzMTom23yT5nbdKftdtUth9mxR33yol2Msgn/LWPRJVJkTyJRBM5pZbZqhFZOtgbUrKc/DuQf8U9NWlXCJoobMvTZGQinc7MbBSlOyprRVdAp8uycdFS/NKwbDE38Wj4SUgYBCBXDYB+k9+Uyf8MxU2XIb78nO7NP2fU4BO2XuS4AOUXhnZaoFREA8O3XZzLzy0j3WZdClRRryfzzsj3o9ZJ/CFqZkYpvxYF4hXyJ1cJB2sRDogjE5+RDoFSGk0ka6TXmlEpAjJl3Gm8FPCIBfdTnIZJ2CuBLeV6DJ3X5TLgmlcfyZCP8vL21S0fFePodAIkFUQDLy9qNvJUGTi0chKQMAgArlsUPgTvv/kh9qggofwwKebR/7P3P57KINC/7wKSaKDvNrQgcwLflB2fK2+fTq5XxKG4YsrI+QS8f1lWAigEvp5F4TbZ5ezYjcDe0lvDrasmG+Pn1juoA4d1KULZeyu4STXaBxM2eMXibsglq7eJVaQthSk1YPA5Bfx7av4IJ1cEQRXgBSlB1MQl9dc+rSwIi2DYDn2/I4RA2NaP6fHYXnJXgejWJ0tV5c3TL5IM58vSKFY0I+ARehTXkPTWBrRcirw43DsXPRJp8NQ95fpHxVk2gPrsrv8JTDCGQramYfm4wJYxyz66z5cAjYXArlsUPgTmroAKkEVSfZEJ1HwRZOpQIE7OxYeEE8WFO9n31Pn248jKvQWFHu7C79IRiBFeFEKna6+HRkLkCStqU4WznoYGRWg6Cl51KaA3+wf3QX1N2EcSvYFi1SkPZBKj9+Ih3QhHZqooylPRIH0aUo+y+JuM5aIW10lkB3sNGOsUGAKbz8moTCexs0+8wJonsycpvWoFcM/rLZ6qA/Lh58SAn3hXlmYzpup6JusIW0QKT9b3EKmuQLIEbnSL18AybivTyqloT7kWS5s2Md6PLXH7S+74sn48rCwR+3hWQ215mmeECP5/jCKoX9sDZOAzQc/VgI2MFTBddvSbjWl22iK1CCL9YxUITWRBZgUdS9mxPtRapJbbEi00IAJcqmCXOpdqTR7Umn3pATJU1BoHoouhuQxM+Znjnv1mvRqNenSrDclV29J1GhL3OxI1MRqpZEV+CHfqJZKrt4xQfwc42MmTQKzTxHjH8qZ4hU17R6m6gkoU8Q3ijJKM2pzdqxk6B/R7HGdxusstmq5nJI0AsIsH8TabLek3myCf1tat+XBQB9hIKI6Waqp9i7qwHYt4JgsLC7YJ455BpMwFDRRTxBoqxXpYeZdYSQMPrjKb+mboDcSO8nYVlvaX9nqAJYjf0BRjpjU7eCj+mSZpAGbHDkMqDAeNiiSEx6HuN2qS3N+URpz89JdqEtca0GRQh1C0fh5dyrD4PydIuOKhrPdGKuX5vETcvT578jxV34koyCnSrMtBaxkunFRFiolmZ0aldK9d8gDv/lliaenpJc3pa15IF8lByJRkgDyzvWo1FV76j/DGZXSjZHDaFnKE2NSGBuRCHmSQHoRn7S3OFSGEZQi2+9bFSE/tTM/wOVuPyAqng1sl1oIamaFeiLQzcc0EpmNBTFEWyIdrFqabfQJiKUBIm9Aw7caRjAuxyHweXMaYLDiueYBWcHkB4Wb6LMq+PyFl9+Wv3v+h3L42AW0exQrNqyuQN78THEx15Q928bkN37lF+Txh+6SkSK/BNqSXKeJtltfax+yvmpP6w8jaa/90he1cNWbmBiXmelJqZR4/Aw+Ht8UR/DXhwVsbgRy2cDggaW64vWJZrMmsyfOyNEDb8vJnx2UwsUF/RSxbnGpanAaxMHUitkICzebKm2YVDGFNpTphfMyd+hDkfPnpVxvSIVfpYQi5PWKWqko1dERkd3bJL93p+TGRpUAyAD8NDK313IwtTTVTFaS1hslKLnQD2EkDUobCrBZyElp1za57dEHZNfdd0p+FPkirBdHkt6txu03RwYEPZWsNMhMJ/rjC1ZoDi6QyLizfswI/6qsIfwYW6ODVUu9LufOXpTXXn1L3j5wSC8L2fZakhPq612uUHUTMJEPVXaP1NJra5vauYI0uwU5c6khR05elEsLLWm2UC78SA0kkbw0ZLwk8sDdt8nu7ZPoW16TaoF8QDCatSNXcynYpwaEsC2ccHB1gz89GqhLHPXknnv2yeee/ZTs3DmtHMRkljQlb0dR7jdgMyOQy0ZD5miqQlYLVi6Nmlw4fFze+M6L8qOv/L1MzjVlvMlPEXPG29FZbRa8cGwE4xRMBqo4kDlXHnnM1AvtphTbDZBVA/YWVi28fsNtlFhaMdRdoSjdUkVqzInEQoWPcJKLoHwVgL8pieSkFfHiO5Qh7NmwJgikXkD+e2fkE7/2Jbn/s09LPAFyYR4I41cvGQ//Wkf/ok4b6p5cGJrCO3tWFQBxqeyZjzafP3S7jNVNOx3WV/QhHTSh0FtYvbz77mH5z3/+9/Lyywd1m0rjILovgnaDFpAB3WAjSA+EgRYjDf7Qn51eQRq5knTiir6mpqUfyuEVtB6IhX2PYwCCKUe8PQHErXmB6Pmizh6f0+E2nwfDQAyuPdoS/qCfXG3RdzRREvJ74L475Pd+75/L7bffovdmJF2RtIjQXNxvwGZGZloXcMPDdIXJAPxqg9cr4mpTxuabMjHfkkmacy0Zh5kV+qXSBhnBRHzKOGRsoS0jmDmXF5tSarSl1OroKogKp8OVRYwZPCrS4aoE4dF8TUbm6jJyqSoViJpwV+YbMrLYkkq1JSMU2EedjCH/0QXUFTJO0bJZF7pbUqwh3w4aSy0GhajkwX+Y6qVi/vy7PBBH7z7ImEwJU/+QaWp3YSjJSktBMmNfE41OLPOdosx1yjILoTlPs2umSWWptE0WIIutUak1R6TRqEijCVJpl0EqZfRtGXWEgE5IMLYqA4l0I2m3eiA0rCqxOq22WIcKyh5BHSoQb0K69Ge9SqiTyTxkltIz92IHK6Y2KAZ5aT+T99B8191O7C8gwCOQy0bCCue23rUFhUezAB0xggnxRKMn4w2RsabIKAUKaRQKZBRh9BtH+ATCLZ7JGFY7jDuCuGUQR0nvDsMKCCbvEKNO5VP6+rQ+9R3cvJQQ8a4yxCMBMX7MLTFdNVE1w8SSgdt3dDMf5leG8CaBEdaJ5aJMls86jaMOLDtR66rprAPUz6xqqNW5lwXJwid0xEFJ/hDG526UXDQcSAo30Kk3C0C52/UkbtHFUo8LUsXqrUbJm1mHuazERWnEJWlGJWnluEIZwYplXKXXHcNCbwyVGUH1KjBLMLkicasSlsuVIVke9h4Ihy/orEdllO3F1WNQUC6lCntWGhHvmMPqiKtRLAl995jpHA6pLWCzI5DLJoLOsaHkIyhvXujWB00iKAwoIuqidCpK010HcXcRqZcTXldoIyL0vrSRF+9iglXjxyAS3ilWxEy6CKXGC/vc/uq1wQQgFW478Y4nXkMwQT5gvDb0IskIetm2tWAiW6sXf+BHg3XlNhnDWGjESiD/9C4o1jWVK4elZTkmq8tLq4W6MDrt7W5bGj1KJ5Fm9zLCOCp263EHnUHpdXkNqoi8S8ibQrff8kKfoG/ZP7Fe00IQ0pKu0fPSgq3FvgZBDr75wPxQVgTxJqQJO6WFhtgCkQeFrfR5U5xHQMAAMFoCNiTszE/A2aw+H0INnY+lMZqX6hhm1GMwR2KZL0UQkbliT+YKEDW7MOnn/ItduYSwS3DPFkTmodsoixhFdSj/Nsrg3VglKMIxKMJRLGGKmOmSzKjoG1BzTSitRpxTqRUjzOJ5/QSze5iNAvwoyL9WNPsi4pjAjjgLpZzMViDlHBQfyBIalasxU3bWYG06mknlrhemSTyIR1LzGCQf74ZONkFiynJgSsYbBLuXt/eyLsyv2apLqzEvzcasNJurlTnIvLRai9JuVaXdriHPJvJrYy7QkyL6S695uFr47+KwVuoDYqo1arqNFfG5Hrh7UoW5gL6A6aVHc9G5aybwE7gFdprmrkmn05YcSIskxzYS2n/8d32nbq2Dq0dG6A7YXAgX9DcSBrQdFaxXkFGrJfPHT8tbz39PDnz7e1JeqEsF02LejhxBafUww+6/oZSDAybFHAjnBhZXFSAMKJpins+GQGkvzEv3wgUpVxeRZwvkYs+4cCulCUIj8TRLZSlvm5Z2KQ9SiCBOKfFiPpWjg6onFqnXD2zTzNeHpl7PgdRBONHWSXniy1+Uu5/5hHQrRVNi0Lpc9bCOTEXiIcyFekPZEuoNL/OnnZfinT8Btxr6S1iIV6wGpmZ+fZ7S4PMtaNfho6fkz776bXnxtfekwZWHi9dXzjJg63WLDRH5kKqW02NvF6XWjmS21pIqyKPFVSHK4vqEvV0EhRdzDanEPZkeG5HKaEVq6GdQBFaJLN/PJ30tIDi23rQYPkw32nA8uzKOpcvD994pv/WPviy33rJL3+GZYzqmcX1lcCvhgT6hq98nYKMjkMtGQqoT9EymklaFSwLpdKQ1Oy+n3npXTr39rsSNlhIAKSDKdUxpQvhqFg+1ZUYHVQ8/skWTK4JysaTXUBaPH5ezb/xUGoePSKVW11ucuf3WQf7NYkEaFSyJdm6Tu579lHRGytLI54T3QCmpIL3XbVl4NcdamN3Au8dIMB3eclwuyW2PPCi79t0ODcwbqo1USC6aJZJRLdNhORi5+DD18WyBSqQq0lWI6WlVmKWfXBjFyMVHY3ATfd1ot+Xs+Yvys3cOybFTF/Q5FV7/8OXSTLJeBqq78WdtwKoBtnpT5OCRc/Lm2x/KmQt8kJK5MA4nCiSXpkxhJfrEw/vlrtv2Soy+1vexYaXoyzb40mk6Qbj1NjfTCN7eDIJBwhH0+x4cwwcf2C/TU7ydnJEZD/EDuQQMQSCXjYbM0aQy4fURbgnFXaimDpQvCEbqdduXh0J2L/ey6y/UnCpIPFTjm7JXs1qHFXlgRlt/96C899W/lQ+/810ZXQS5NLEKgnJtI24dBNCAMhq57y757H//r6W4ZVwEqw5oPctLoQWa1QPKTKEaMRsGO8vNIz1WTro/pG2AoLoczrYGs7qbogPUyW1BU/Bpy0BG3DKDD/102xA2XsOhPeY1KY0HoE80OAOqdf4STE8b+7zWaspitYY88lg9jCLACCiRgXyWgrEMLJMrRl6jqqJvn//eh/Kfv/KcvP3OEVmocWKQ11rksQItRS25/aZt8l//q1+RZ566V+vDQ1ngDWVwrFQug1yvJ+nYrbp6gkl3o4m+wTEv8hgiYJBc9GYCpA7kEuDHUsBGwcAZrCc19RQtUMJ8HiSe2SIyAyU/CaU3MSIyDnO0LDKCFUYFWqgMxV2C0PSibgwXL5NMVwFR5PRayQK8eM1FN9agkAt8Ch/CC/WNIlYLnO2OIn+m0/K3SA916E2NSQ910nqo0D6GvF3+E0gzgbqNe4GbMoL6KEmhPNX4sKtpao2UACrBuoK/Rioki/T5HZMqVlofHjos74IgDxx4Rw4dOiLvHzwkB7DCO3bspLR5swDbRaWpinNQmI/BNg2xgoDXCLT51okJmUZ7KvDIdl2F4YhPqSB+BeRW6XUgbROs63iPWAWrEAqfX8njIKIr9X1hIxW+Yw1LGPhz1akKHkIKosQoT//gVebhLIJcUCZ6Tcr0W0ZKkIIXxKXkYWcrYWjuebBMGY3gXIRP1/jWk1T4XFO2PwI2NzhuAjYaeH7rOU6VwBNfDbjwxyNOTYNVS68Awcy/F0OwkunxBYg06Yb2MLcTd2eZCsOYDnl0IE1uc8HPHnhEOAtEPCo5bp+0uFVV4GoDJsvV8kA8UUFayKeDsA7NIdKlIJ8u0vZUfF1YBtqizEnQNNogsdD07U7R78FVzvz8vPzwh6/IN/7+W/LNbz4n/+Urfytf/9o35O///jn53ks/kFq94bsRJtIvmf57tUsxOymW1YvxE6MSrKYKgm2bCTN+Fb6aBaKbZhnpgTQgfOI+JrGoH8NsuyqOQHidFooyYrHrQxBndjpNrJ5sq5NEh95GPFcvlLca0ToiHUnLxPqTh185VuHbTDBGQECKZJgEbGRA2UIzUA1Q2XehIWw27lQHSQF+iShBLBULZ3yIjwui6PIjWvCzqwMWV11Qwnx2JbNJZeEZ6WG2y++r+NVBKqinii+XcSGaPxQZ7MjMZeMVnEFLQTjNFKkdVTK1yHZ0u3Lq9Fk5evSEHMSK5d1335cPsHo5ceK0nDt3EfqbN/IitS9CO5Hi8/MeWUWbLc2gVcUPTR4L2r2wOX1u5OOFeaIX0Ewqfafku/DntSoNs1ZStHwQDF8ZY/XxcHE1/erE2pIK/bSrXf368w8IWAqOl4ANC1M5BmoFqIWMmJ+FqrLkskaXNs5cTjQR08KOfOy6BjefUlVHdaQvxeQDEl7XuVm/PoxnqsrygUkSSd2E+fs5d1In+Ku602J8XIBBHs47EzoUJJlGKyfNJqrIJ+nn61JvdEAoqF1UklJpxC7Cs8BhSAiG0FqZVUseXnq2ystjMJJX7k7Bw0U+5d1kJD1PfK5nIOxw5+n8EnK8QliNfP4ZaMCqGhWwyZA9JQM2GHjK60Vp1WimlrDUUOFFYNsjp7iwJA7jD/FXoT/T5qGAYY9h532pXFmwRJAIXzlvDzRC3ZFUsDrQ+0aUHFJRgmF9Mn7LykBauvXBQa/gmT+sdhcTlK4Ttt8E3tDIsBonUmDXC/ydorTqkZQLExLxnV1d3vKbV8I5f6Gqr1HxYHG+yH7QMxX+egrl1pTWGlX0YjG89MOuXzBR2g6tN340PxUcV5hsm/4hT9QMkdDhfptsgAxYUrYOa5FB8K5CFa0raxUQ0I8wKjY4lqquLJY7/N6fZjYH2iGqXSFULPxTpUcbVZnNklXZUeGTZJyp8GlVBvNfJVxWHsuuLAaQ1Itwpta6VwAJFuGyJ997PdjpB/UNXrSoA9UcXqRv1yqQZEoZ1g/0S/21n51L2wEzieHcKZh5WsMkLPUKCLjm4NgM2ATQ2S/VDP85Db4ssnFodzIwbWdWmp3z1kkstB0fsDNvIxtdWFCcb4qsfXmsp15MSvSZ6moOqy+SCknGkYutqvwKYAjYILNkxKO/XUkfQXyf0UmLn/2n4iLw9KQ7QzKEX8Es7cvloTFXF9XKDwi4SgRy2UyAzjDF5dwroW+F4STx64dmqUFUtrb1ZPGc8tWlhbeb0Y+leQ6CRSe8NhB9tcrQ56FVgJkmo8WRi767izfh8kWNDOJdV7AMiPr1gXlkZSm0n7ydQrfLy+wkGg2xP/ppzBTq0igaOBCagcbJWn2el5eAgPVAIJdNAK8wBpWICa+/DBOEYXioeHsys7ZwD1Ve/Ek0N354scWTCgOzoin46/7g1z9zHy66LIpoYj2k2VjaFD6vVPRiixPz02Tq5e3M1n7sWpK1lUXxmRV+E8Vu+c2KrsggSAhhWs0Echn4Mpk/JUnD3Cx3rQvj6J926IpI20CLCQ2DZgTRF/cg99VJDMLLitVlLX9pr2jVIAGbCzzuAQHgAJz+qrGHQbWTWYfBB0EJcRuJtx4rqUBU18E29KKwk48VWgFfOafc1YY25NoQKGXXLt+mVK4evv39uS3tmaU+WVioj2Pxlo8dEPBRIJBLQD8SLZdRTrZMcDIAVbyEm8lz1ux8FPRyVgWjJ2V8zNCKsTL+1l0nfXdcDYqPt37wM/0sUreF0u39kmonyDhgHVY7zWOwkGWgK76AgKtEIJeAfiR6hRYvHoNu70rVWRIKi1+1mBO2hKQ+Giy7EFsCe20L25EmoTtLJl6uDYxAsn/cMOOf7zGz8YTl3XcmrkY0eTee/vPH3aGXgaXGH8n/MhIQsB4I5LJJMEyJ9AlGgopz48d5ZMX7UwFRCMZXw4XRMNVo7/Ti270QR4daJp8kCcPcH+1rEGbgd/OGybLoC0uVMGuYgpFAOZm4jLmcrAqDkRO79Y3vNbQObv66PlTTelCrA85LCIbPEOFP/eHWhWRWEoI0MHw1MgirYSqDYPnZ8Ey3BWxSDBsnAQEZmKK7HHwsXlvhk+NxF9KLVPgBMVNY/XmZy/9dPbLEMkz4bRuaHlkdmvF2CXhq8BZlXn3hpfCVMUQfXwWsNoO9QpeusHSVQhMebBQfVmUFUG+uYIwg1APi0hDOuByyfbRaXEGSgA2OQC4BVwdVZKbMKBEUHr9/zy9QFjs5yUNINHzPmKqgjIJT3WjWNYEz9SV/LutB8WVQBv01DVZA+iocNMIu3DM3/LqIXBOY1QjGefeJx6CbyMZborQH3cuAJOPXM74Pe+jXXgenr34ZLZacFyVFK9HXXFc0lnIJXIxULPvL+gUEXA6BXAKuCDphpoWaBpYcCIXvEfPkUmhTSC4ieUSO9QteXsVRrg78pr0XX5eMOu0Thnnp88cP08RxXqI4lriQhx7u6rdcOjDbuuXEO8jsvcKU/ht2SThGOtm8zc175mzLyvurrLILssFGK+ajvy4TJRK+yscL6qSCcE/2VkPfM/1QH5+1EyWSQUHQoAQEXA6BXALWDCqXRKHSAQLhYy36hheYMUhFBf4kmxxXLqq5ONxgOqxZSWUUnjmhOlFoq9OWZqsjzTbsKLcN6WBm30a5lE6f8N1nTkCG1SooABnm4kjypTzsRi6tdkcWay2J8yPILy+1pjjpSr3Rg8Csw4TUVLpSa7T1+y/tbksWGwuIu4ju4KfLUoIZBjZnmGTh/awHbSXIhRZN23Z0KxeQOElHtydRoj2Tg8YuW7rB96uv56AMwtfHSx+GJQjYdMDkRtVDQEA/VhgVVFXQ34qoWpW5A+/JgT//qpz8xguyda4mW2ptqSBCF0PrXDGWc9smZOLTj8un//vfk+L2aZHRIhgIih/pWYxXfkuU1IpgykhJ4OSpU/KzA+/K2bOzUiyMIB++tsWpPbfVlW0QS9IHM6OCnD8zL2+++bbUqi0plkak1eyAMJuSRxUnpypyz313SIHfoulT0FTsVPHInxpZy0A4lm9xro18RLbv2CJ33Hmb7Ny2E7XkE//pPK6fYpcDy/NC8GWaOSW3F37wgfz+H/6NHHjvNNwFcDY/A0YiqUshX5XbbxqT/92/+lV59tMPS6Vk32bJ8wFRJfcU2hpXEfCuIu2lfvCza1n055RB2kUBmxyBXAKGY5lRQW8qIhID9Ue0WJVZKPY3/+Krcvxb35WZSzWZrnekjFUL45wvRHJx26RMPf24PPt/+N+DXLbwM41KLoiiqvNKyEXn40jG1cf7HxyWr37tOfnZz96TYnECIXyVi6lwfaDTPbOS5g8bySWXl7auRJoSx0WkLekKrNmqYSXTAamQhLiy6V97eFIhwZhLewXWFoiprl9qfOSx++Rzn/uM3LR3D5rqyc5+vXhk7SmQHyvjyuSnndnmGsjvhR8clP/PH/61HDh4SuoklxyYEGFRri7FuCq33TQxQC68NaGwLLlkVywEzcE6GWGn/ldELj6MGBYesKGw7BgJCFgCKiGKWW3CDg9+vbKF2f1iPifzxZzMlXIyC7kEmYOirRYjafDrlf5VLEzM9E4Sj1WCc3QO3a5OtyPJxyNSKkzCNiqdJgijYdKiwN2CAqY0aTZo5qVRz8niYku30UqlMRBJWbfYuCWm9UG72i1+M57fe8EKKZOP2U3ayM/7tSG9bkW6naLkowkodtYJfshPuwri4d1ZvwSJp9XDTPxSYEWNYNbRlSDBqAoPmhD45aSlIj1QO8iJ112WhcueMXysrH0YVgpbEYMJrzijgBsFgVwCrgxQDqrsokiiUkm6IyWZL+fkQiUnZ0dEzkDOj8dyabwgFzGxvtRr2ieK3bvBCP6mYn796I9hwqs3NMlTtMEODWmrlVg60Kn82Bc/8mWrF/hzSygqShQVJIohMGOYlLy6ka7TkXq9IW1kEMPNmTolRrp8XIIJwQpBt7j0Dcq8+B9jfYE2wWTZNPP5EqpZkEK+LCPlUa1nFtSpl9Wrytpqwb9vtwPIotmcg7GAZs9JvliVuLCAzphXoslFJBiQD1dqST5LMUgqWWRKWxsu27CAzYRALgFrgld1HDhqhyIuTozJ9K17ZccD+2XrQ/tl6pH9MvHofpl+/F7Z/vh9svWBfTJ28y6RCpQyv9/voOREM5HBPxLJoFj6NBdujXWk0ajBbEqhCAWP1VOMovgts1zUBcd0pNtrYVXSkg6k221DOfOFlNzs4jfnMdtHhiWQZKFAAkI5yQrL7vvi9RRenGday6epeZnQbu52uwGSWsSKp4pVEdwdpl+qd71bi/ARkog+lEAMt3qxFVBXxidKsv/uvfLQI7fL40/cKU8+eZc8/vid8ujjd8kj6Pf77r9Ttm/bAoLzd5DZtpwSis9uGVhJS+H9l03qq9zXjoDNjHDNJWA4lhkVXjHpqIHkulC5iwty6fhhmTtxTArNhuSh7GM+zFcsSStflFo+L4WZbbLnrv2SL2EZQ03u8ldlp45hBQ6f+1h8mEjcbvOayxF5/vmX5MDb7yMFt7e4irAbCkAdJtwi0tvZ2AAjD65auOJoNDjTj0EuFaTtgRCwygIZeUKxazZWQ3sBp68XK0/1TbTRLMSNSFRN+dRTj8uXfvELsmXLFiUrD5ZOITxBL2268+jzJ7GINEFg52YvyqEzJ+RitQ7i5EqJbYaB9nItNVGK5fbdO2RmchSrO66t7I956JsNHJhfcjzNWBaXvaDvM/BmtqHEsAKy4QEbDoFcAoZjpVFBpYBwGzkgEczQe81FmA1M9KGUQS4aIV+SHsilxwvapRG4i7qVpXkzPax0Dp/bE0tUmCJLRvyk8skzZ+RnP3tHDn14Qpp1aFluWyFjnenbKwPghIkC7aI2TCxr8qhPvdaRDz44LPNzdamUR5WUuAoBxWAV05Wde2ewGmJ8kAgkjqBm2R7kr6sCKnXmr/Vpg+yqEuU78sD9++XxRx+TibEpvXGBZfrfQXFNWYpBf5RDumtKSxogsibq2s3xmk4B+XCFgh5DmgKINA+2ySN2pHVjKMJZZ3a4A7MP5BJwrRDIJWA4lhsVAwqDw0fv9uIFZFWj9ORMHya/rQ/lp4n0bidTgJo3ozh9RSs9B3XNUh8P284i+MuVx6VLc1KtgtyQKVWppnXJlVh8VqpNSQURVjORnD41J1//2rfk6JHTehszWATVxyok7sjWbWPypX/wWRmfKEuM1YeK3mVmStordMIunGOd066DgHoyPT0ukxOTUohL8DWis5LTqmTtiDAcWX8wWQcE1oJonujTLtrL9QphtGndyh5wvaCm5ZOUZoDTetHQV5QTwuren3ZZciFoz2ZAZMOJ/uwCNiACuQRcFfzw8a9OUcmOKFUiXtNAJflohNNQXsENKqys4uuHZZDdHhscxtliBmH+WKGAC99//6z86Z/8jRw+dEaKxTHdFuPKpVjqyd333Sr/4Fc+J1NbRqRUKoAoQFwgFZ9vVj8m/IV6sB28b0FXab7t9p/AhyRYrrJEUiALMVr1XnpDAcxscsvbE4vvV8boL3Uwnbf7WD7mYDzCtgfXiLTogE2AwfM5IGBNSLdaOJQ4Z+ZqBaYX9RvQKlnNdUXwGZjqZPkR71rLCLev8gNCvzQO0sQQKGtWn3e92WoEDhAE/5I4iWTTp6J5c1Wjdt5hZneaWf2soZ58zHUVAJHyiXx9ISj+fA/70uyETjU/KcZcays5G3swpZWxRlx1wwNuNFzROAkIWBnUJF4GsELQtUK2yFTdE9T4VL1eGWcrlfXvh8+LSE6g4VEVetkHZjb3K0N/Llp1h4GQjBCD7uFYKcbqcggISBHIJeBjx7VUWNm8vd0ryaXlZn2MXJJ5vyOILFZz8gymWVqmw7IBa8dgVtlttCsF8/QSELAaBHIJ+NhBhXUlAzGr8LysHYOp+3MhqWRXHqynlysF0/aX4uALyQqRtWfg7/TyoDNbv2wwyYUkk5Us4WTTUYaCCbwEBFwGy46jgID1wzLa8Rpj+RIzGlKtXqX6KxeET52avhVeBkknG+ZFkViuAH0ZZXA1eV4JroZQPuq6BlwXCOQScI3hteNHo2GWL80Ixe6i8pqSsRyx8BUu/OaMumF3tyz7Gxacy5lO8ONTDJPkIj5+KFcFzSgj1xMG6sau6xPGCdh04DkQELDBYcSSCnWgV3k4Bdy7wfRONz6AqV90jLEy8XQCZNiBttQFu89qKFYM3HDwPTxMAjYXArkEbFBQnWWvLmTdg1cccjgRIpAEqMQRCv/0Q1xgET4qqSsRCCnIE4uuTJwwXB9azHpSEtCeLX+wDikGYy0nTE3xZLeSZEG31TeVBD7TQbkMBus0CPoN1j1gY6NvXAUEbAwMqrhBdz9U+SLYK+EsLxjNWJgPJ9Jw57/kWWS6STbmGg6Lc6W48pTLYB0y9Fmse90CbjgEcgnYwKCKy86n++fNRiL44UsthW9JponwHEx9WSXIwT8sCZbwPKGEgp9EcBbx3WPJ9ZlEGNuXS9PbvXi/leFjDcpyYLF+RULRaqwVqy0M8MGD0VaZPGCDIpBLwOYF2CUXgVQivvm4Jd0e347Md6S1IPwgVxvEwhsAAGjIq1OUG1fNbtyWBVwNArkEbGD4OTzN7Hyerp5eT+G38vnNe8k1pVq9JK3OonQ6Nen1GhKDdPi2/BjxuMLRrTAIFzvZnFeHbPleVpeasVYSD9qH5er9VyzVs4Nr41rBPLP5evegf8DmAcdaQMAmhNeibaxYGpIv9GRyqixtEAvJZmy8KJVKQd8bFnHfi7H5zrGsEt5o2IhtCvjYEMglYNMhl8yn9cX7MjFWlpnpMZmYKMvUZEW2bZsE0YwJv2TJlQtfYMlrKGEOPgShSwKWQXjlfsB1C17yvjJwSGeH9aDbQGpZmK/KBx8cl3a7IN1OJPVaXcqVWNrdRaxcYtl/111SLBY1vhEMTbe9tKJiHV7mcPTP8a603azOFet6X9XlqjwsY+eXra9Pfrl6XFVdA24IBHIJ2MDgNtZSVd3L+S/B8FPIOWm3eHcYP42MsC7sWKnoN/YRLx/zyRaqf7v7yxPMWmBpWOJyp9rKGwiXI5tVKer1PssHClyXOgZsKARyCdjAWIZc+KeaTi/rq98gvCLs6Xf3U+V4PZLLyqmBa3GGD3RDIJeAQVx2XAYEbDykam6YwlvO70qIJSBgsyKQS8AmRT/BZCUL/3AkfpxPQEDAahC2xQI2NIYPb9ui0l93m/EglGjW6cz42Fc869GOwK0Ba0RYuQRsWqykL9eLWAICNisCuQRsQui6RIUkMkwCAgKuDoFcAjYpHLkktn4JCAi4OgRyCQgICAhYdwRyCQgICAhYdwRyCQgICAhYdwRyCQgICAhYdwRyCQgICAhYdwRyCdiUCLccBwRcWwRyCdh06CMV2lXw0ycaGhAQcIUI5BKwqbBkteKJhK9J7pP+uHyNTHhTUkDA6hHIJWBzIfOEpFIFfvhW/l53kFxy5q/h/PEJ1obr4k3K10EVAjYfwosrAzYfyBWQLkiDxEE7n9XnG5AjN92iPuaJoZI5RRjOeAEBASsjkEvApgNHvAqJhe7kS1cgDf7rGYEwxyGMRStXIbG+gp8ODQoICFgGgVwCNh044juQLiy9Tlc6kHa7Jx2QTRembocJP30sUq6UJIqxYoE9wrIlHxu5XA+7XQEB1zMCuQRsLiipiLQ6Io1WVy5cmJVDh47K3PyCdLmCAevwhIhBJBOTo/LAA/tBMAXhp/TpR5LhyiYQTEDAygjkErC5gNHOAd8GkdRBJD9760P5X/7X35cPPjgsuSgv7WYHpBHLxNiYPP74g/K7v/ubMj0zKsVCXgogF3CMpicCtwQELI+NdbcYz/qsKPocAeuKlfvWh15OPkr4m8HIEtzu6vRiWWi0ZbZO6colyGytI/P1jtSwsulw6wySQ00DmQQErB4bglx48qv0qSyILsoydloD1gm+bw3eNSjcguK1Db2+MSSc8lEiWybpoovVSCdXkGauKI2IUpImzDZWMd1cpPXnNhhPFE8uNAPRBASsjBuaXBJSIXF4tWEPLaQScA3Avmbfsr/xD+H1CpoqLob5c/bflTakC1/6f9zw9SN6OAU6uRhkUpBWzoilxe0xEoueHpFdY6FYkoCAgFXghiUXIxSY1GqQXqcDaUNZwJQ2QjrQBgxDPAqjuzQBVw72IEmC0ul1pNVrS6PZk3pDpAlpoevbkFanJw1Ymu2WSrvb0S0mn5biQZqifFTIrjysPSAXAalg9dJWsVWL3YocxkxAwJXghiSXhFhg0kqXVwHq5tPVTgzWTDqvj7nzjQnfz3b1IZI2+Pvk6Uty4N1j8t7BU/LOwdPy9run5O33Tsh7H5yQM+cuSKPTkg7IPwdlzedErpfeZwv86OhxlYLVS0cKEBALyIb1zGG5Eq61BARcGW7gbTEoLKeqbE8/pxdnuz0oBwqURI9uNJFv9rC3e5BaOGu2LRrOlq8XZXe9w0glFS4GL87Ny0uvvCZ/8mdfkT/+06/JH/7Hr0O+Kn/wR38lf/2Vv5Mjx09iBYOVJPo+z6vnA/B5fdTwZGGmm4joOMF44YrFx+hxjKXxAwICVo8bklyS5wtg9tACEkWj1ZKFekMWqk2V+WpD5mpw1+rSwBSbm2VKKNz7h+iqh3+6+kklYGWw66l8G1iNnJmdlzcPvC8v/vAn8v0f/VRe+uHr8tIPID98TV59/U05fe6ctLltCUTLrFo+LsXdXy5dJBVuhVHo5gthUnxc9QwIuFFx45GL11BQAFyNcLvl4uycfO8H35c/+dO/lH//B1+Rf/8f/lZ+/z98VX7/D/5S/uBP/kLeePsdqYJkiC5pxpGLTr8DqawKpn7NpPT4VGFpVGrdWM4v1GWxKVLrxFLvgHjakdQaPfR5Qw8X6YVXwWy16Eke/e7+crBTPgr4NhDezNrSFgYEBFwNbsiVC9WQV0UkhrmFefkpCOTvvvVt+da3fwR5Vb71nR/Jcy+8LC++/BM5PzcvTRBKtd2Qdq+jyo2k4onFi8/P2wOWwqterl56cV46MS+E804ru+Oqkyvqrb26xcQ4Tp1zI9Lj+urdQCQBAdcCNyS5eFDBdbGCiQoFnUnPY6Z8/mJdzkLOXajJ2QuLcvjoKam3OtKEcmv0Wpgxc7sDzbar+/2SQSCYlWFdxicR0fd66y7IBavIVhSDXHgbr1faMNVq/Ukrb+v19o8dHAc09Dfgeoaf+K1lArjW+AHrhxuaXDgX7kA3RHFBJC6DRGJpdPPS7BYgmFF3MJPu5aXR7kodq5ZejnctqXrT9H0Y9BoSJSAFBw6vo+RAJrwI3oa9HVFwXNB3vHnC+jA9qXWwOWd0vZzrWleTPgy6A244BEL5eHHdkUt2puEFP3Z9xD2vok7VUty/z0mtE0m1VZJmblzqaFIDQY1urAQTxaNSLo3LSHFUiiAh5RaAJr/L4YXQ8mDq3WUwk5sA6HeDydVi8BhkBT/seomhkWN0ZA9M0Y660gJ5d3Id2LlORO+xIoiXw3HL8VkkpqOHy8f8l+bvZT0wNF9mjbrR0HGAn1T6/QI+fiTHbQDL+RPe38cZJh8HWGr2PF2rfDy1vjLcECuXdBzgZB/SuySYbq8EUijrlozOoiXGqqWAGWkBM+yi5KM8GguF4dIsh8Hsb6SD+VGCKw/eXBzzkGCV0gGxtKOOkktKxyAPHDy/DaaAvc/9ccAPqEw90nFB2+VGScBHhY+LBK4VrrY1N1Jv3BDkshTsYi8AyIS3kHbQnA4UA7fKoNIQEGH2HMPGV3jolRbY7U+npwFXDBJEDInQqeh6UAn+sHqh6JaYHoGUWNjbtGfdAQFrwRWtOmwomnWtaQOuCjcouRAYKO5Xty+g5XTwwKr+TnsplSixQBDgtz42Oq71MpokwcHDbTEyhT6gSrHeV/E2BSxKLrCqmQR8DNBKOAm4IbEaklB94P6yCATz0eCGJJdUMfUPGz47YTqDBGKiF52TZmqIIyNeK1gqCN4QYL9QPMlcC6Jxval/WSjBs4/VPw1TFyqR+qwDrrhR690bmwV+VBn6XdcpUEl+0joLJZ4BWR36z6RrcV5tFNwY5JLVRgNHkvTiVVivy5dVmsP7JQ6zrRnXaobt6+dlPcEqU/zA96aXdYHPyJhEcl2sDSEpQNZsWUIy64jBxlx1o1jvG3Ke9RGjv9OzrhsCl6ns6gnGkPbE6rHe5/r1jOvqjOJBWlb8UcnoKgvDL9ycPXNs0K8PfmYCq59hWbrhkgW30dhBvsisXAlM3Q6TpXlafVb3198C8+NldZPBUEc2tFwBfDLlFFpg+rWLmnwfD0zmz3L8e90YgbeCp+Jr7/6GuBEr+UtKzljXDeud36rgG3J5udxfX/wBZyKKYQGDMhxWUvaI6FU2Nc29TC7OMRhukv1L/VPg3NDZ3aCsD648p7TO5kp1C2G1HMjdPN15sjlw3ZCL63soleGSRfawcewxWCfIA2A8fc2IEzsNLg8lFebLyM7UMgZkrUjJRNUuhAWYoWWZVcXHWEmy8QbTkFTswwP2AQKzIwwR+Y0VfeUXE10B0uPCXnA3S0BoKs24F4Z2UIYW42+2oOmED792VFA3NF4/lgCz6wXuJWorY7WMndyw4LhEKynqSoXNo3Tg8PZ+SfuHbqbpG5XZzBS0ZHPIRhgUQ+pjpXiTt5nzPRc0jWDSOmjusKh4dzbsMmLlpWJtQgl6X7uPcWWw+jMXjDsV/1qi1eRqKc1MxdeK4s+zrJ/CR3dgizJHasPiYyGX/sMzXLIHKOu/VvQRizMH88zmTSWPibVK4knTV8bBD5ArGiSoR3L2QSHT2YK91eJ3UCB0q1+uX6CJm22TNtw8QdqI18BPE/nR3YLwLWrVTkcWmy2ZpzQaUkPmbcShtJpQCnzuRCtzNTBCIbHEqE8ebaCdw6qLFQyKQRsjfb6IT+/XWXf48+NcFNprqPtiqy1VfvsFadmG7MlPU18oyaHq+42mF22FHdsbC9ZOTjWMQNIRRb8W2tMAOy806rJQb+L4ddB/XfjRvyd1dG4Tbh7/FuI10IdtmNob+KEuVqEdP17gWkYMiKV/dp5Q7M/7+7CEXlAIX07KccXsOaGoNjqoN+qEyukQgKgiR3gD2hfBONY0cezhYHw0RTBU0S6LZzViX8CNeHw3oPaTC7PwtaHd7uA8wviPctKAtDC50ccWIKyjn4guhYZCGOZN9APaXm3i3MLYbSAdzztKA9JG3bXNKK+Nk7vLintkrG2k5bnoj74/TmZfKlfU8I8JOTTkI6/uYB95u5kcvv3h7GjdbIHyofLntkqXD+vBjwrq2OlZ+c9/83350794DidgAce/oEouL00ZLbfkf/o//1fy1BN3SLnUlEJUlDhXQJ7MtR8sI8bYUWLx0KOeiatus3pko68EvhTFGscUzERbpSdNHSOR30dBczS/Bk64Gk6oarWKE6sqrUYTg6srcRTLyOiozMxMyeR4WeI8FDaY6OzZc/L2ewdlvrqIPLhSMNXA8kr5vDz56EMyMzEpBa4aoIgK+ViKeaw6sm3LYLlhQV+uNpr4OXGuJn/wJ38nf/pX3wKHjOKYsD1tiXI12T5TkV/7pZ+XX/7C07Jz6yhOaihBKMjqYl3m5+ZkbnZW6lCchWJexiZGZWJiTCYnxqUMdx710rvQAN7lp8/ToOAYHZUcGw4EAkXqCso1Y7A9y7VD+xiE+KOfnZL/+7/7Q/npodPSjirSwsle7DVl51hOnn18v/w3v/sbsnOaD+LmJebLOtcBrJGXDpSOKhccs4g3lNAPAXyT90K1JufOn5datY52oaHathzqUpKZSRz/iYqUCu4uSeSj3y/CGOJRyCMv7QtNgn6L0GJ0nqlry6cfJHA79xhmJutIG5WdhRrdkDTYg+gPrFI5aHmU+MwTSaJGYoGWbeBnfmFW5uZnpVavY+zmZWRsXCYnJyBjUqnkkbark6qL5xfl0AdH5dLFWel2GpLHAY9R7wgmx8Ytt+yRPXt2Io90zPoxMmwMa584QXUV/FhdJ8akB3mAw/TDdgwrwn8EnVZGU5jT0vzYVor1BWNxZc5eaWBMt5FfC8JxyJTsf2ghjFkQWa2NfCO0xx1fl7XmBDsJj+3wk72I+WgEq3se5y6MJB2hJQ9p8/WGj51cBu38zbrZhYngaHC7arXkEudALsWm/F9ILk/eIZVSA+RSknyuiPxsIGQPEe26JcZx5KERXCwfGaavI5G1Ez5a2hLz0WFDr4RcbJa62LCtq7lqS06cviDvHfxQTsGcvTQr8/ML0uQnHnGY9BTGIC1XKrJly6Ts2rlNbr55j+zavUuOHDsmf/nX/0XeP3xIIiicYolnin7NRibHRuT/+N/8nty6Zzf6o4Diu6p8CnqiouAhWG5Y0Jfk0sDPSU8uf/kcTtoRHJMYxwZrDfT71qmyfPHZz8rTTz4mvXZNjhw5AlKZl7mFRSiQS3Lp0gWQS01K5YJMTBq5jI2PyO7dO+SWm2+SPbt2ythoRYoFkCDKK6DgIhQo1bv2mnYfephnMh2uIYMn3XLt4BH4KMklW4vs8GL9sMjE7BfEi2n7Igjl6ImTOJ4n5fSZM7KwUJU59BsOmQMUFZT09umt6KfdctNNuzAOtsvE2KhOGNgdVGqcOODwMjqIBf2lg5pzaY44jqT+fkIsraPV08aluZmOLlu96GpFTYSCWHo9EkQMIoGybnZBhpfk0OHj8uHhE3Lh/EW5NEdymcMEqCUlkOLE+CSIZVxGR8uydesWPdZTW3bK8aPn5dvf/K4cPXwUZLqIcxUTpE4N5NKRO+64SX7j178s9953C9rIurOGaJo71t7Mgv3qhVXliurE6dPy9odH5GwV/dzhSrqnE68RjNndE2W5f98tsn3bjBJYP9K+I/jryaWGFeShE6fkwKEjevxaHaxZUGYeQoKZLI/JYw89INOYOBUwEYzIwC4PnQugYhcunJfDh4/ohEvHGNozBhLejfN669at8EMfA76Zjn6WjPXrDR85uegBR6ckxcJuw5dIq0I/D3eOpOSC0G5k5NKAdjl+alb+7Cskl29hxldE4pRcRkAu/yPJ5RNYucBe1pVLse/0otln91UzA6a3GTgo0pouhR+aPBEJezOwbwM9+GMnbwta4+S5uhw5eVoOvHdU3nrnQ3n7nQ8w4OakXm9IBzMjvp6mkC/ooGe/daCNCoWCbJneIrt27ZI777hN8sVIXnjxJXnn4LsglxzIBbXOYRWBXtoyOSL/t//pf5S7b79Vtoyy7VTSDE/bOIjlhgV9U3KpK7n8yV8ZufDzwCT+COWOV4py7x13yO6tO+QslORRnDyLiyDKdhOzNZyE7QZ6B/XAyVZA3fM48bgK2759Kwhzr9y0d7c8cP89cgfsk1BEFZxzozjHSDSc0eqo4TKGDeCHyHTVBGPghFuuHTwyHxW56Jh3x5v1pUlhTTnPuLTQkMPHz8h7UHyHj56Qtw68KydOnVFS4fUqbneRECwxVrpQaKUiVi8z07ITxLIPx/WuO26V227dLTu2TcoYVgQl9KV2BYSz/zghF3r5v35YHc3XxizrzT+m5dGyVQtro5P+boyxiFk7SOXQoYvy7rtH5MDb78uHh47KSSjyRa64+Ylr9CnzjaHIC/mizsZ5IoyNT8jtt94JgrldWvWu/OTVn8kpKOp2symVciQL8+cxzntyzz23yX/33/4LuffeHSBNa5deE3UrvWFUqX3uBIVjpd2VV17/mfz5174p75+4JHOtSBbrLRkfKcp4vi333LxdfvPLX5BH7t8vhb7j7I/WILnYjsPZuUX57suvyde/+W25MFeThRpYlpOgHo4RuvCum2+W//pf/BO5be9Nksd5yfHO+nOXjKsVEstPf/ozOX78BFZwLYTzXMgr6czMzMjDDz+Mc2K7rmj80L5RyCX+vwLOfk3hDzJNnfUANPkJXP8BL/uipO3jej+9kIc4ep86l/4UjcNvsmNJjZPt/KWavPnWISjlw/DDwIBwuEVQPkUMzmeffUJu3T2Dgc0K4IBoVlaWL8PXizVTwYFjVB4/HkSGdPgdeE4hmcUyx5Xl+iDLjTAfdcGKc03zr0JJHDt1Qd54+5D83XM/kG9994fy+k/fldPn5zEjYv/w3WhlHKUS7HwJJ9+XhiU90rdgX8SS+9iJs3Lww+Ny6swluTBbE5wvEuXLyD+PAVlEm0uYJY7LJ594XHZgplgpcvuCxOtrtXaw7R38LFQ7qO8H8tO3PwTZFyG8kO/CYbl0cV4+/PCYHD5yEiddW/faSUq8fsTX8zCNoH451JcvHm1jFjwLRXv0xDl59+AROXeB2yltPdkmxsoyUs7rLLyL44CjkfSv9evaWsM0bMOJswvyvZffkDOXFrHyKugJzw8ej4HFbt29VZ545F4oaypErgSMwFYLVW6JyT+bSPGaArfDWP7Zi1V55bV35Tvfe0W+8+LL8uPX35b3D6G/ql0oRL50Faokh+MpfL1RETXjK41KMIsyt9jS43/o8Ek5cfIc0kCx4RiMYzJRHkFbUF2lE3QNdJYe77SXzDboHjSNErWH1Ydt6KCHWqhXvZmTU6fm5CevvSPPfZufuHhFXn3jHYzfOcThRIMvkLUx28Z47fYKOPZI58bBQrUtp87NglDPytHjF+TibEMaHPf8dANUKF84mysUZXrbNvn0M5+QmS2YGKIdPAoUnpesk61lVgb7/Ojpc/K9H70pH2B8XUDfnZ9d0Gs5zUZVprC6v/+efbJnB1YKmbFk1rQPPPyxnMdq5d0PD8trbx7QtlyY5ccKW1LF6qiGyWG5XJRnPvmobNs2rWnIh8yJE0Rueb/xxhty/vwFrOYwKRgbQ/ySbNmyRYrFoszOXtKStqH9PAd8e1XWON4/DvAYfWTQkwyKXMlC7c7fCeE7LxlAECKZUzkPrTgSNaFpa5BWC7N0jDwfX4ECmq0mhIqI20AleJL37ZThiWdiF99ocsBkhX6cd7VQ7yYGRBPLXl7ANHIyYVs0Q4AqJAu6KD6/NuKqokWdDh87J3/z9e9ixfVV+cGrr8tpKOO6O/maVMCctUJ48ZuKu4MZVRdL5B5mf7xwz60UXhidwwlyGCufiwt1hJdRVyjq7gjKHcdscQtmuVMYzPZd+H742q0N7GMvevap+KNlMzr21Ty/DIr+b6Pefl+6y1krZt1SKEsHbWph5dlgm9E5aqKetVaMNokq3b/8L9+Sv33u+/LuoRN64bSOvl/EyqfZBcPqHrbWwo0nEo8fW2tv13ohqQcIhKaOE7SPhNKElqthps/Jw4lTl+Srf/ui/OXffEO++/2fyNsfnJQzFxs45qPorzHIKPpoVI9nHatxSqPHYw+hoibhxKMyW+vJ2x+ekue/95p85e9elB+89racBllinoE8UC76iGPPYMdoKfr9Xa+q2NlCm52VPRwzygcfnJJv/P0P5Y/++OvyzedfUYIgIXIMdnCu9fIVHGdIsSJRaVSiMsZkoYT22c0cvIGDN52cnZ2TE+dALtWa1NBHNVR2EYe3g7gNxo04ZjABQU1021ptENj9LsPlwGjctuVqdbHVkzrK72DS1gIJtkHaPdg7bBfjZsYPDbVyxkTpAyYcGNvctspBqjhxGy0cp1YZY7Uk9XYeJsY1MuBxQPaoA7OxieriYlWJhWQyNTUl8/NzWMlcBOnUsCLdKbt375FLly7pajqpB3AjEAvB4/TRQA8QBexLE/3Di5g5HBweIC88UHkITS9kbfXLxzAZB0I7Bl2RdigZHjievJqxCg2UBQVWx3KzilmQbgbFmC3z7cj6mn4TKuwOhArcvktihMJ3+9Z7VGi8k6mDeMgX4gnFN4k/5hoOH0KTJzmKkCMnz2LG/BP55rdfkp9gtXL24iLqiVC0tYRZer6CuhagmOIW6tKAMqmDMOoguwba2oRAdcQYuTHqpVuEbSgR2FFFzvq46ul2MePtYWUAoTJgf7AOac19zdYIJPO9bD1tNlNDtLME1gU9qEKFWYNPDeRqgp7FscGqBDxTGomhO7DSyiM9BgfbQEVQb0GBHTkr33npJ/K1b74sB94/BWWEVSuPtzsWWYJJ4Jr1cRKMKgBXLVUMMDk8KbzoffTUefkmZvpf/9aL8pO3PpAzs3WMsyIUX05JpIWVJ4Ubm7z4zEmEXoRGTrx1uwUt20b+JJAGzinenXXi3Jy8fuB9+ca3X5aX3zgoZ+fR14jDiRPL98fIKjYoK8HiMC2/h8QL4ceOn5cXvvNjee75l+VDrDxqWMW0ujiHqKxxAOtu0sfzqFfgWEbaCMcu18axpbRwHJtwY/KB8dHxgjHRwZju5BE3jzbGGEkwuSHBaqymtoOwttPkmpR9WoDgnGf/ah9zpQQ3zhG2zyMZP/RLMukvXbcrdfzZ9adur4J8RpAfCBbnoJbDfkMMJRaY/lgQ1GW8FkWz0WjIxYsXpFarykilIqMjI8h62KbfjYGPjly0g9i7HKS8WCcyO7cgp06fl5NnLsgJlfNyfEDodwxyFOHHTpscp51y9oKcPntJLs5VMWvgrbYshxe/OBLZNBw4zJYWF5tyEjOj4xTN75zKcWcedXIYy+bDp89CzsihU6fl0MlTME/JkTNn5dT5WV1G87ZQ3nXix9og0mHQH4MuHWCIwRn7y9xK+O4PdVuM2xw5bnmgT3hHSbkUS6HQhvKtQ+Hyjqom2tGWSqUrYyM9DLoeTMEA7GFg8voLVFCeRNPSE5cKmv3QxRnZwwnP++ZYs1TfLVf7VcLnwx8Vb6EBFaTXXZoQ1D+qSiGuSqlQk0qpKaOVloyNdmViPCdTWwoyPh5hZcU7ZppI2kAuXJNRHQKY/XYwaz99tio//NEBzMzfxDHjRU9OCjAJAOHrkUDRumXgxFfl44bWRWHjRXsdftwu+cmb74JcXpZTmFQsYLW20MYMnVuZGK+5ImfSnAhhZlzEJArjocjrKJACJx1FkivaDmnjeDc7LZ1AcXIyi7HOvL/70qsg46NyYaGmq8iU+JcjmKUwpeaF55ORSw3n2reee1Ve+v6bcuTYWRwjTGS4pYhxxrw7mGk3oCDrtQWM6QaOfxdjN5LxsRjHPpIRjF+O50IBxxrjWzA+etEC2lODcGvPJk09pLN2wq13u6EKVwhygl6ERx9ze7kLIujxHNE6kwDg5+KuCHcgkyOKfLV3QEwRyYWrSQr6xPJnvkYuLgVcbpwCvFnHX0PN5/lJED+GGROGdzt8jPOlNeOju6CP3uXbWThz01stmx358Ws/kwPvva9L446OXQ5894eZmeteJ6wsOhoH0Wa3vMcfS2jM2GrNWN57/7S8D+m1sDJBHKOwlhShmD/x5H7ZsasiZaysu9TgyFivqWgsO+BaGscv8lRfVNTXIA9lxgvq01OT8tC9d8g9t+2VCmdj/OM4QBy1q2l2zRF1tIHFW4M1e72n/ydvHpE//4uva/v5aX/dR2carEB6mNFxRVIZKcrk1JhsmRiHIh7HSTkqI+UK6hHrFuDiYk0uXpqTcxcuyaX5RX1egLck1zHz7XWKqPMIhnZOxss52bN9RP7b3/tNeeyBvbJlFCtA1IT3FVnrfa37sdyw4EnKuuLwycnzTfkPf/r38p/+6nnMpEcwS2N4CznzqzpVlNGU8ZGSzKDfeOvp5OSUjLIdmJHlS5g9YjZwAcv+MyD2ixfn9BrNIr+7zy2fNk62whQ4pIJ8elIGce7dUZZf+eWn5Bc+fT+Ohe2/l/Iw2RZWbADZk3IQPBbX6oK+7zu7NshtMfYLxgvGZQ0E8JMDR+Uv/svz8tLLb0gNfpzdVptcJ2NujeNbKhSlXCzIlkkce96iPTmJPiuBXFh+Ry6cX5TZ2Xm5iGN/AdKog2Rw/Pn6HV4v6LQX5OabpuXnPv8J+exnHpW7b90pW0hMSO2Pto1XHXUOZvNH3UL8OcB1KLc7I73O9+7BU/L/+Hd/Ku+jzxYbWGkwJyjWDo5njFUGJwcV9NeWLeMyvXVCZrZNyhSOfxF+zU4Tq5qazC+g/rNzOP6YtKEN9RrPlAomJJg1YcbPLuTeQRQ35d57bpV/+z/8nty1vSQVTl4Q4pXuisc42SIVrAZ78r3XP5D/1x99VX5y8AT6vShYBEsBemYCq6TH794rv/ubn5dnHrkLYy3TK8wfGSg9WJfgWKI/KPA4B/J+/sUfyV/8zXPy7uFLMtecxPEuYEQ2pASy3HfrtPzbf/Mv5d67bsFRtqkvVV233ZG5uTn5/ve/r7cjj46O6HlNk3Vuk6AbOH/Gx+TRRx+D7ipbe5GW4/5GwEdDLiwBx4b7zrr3DPf8fEv+/C+/KV/9xgtyGoOL958LTqg2FbIjD/akG0rIgKbtiapdw2zvl8qoC2XUa0GdYqbOWYSpdMzoMXsuFOpQDJwhcYuGp7Dla3l6E7/IlHeZqQ9MhukqRQ9qJLfdulf+5T/+ZfncE/tlrIiZCuMxDKsNVFnTMK39GLnw5NQlN3z4wODxU/Pyv/1//0xefe2AXJrlLcYgQ4Q3m3XMXEguVZmYKsn+u2+Xe+65S267BYQwtQWrlBEZh2Iul3DigaWpiI8eB6EePiFHTpyRI8fP6Ipudq4OkkEf5KCUodhILjftArn8638sjz5wk0yPkFx4Wrg6J9dKVgf2E46MPrdy4hzI5f/39/LHnlzQV9zEyfcWQb5N2btzCifV7bLvjpv1zibKFNoyDoXJu2IWwKwkyAsXZ/XuuNdff0fefPMdrFRmEcbLMjvRt6M4JtzQ4J1/VXn0wT3yG7/ytDz84C0yUS7iBHbk4trgh/NKSodgG67l3WKsR7cHxYtjxZHIZzw4ho6cvCR/9jcvytee+74cOX1RimMTaBnVMR+mg63blq3TU3LPnZjE7L9dbt67U3Zs3wmSKcvoGPf4e3L6dFXm0GfvfXBUXn39LTl06IRcAuE0eLECDM+xz5XtvffulV/9lWfl2U8/JJNlrIbRJXa0/R/t7C9Kv8Zi/5i/0UsTCpAEcujwnPzFX/9Ar4NdxAQH00I9F3FySRPHs4TzYgaTorvvvEXu2Xer3AFi27N7Wia2jGLFlZcWVpsttHF+cUFOnzund8e9/e5Bef+DE3LuXBUEVcb45syf5zpW7zhn77v3Zvmf/02GXNwxJhGvBK4IWHnGVnL5yYfyv/zHr8mr7x0HuUDX4PjnQS4VrJgf279H/vU//UV55rGUXJIxhPKsnwxGLpg4wPf8Ql2ee/EV+YuvPC/vHpqV+ca4kQtW4kYuW1D3fyn3gVxYWxI8e1pvTIIyPHr0qBw8+D7Og0tKINPT01Kvg3zn52UL7HfcfofejsyVDcHbrm8UcvnoqumOkwLHibM57t3qbBs6tl7HcruRgz3GbD6GuyC1GgQm7epuUIqY/RdlsV6WKqTWKIHhi9LhiqVLxcvrC5z5OJOfO24WMLtDHrWiSlXzsbxr9byKluH863XEQ54Ulkd3FeFaTgfLaG6eDsBWVbB4UXgLFQ0IdbEhP3v7Q/npgYNYbYDsMEMTDMQO+iCCki9gWjM1XpYnH31APv/Zp/Quk8cfukf2375Hbtq5RbZvGZFtEyXZBXPfzdvkyYfukl/6/FPyj371C/LMU49ilTMGgoIiw+ij6qCCQ8k4SXii+BOEYqpDVUtS17VD88UfLVQwlhUJpiMTI2V56rGH5Nd/+Qvypc99Sj71yD1yH9px664tsnOqLNvRjlu2T8j9d+yWpx/eL1/89KPyD7/0rHzh2Wfklj27QCQFfV6DX6rkSlQwaWhhfHxw8KgcOPC+zM9iZRTZNgKrkMXliOWjQF+1tJN7uip746335fs/fBUrznkpFCuYzVcQBBJqLEquU8XKMpLH7rtFfvULT8gvPvOQPPUgJhk3T8qtW8uye7wou8Yw8bhpSh69Z6/8/KcfkS8++0m5eee0jJRy2mdjI+OYiIzjGJTkCCYe7xx4V+bnFvWIcwT4LZoUrOVl+kuHTE+qCw155x2QwTtHZGGxBTJkI3HsQXgRViwTk2XZhbp86hMPy6/+0mflF3/ucfn0E/vkwf075LbdE3ITVtB7t4/rWL4bY+HJh++Vn3/2U/Jr/+AX5dNPPaZ3BHbbLRxn3s7LMpG/CqtwFQMV0IkUhJTFyYrfoTA7ekWPUYplx1A60K1OjMY+gPBPJ6euLAZRwWqUAVGSwGRl7949sv/uu2DuVXLhHWSMcfPNN8vd+/eDWGb0fCZ8nQaqet3io+VA6xs98YhehJl9DrOLHKdbPMg4MFzaQ+HmuwUpUKDM8x0oGthjmFGnJFG3jHAI7JQYBMLwHCSCcDWQQx5U3KbAuR9WQTimcxmT/hEFeVFyICYK05OYaDK/CPnnO7Br+Zh/8OBSXDuGQgeAKXfeAMBXdJw9Nys/fOU1zNIXkD8VI2ZoOHkwtnW7awwn1z333CFf+sXPydOfeARKdrtMVIoyjhnfeLkgo6VY+FAz758fw8+2LWW5dc+k3L9/p9x5+w59MLKH2Zo9B8LiUQkKBz48rN+1RrQAKzVgZTAlTybL2Dwy550UcUJs2zIlN+/aJtsxk90+NSFbxipoC9rA60qIS3O8EMs02rYDbX/43lvl2acfB7k+KDu2TumWBW9N4IlK5dZsdOT82QV5Gwr61IlzOHZua5J/2kaT6wX6bAJMHn9eDzx19qL8+NU3seI8JW2sYqOYM1wcTz6XlGvJzGheHty3R37tF54G4YJU9k7KdvhtRWdNYzhOYuiNI/4U+w95b58ckUfuvQMTkLtlz/ZpjA+cI5ikRDkMklxBFhfrWBEckmPHT+grVNiN1pUcA1ms1GfsUz5hXpDzWC2/8eZbcuLEKd3i5tHRY84bSaQhk1MVeeCBffIMJgqPPnQbVt1TWHWX0D6smjBmuSXEDWCuoDg+xrAK3z49Ifuxyrl73+0yOTICnm1Js84VHDNGIiuAhV01kIsJyQSrBio/Ty48T5RwVizH6mH9aBE59vQc0HUJhetTkgzLscgsJynbi7PwhqOtW7fLfffdJ0888YTcf/8DWHHeI3fddZdsnZnRW5JtdyELlM68r3MM1vragR1Jw5k8ihHIJYp4m10L/cWbAruSRyCfxvaCc8oEdt5IzGfrixhsdHOgxhjlBSieIk42TKCgqDHquffGgWJaCU7uvWIYQKiOGC8PO4XfgeeGRQEVg7rXgZ/YMbiLUGD5FgYjlllFDELWj0AyG17OvRIa7aYs1Fpy5NgZeffdw9Js291c7Q639FAjjMko6siO7VPyFFYrt9+6C0oC/dKpQ+l0MSONpYwVid/W0MFqTVNiYmU4mHVW5kYtf3UA4p8K1/y1N/DXsbpfIawE5ustLISnG3O1nNn3Mere5QOTmIlSufCNAHkkYhK2gddS+NdAkioOG2d9t9+yVT7z9GNy7913SKXCemPigZk9n0dqc4UXleTYsbPy4QcnsZrk2GFu1yd8b3ALpA5iPHz8tBx49z2sfjk2+QBiFwSwKAuzl6BsBZOEO+WXvvBzci8UbZ4KHcdvvBiBhG3889VEfFRrBHOmaaxwJka4BVWRJ7FCvOO2W6CICiDgBvqJW1hIUyzLqdNnsdI4qM9z8JpYm/2Ic4TbvTp0IJcD49Qw/vnWiMNHjtobA+BLfxtjPM412bZtQh7DCvXeu/fI+BjPKpTH3QkQaQvCawvcqsrxnEWYjmekLWFsT0+OSgVkw/HBsazPtWkBXF+YaZb1A+unRagLphWk58tS0I+iZx89Mhjwc5myHcvBx2ZZvFuM11b4nMu2bVtBNtt0fPChSp4t19OEaS1gr3xEwEHDkNRFOXqdr6MYHcMyHkvpit5BgpNlvCBTowXMcPMQms6N2dsWmLRPj2KmC6HfFGQCZx5Psi3jRSgv7l7zYnIN5dUwQGHm6pIvtPROK96twngzyHcaZW2BTNPO8jRvSlG2jEBoImzrOA48zuxRzCy3lPOYbXHvHdmz5zjtvMyB58nXaDZxcjfkzLlLUm92lVxarQgnW05vn+52UL+RWO67fx9mLnfK5EQZdS3J6AjoFGXxgVEwDZghJU5/RrAKmPxonajQI5X+OtGlzwDRgnR9L9FbI4a31udnZEE9QMVFQojivJQrZRAp6q6wccArUdxT5820MYiVD7vy8ZcyjufOXVvkgQfvkumZEbSlgeNYR5OhlHDCdbGybTUjOX9+QeZmq9RrQFornohZ+bihrUU9eDfXuQsX5dz5i1yEoY/gj+NIRZ/ng4Iz2+TOu/bLvv13SXm0JIVyWR8+rDd5k4aYNDGqIbTzhgr2Ot9uMDHJC+czGEMVO87w5zGuI+LFi7Ny9OhxuTQ7p2OR/nwQ2KnsZaHDG6I9iHR89uIw87k0hzL6n5liXiM4Zx56EPXft1e2TBagMEGEYBBe4Od1IjAKhIqb8dNrmcVCQW9e4OME3CYqYKZegJtDXI+fi/+RHcuhxdAzE6CNHxZxIN5lwJi8O9Q3jStdLyUSLcYFx8iNio+GXDCobKqNM4LbYFAuMaZhu/dsw1LwQfnMZz8BeUKe/tRD8vQnH4DcL5/+xH0QmLTDT031g3yScq/6Pf3U/fLww7eD7YsS5WsgrUW0qopyFlHavBQKTSw5b5anEO/Tn35AnnnayacekM88BRN5PINynnkS+fn8Vei+V5556j75/GcekZ//7CPy5KP7ZNeOCbH3G61uINk4zIFg2lCIszhJW1CIWKNBcfC2TlPGbSiXcdm7d7teuI3QN1zVxSBhrkaoWEkuSswqTOWAI6iDk6QC3+XqZVs0rjwlKBewRvQng4tKQ31dvVC01o6mUw40jXC0dI1nbSG5sF0dkAjaizh8PcY4CP1WrN5mZsYQjhk3VnC884pt4KX9Wr0jJ0/yDrNZVULXLzALB/Nz62MBK5Rz5y9IEysAkg17gEeMt8XyDQUTW3dJcXxaTl6YlZ8dPC4/fe+IvPHeYZXXsdp9/d2j8sa7x+TNd47JG5A332Wc4/IW5Njpc1LlHZfsSXSI3qGmq3XYsWI4e+48xt5FDSPhcxzYOCEu34Hs4zqY7dix4zI3P4828GkbprRfTnB2794mt9+xB+fhKM455K7MhHCMYz3nOZbhx207HRbuwBmBWF1o54tZ+WybAflouHN+7PAVgckB3Ye1VNL6LRHVjSReb8ILPx8ZoV4j4Bi7o3xNwSIw2DF71UGPk2qx3paLC1WZr/LWRA6+CLMc3snEu7Bs6FPsJKTQbuqTITxB9Wn3el1OnjovL3zvR/K9772KgW8KSFNBaU9NluSf/favyH7MqMaw8uDdIZYjBzkGMwZ79m4jK9XbtYOkgxOXtzBXsJLYtnVSxrDi4YmSpkDNusjB96QG4NTjA2Ew59G+D4/PyR/+p7+T5154HW3HydPjJh9r0UQd5uRTT90tv/kbP6d3xoyWclKAkrU719AW5MslNrPlhX/uRbMv9MlrePLhuu+9/FP5f//+X8mHR2el1SlhVQQCazexssvJbTdPyf/pv/sn8sD+nTJS4hZGQyp5rAqQN7GWQWzHAbQAnXHyQlP+/Z99Q/74r56TZoSZdsfu6ir2FmT3TEl+61e/IF/+hc/IjukJ7SP2NccBNwVJKvyjjS3j5iRf9Ue64V11x84syB/8p6/JN7/5I8y6uXUyjj7mCxk7Ui7U5d592+W/+p1flqeeuEdf0rgclhveLPfavlvMiJSqnK/KP3DwsPzF33xTvvHcy1Jtoa+kInwynA/scp92ZuuE3HLTNhx7XlOzR/0iTCi4bSsgIBz5xNS7E7FC0WOPvGsNKP6jZ+Tc2UVpYl7F4xpj7EWYYMXxgtx6yxb53d/5dXn2mU/quNVtX6wCbRTxXODxT8dAtsdo5+r60PGz8u/+n38kL//oA7k0jzFZHMX4Qz/GTaw0WvIUJnu/89tflv2375bRvHuySomMEyOe8xgBGLc2oUI6NgvjgWOYD1q+9vrb8vu//9dy8P1zIGKM3R7OMe6b8W6x+/bK//xv/rXs216QCs9fd0zXcrcYX+//0k8+lP/1j78qr75zVKrdAuqAfsIRKvVq8tj+m+Rf/9MvyWeeuAtjbSBfZGC9g19kqQ+D4hjxduSLi0351ouvyp9/5QU5+OEs9FEFzWXfNqScr8odt03Lv/0f7FZk5sqtfI5W5sd62SghrARtmv7QzT5TX/4Y4cDk7oR3X89Y/qy8BjCy197TpfK2mQm5547d8tg9N8kj+/fI/XfsgHub3H3H1ozMQKZV7rljSu69YxIm0t0+DvuEPHjfdrn/3u2ydWZE6o05DJUmyoHow3iYzbWrctPN2+R+lPHg/t3y4D7KHnkI5gN37kIeO5D3NtmPskxmINOJ3HPnjDx07055+IE9UNLTglW7ztSWPazWvD5wG4FbY7zdsA5Tp3WaCSJyRodRN7N1Cv0xJZUSTlwE8cBwe8vTKdE3mJDWO5Nw/SNRamr1UcCgzce7WmgTNTM70blvHkMB5SF6hxdCqEL4HrCk0CWFm4epGv9r4OqFK7ib9uwEkVeMaBGoZVIhISZn6jX0pb7r7ToHVescVi7nL14Sfk+E9KrftOFrTUDKfH/YoSOn5ZXXDshLr7wpL/zwNfnOD15Vef6Hr8q3f/Aa5HWT778B802Yr8t3IC/+4CfyA6R5/9BxfYOy0plfTVKRY4U8NzsnC3NzqpR43YvE0g/2voE2L8yFwgkSCazKF6ni+HKblsdCxyfMGOTOt1lPT41gVW/HMjkqmQypKPUQ0vR2CJE1vb0PQz2vI7BD9AYEnndrhesghTcNyTmePfdvEFxJT1wRbGDhD51E4TcpSgXyuE4G1NTug4VxcQ4mg5GV5OnQL1RiEERkPOg3rC7UBw6mcPMyKJ82VjdRx7Zg9HkCnSvRbbNoi50Ky/RCuFMVy/1IX57o46Tx2aaM5wDo3Ub5dT6Ny5UbPFR4hTbGDLOYk3F+38Jd0OTFXFtPcXWFX/YZz2LmhLbRxj7Q8uFg2Vq++jDEbytcW7ANWhccgAKawlfi59E+rjD0uo8u77R3tC2EVjOBr6sdNzsi1pYy+mTbthl9oDBtP8Jh8IHbFrTThbkFmV+s6bG53sA6UUgsfKsxn1s4f/ECFDPqrwdLj55KjPksvzPUbWJkQrgLyuc87JUkXMPwbQQQuFuw13n7frMnjQbit9l3sT7dzW/jcIxGJHWk5taj9izGEPuP+/d6w4urmZkerKkJ/xiLwmOC4pTIW0jbQz6cLOkdTMyX9Ud7+B2eAsKyx1fPRXeMuQJnPPp4HaB2CvL3QmTzWG/05Z1t/jXC8LawYB4bLxbPjpVzuDjai+oJ7yTsxoCd8R8J2CsckKAFDkI3uEgBXsXwnNDTDSeB3iLIjoXbi4ZDSCwkheTFCjxp4K9kgpNSKYNbCFye5jCwNV/mZSecxkACKkUrJ3ugmUtSWzWz8Aca0dYEe4khEmlj8MOu4H40r61gFcfXzdOfpZsqZv/Q5vrKl0skVjf48JuGImOSKzR/4se6ah4Wz/zTFGsFs9OSVSOwP+1Y+TB7gwKL5LYj2gC770urFV3WTgrt1vP2x1xIKNx/Zzu0hZa9hrNsJRnYqA4tzfUIjChUTW/9RaUpdv0JPcaDgbbxSW3eiTiCidZYuaR3BfJ9edzq47W9PMgiXwB5qNAvpwTC55lMcoiL+IUciLinr9IpFVtwtxCvgzD0HkiBX0PkGxF4YwV7zWB9bWIwlx1N7Wfnp8TEEB5PXkeCqdtzJBu161FSWJtN7G4+5Mfj6OyEDh1avKmA4xrCRpor25VL81rCj3AibecgWIm0IsvHu7Hg232NoYeRQxNGcogZ4A60DUwqKSUWmoyd+EP8YIDwONjwZ3h6UKg9STl8kpi3+HKPOgd7+jyEpfOlW544+Bj0XnwZaQ2XgnqBsjpYjr58wtLbqaum6VAVIRlSUAMjGJpm0xkoT2TNxZ/6FKRFX2lXQOvSqlm5rlE7/pwTeZjf1cDyQv8jIyUT/sHkPry+WBIBvD6kJIGY2aOubdE28bh4cW3UnE38c0802T79PII2ysSTGHvA6nM9or+n+QoYttQfVU6q+F23nVsm5ObtW2Xn1KTsnIFMT0FoTsA9bjI9JjtmxtTcSVP9LXwHZPvMiGzfWpZtW0uyY1sJ9grs47rdOjpSkTyva7o3BbCnDb4/PZaOfI0BLzNxLHRyiDx4jDU3prDzipG4i+AT2RlqZzRXY7rypskyEIcl2SElAeOY0u7h7Vm/qwTL6hP4UQ+sN3wPso/UhKQ9a9Mhk9RmAqBiVJO6WvcZ3YDQ8fDRwlSI2Zy4A2BwHeygIVmvjD2bygAfHcDU1jxtnVqjkkI6xtcDTDvPFviYmcXSXFcFy86QZGEnXx5kkcdsT2d4+ONWnX6TpMcbHJyJM1KvX+h+uJ2yFP5qTq7+STH4SezsE4i+UgJ5ZE/QbLs1GsuAj3V5JuIaoXmxDsrQJBe7wNnFCWGrEC3AyoewfO1752+2tJ30pWjdmJrtwCxbewDHtNuxWbddoKcgbowc0RBf1vUIVcDumPL6BxWotdf+uHqeGq3Io/fdI7/2pc/L7/yjX5Xf+ce/Jv+c8lv/EPKrkF+B/AP55/8EkjUH5J/B/5/91i/D/GX57d/6svz2P/my/FOk/fVf+7Lcfdedwq8uFmKSC/uL9bC+tN4kLMSO04Cwn23QgKBQf7P6QwGGtxWsGw6p/2WQZIP4fO5H72QkEKBZcBw4uWogi+xY9KJ1WIfsPXybaCYjm2Wrr19r299S9PsleXmLQ7/OvD7Bvv1IwM7wHcJf2y5J/QgfJytrAqexy2DYgNKT4DJgvMG0w0ThIztTy8Af21ko5KXCF0/y5OZA4yycJ4xeLGpLdWFeWk0+p2Np0hPfVCf7ggPV95narRgN97NFvprGX8911dATnrfx2hSfedDXncRXCNZd1Tqyoqnf6UGBWmuaLFxh9fewOln9HfU7sVhaMyjgequj31Rv1Bsapt9FARHrFpMqmp4+JMgvG2bzv97ANlKdc4uPx6DLiy6svvYL1tkR3/+Wl323bpXPP3On/OLPPSBf+vxD8ouff0Rfn/KLP/eEfOnnHoPfI+r/Sz//oHz5Fx6Uf/DFh1S+/Avwg3zp848izaPyxZ///7f3Zd9xHtl9t/dudANooLER4C5RJLVwEUmJEikpszkzkzgZ6yQ5x8f2OXaOH+K85CGZM/FT/Oo/wHnMyeZlnJPY8diZzOKxYkszGo02c19EgiJFkARBLN1A7w3k97v1FfpDsxsbmyRA1g+o/vaqW1W37r210x2Tf/i14/L1r56Qr3/tpHz5rddkx9YtCJ8pBQUtnHxq+14I5h85jYKPz+u8wS9YDENRs+2F1kShpEwWMC74DnGazeYkWKnqoA79xnMW9MPrgoMfdIaP+Q7TiDPmufQLR2Uqz+MBnymP0YM2gv4tKkEP7Q7DgnHU8rAkPJ4wjW06m5jS2ZJhjl4a+YjTt/w3NjBYljc9rIBqluQqWHE0Wed7x8dYDxsUhrFoVHq4um0sBhqMYqFARlmk0Sf3JqZ1V0KuteandJFeBZ/5nHIrPla/9GDO8affea8RZFTzDn4WmdN7uB6oMoGlisRVoaSBE/TbstXq/edXFCQElYsuzDl2E0qGi41CJCI8FlIuBslM7Uh1SHdXp0S5INsGBwVpKtEhPV3d2jSlIgS1MdMUi1SqlCQ7OS35XE0SEOIJGiLRiCRiEfBLSDqiQTiuHRaQZCwoSZ3MG6q7aEiHMNP5303E4HiEC3PwSM0sjBmgYmF6gvEMH3qELmaXOTF5QhfQibBdPd1QMhyEgxxnXuAZ84S9OHcnJmRibk5KVC645y9zfthrLZdw9pp0sHbKoDWFSAILBvmMCk+V4fpg6bCKSgecMGyGBe8Xm+kABktnfpk+VHYmfGNAmaeWV8139e8tTHh4wsRgNPC6/cKUUP492bBS4JHBaOKlGdEu+DNLM9d3w2a2Cbl1+K2frAfGN1b3YyiU/ZmMbgKkk6XAqDyo0IelwqU1bnxx12xVq6hTuxSmsNWdYVIyr2mztv7Wv+ZRmVxfxDXby5v6vXpoOAjIn5U81bzVm2AtJcQjRuER4Dl/8TKvBETlS3VeJsanZOzWuBSrEF3wilswcN6DrkWL6x4IOi7jzk7tjQyNKSLX1dUlg/0DEmGfh5qypNv0BXKb3ds3b8j47btaINWyx5dcvdqs7F2SsOdCPHJulI4dq0okUNF1ySKBMq51X0XPVSS0UIEQhTJhmkE4LjZYglnoFomjWwZs+0/E45Lh6rxQeJUaahjIf+1jA8Gcb3aT+x/d5JI8RYRh8pNZb8Iw51aga2jeQ/MezsnWdN5zI7wh3PVmndfXDfrrxVub76C4qGRM/Fl3MsOETFKYsBkmpzQsLHA7hDJuc4oD05GO7/Bl861+j481ftbhT2to/NP05jcWGtATjY1dMlcJ5Q+erCa/9GW+2Prl1XizOoAFERYNMC6ZnenrkY4OLi5IwUzmBciQEpWJCS6hPy45navA+JAKLQbqzDn8AoNqx7ZnSfGevU8lRrD5YrHDFd4oc/Mcz4yvDx5DU0wQMr1C2Ho0P/gzbKU1msU/KyJsw4u5p880TsbVagGplGoyDuWSzReE20tzB1BumhXipLoABCoqK5lMj3R3d2r8NiJMSjBpTO51d6bMQoQg3jZbhgKcmMnVnktyZ/y2Oi4Ho1APmK4UZBWcV3DODdjYTMgBycbpbjB4h4pIHTynM6MgARoBFKSelxaWJ5beNbB3/U864jHwby/yAGptnrtGVnUyIWswVcSFm/Zd+3xcsrk8I63xo4ClQuHqL2Y8IOLCteLgdKkirTbwmkd+YGgy4fK6/r7O8vcTtCaYD/lLOjgvi03RZtULQPv0wsp71DdWpZE3WVPmrpm6Ly2UCzc/41Pyqn4Hy6dWDcE75ARbHXgfb6jhhTMmMd+1NXvD9frE555MGCnwiKCM43PNsJp3GqHZueo8Wvoir5Sv/Q73mDA2ccho1jGsZcEXNAj1GXEI6szuzmRc9u/bBgs2AgHjCQD4SEHMbYhz2bJcvDAq169PSAlGEp9ocUTp5RQdHnnNTlXSQRGk13CaTHB6Dv8iMa6kilt0fMDnfniM3nh7NeA35juEphILxYWJhrs8cEZ5iCO8agsobNzPBMUS94vVqrpSrSYVCLsKaKDiKKBmMlusyPRsUWamK7q0y+jNGfnZxxdkapbbI6MoUwiFEdtITZKdUenr65KRLf3SBYG9Wh559GDKa+5q7SrdmZStIyOS6e2FTENtBOnC+UysyXBi5Z17k3Lq/GW5euOeLi7JPkkKL9oLZrkYprj5g2jDnxGABNvoE5EOiYbjEg6Cv0Jx8ByXe4UWDnD1bfb6WI6m0UHjg9a25XALpqX3jl4b8LwzHpVnd40gVNSQYqAlDEEbRA0GDzkXZ2p6Xj7+5JqcOv2FTE+jhgVvogieC3JydWvuaBSAYuRafyJcnqkARUllyVpBUSdmmg480kxDiu8bF6QjD6wLpN4rF1wBBLSYWhxXQKCjvyGZmeHaaRMyMVOSXKEscwXShFRW3sY7oAFci7wqQVmg/swCiBpPdqYsYzcnJZstSQWMXuPQcvjPlck5lJwlVQ0nxIj72KhSWgKb5v4UfzLAWD0xIKMvj8aMfQhoQgOna1DADPSl5IX9u6UrFYOCMXUSNpHUakEplRbk+ue35b13P5TLV76QYrGq/S/cuVJ3mYR5SGXCeULBQBTMG8ORmypRSIjEwxAqsQRkSdjMZdAVaL15DewkxfkC/KBj4bDWpVU0a4FGUb+z3yIuEAgqwNjcQ00PIcEtZUsIl8plAYlQxf0yMqmE4LkcBx1VLGmmQoQncv3GpLzzt5/I2XPXpIB4645/QVqPZQjMqlTLORnIdMo2KJc4awEeBRsV1BEsZJzgODI8KM/v3wulmETtEnk/X0YywnKA8UEFe/bSFfnBj9+Vy6P3ZKYAQUbe0CVxonr0u3l1ZpIl36tQWagSMc0z+WJZpmZyUoK/YSiaQJCTUbnWN4S31wxkcrJ1Ci55iogMDvbJsaMHJdUF7QJrXgUujCQuoxKMdMnotQn56c/OyoVLdxB2DTyM/FUhbHyiYcSh6lBJkq8WJVeew7EAvgB/qkIJIRjQj3eMpQ+HMDiVkynxIGDT3sBgRuLUdqiBxKM0+siYxkTj6gZ3JmZQ3sCRYfBiKCKFCgwhPK2QZtBT5shOxIHTHXQLcXxeKFflNmvZMI4iMZZrDnwg5RycUJJnd++U7lQHfGFtB2mmyuzpwKZXLrRc1c5Sq8e72RIewz5CqEoAQ3HWdGcqIYcP7dNVf5W5YY2RsWsVCP5aSHK5vHx66rz81ff/Vt794KxcG5uSmXwVTA4mRqmkUGYxY1zJ4MVqAEJIYG3VZHIOCkiFEVfNhVUJf7UDkiXAcxpz/KgxZq7WCX5Lj/jPcMxdlaSaD7RTQyioC6CtKFO5kpShZNiQw9nmFRRMCkP2KNBqL6KATmWLcurMqPzknZ/Lz39xWibuZXVmuypCNouwnyFYlt50Ql7Yu0t2jAzCIjYMvGK2Pw7YJILTJfbxNzyUkWNHXpQd2weR/7RyZ6VcmlWjqIh3bt+dlg8+PiN//f8+ko9OXZPPx7JyL1uDAIsg72NIvzjSL450i+LIXpUIHGs+QdQA51UhTSAdr43dk78/+5m8+9MP5dzFUcmXaXWb5lV14BNSxHOTes1T0N7lkZZ6T3eXvHL0kGwd7kNegCkRuqld0HgKSz5flIuXRuVv3vmFvPf+Bblw+R5qZEUYR6ibgL/L3LgPtfQa4rAQTEDRcOmbsO46WoAiYv1GFQwcQ7VNSUom3QOAfR+96ZRs2ZJBOYxKDOkfpXJBHLilQ6FYkNHPb8KNQ9GzZw/8C61SgfKuwnG1hHkacyHkA3i3OB+S25MlufAZd4KdQB7hjRgVfwV8W0J485JMxuTQoRck08PN29h3ZtKqnuZ68cQi9HuAd755gDwxE/fA9MgtWg1nLlyXM+eu4g6Hphrm5Ax+1Obl5OuHZefWXq0tmMYK35/J7Tp4vUye89Eyj5eArKv9CBCQFCABWKgcdXN7/K6M352QIqre7I9hRzyZn/NUZmdn5dbtcZmczinDclHPCj6eh9CusjkJpbwMl4NVP5Ety62JvFy/MyufwNI/df6q5PK0mDyxgUITR5wz3R1y8rXD0teTlBgM13CI8a5brmttWmK8SqjiU2GcRZh/f/oy8gMFT2sr8EuVJuxqLq6IWlkWykWXia9CqSCONRQybps7NVOSsTuTqKlxu96L8pO/+bn89P1P1YJEtD1LkTY27HQomN7OqLwG4fzVN1+R3VsHdR8QbpBmY7IWMA41eD52d1be++CUjE/PgX7UBpDGVHupaEB2QogeO/y8pBJRrXnqcO61AgFxLxMqmHg8gvyPyt3JHHjgtuRmpyFci0gv02TCjvJiqaT5PzWT1ybCCleZCCcQQRgO8KsKIwNJp5vPlXDCfWKmwAdf3J6UK6Njcv7iNXn/w0/l3Z99gHw5L/GOlOzZswe8z1qBzXHzs3iOX8MCvLl4x3sGMFwWNqQXt1CYyWbl6ug1rRXzLe20xjnn7OTn8vL5tRty+/Y9yc2VNd+LnN8DnmOtpYS0YN4WygGZzlbk1vi0rqt26bNbcuXqHfA/m1KRA8iHeQrjUEUGh7rkrZOvSIYTQUGGpWul/FhUTvyC6YdyxP36vxi7pWu9sZJNA0b7LsFr5XIJtZmIdHWntRWACibEJapQVuY5bw78sQBXhNKZmC7IqXPX5YfvvC+XRm/qYqsLoGd6ZgpBVXQ/m23DPfKtX35Lhvs6QUxRm+R01QmfUvelMmDuLQd9Y/lXNgwCyACbAxsXfgp5TsUCxvPsWbl+a0r++M/+Tv7of/wIBTCBx6z+ByWC6m86tSC/++9+S948/qwkO2C/sYCAqzj8ULO2Mad43abMo/pjDYKCgAWrBgXBwnXu8nX5k+/+hXz8yUVYeyhpsOC4ooBOIAOTB4I10BqVNCwedlqbjYQ6IJxgccFc5+rCXOamDMFdqCyoxTo6Ni7XbtyREmRVCEUwhIIUqhQlHRfZvaNXvvNvf0ue3dkrCe6bEjGWHIWFjnBZo9Bk+3EOfmdLFfnu//yR/Of/9n2pBLulGkggX5h4sKdh2XIVajYJcPh1dwpW4xBqGzHTHMG5FgUo12wuK9mZnO7NMjWZh6HARhM298AXKEeUdSipeQj4oByHoP/GV07IgX27paczIXEue8LOfkNWU7Rib8rKh7oqMoOFY/BULqicygJozUMhvP/xZ/Jn3/uRfHLqHKxjpiYMB0SYKUfhw6bSzmSHrq02snVEBgcz0pGMSCLO9fjY9DUPQVhGXheQhgXJZmd1n5Vsdlq4/3p2ZkaNFG4e9iv/5B/Jb/yLX9Y9kNgFwDAg4wy0Cmsu/OVA7/iuYQ9IBXzG1Z1n8mU5d+W6/Kc//K5cuTaGWkdVYrGUrosWJJOD9ipqotwAq6enV9K9XdLVlZKBgU5JwTiAmoUCr+rGYUXwT76YRxngoq4FuXUzC/rZz4TaGPKhGpgDvxTk4MFt8nvf+deyK92JOg/JNjSvdlVkxprmDlXhmUvX5M//6se6OOi9LGvU4LUq6IYC5ETn/r4e2b93txw6uE8OH94rIyPdujQTw2RNmRsTXhydkA8+Oic///gszr9AOWDzIGtdAZmFcuEeU0M9CfnaW0flt3/tm9KfRm2tmjM17SDKOgxgo2BIGY/1tG4GPwvzzY06iKURm1a5cGtVsA67F6FcJuWP//d78kd/+kMUYmYetybmzPiK9CQX5N9/+zflzVf3SKqD1hWVCwvwo1EuFB1qcSKZOXud1tNEblY+haX+l//nJ/KLD0/jjTgYuEObxlTYc/QMiwM7H/FNkDUNMD4tNbKitnYh8lRWqGwjDbiTI5UYYxRBioR1QluoUlLl8sz2jPzut38byqVHYDhrmzAbRfR/ncplrlyUGU+5/Jf/TuWS1mX3WYDZTs44hKAsdTkf0MtZ3dwjXGf0B2EW4B0d4glBw74hbvdcq8IyRGHXrZ9JHJQsVIBEw1UZGUzLr779TTlx7IBkuqBoUVK5Va7OG2nMQx9WVC5noFz+gMplHMqlA0KNWwZY5bIPyuXtB1IudLQZoF8gLMGvcGP3ZuX9j07LD378jnz86Rko0CT4AnGHgOPSRewTQW4jzZCTVCb4BhUG4URcKgyuGr3Amg4s7TKUfLXK0UzkFQqvgJRKSFcI1lQqKf/sV74hv/72VyUTD0gUz5emFIhSBYNDQxqyBqo84oF5UgGPsYltarYo739yWv78L38o5y5ehUKYl3RXBl5FETaVBhQDYxCJwYFwhEujKMbtJ2lusY8FRpQu4or80X4M8C430OPglgWhMGZNLivRRAlCfof8h+/8juzkbpWMp5enq1cuPCA+4JepuaK889OP5H997//KqYujkBesrYLnwHdBGHmRSBx5DcOuKyFbt/fL8HAa+cB0A48inacnpmRiqoja9bRMzMxKEf7XkDnz5EMWTORHZL4oxw7skV/759+Uk0f2SixaxjMoSk1j1EJ1T11T5p5k5bJpm8WQW3pKqy8Lhjl74bqcPndV20fZbqs1FAi4eGxBTr5+SHZuzYBxwGAogVpzsX8NhUpLchszT6nUgmq8JqgsWCPp6IjD4pzWjaRoHbKznvRpo5YeoWxwriviovCVKxCIbGYocQl0unlYvjXcQz0A76Aka7Ve15BC4Q0uVFSZ9KcT8tbJY5Lp5Yx2pgsJ8TiWtFnCVgl+ySYRdtafO/+ZfHrqMiw3tqVDQILzWXsxczkoKOGg7NgBygEKJVi4nH1fRGRKcGwewyWcsVjZJGLa3eFPtSidHWHZt2eHvHH8sBx/+UUZ6kuj9sVRVniL4cB3/V1HHKjox+7OyXu/OC3jU3kICAga0BKCkEhBEu/kZnaH96PWhDRdb7MYYHgAR3yOIKFMwpJOJyUcDSH/pzRv2dRFpbIAAW32+oGQheCrVGE8ML2Q13Ow8LM51PayBW1yyheRB6hNsFakAztAPwdRcPAH4xaOcoTis3Lw+d2CZISxRUIaYdKuMfnIE7xFBUNhTp5Rh/xl/0pfphf0QdnMctBAUfe9pwIKgAZufrYQiqP+GpEC8hNkIs/npVCsajOeruiszaSId5W8zWYwpi3z3vALlQ6HPAcj8xDwPfKlN45LGgqe+smSuvpmMZMHXJU8CNqjiTjSa15yoD2fn4MSAjEobyHUXIOhTvDlAmpSbLq8Kzdu3pHRazflKmoon10Zk8+u3oJiyeq25VVkqDb3gYwaLSgYTCkk9K5tA/LlN16Vo+CdNGprgQXOT/JGAGoMGEfSzjQ2qbxa6Nurf/2xYvnc2SjwJ+aShLV6n+3k7DCronDRrqY1hCOtYxwJw2ZaVHDQLNI7DxOGdbw/hMnQ2akXj4RkCFX840cOyNvf+oYcPrRf9y9RIw8RInn6vp7QMmdVg0NKPReCRRhOQEglJAoXCcdgxaPQgNHDYHI7ByIcqsGhuEIYwwiu+wlK6DQt1gVDF//YRIfoQHB54cKiDqti40AGvEYlsxgeByLAoVBS+HFzsRKETplLzePIfglmFPOUfvb3dMqBfXvkKyePy9feOi7bh/t11eAwPObeJGopqgChewBQMPsdYqKO2kDpf3Aw2WlxUsAnobi29aflreOH5G3ULPbv3aV7yLNfxLTL0/hhKiB9w1HU+FIwkjpwHwqcRgYqftxMK8Thx7EuGE0pkBoxBgiVNRUOFD/7SdivpKnTNBq8Cdckjkvv0AfkHNKcg61IPxfPPPHqYfnHX/+yvPHaERnqz5haJHOZfAhmDkW5VS/pjEJJ0MUM7wYhcEO45gg2eySDMoE8Ic1aK+eKMC1oMJn0WC9Av/IMqFuoSgZljwMT3nj9qOzaPiipJIcpU8Fw/ycujcPVprnFcAgKqCQzUOYzM2zCLSFtTesDedmWaSqOCOhOxoPy0v5n5Je+8ib8PyB94F/W4PkWYoHfulJZ6p5MbJ6aS2Me4NoIx4DM5mbl0oVLcvnyFSnB+mXHGkexhAJlVMVrcuL1l2X71j4UXtZakNFgHputRtj6wOuGWw8Cw34Af8DgFIYsQyw0sXhcBgcHZGBgSDI9/RINR2AB5mVuLiflUhECl5O2OOEs4Fk9C7AO2YREf2gJ0R/D3FQqER5hJUklD6lSlJ6uqOzePiQHXnpODhx4TjqTrNWQIg840Q54pXL1YFRIApvTsrmCdj6TxvkK980pSQA1jgDoDrHtjk0gnNENp0t4oDalw29VzRgFsQCByFn5CcQ/AQGbTiXU+qPwev3Vg3LopWdl2xY26YU8JWbEv+adEm7isBYwDtqhP86ay1kZny5o7YtpywEEKfDKzhF26O+DNbqOmksLcqCLkWcm/zs6OmSgv0+SyS64JNKoDF6eVktaDSXkZaUCy3repB2NKFIeYnOgNtHBiEJaLnCIqzYSoyYIvolGw7qv/o7t2+TYkRdk764BpK1RbJpkTVwjvaZceDf1lBlu7msNBsEnUPMeGhqQwaFhCOgeCOg4ageIQ2FOCmVOBjYGn5AnF7jjqpn0yYEmHKGF+i/805wwPMEVBdgU7I0OTIFftwz1y0sv7JdDL+6VblToKJ4tqa3ygz7qEWXN/jHluA8Nj2xqTiY7JN3djRpkl/ZlVpH2JVSn2DzHOTCkIRjk2Ew6KgimNem04cIYAp/Po3bVnYzLM9u2yKsHX5Bvff2EvIzyNtTXDV6mrAG/4vXFofpac1HuheOvjc3qoFmxtk8eGzZXs5iXqDS0lIHww3bb4lxerl6+JOfPX5A8O+iQ+nY2cyRYViG1fYRLbyDCqAUwizWT6BpzitcNtx4UpFXpRUEikzJMcx1UhZLpTcu2kWHZNjwogwN9KFSokUTxDhi+Us0rEy94wxtpOXLvDioT4YQuPOeWqlFYenEoUo6o2jHSr52Srxx9SU689rK8jJrRUH8XhDME5GL0WOQIXq2VxfGF1lgg7KNcc6pXF0bcNQIliRpYFEKOczgoLAIQKjJP+ovmuAAnUD64z1ocayFUGKyR7Nm1XQ6+sEfePH5Y3jpxCIL9OXlmxyBqMElVOqpMUahVuCkRXrraODTm5TLgd0a55D3lkodygbUKfqJSTEUFyiWzfuVCeOT4qVL2gmP4PHJiX1e6R3dy3Aoe7evvhjCqojaXhaLIIq9r4AXWEaFEkN8LTFcoG6ZfCHnO2ul8DTwAAR4OVWVoMI38fl5eOXJQTr5+QF5+cYf0daFmi7CY915SLaFJ0XCjnpbeB4svmHQm/VRy8VhEBXQ63S87dw7Lzt1bZWAogzJakWo1B1JnUZstgL4C6C6Abh7BAzjnMYj3whTiiBuvu1Mx2bl9QI4cfl5OnjgqR4+8KMcOPie7B1LK+zbf6ZbLD9JH5WLUsXFcroaJTv5hf00yEZd+KPcRKIYtSP9MJqNljwpxvjaHL7gUE4cMGSVpeM/wa6ojirTOwPDZL8dfPiBfeu2ovHnsRdm3Z1jSSc53YVljWMaY1BUzVKnY2ovBk6xcNkeHfgOsNULKWfW/d/eufP/7P5A//d5fy1SgRyqwQGlxcLRYFMzx7X/zO3LiyPO6yB+bcZi1nnj3FSIPvG5z5imD04oCo9kZumR0Vq1NMxEEHQxPdpjOzRXl3r1JGbszITdvjcud8Qm5Nzkls3MFHWFDzcp9yAl6xQLW0ZGAguqBYyFPSXc3zjNpGUS1vLcbhRKWLIcgQ0apgNZvlSpGlTc8Yb0GMBb0YSpfkalZdljCTi1WZWJiUsYnJmRyOiuTubxMZ3MyMzMtubk5KVc4EozNlQgRJY6We3dnpy7o2NOVkuGhIRlBTW6Q1jwKPpvGOMub/bakW2s6EP4aBfpBv/RcPeTZ/fnZAqS9BCv1wzN35Pf/4E/kzOhdr0O/IlEI6qGUyD84xtFi/1SGMom1d+j7wL4JPdKBPk07kMm6Bm30En444IN9K9PZOblx/bpc+/y2jI2N6wKe2dwc0nBOcqihl8scqgulgkSJJxKS4DBpGBsjIzBMBntl59ZhCMotku7pkb6elHTB+qdiiSBQSz1TiHLWnivsDQ/3p6P/OUdemTsaB5zk8jAZtCM/oMv2fDZ6TcbvTcjMNEcCZnVhS/YtkusJDjgg73Yi/7u70zqxtLsjhto1jhDyfZkB1FYHNeM5eKM7yholeIE1G3hB8kzzoS8OHhiC0oYwbO2F6a1nJnjkP+KAixoYoYxjoQw+RhqP35mRu3enZHpmBg48fG9qMf9Y+0h2pEAzaz3gXdC9FQbVQE8X+DcpEcgXEkPajELhJWvabF3QhjT6siQpV8OvlmZCfVj5kw2BTa1cmNQc7ZTLZuXM+Yty/soNKXLkDUdW4XkQFmgIVt6XThyXnVv6tE+Czbn6KX+Q4Y9MuZhA9dcwvBEwZDnmgHlaD56dtKymz0CgTIHRC8WSDvGsQkBziQm+xJnEkWhUFxXsSafB7CmJgcGpqCiYO8DH9I+jyVgw/Z2hFPI8X69yISogugCFSNo5EoZdIOw2YVmksGSHfR4CJZfLylw+LwXSjnA19xBsAgqku7Nb+lBIu1NmLkcM9yk8KpS68E+VC+PBABmQl1iMlxGI9I8f6Rs4mONK4Jd15fKHcprKJQTlAhqjsFiHklQuHC1G5bKO0WI++IsYz0gv489zv5DmUQ0NnHGOSw5K5fbtu1AsM0jHghSLRRWYfJOCmdY3+zY4MGRk65AMQyl3QUBzHhRTJYbn0SC35TZpwjy2qaMCms67NmlZx0rpSJ62jvRyEEG5VNMRWWAGpC3uwg/yLJutJ2EwcaKiTQuugMxmVa5uTQWT7oKAhtDmNt+cv1ODouWSM5oecJyLEgGNHFBAUhkXq1waeZch0PmVi01vgucm5swHlD+EyXiUOfwZdHGsHp9mkebZ6Rnla4LhJZMpSUERchK08QF8DLYgDQVmjYWX2DQlyDWqbHjLBL6I1bCrj33UD6dcHjKUYbyM4vwQrltVC0WkGjaMwrylCyN2HFWuGYxzMqbGWAvTo1EuDMlQbKCbeiEMQwGdETbmrA6ec9IkO2dVkKjSNG/wO8aTR4+P9dpC4w7H51x+hZY/r5f6z/DMHf/91YLKhTrA1CoMSAOyQxWnvU+/SQcHzFbxhqaEV+jZdEDxx+LMd6gAGUdt5YY/tlDqQzpKG5tnXh7yqDFZTUn1wC/Lqlxuy+//x/8K5TIuFU+5xFS5mKHI/+pfvi2DvexQ57IeD65cGBul2iNV00Lja64on5hGbJ7jK7SsbfOPZU1awfyK39BvjTYMqYg2vZBnuIYV2/qDUC4RTV3jP783f/SAycf3FZqWdayUlovhK834RXj8hve5NhqSVu/xhjZFN/HPfGveYa2A1PN7w7vG4OFXzNvFMHDNu6wpszzwWuPjA/2gs4qY54Te1w+8VPBqu/Z9DkPnwqG6qRqUMr82IVg64PDDPOE1jR6es0WAzzg5VOGRw7AYwiIPA/ZosUIyK/zsw9c3i3IxqbsJYdiDtROcsxDBgucwWwpQOgopM6AT13iH21ksyiIc1K0mZ9sAEx4LC34RPguaHsE1dCz6HP5Kpx2AvvMoOCmJakgccaRoY5xtvG0cGV8+47WNPzMWUVamZ0euzWheE8r0SpWhbz1QhYWIsJZofDbnbLqI4r4ZFG7opfjkalicxcCZSHF8S8dpdWHcD6Io82jeNfFh4dWCSYdrdU3zDPFYZ17WVx1G/S5I550HcOR8HNBTF0/rA2mrOxMnk/7aKKpxN4vh8MiaU1lioIXL6MdD5jqK8wiOdEH2t3hNvjHQyT6uKOJhZj1BOMLzBGoQMQRmFmbkM4Zj8oJxsny0XjC1TRwM/xo+4ChBHZAuMYRr8xn1D5RB5K8+Myuj6TlcDPzPiZFRvM97fJc8YWmlU57Ce6zVmLTjfcsry8dBpx7Qofyo866ZF+SxujM1vSSqyuybpf9qlMJ7/3ssW0xfbWLGMx5tWrBPyJY1dXjOI8u6kkn3FIFx3/xgpmkOQiiTcbWQ8kjBZTL5/swlSzw+qILRo8kECnqzgZRxIc+FPccZ92HICePMeQiWEpWmOsSNzioaZWrPNV5bt3b4E9IUcCsEbIGnENM2Zu8ew7UFk1ZgBOZcZD7ouZC6MM5tfBl3fHa/swDhFNA8KvS4vtjQY/bNGWXid0bBGKWDxF2v9y1h0soIR6Nc7DL6ZsUwI3ijnoss4N58VaKwqnmf/SfGeempzuMTnIfhU3ghhHMz34tFg80xxvHcuAeNmPqDox2ByfAYbgQuyrythc3R58Lq6nl///M6L1h+UP8RkgnHO9dfht46DmpweK/wXV5rJztu8Wt9R8/r/Mk4GMewGDc4soA9967tPbKH5U/rj/oPj9Uw4oOnFEyHzQ/kshFwLLBULBzZYaw1U4g2DpThPZgRJF5RYSHy/ekKAtahwHHFgbpDxlkG59Fj+MUCAL/9jiH63frgT0ieG2etx7pb+mdDXYwjBAhXSKCzBVmvcZ9xNe2FHpU2GIu6d8Zp5HDC8/WAn0KRcIgsh61HuBGXujIcF2Vk9zRrNoiXL98eDP5ImTSzR6usGS0j6HBUZ89xVOHrpdt8GGkX8Tleh5GObFTi3BAeeU3fyGf1XFl/onnwomBWujBO8xGUm/yEiiM9SqN3T+97znvnvudwhu9Bn8+ZcDQU/eOZicPy8dD4+nhEr/Wv/qU5r/tNPq3zIh6ibKmz5zxa1wh8who9g1Tl0uCeJjCHNjc0w0zhtE1CLFK0IPQRf1o5otm9Rw0ysQ/38Wwz+hrv4eg71Yy1j63zo1XZ8MM0CNk/+43/joH1u17giSahrhSgRaMXrZz5WTc4xyIeD8nu7f3ywq4BObC7X47sGZJDe4dl7zPD0tfbpcNtObKtEfX0aOb8adToLOy1jQzTDtzLFQ3URXA7BseFWI3jRFpeWy7nig735bRKMDh/cPdJNb5nDotuvVCv8GcF8WKYnmvGiNbxWePzVtBn+GkoK62g3iHe/rebfanvNbgl4A1LI+F/0e8svOvG237YZ/a5/7rREc3ubQZs2g59P8yy7N6FB5MRXna0iuEGyamVskDjYWlt9mqLePBV+3rjZ/YTHpt9ztFkzeH31YKWJP1p5ZsH66V9RfsDAPsZBUeTz2k6+NHklToaSWsEPrYx4FDUiekZuTR6TaZncpKId+jSLDRUWOvlIpHPPbNLUnEOi4aF7QnpViljsDR9+EVzeu17JAjO99ICaqd+kB7jI9/lwT73wtG2GfOePsPBe+IBOYNa8kMFA9RAQetS8pfAinsbo0bY5/bQCFNUzLcr1SZtubJ6rx62gV9nLMI+bOW1fd4KDMtXnhuyUktKK6+fNDwRysXPqMtmnT+mGyyHl8uG9TbJ+H3kub32+8bzZr4vr1wawVQ3f8uiUbnoDfin1/R3qQC0IRnlstTv++40I6sZ8BFfta5cq0o2z61556UjxuHQQeSFN6IN4G6CHM7L+VEMb3nFQlifDe6jcxH2HRKEePtfwiM/O9jsv49F9D5vGmfe4znUzJLv+cAfgP+8jdAwW6kNA8vLrfh9ZYWhvyu+Z8FwjLK7/33eue8u/V+d10vR8J3GD9e8rSR7YAPl04InQrk4rIxWQpGs3ozdWyuX5liXcvEs7vqDunJZGjpt8rrfi597bknpXQn4wBZ4Op15gyJA1cGCr9NrrHLBfSqVqDcEfHXBWJ8NFmlcFg21Cu9zWzKtHG28Vui5TS0b9kqhrvT8yYJNlUY8ilRYysf35fQTjacprg4N2KgippUgaBdsvOk4sioaCKvyqMxz0l3NjCji0O9QSMzmTo8nlahE/Iqk8drBYSPD1VyeEqzVgnqcNRdraVoaWWvx11wseEfvroWDPW9sGAyZR3PbLopT95JKh3TcH3orWJ8NWqeL/72G3Kh/vjwWvbVUtwJfXH0MnnTYlHep8nCxkoxxeEJgC9LmLVCrlbirgz8trPKwaqDx2YYEiXNYN1zyPXw45fKUwC8wN0PBWkqjtTWX4kHj0Swt7D0WDH/hWJtqs740+r5K+D9v5RzWDZeMjwZOuThsOLQu+HUR307BsBpBs/rwrG9+1wzLPXNw2PxwfS4OTfG4R4s1R4NAfhDObSCVXj2MgtBAcQs0S2v7VSNVfh8t1c5GdNh4cFzp4AD4RbY9t9ePB63Unb3f6rmDw8aAUy4Omw/tlKs+v6hMWCD8ysVeP3yQCNZgVnKWYI9oB4cNCqdcHB4tHo2kbiusotkYcErFYXPA9bk4NMVD6XNp5LTFPpdVQtfxeMhifgXv10ixercyxWv1tRHORnTYeHBc6eDg4ODQdjjl4uDg4ODQdjjl4uDg4ODQdrg+F4fHDLKfZcGn2dbxp8NKcDahw8aH41KHx4yH3EHv4ODwWOCUi4ODg4ND2+GUi4ODg4ND2+H6XBwcHBwc2g5Xc3FwcHBwaDuccnFwcHBwaDuccnFwcHBwaDuccnFwcHBwaDuccnFwcHBwaDuccnFwcHBwaDuccnFwcHBwaDuccnFwcHBwaDuccnFwcHBwaDuccnFwcHBwaDuccnFwcHBwaDuccnFwcHBwaDuccnFwcHBwaDuccnFwcHBwaDuccnFwcHBwaDuccnFwcHBwaDuccnFwcHBwaDuccnFwcHBwaDuccnFwcHBwaDuccnFwcHBwaDuccnFwcHBwaDuccnFwcHBwaDNE/j8tsVFfrOWhjAAAAABJRU5ErkJggg==;" vertex="1" parent="1">
                    <mxGeometry x="860" y="192.39000000000001" width="88.99" height="75.22" as="geometry"/>
                </mxCell>
                <mxCell id="33" value="" style="shape=image;verticalLabelPosition=bottom;labelBackgroundColor=default;verticalAlign=top;aspect=fixed;imageAspect=0;image=data:image/png,iVBORw0KGgoAAAANSUhEUgAAA6cAAAIfCAYAAACM8qrcAAAAAXNSR0IArs4c6QAAAARnQU1BAACxjwv8YQUAAAAJcEhZcwAAFiUAABYlAUlSJPAAAL8FSURBVHhe7N0FgBXFHwfw7/UdcHd0d3ej2N3d3d2dGIABBiqif8FCbDBRsQUFFEFAaenuo4+6/M93dvc4EfDuxb36fnB97+17t293dnbe/HZmZ+MKDYiIiIiIiIiEULz7KCIiIiIiIhIyCk5FREREREQk5BScioiIiIiISMgpOBUREREREZGQU3AqIiIiIiIiIafgVEREREREREJOwamIiIiIiIiEnIJTERERERERCTkFpyIiIiIiIhJyCk5FREREREQk5BScioiIiIiISMgpOBUREREREZGQU3AqIiIiIiIiIafgVEREREREREJOwamIiIiIiIiEnIJTERERERERCTkFpyIiIiIiIhJyCk5FREREREQk5BScioiIiIiISMgpOBUREREREZGQU3AqIiIiIiIiIafgVEREREREREJOwamIiIiIiIiEnIJTERERERERCTkFpyIiIiIiIhJyCk5FREREREQk5BScioiIiIiISMgpOBUREREREZGQU3AqIiIiIiIiIafgVEREREREREJOwamIiIiIiIiEnIJTERERERERCTkFpyIiIiIiIhJyCk5FREREREQk5BScioiIiIiISMgpOBUREREREZGQU3AqIiIiIiIiIafgVEREREREREJOwamIiIiIiIiEnIJTERERERERCTkFpyIiIiIiIhJyCk5FREREREQk5BScioiIiIiISMgpOBUREREREZGQU3AqIiIiIiIiIafgVEREREREREJOwamIiIiIiIiEnIJTERERERERCTkFpyIiIiIiIhJyCk5FREREREQk5BScioiIiIiISMgpOBUREREREZGQU3AqIiIiIiIiIafgVEREREREREJOwamIiIiIiIiEnIJTERERERERCTkFpyIiIiIiIhJyCk5FREREREQk5BScioiIiIiISMgpOBUREREREZGQU3AqIiIiIiIiIafgVEREREREREJOwamIiIiIiIiEnIJTERERERERCTkFpyIiIiIiIhJyCk5FREREREQk5BScioiIiIiISMgpOBUREREREZGQU3AqIiIiIiIiIafgVEREREREREJOwamIiIiIiIiEnIJTERERERERCTkFpyIiIiIiIhJyCk5FREREREQk5OIKDfe5iIiIGIUFBSjIyQHMY1xCAuKSkhAXr/O5IiIiwaTgVERExGN+ErevXImNU6Zi65IlNkBNSE1FuXp1UblrV6RUrep+UERERAJNwamIiAiZn8NNs2ZhwZtvYfPs2cjftt3OQ1wcEsuVQ2arlmhy7TWo0LSJ+wciIiISSApORUQk5vGnsGDHDky86RZsW7zEdutlUOoFp1Z8HJIzMrHf64OQVKmSme3OFxERkYDQBTQiIhLbGIDm52NG36ewdeEiG6gWzfceORUUImfjRswe8BIK8/Kc90RERCRgFJyKiEhMYzC66ocfkDXm112tpXti5sehEBv/nILVP/6EQhPQioiISOAoOBURkZjFwHTLnDlYPPQjE3j+N4anuVs2Y/mXX2HrosV7D2RFRESk1BSciohIzMrb7ASaO5Yvt4Hqfwab9jNA9rx5WD78C+R5gyaJiIiI3xSciohIbCoswPrJf2L1yJ9RwC66pRjgqDAvHyu+/gabZs4s1d+JiIjI3ik4FRGRmMNW0m1Ll2HBm4NRsHOHmbOPa013Zz7HTxYW5GPWU89g59osuzwRERHxj4JTERGJLQwu8/Kw8J33sH35cjOjFIGpx34+Djnr12Huy/9D/vbtznwRERHxmYJTERGJObzOdM3IUeaZD4HpbrJ+/x0rRnwN8N6oIiIi4jMFpyIiElO2zJ2Hxe9/6LzwJzB1W08Lc3Kx0gSnG2fMMLP8C3RFRERimYJTERGJDSZwzNu6FQuGDEHuxg0oYEunv4MZmWUyIN26ZIkdIClv8xb3DRERESktBaciIhITCnJzsfLb77Fp2nTzotDEpf536bVsgBuHNaPHIGvcOBSqe6+IiIhPFJyKiEjUs6PzLlmCld98g7zsrXa03YAEpsTlmKlg+w4sfv8DbF+50n1DRERESkPBqYiIRDUGphydd/EHQ5G9cJE303kMsG3LlmPOCy+ikPdNFRERkVJRcCoiItHLBKHsvrv211+x5udfiuYFSxwKsX7SZCz5+GN3joiIiJSUglMREYlq25Ytw6y+z5iYtCC4t3thC60b9y7/dDg2z/o7qIGwiIhItFFwKiIiUSt302bMffl/KMzJQRzvaVoWTECas24dlgz7CDvXb1CAKiIiUkIKTkVEJCrxOtMV336LjdOmm/jQueVLWeFtatZPmmS7ExeY9RAREZH/puBURESijwlEN02fgRUjvkb+tu3+38/UBxwVeMnQYdixenWZBsYiIiKRSsGpiIhEFxMI5m7ZguUjRmD78hVOt9qyDg7d79yxciUWvPamvdZVAaqIiMi+KTgVkdgRiiBFyhz38NrRY7Bm1M/OjFCKi8PqMaOx8ptvy+qKVwmhsu4+LiISbRScikhs8AJTVRyjXvbcuVj49jsoLAiDfW1WgQMxLXjzLWyaOcudKdHEC0iLB6UKUEVEfBNnClCVoCIS3bZuBb79Fpg+HUhJAdq3Bw45BEhPd4LVEFyPKEFg9mVudjam3P+gcxsXRobh8guXkICq+++HlnffieRKldyZEulYheJ9dLPXb8D073/EgomTkbtzJxp16YQOJxyHjOrV7PsiIlIyCk5FJLpt3gw8+STwd7F7TsbHA+XLA1dcARx2mA0cFKBGh7n/G4iln30G5Lv3Mw2Hnzg3b8UnJ6HhJRejwfnnIY55TiKXl6/Mvp3y9XcYOeg1bF6bhULzj8Eob6nbpHs3nHz3HahYu5YCVBGRElJwKiLRi7fwePddYPhw5/nuWGFs0QI4+2ygZUunJZWBq0SeggKs+2MiZr/QHzvt6Lju/HBi8lu5unXR8p67ULFNa+W1CMVbA+3YuhVLpkzDTwNfw+p5C+y+NSGp+wmXmXf0DdfiwAvPQ0JSkjtTRET2Rb+MIhK91q8HFi4E8vOd14xYdp9mzQKefhoYMAAYN85paZWIszMrC8u//Ao71qxh25Vz4iGcuOuzfdkyLPvsc+Tv3OnkP4kcZn9t27gRM0b9gi/7PotPHu1tAtP5iIs3+7bQGY3Zm5yPF9oANmf79qJ5IiKybwpORSQ6sTKYmwvk5Ox6vTtvHj/z++9OgDpwoBOk7tjhvKdKZXgz+6cwLw+rR/2MDZMmm9fOvLDbb+46ca2yxv6KFV+NCL8AWv7FBpVmyt2xE9N+HInhTzyNEc88hxk/jULOtu12FxYWuF3Ii/GCUV5/agfmcl+LiMi+KTgVkejEWiMHnqlWzakYliQQ4MBJY8YAL70EPPusc52q93eqXIatrUuXYfEHHyJ/547w309m/dgtdOGQt7HJDtok4aiopdM8Lps5Cx899Ci+evo5zB49Fts3bTLFQpz9zN6yG9/nv2oN6yMxJRlx6sItIlIiKi1FJHqlpQFNmwKpqU7QsrcAtVhF1E5btgDjxwN33w288AKwZo29pnGvNVEJCRsc5Odh5pNPIm+z2WfszhsJzHrnbd+Ov595FnnZ2cpXYYYtoYX5BcjOWo9Pej6OV6+4BrPH/IodmzejgCMd8erS/9hnfD8hOQkNOnZAEkcIFxGRElFwKiLRi8Fo585A9erO85IGAV4gytaOH38E7rwTeO89YN68PQ+sJCHB7rwL334X2fMXujMiKMgzq7p9xUos/mAoCryu5xJyuTt2YPX8BRj1+mC8eN5FmPbtD6YYSHTfdfxXYGqZsqN2i+ao3qTx3k+KiYjIvyg4FZHoVrs20Lq187y0lURWQvk3GzcCw4Y5XX35uGhRZAVCUYgBwvpJk7BixDdmH9lYL7KY9WdQuvrnn7FhylTnhIiEDPPTir9nY/Tgt/HxI70x9u13sYOt2sxbbEk175coKDXYpTchIQH12rdF5bp17GsRESkZBaciEt3Y+nnkkTYYsFNpFP8bVjCXLweGDgWefx545x1g9Wrflit+YZCwY+VKLPtsOHI3bTIz7EznzQizY9VqO3rvzvUb7HZJ2fHSe/Oatfh+wCv4tPcTGPvO+1izYAEKOMK3ed8GpT6c+kjLyED9Du11CxkRkVJScCoi0Y0VUN7LtF49J8D0tRXDCxzYwmUqr/jsM+CBB4CvvnKWyfe9z0hQFebmYs0vo7Fx8p8o9G4TFIlsninA+j8mYvXIUWphKyNeUMoReMd9OAxvXHejfVw7f5ENSu0dS308lp2BkICKtWuiyf7dnJkiIlJiCk5FJLqxws/W04sv9i849XiVVt6mZu1aYNAg4LbbgLFjnXukRnKwFAEYNGTPm4+lH3/qtG5xf/oYSIQHJxBaOHgwti1bFuHbEt6Yzswz281xOnPkz3j96uvxzXMvYuOKVfYkR2Gxe5X6g3eOaXvkEUhOSbGBqoiIlFycKYT1Sygi0Y/3Lb3+eiAry50RAF6wy9bUxESgfXunC3HXrkD58s57ElB527Zhes/eWD9xook23JmRjtnEbEt686bo0LcPkitWVN4JJAac5iE7ax0WTJqMGT+OxJyxv9mRd+Pj4p37kJrkDkR1iC2nSampuOWj95DJgdhERKRUEnoa7nMRkeiVkODcx3TGjMBW/Fmh9QLUlSuBadOApUudUX1r1AB0zVnAcGCaBa+/idU//mReRVnwZvJQDgfeMtmpYof2zn0xFaD6hcEmg8UCk2+mffc9Rg95FxM/G47Vc+cXvRfI8/N2eeZf22OORscTjy+aJyIiJaeWUxGJDSzq5swBevd2ut8Go+jzKqJ8rFDBucfq6ac7LaoMjr33xCdrx/6KGU/0QeHOnQENKsKCmy+Sq1ZBi1tvRtWDDlJg4yMvb/BkxqLJf2H0W+9g1Zy5tjsv32GqBiP/cH/FJyfixnfeQrWGDdy5IiJSGrrmVERiAyv67GbXtu2u14HGCq83MQD+6y+AnVNeegmwo8qa+WxhlVLbuWYtFr39DgpyojAwJXebcrLW2dvj7FyzpmielJzNG2basHw5Prz/Ibx9651YOOlPbN9kAlP3vWDlHy63VvNmqNagvg2MRUSk9BScikjsyMgA2rRxutoGqYJqcdkMfvnI6ccfgauuAl5/HVi40Ln+VUosf/t2LP3sc2xdvMQZbSaaWxRNfuH1tBy9t4Bdw6VkTLrt3LYNa+YvwA8vD8Sgy67B7F/GOkGimXy5HUxpsNWUt43pfs7ZTussu2WLiEipqfQUkdjBCiNvK1OrVvADHC8w5cTvyskBvvwS6NMH+OgjJ0j13pe94iiqGyb/idWjTLDGEZK9oD8a2bzibPOyTz/DltmzlT9KoCDPpNfMWfj59bfw4X098Ou7H2BHdraTlib9yiIwpSr166F2q5b2uYiI+EbXnIpIbNm5E3j5ZeCXX8r+ti9eQMzrT+vXd65FPe445x6sNjBx3xeLP095W7Zgyv0PYrMN1OxM581oxnxgpvRmTdG5//NISE5W3tide7xsXrsW494firnjxiNrydJ/3Pe2rKo3XnC637ln4ejrr0VK+XL2tYiIlJ5aTkUktrCiz1u9pKSUfYWflWVOrECz5ZQtqb16OS2p27bt+ozYdGClf8HgIbEVmHrMtm6eOxfzBw5SYFqMdy3n1o0bMer1wXj18mswbujHWLtwUVFgaltLyzivpKano27rVkhKNeWKiIj4TMGpiMQWVvT33x+oWtV5HoqKv1dxZmV69WpgyBDgnnuAsWOdgZTKukU3TLE77/Lhw80zs49iLDDlFG+2e+WPP9lRimN+gB2THrwlzPYtWzDt+x8w+PpbMGrQG8hevwGFeXnmbScgLeuglCdQWITUbN4MDTt3Qrw3KreIiPhE9zkVkdiTmAjwmjSOphuK4LQ4L0DmaL4MTmfNclp1MzOB1NTQr1+IbF+xEjOe7INcE4zYQZBiEYMtE3jtXLsWFdu1RRIH9Iq1/OAGnBtXrca8337HTwNfx6/vfYhtGzea0J1pYd53PhkSdiCkxCS0OeowtDz0EA2EJCLiJ11zKiKxh8XeunXAddc516CGAwYdXC8+li8PtGsHHHgg0L07kJbmfig25G3bhvmvvo4VX39tgrN8J11iWHxKMuqddSYaXHgBEpk3YgCrJgz8cnfswLQffsKMH0di0V9TkeeNdG2yRGjDUgeD0bTMDFz83NO2W2/MnTwQEQkwneITkdhUpQpwyCHO83CoUHoBGB/Zqjt+vHPrGXZuGTfORGx5uz4TxXjd4Lpxv2PNL6OdwDTWmbxZkJNj732aPW9+THTvZWDK7Zz72+949/Z78P2L/8O83yfYQLXo/TAITInrWbNZU9Rq0VyBqYhIACg4FZHYw0okp2OPdUbODUcMRHn96cyZwFNPAX37Otencn60Bihm23asWYNlw79ALrs5c1s5xTK7/XHI3bwJf7/Q32TbODMrOtOkgNdam21bNWcu3r7lDrx7x71Y9NcUbN+02dlmM4XTtjtdeOPQ+eQTkcBLBURExG8KTkUkNjHA4+1cmjVzXodbq4dXCecjW01//x246SZg4EBg0SJg+3bn/SjCwGPlN99h0/QZzgy1RDmYB8x/2xYvxpwXB9jrUIvyRzQw25KzbRtWz5uPb14YgME33oIFEycx7nOuNw7DbMCTBJRerQraHH2kzbsiIuI/XXMqIrGLLTXffQe89lr4d5v1AjWuY6VKwFFHOdekNm7sDPDE+REczPGnaP3EiZj2aG8UsPumfpr+Ld7sX5MubR7ugRqHHx7R+9vLr3k5OVg2fSZmjxmLad//ZO9bagM/9/1wraLYFmzzeNzNN+CgSy4sWl8REfGPglMRiV0s/ngPzeefB1as2DUvXBWv/LI7ct26QIcOwNFHA40aRWwFmT9DO9esweQ778aOlavCex+EmglQ05s2Rat770GFxmafR9r+9vKoeVy3bDn++HS4DUw3LF9hr99kXoiErstcx9SMDFz7xkBUrlfXvhYREf+pW6+IxC5WKOvVA1q3NqWhKQ7DPSji+nkTW32XLAFGjAAeeQR4913nGlXv/QjCav2CN97CDu+aWtkz5teCQmQvXIgVX3+D/HAZabqEvIBzy9osfP/yK3jj6hsw/qOPsX7pMnu9qfd+JASm3BctDzkI6dWqunNFRCQQFJyKSGwrVw5o3ty5XUsktX6wAs+J3ZE3bgQ+/BC46y5g1CgnSI2QQZPYWrbim++QNf53xMXq/UxLivvb5FGOYrzqhx+wbvyEiBm9l8Hntg0bMfHzLzDoimswZsj72LZ5EwpyTP6NMNwNHACp2QHdkZiS4gSrIiISEApORSS2sWLJrrHVq+96HSncYKXIqlXAc88Bjz4KjB0LZGU5nwlXJrDaumgRVn79NfKys82qKjj9T0wjM+Vlb8XSTz/DzrVrw3cfm/XiPl2/bDmm//AThj7wML565nnbchofb4LsfOeWMJG03xmI8pDjrWOqN21sX4uISOAk9DTc5yIisYmtp+wiO29eeAdzJcHK8oYNwMSJwNKlQG4uULUqkJrqfiA8MCDJ37EDiz/4EFm//WZmuG9IyZj9nLNmjUnHAlTZfz93ZnjgvmXItnXDRkz97nuMeec9jPvwI2xcubIoYI1UDEbjkxLR5qgj0OrwQ5GYlOS+IyIigaCWUxERDi7Ee54ysIv0lhBW/Dnl5DgB6uDBwBNPOC2p7n0k7RRirORv/OsvrP7hJxSyO28EBywhY9Jw5YivsWb0GHdGaHlBJ/ftjJE/46OHeuKHl17Bwj8modC9pjTSA1OufoVKldCwc0ckh9kJHxGRaKDRekVEvGKQ12xy9N5IGBypJBhoe9vBbWrTBrjySuferpzP90PBfHe+CZ5/Pe8C5G/e4jSaRkN6h0Cc2a+JFTOw/6uDkFyliju37LEqweBtydRpGPF0P6ycO9/JXma3RlM1Iy4+DnXNcXTpi/2QUr68O1dERAJFLaciIqxFczrzTCeIixbFgwI+nzYNuP9+oH9/pwvz9u3//EwZydu+A7P69EXeps32msNQrENUMHmWgR8D/PlvDDbpavZnGeP352zbhqXTZuDzJ/ri7VvuxIrZ8+zhxBbxqApMzUbxX/ODD0ByuXJRtW0iIuFCLaciIsSikNN11zkDC3nzooWNFoptT0aGc3/U/fcHmjYFUlKc9/m5ICrMy8PyL7/CvFdfQwFvhRJFSRwyZp8lV66EptdfhxpHHI44dlMPJjef5OXkYPGfUzDn13GY/uNIbMnKMrPD/x6lvuK2pVSogBvfHYyKtWq6c0VEJJDUcioiQgzK2Gp6xBHujCize8DA280MHw4MGAC89RYwf777RvAwaNk8ezZWfDkCBbwmVoFpwORs2Ijlnw/H9hUrghYcesstKCjAyjlz8d2LL+OLPk/j96EfIXvduqgOTO0IT0bLQw9GZs0a0budIiIhppZTEREPBwxasAB48EFgx45/B3TRhgE5JSYCvH7u0EOB8893WlUDzaRlrgmI2WK66vsfUJhfEP3pW5bMvrTXQ551Jppee4090cJgMVBYVeDytm3ajFGvv4mZP/2M7eZ5fl5u0fvRLD4+wXZBv/Xj91G5Tp2Apq2IiOyillMREQ+7Q9aqBRx0kPM62iugXkCRlwds2gR88QVw443OI18zWA8QBi/r//wLq3/8CYV5gVuu7FJYUIClH32MTTNm7Nq3AZBv8seOLdkY+/Z76HfKGRg/9GPbUhorgSnxlj0NOrZHlbp13TkiIhIMCk5FRIrjPU9btXLuCxoDlW67jd5EDEpffRV45BHg55+BtWv9TgcGLztWr8aCNwajMMcENAz6/Vym7MamZ5xJ2nhM6/UYtq9cFZD9tm7pUvz51dd457a78OMrryJ3Z45tNeR73hTtbCtpfBw6HH+s3V61moqIBE9CT8N9LiIixBbUWbOADRvcGTGGlW9u+x9/AMuXO6P6VqoEpKXter8UCnNzMfv5F7Bp+gx3jgQNA8YdO5GzaSOqdO2C+ORk942S8YKv7HXr8ecXI/Dru+9j4udfYPPqNU6wGwPB6O6YHlXq1cMhl1+MchkZCk5FRIJILaciIsWx4smue02a8EIzd2aM8YIQduudMAEYMgR45hlg5MhdwUkpgpTlX3yBtb/+5rxQxT64TPpyz6wf/wdWsgt1CfeT97mcbdsx+cuv8fHDPfHjwNewcPJfKMjNs++XdFnRxAtEmx3YHelVq9r7yoqISPColBUR2V1SEtC5s9PFl2I1oGIwwm3PzgZmzgRefBG46y7g77+d+f8VrJj3t8ydh2WfDnc+600SPG4a52/dihVff4PsefPMy32nOd9nELb4r6l449obMfyJp2xQyvuXMufHYlDq4ZanVqiAum1bI4ld/UVEJKgUnIqI7EnHjkC1arHbeurxAhM+FhQAc+cC998P9OnjBKz7GNWYo/Mu+XAotq9Z7dTypcwwubPnzceKb75Fvgky94RB547sbCybPhPDHnzUBqarzN+g0OznAmeHxXJgShwBuVarFqjXtq0N4EVEJLgUnIqI7AlbTXnPUwZksgsr6Ozu+9tvQN++wPvvA9On/ytILcjNxdoxY7F+0uSiQEfKmNkfK01wmvXbOCfILLZ/8s3+mT/hD3w/4BW8f/d9mP7TT3bfeuFXoc4m2GA0ISERdVu3Qmb1agpORUTKgO5zKiKyNxwU6NprY+Oep6XlVdT5WLMm0LYtcNRRQIsWtrV52/IVmPZoL2xdtMj5nNIvJLh7UmrUQMdnn0ZardooKMjHill/Y9LnX9iuuxtXrHQ/yV2kfVRcfEI8yleqhAuefhJ127Zx54qISDApOBUR2ROvaOzfH2CrEqm4/KfiLUns/lyxIgoPPBBxF1+MKU89g/W//uYEPEq30LH7KA6Z7dqg4Z13YMw772H+739gy/p1KMwr4FsKSvfAayVtsl83XPT80yZQTSiaJyIiwaPgVERkX5YsAW6+2QmwVFzuGSvtTBvzyJ+UQvO4KDcfS3Nyke+mGeerch8a3ANM+/k7crA0Lx+8Z2cce6srMN0rOypvYQHOe+oJtD78MHeuiIgEm645FRHZG1bcq1d3uqyqEr93Xtq4j/EmEGqcGI9uqUmolZgA3mmTwZF9V8lY5nhKgEFonZRkpDPoKuAVpeaf8vTembQpX7mybTlVOomIlB0FpyIie8OWPt5W5tBDgYQE57Xsk00hdxCpNJNezZMT0coEqXVMsJrKljpFpyGTXFiAuokJSDTPFXDtnT2RYpJnv7POQIp3OykRESkTCk5FRPaFLU3NmwP16jmvFaCWnEkrtqJWNmnYNDkJbVKSTZCaUNSSJ2WHac59UTUx3k6WdsEeMWumZVRA+xOOs/lU3dFFRMqOglMRkX1hxbRWLaBlS+e1gqoSY5XeqdbHIcGkY2Z8HFqkJqOLmSomxNvrURWklh2mtNkFaJyUhMRdO0eKM2nCQ75p9/2RXqWKO1NERMqKglMRkf+SkgK0bg1UqODUXKVUvCSzLVAmGM0wgWmXtBQzOUGq90OkQDW4uBt4J9MUE6G2Skm2XayV4v/EPJqQnIT2xx1jH9VqKiJSthScioj8F3btbdcOqFPHibRUYfWZV9lnIFo5IQHtU5PRNDkRFU3AlMD59l0JpgKT9tUSE+z1p0rw3Zj0qNWiOarUr6vAVEQkBBScioiUBLv4sWuvKqwB4VX8E80jr0NlS16L1CQTpP7zZ0mxUxCYNGeAWj8pEZkJHEVZqUzMk7yFTP12bZBZo4aCUxGREFBwKiJSEqyoHnWUM2ovAyhVXAPCpqJJS47kW9OkbVsToLZITkSKmc0ASqkceExTBl7JZqpnAtQkpbIrDulVq6BR165IZFd+EREpcwpORURKgsFoo0ZAixZAfj77pbpviL9saGTS1wZM5mntxAR0L5eCJslJTldfN62V5IHDpGR6s2t1dW/03hhuQfVaSas2bIAGHdoXvRYRkbKl4FREpDTOOkstp0FQlJomXRkY8MepUXIi9k9LQZ2kRKSYDzDJFZ8GBtObaZlg/l8vKQnl49m9l1PsijNp0LBTR6SU171NRURCRcGpiEhJsemuY0egdm13hgSaF6QyQGWLKYPSZiZIbZ2SbAfwSTOvC0wIpSDVfzZANenMNG2UlMhXu04SxJw4JKWlof3xxypviYiEkIJTEZGSYtNdoqnEH3usE6jytQQNA1Tbimom3nKmsQlS26Ymo77ZB04otYsCCt8x7aqawJ8DJPE631jrP+2dCGl+YHdUrFXTvhYRkdBQcCoiUhqsuHfp4tzzNMYq8aHihQq8/jTdBA5NU5LsPVKrmoDVux7V+Yz2R2nZdHODsyZJSfYetLGWikyDuLhCHHjheQpMRURCTMGpiEhp8bYy3bvr2tMy5AVRtjXVBFLlzWOH1GR0TktBRrxzjSo/5QWrUnJOcMbrTQttF2qO4hsrqei0mgK1W7VCndatUFhQ4L4jIiKhoOBURKQ0TGUW5co5156mprozpSwUnQYw+8AJKgpRKSEenU2Q2izZuUcq75uq8LT0vKC+gknD2kkJtnIQM4G+yUPdzzvbPuV9TkVEJHRUCouIlBYrsE2aAA0auDOkLHlBqtPa5zzWToxH65RENE9JQqV45xNeaKVg9b8xDRn0M+lqJSbY1mg7LwZUqlULdVq3Vqu7iEgYUHAqIuILU6FF06ZAAq+ElFBh+GRDKBNIpZipZkI82qQmo3Vyou36ywF+vBBLoce+OWkZh1STbg1M+hWlW5QGbU7wHYcWhxyE9GpVYiYYFxEJZwpORUR8wVF7u3YF0tNtYGQnCRkbZph9wCnZPK+ZlIhuaSlokZJkB1JigKU9VDKFJqGqJiTY7r02uI/SvM08kZaRjoadOyI5Lc2dKyIioaTgVETEVy1bAtWrs5brTBIWGEwx8OC4s7w36v4mSK2dmGjvmcowS903942tp/kmjZqaAD8zikfv5fWlNZs1QY0mjd05IiISagpORUR8Vb48cNhhznO1nIYVrxWVUuPj0DIlEW1TklEvKQHlzGuFp//Bph/QNDnJtkRHW3oxbyQkJaFe+3a6t6mISBhRcCoi4g8Gp7znqYSloqDDPLIVsFFSor0mtUGiMyJtgRt2qTX1n5xUi0O6CeTruqP3RhWzgezS23T/bojXdeMiImFDwamIiK8Y0GRmAkcc4c6QcMVgi+Enw5B0E6g2TklyuvsyMOF+dINYBam7MCWYKjUTE5HptjZHQ/rYExYFhahSvx7qtGnt7H8REQkLCk5FRHzFSi4rtqedBiQlmRJVRWo4s+Gn2WcMTuLMfks1M1qnJqOLCVIrmX3H9/meQhWHlx68VrduUiJMDrevIx03gcNjdT7lJCTyuBURkbChmpSIiL+qVAHatXMC1SiovMcCG6CaiS2BvKdnx9QkNE9OQuWEeBuEKUDdpdCkUxWTLjUTE6Ki9ZSrn1G9KloffqhzvOqYFREJGwpORUT8wYotu4YecogquRHItgSaiY+1E+PROiUJzcxU1QSspG6+Jnncifc+5TWozqvIZE9ImMcup5+K5HLltH9FRMKMglMREX8xwGnWDGjY0J0hkaQo3DL7MdlMNRPi0TI1GW1NkFrBBGO81yf/xTSTLmxRbmPSJDFyY1O7HSkmKO16+ik2MLUnJ0REJGwoOBUR8RcruDVrOl17vdcScYr2mtl/vH1K9cQE7FcuFW1Sk5Bi3vVa2WKxtY1bzKlcfDyaJCc6AXuEpYMNRM06c4TecpmZCkxFRMKQglMRkUBINuFMy5bO6L0xGLxEE4Ystvsn96OZaiUmomtaCuolJdrBgdizNdb2sJcmDEqrmaCdUyQGd7y3adtjjtbtY0REwpSCUxGRQGnTBqhfn7V4d4ZEMht8MUg1/1JNRMprUdulJKO+CXDKx+g+ZpokmU3nvU8ZqEcKL5Cu1aI5ajZrYp+LiEj4UXAqIhIIrPxWquQEqGyVidHgJdpwL8axS6/z0g4I1MgEZrz2soF5ZPsbWxNjCW/Dkhkfj9qJie6c8MdW8Hizzg07d0RGjeqI022fRETCkkpnEZFAYUB64IFOF18Fp1HFCVL5vzjEm4kDJTVKSsT+acmoY4JU8gZNivZrUpkO7Npcz2w3b8PD7Q37TTbrWb5yZdRp3Ur3NhURCWMKTkVEAoU1dI7Yy2tP+VwBatQp2qNm3/J5inlslZKM/VKTUSU+wfyoxsYIsGw9ZZDeKiXJPu5KmPDD/ZEQH4/qTRqhcdfOajUVEQljKqFFRALFVtLNdOaZzqNELe5dLwhly2H5+Di0TU1CSxOoVjbPvQ6v0dqGyi3ntnH03mbJibYyEc7byoC0UZfOSK1QwZ0jIiLhSMGpiEggscXUGxhJoh4DVG9KNFPNxHi0SU1Gi5QkVE2ID/ugzR8MUHm9bY3ERFQz2xquuG9SypdHm6OOiNp9ISISLRSciogEkqkIg9e0nXqq81pdCGMKu7sySK1ugrWWJkDlwEm8LtO7L2jUBUdmW9mVmbfZ4QjG4bZ9DEyZ7k0P2B+V6tR254qISLhSrUlEJNDYetq+PVCxIlBQ4M6UWGC7+3IyQRGH3amemIBuaSnokJZsb0fjDZbkPUY6b1s5QFTNpATEMwAPp21jcGqOwf3POduuJycREQlfCk5FRIIhPR3o3NlWju0kMccLhNhqWi3BCVIbJScizczmIELREZ7u6rZcywTiFRPi7XaHzbaZwLRGs6ao26ZV1JwQEBGJZgpORUQCjUFJWhrQvTtQvrw7U2KVHc3WYEtq46REtE1NtvdIreDOj3TcCgakSeYJg2/eWCcctsy2lCYk4MCLzi96LSIi4U3BqYhIMPBaUw6KxFvLsMVGFeOYZ4MjMzEo5T1SW6cmoaEJUpPN7Gho1eMmZCTEo6kJUEO9PV4gWrF2LTTo2EGtpiIiEULBqYhIsNSoATRrBiR6NxaRWGdDJhM4MXhikNrABKldUlPsgELELsCRitvE1a9ttqVaYoIzCJT7XkiY9Wl12CFIr1K5KFgVEZHwpuBURCRYEhKAbt2cgZFUORaXlxMYMPFHONXMaJ6ShIPSUmxQ512xGYmtfdwmBqVNkpNQLt5sWAi3gbePadCpIxKSk905IiIS7hSciogECwPS5s2BunVDWkmX8MVgzmlxLLTde9va288k23ukJnO++7lIwfXl9qSYbWFrMG+rU9ZBNr+fardqgeqNGyJet3MSEYkYKrFFRIIpNRU44AAnOHUrzSK784JUDp7E28+0MkFqCzPxfqn8ofbCu3BvTfVyOBtNuR2V3dF7y1piUhLqtGqJjGrV3DkiIhIJFJyKiAQTg4nDD3duLSPyHxjGMfzkFajVTGDHALWNmRjk2Ss4I+T8RqFZUY5O3CA50T5SWQTWNsg3jxWqVrHXmyaqS6+ISERRcCoiEkxsNeLtZI4+2glUQ9CKJJHF5hAGWWZiYMcuvh1Tk9EhJRnJ5l1v0KRwbkT1tiE9Ph6NkpOQb1a2LFpQGQAzWThKb83mzZyZIiISMRScioiUhZNOAlJS3Bci++aFcbYlkEGdCbqqJCbgoHIpaJyciDQzz4435H4uXDGQrpuUYLv4lknLqXt9aYfjj7Vde8M6ghcRkX9RcCoiEmysIFevDnTt6jwvgxYkiS5eqyP/z3uktk9Nso/p7vxwDcG43gXmsXlyEsqbwDGYAaoN5E1KlK9SGa2POMw5ztz0ERGRyKDgVEQk2LxK8kEH6Z6n4jOGWTZINVN5MzVISkBrE6Q2MUFqmpntdWmlcAtWOXpvw2Rn9N5gYktt51NOQqqu8RYRiUgKTkVEygJbjBo2BOrUcWeI+MaGdybIY6DKIJW3bOE1qezum2DeYoDGz5RFN9qS4FpwqpIQb7v3BgvTIz4hEQddeF7YbLuIiJSOglMRkbLAa+Fq1nRuK8PnQW5BktjgdWXlNagceGi/tBRUswEgByByPhNqXA2uJ9eK159yXSnQASSD8jZHHq5WUxGRCKbgVESkrHCAlmbNgEqVWDN3Z4r4xwaoZmKOKhcfhw4c2ddM1RISkBxO50DMOlYw61fPBKhO8By4leOyOABS26OOsN8TyGWLiEjZUXAqIlJWWGFu3tzp2qvWUwkw5ibvlEdlk79apSShRXISaiTE/+O9UCowK1EzMQHVTeDs3RInUGo0bYzqTRq7r0REJBIpOBURKUsVKwIdOzqtqKycK0CVACrKTSZfcfAh3iO1mQlSnZZU5yffCwlDcV0mWzS5Fs3NOpU36xOINeAy4+Li0bT7/sioUd2+FhGRyKTgVESkLLHizOtO09Kc5+reK0HghWcM1JLMY8X4OLQ1AWrHVBMUmnn5Jt+FLIgz35tg1rBZUpLfLbreNqRXq4q6bVsjMTnZvhYRkcik4FREpCwxGGW3Xl57SqEKECRm2JZF/jN5r1J8PLqmJdvWVA5M5FUCyv4USSEqJsShThLDVB4Wvq2B/TsTeFdr1BB127QOXcAtIiIBoeBURKQssfLM6YwzFJhKmXGynZP3OBxRw6REdEpNRiPzmG6Cu7LOiU7ADNRKTLCDJPkaVPLvEhKT0KBTe5Rjl3kREYloCk5FREKhdWugUSOnJVWkjDAEZEDHXJfijpzLgZOaJCcizbzJQYqYJcsiWzIeZRfjOomJvldGzN+nVSiP1kcc7nOAKyIi4UPBqYhIKJgKOU491amhc+RekTJkg1QzxZv8xwCxnsmPnVJT0Cw5CSnmDROi2s8Fd9Ak80Xmu2smxtuBm0o7eq8NRs3f1GvXFlXq1wvyuoqISFlQjUhEJBQKCoAuXYBq1dR6KiHFII9tqQxKGyQnoktaigkYE4veo2DlUGfpsNfAJrnfVWL8vPnv0CsuQ3x8fNG6iohI5FJwKiISCmwtTU0Fund3XqtiLSFkAzs3D6aahzapSeicmozqCfFI5lv2neBJNt/dxnxfaSolhQWFqN2ypZmaq9VURCRKKDgVEQkV3uu0bVugXDm1nkrIFQWgDFJNfsyMj0PrlCS0Sk5CDROkciCl0na9LQkGxlxuZfN9dZP4Lf/NCaaBbmeeZlt11WoqIhIdFJyKiIQKW0+bNAFatHACAlWwJQwwFzLY48RrUiubwJTdbtunmiA10QkevSA1UKEqv4vLqpWYaILiePv8v1pDM2tUQ9Pu++nEjohIFFFwKiISKgxGq1Z1glNe46dKtoQhBo5J5rGiCRrZ9baLmSqagDXf5FcGsgHLtuZ7OGIw733K79tXayi/stVhhyEtIwNxPMkjIiJRQSW6iEgosWLdvj1QpYoTrIqEIRso8j8TiWbEx6GDCVB5CxoGkwlxTnTqjfDrK5v7zfdUM4FvdbeFdk+tp1yX1AoV0GS/rkhITnbniohINFBwKiISSqz0t2oFNGjgPBcJUxzTl3mUwWGimeomOSP7Nk5OsgFrgnmfoaQ/ISr/lkdBA7Pscjwe9nRMmFl1WrdE9caN7LqIiEj0UHAqIhJq7NJ74IFsJtpzZVwkTHi503tk99t6iQlonZJsgtREVDD5l62dvo6ey+UWmmXwtjbNUxL3WElJSExC3bZtkFG9moJTEZEoo+BURCQc7L8/UL68glOJLCa/MkBk9966JkjtkJaMlilJ9tYwRSP7ljJOtQGqmSomJKBhUoK7HGchcWZeepUqaNKtK+Lde7GKiEj0UHAqIhJqrHxXqAAcfzxQUKAAVSKGl1MZoDLb8gpQdvftXi7FPtr3fcjOXB5bX7kMDr7EoZfsdxQUokrD+qjXvp0vixURkTCn4FREJNS8YPSUU4C0NOe5SIQxoaMTVJp/bNNskZxoR/bl7WeS3Sxemu6+XBYrKQ1NgJpql2v+3iyn3dFHIoEDJnnHjYiIRA0FpyIi4YCVdo7Yu99+zmtVvCUCObnWCVKJAyW1NkFq65Qk1LJBqhO8ljRI5VIy7ei98faeq2mZGWh52CGlCnJFRCRyKDgVEQkHrMyzwn3EEc4ASSIRyjutYgNUM/GxUnw8mpoglfdJrWXyNwPNomtS98V8LsFM7N5bzrzseurJzr1NzTwREYk+Ck5FRMJJvXpAkybOc1XAJUowmOQpl0rxcWhpgtRuqSmoaALWkgSo/AS79bZIS0Gns053ZoqISFRScCoiEi4YjFaqBHTr5rSesuKuAFWiBANUO5nn5U3to5MJNtukJKO8mcchj/bGtpImJKDN2WeiSs2a6tIrIhLFFJyKiISTpCTntjJsPY1XES3RxwtSGZDWSkpA57RkNElOQma8E7gy9CwKPxmYGpltWqGuCU55wsYGqyIiEpVU8xERCSeseNev74zcW65cUeVcJNp4QSa7+/Ieqa1Tku11qcWDVH4mrVZN1D/vPKRUrarjQUQkyik4FREJN2wxPeAA4PLLd9331JtEoo3J1wxCU032rmOC1LapyWiRkoQUcxzEp6WhwUUXonLXLohLSHD/QEREolVcoS7eEBEJP971pmPGAP36Afn5u+ap2JYo5eXsOBOY5pu8vunKq1H5tFPcuSIiEu0UnIqIhCsWz5wmTQI+/hiYPx/IydnVmqriW6KFl5/5mJyMwnr1EHfppUDnzu4HREQkFig4FRGJBKtWOa2oU6cCs2cD27Y581mZ58SAVSRSMM96j95JGHZn5/XW3bsDRx0F1Ky563MiIhITFJyKiEQKdu1duxZYssQJUKdPB+bNc1pTvaKcj8Ur9Kzwe6+9IMB77gUGIv4ono+8vMZ8R16e21s+4+c58Fe7dkCXLkDz5kDdukBKivsBERGJJQpORUQiiVdk5+U5QSkfly93Wla3bwfWrAFWrwbWr3emdeuA3Fzn77zAgbzlePP4yICC872J84o/Suwovs+L5wNO5L1X/NF7rzjeGon37uVUvTpQowZQrRqQmupMtWo57/E5A9Li3yEiIjFHwamISKTyuvJ6rVR7wtZWBqcMXr3Alc83bAC2bHG6B/PRa31lsMu/4bL5nI/FA5Ddr3fdUyDB94rP9z4roeHtr30Ffd77fCze2s5HvuZIuYmJu57zMTkZqFDBaflMTwcqVnS64npBKCcGnPz8vr7by1P7+oyIiMQEBaciItFmT8X6nir+/BwD0Z07neCUjwxaN292po0bgexsYOtW5322zPKRwS4n7/nuj15Q69l9fUr6s1N8nfm8+N+VdBmRxt9t3v3vi+NrBpgMKtmiyYktlpzHic8ZSDKgTEtz5vGxcmUnCM3MdJ6XL+/M53K8v9+T3dd39/URERHZjYJTERHZZW/BEJ97weeOHc4jg9nigW3x5wxQ+ciAlp/no/ec8/lYPJjlVPw5p30pzU9XqIMiX9eVz4v/LYNJzmNQ6AWUfO4FlHzOoJETg8bdH/m3fPQ+y4mtnl6gys/x0Xtv93Up/igiIhIECk5FRGTPiv887C0o2f0nxHvNR05sQWXr7J4mvsfJ+xyDU84vHqR68xnMshWXr9kV2Qt8+Rm+5ny+9h4Z+HK5/Dsuk/geJ+L28G+99fWH183VWxaXzXketjqS11LJ97x5DAi9oJLL4HxvHlsovW60nLyA0esq673HeXzuvWbQ6v2NNxXff3t7vrviabOvz4mIiASIglMRESkb/vzcBCs4YuDqz7K5TQz+giEc00tERCSIFJyKiEhk+K+fq9L+nAUygAvkdyuwFBGRGKXgVEREREREREIu3n0UERERERERCRkFpyIiIiIiIhJyCk5FREREREQk5BScioiIiIiISMgpOBUREREREZGQU3AqIiIiIiIiIafgVEREREREREJOwamIiIiIiIiEnIJTERERERERCTkFpyIiIiIiIhJyCk5FREREREQk5BScioiIiIiISMgpOBUREREREZGQU3AqIiIiIiIiIafgVEREREREREJOwamIiIiIiIiEnIJTERERERERCTkFpyIiIiIiIhJyCk5FREREREQk5BScioiIiIiISMgpOBUREREREZGQU3AqIiIiIiIiIafgVEREREREREJOwamIiIiIiIiEnIJTERERERERCTkFpyIiIiIiIhJyCk5FREREREQk5BScioiIiIiISMgpOBUREREREZGQU3AqIiIiIiIiIafgVEREREREREJOwamIiIiIiIiEnIJTERERERERCTkFpyIiIiIiIhJyCk5FREREREQk5BScioiIiIiISMgpOBUREREREZGQU3AqIiIiIiIiIafgVEREREREREJOwamIiIiIiIiEnIJTERERERERCTkFpyIiIiIiIhJyCk5FREREREQk5BScioiIiIiISMgpOBUREREREZGQU3AqIiIiIiIiIafgVEREREREREJOwamIiIiIiIiEnIJTERERERERCTkFpyIiIiIiIhJyCk5FREREREQk5BScioiIiIiISMgpOBUREREREZGQU3AqIiIiIiIiIafgVEREREREREJOwamIiIiIiIiEnIJTERERERERCTkFpyIiIiIiIhJyCk5FREREREQk5BScioiIiIiISMgpOBUREREREZGQU3AqIiIiIiIiIafgVERERERE9qmwsLBoEgkWBaciIiIiIvIPuwehBQWFZir4V4CqYFUCKc5kKOUoERERERGxwWZcXBzy8vIwe85cjP99IhYuXIQNGzYiJzcX5cqVQ82aNdCiRVMcfNABqFatatHfiPhLwWmY8GU3qBAQERERkUD7/fc/8PjjT2PeggWspMLWUt0AtCgQNTNT0lJx2qkn4aYbr0GNGtXt34r4Q8FpGSg6iF187U25ubnIyeGUY5/zLBW7TRQWFrif3iUuLh4JCQlITExAUlISkpOT7cTXXL43eXb/XhERERGRPWE9dOHCxXjppUH4/vufnJm2HrmvUIHBagGqVKmC22+7EccffwzS0yuo/ik+U3AaBMWDQj5nCu/cucN2h8jKWmem9di4cSOys7Oxdm0WNmzcZF9v3rwFW7dutcEqg9TdD+zExESkpaaiXPly9sCvVKkiKleujMyMdGRWzLTPq1apbAoIZ2Igy2VwUqAqIiIiInvCeucvv/yKAQNewd+z55o5pvJq/9t7mFC8fsm6LquZ5593Ni6//GI0aFBP9U7xiYLTACqelPn5BVi9Zg1mzpiFKVOmYdnyFVi3fgM2mSB044ZN2LIlGztzcpy/MZP95x7Ye9sl/z7IGXg6j6mpKcjMzEDFzEwbqFavVg31G9RFxw7t0bJlcxO4VrLBKnH5KjBEREREAo/1rE2bNmP79h2I83HoUVPDs73kWH8rCxMmTMIjjz6ORYuWmFesk5YuPOD68r9Es87HHXsU7r3ndlSvXk31TSk1Bad+YvJxio+PtyOYLVm6DCNGfIdx4yZgyZIl2LFjhy2ceEbKJnSBm9zFjlV/d0HRgc/F2KdxiDfzEhIT7EXrbGVt0qQxjjziUBxzzJFFBR3Xl+stIiIiIoHBXnADB72BL7742p1TeqwatmrVAgNfecG+DlaQxzro+vUbcPY5F2PVqtVF9VpfeOuYkpyMy6+4BNdfdyXS0tLsPJGSUnDqIyYbgzt2wWVr6IhvvsfXX3+P6dNnuJ8AEkzgx8T1kriskpqFg/0u82j/mbKC60opqSk48IDuOP20k9G1aydkZKTbM3Oks1siIiIi/snO3op+zw3AsGGfmPrYv8cQKZl4W08b8tYg+yoYdTSvLtvjoV747LOvbH3R37qqt55sCHmuXx9069YVCQlqCJGSU24pJR60eXn5WLlyNX78cRQef/wpnHb6+Xj66ecxfcZMxMc713lSgXvQ82/8PdhLo+i77PcW2HXgOnHKy8nDqFG/4Lbb78V5512Gl15+Fb+Pn4i1WeuK1lVEREREfOfVv3iZly8T/z7YVTLWC6dOnYGRo0bbADIQdUBvGWyN/WrEd7bnoEhpKDgtAR5onFjI/P33HLz22lvo2fMJ3P/Ao/jk0+HYtHmLE5Daz+QXHZiBOMgDxduGfLN+TqAKLF++Aq+++ibuuusBG2QPHz4C27Ztd/9CRERERKJVfn4+vv7mO2zN3mbruIEVh59++tkO/hlO9WEJfwpO/wMPKAZzPAP03PMv4e57euCVga9h9JjfsG27E8g5Z7ci58DzAlX+o3Xr1uOHH0biqaefx9VX32Svmd2xY2dEbZOIiIiIlBwH5+QASIUB7jnnLYt3opg0+S/7XKSkFJz+BwamDNzOOOMCvPnm25g/fyF27txp3jEHnhvkRTJn/Z3t2LhhI6ZMm4777nsY11xzE/7+e7adH/izaSIiIiISKqzfcQCkdevWFTVWBBbrj4X4/fc/bF060uvLUnYUnO4FR9j9888puOrqm3DLrXdjbVaWDdK8C9uj7SCz2xMHFOTnIzc/D39MnIxLLr0Wr7462F5fqwBVREREJDqw3sf762dv3ebOCSynnmwC4JWrnBkiJaTgtBgeSJx4FmnIkPdw510PYuyv42LmjI+3/c5wTrDXCTz/wku4/Y577XUDHBpdRERERCJfARtcWL8NYhWXY5yIlIaCU5cXfP7511Q82KMXBg58HStXrrKBmtNiGvldeEuq+LbyVjTTps5Ar959MOjVwVi7li3IsZEOIiIiItGIDS/pFSo49yENRgDpRqWVKlW2jyIlpeC0mM8+/xJ33/0gRo/+1R0QKLIGOgo0G6S6/7Ky1uPtt983gXtPbNmyxf2EiIiIiEQaBqe1atW09yO1TREBbuKMN8uLj49Ht26d7OtAL1+iV5wJQGK+GYwDHA0d9ilefPF/2Lp1O3g7mFjpyltSRYWKSZLqNatjyOCBaNiwQcQVNhs3bsaEPyaiIN+3a2i5ubz/2EEH7Y/MzEx3roiIiIgjO3srnu3XH0OHfuLzmB0M7Lp27YK3hwyyr4NR3+KtZHo/9hQ+MnVg3mowkLj+ycnJGDXya1SsmGlfh8K4ceOxcdMWnxuH2VBVv349tGzZHAkJCe5cCaaYD055MThH4X3zrXdMkJrDXGgLAAWme8OOvkC16tXQt08v7LdfFyQlJTlvhTnu02nTZuDCi65Ebl6ebwWVmy2GDR2C9h3aOS9EREREXJESnLJe9N13P6HHw72xbetW+zoQ9V9vXY86+gg8+8wTSE1JCcr674u3HbzbxqzZc3yq83lJcdFF5+Geu291ukBL0MV0t96NGzehX78X8frrbyHXDUwpEAdmSfFgtVM8uz+4z/cx2c+4nzP/c5dSlkzamK/NysrCY4/3tfd7zTOBXqSIi3PO5Pmackx/+5igHvEiIiIS2Q477GB06dLJVoEDUf219VOjYmYmTjnpBCQnJRXNK0tevTklxfc6H1eby3Bafct+G2JVzNaweWPgJ/s8i08++Rx5+fleg1jQeAeJl8k5MVCyBQGnAg685DyNj09AYmISUlNTzUGV4n42zr5nP8/PuS+85RVffrB5Z9YWL16Kvn37YeLEP913IoO3/v5MIiIiIpGMdcbU1BTcf98dyMhIN6/tTOdNH3B5rCElJCbgmGOPRPcDutk6aiixyubV23avy/3XZP7CmexzKSsx2a2Xgx09+2x/fDjsE+Tl5tp5QUsGc6DyMI9PSEA+Wxj5NWZGQkIiKlWqiM6dOqBFy2Zo0qQxKleujArly5mCIs28H2/P9rA7yPbtO+11sNt37MDWrduwfMUKLF60BFOnTsecOfOwadMm5JvP2e8xAS9bVnkdgS0kgrh7uXxOGZkZ+OTj91C3Tm33nfDEtJg+fRYuvewabNvm2329eIE/Ryv+5JN30bZtG3euiIiIiCNSuvV6WD/6bdx4XHfdrUW94Upbf/TqnGxcad6sCZ5/vi8aNKgf1PUuiXPPvRRTpk4rWr/ScFY9DhdfdD7uuovdelPtfAmumAtOc3JybWtpv+cG2Pt4BmPzvQORjyxcypcvj4oVM1C/Xn17jWaHDu3QunULVKhQgZ9yM3/peau+du1aE3TNtAcfWzF5C5wNGzZhpwlmC/nP/WBwdrXZRrMBFU2g/fFH76J27ZpF2x9uuP0KTkVERCSYIjE4ZaPG8C9G4IXnX0bWunX2HqhsXilJ3dFbNzbENGpYH88/9xSaN29q54WagtPIEzPdepkhOY0f/wdeGfgGtmzJdt8JHGZ8m/nN85TUVHTq1AFnn3M6evS4B++8/TpefXUArr32Cuy/f1cbmHrrVNqDpfjfcapevRqOPPIw3HH7zRjy1iD7PXfecRNOOuV4tGrV0l5jyW/wuv8GllkH82/Dhg14/ImnsHr1mlJvj4iIiIiEBuuGiYmJOPmk4/GgqbN27tQRiQmJ7nt7rztyvtdtt2rVKjjz9FMwaOCLYROYSmRK6Gm4z6Pe8uUr8eCDj2Lp0mXmgHKCvEDhwcnlMeg88ojDcNmlF+LCi87FyScej9YmQGTrKb/TO8D5WHwqjX39LV9XrlQJ7du3xSEHH4gunTuiUaOG9szdsmUr7CO7/qJ0X/mfzJrYwJSFWwfz3eE6gu+aNVn2fra5bnfu0mL6Mtucd96ZqF69ujtXRERExMFeeuwmO2PGLJ/rmqxv1K5dG2eccUrR62BjHa5pk8a2Dlm3bm1s2rQF62wr6p63getUrlw5HHfc0bjiiktw4QXn2iA1nHz00We2fupL+jl/EmfT48AD9zd1Wydgl+CKiW693iZee+2tGPvrb/Z1IDa7eEbn4g46qDsuv+witGvXBunp6fa60bIoTPaF28nrBzZt2mwKyb/x0ssD7bWqXC++5z36y26n+a+GCdieePxRmxah3vbdcTvVrVdERESCKdK69e6O9SV2883KWodFi5fgt19/x9+z52L9+vXYsWOHrePWqV0L3bp1QddunVG1SmXbOMMBPcOs6qduvREoJrr1Mi8OHvwufh8/wbxwDjp/eYVEgik8GJD1e/ZJvPnG/3DIIQfamw0nJvIADf0RynVgK2YVU3AcdthBePedN/DQQ/ehUuVK9mbChSbQCsR62jQ1//Hs1JuD3zEF2AafC2QRERERCQ3WC9mKWqNGdexnAtA777wFrw560Y4t8tWXH+OD9wfjWVPvPe+8s9CwQQNkZGTYOmUYVHslCkR9cMqgacGCBfjqq29sCyIv8PYHD1gvmOOw22eeeRre/2AwTj75ePtdxd8PJ946JScn4ZKLz8erA180gfRBzlkgE1QGYp29oP/X337HN99+H5bpICIiIiL/jfU475pS1vF2nygceglKdIn64HT79h34asR3mL9gYdGB5CsefM4BCVSvVg233nKDbeavXaumnR8JB6ezDUDbtq3Rt08v3HLr9ahevWrRe4HApbz22hAsW7bc7zQXERERkdBiHXH3SSQYojo4ZbfSBSYoHfHVt9i5c6c713deoMV+9s/262O7M7ALb6QdpFxVri/vs3rpJRfhwQfvQePGjUxQ6WyDP9vipdGqVasxcNCbEZUuIiIiIiISOlEfnI4cNRpLly+3r31txdsVYDkjp/FWLd26dgrbEWlLgyOPHX30kbj7rltRq1aNolGH/Q0q4xPi8dNPo7BkyVJ3joiIiIiIyN5FbXDKAGvr1m34/POvUOjnwDxcFoM2Dqvd58meaNy4YVS1CPJ6gcMPPwR333M7KmZmIs69vsBXTC+eGOBodW+/8yHy8vLNPPdNERERERGRPYjK4JSBEIPH7777EStWrLD39fS11ZS4rEqVKtlrTPfbr0vRxeHRgtvH6YTjj8FNN12HcmlpnGnn+cykd15+PqZMmYbly1dwcSIiIiIiInsVtS2nOTk5GPzWu/a5PyP0xsWbqMrEtaeffjKOPfZI/wK2MOZt1wUXnI1LLjnfifANfwPUJUuWYPKff+m2MiIiIiIisk9RGZwynvr77zlYtGix/8FkYRyaNmuC6669EqmpqVEbnBK3ja3CF1xwDvbfv5ud50+LM/928+YtmDpluu1iLSIiIiIisjdRF5wyIOL0+edforCgEAV+BFcM1hiLPvnEo/aeptEcmHq4jdWqVsOll16IzIqZTqTvB6b/jJmzkJWV5c4RERERERH5t6hsOWUr3R8TJ9suub6GVl4gevLJJ6B9+7bsoRozOEBS507tcchBByAh3r+bK/MvF8xfiLVrs9S1V0RERERE9irqglMGUnPmzsOmTZvtNY/+dEstX748Tj/tZLuMeF57GkMqVqyIo44+wo7e62/r6dZt27BgwSK/9oWIiIiIiES3qGw5nT17jm099S8UikOXLh3RtGnjmGo1Le7gg7qjQcP6Prc+E9OOQemEPyballMFqCIiIiIisidRF5zm5xdgwfzF2L5jhzun9Nj6ypbSLl06oUqVyjHXakpMgwoVKuDQQw6yaep766nTej1z5mwFpyIiIiIisldRF5zm5uZg48YNfrb2FaJy5Upo3KgREhIS3LmxhwHqEUcc6gTrPgenznLWrVtvW7Oj7R6xIiIiIiISGFEXKaxfvxHr1m/wq5WOAVT16tVQr14dG1jFqoKCQjRr1hQ1alS3XaR9H16Kg1RtRVbWOveVyN6pdf2fmB7e9F9K81kpO8X3S0n2TWk/L6FXkn0V7fu0tGnwX58VkdgUVcEpC7rNmzdh06ZN7hzfxMXFo2qVKqhVq6Y7JzYxLufIvYcfdrC9LY8714eJgW6B3/slMALzY6jf1MDavaLC/LJt23Y7yvOy5SvsgFrsGj5jxizMmzcfixcvtdNy896qVavtiY/16zfY1nn+bSTbV6WN8/Py8pCTk2PTZ/v27fZ5fn7+Hv+Gs/a1PAkOL833lu6cv/t+5JSXl2/35d7sa5lStva2L5x9m48dO3bafbtjxw7k5ua57/5TpO/P4uu/+3YwHzN/b9++w6aDU07tuWyO9HSQ8KR8FbnizI6Lmj3HSumkSX+ix0O9sWTJUp8ype3CmpCAY485Ev2efdK2osZy6ykN/2IE7r33IfeV7154/mmccMIx7qvQYHBz8SVXmx/Lbe6c0mH3ZrYof/LJ+2jbtpU7V3zh/XDwGOOxu3nzFvz51xRMmDAJS5cus13Bt2zJtpWcAlOpyS9wKu38vNc93HY3N5M9bs28xo0a4tbbbrCPkXLceuWUt758vXPnThtwTzf5dfGiJTZAz87OthXdnabSyzTxKrzJyUlISExESkoKUlOSUbVqVdSuXQtNmzZBw4b1Ub16VSQlJRUtn2nN55GSPpHAOyHi5UvKzc3Fhg2bsHjxYiw2v0fLlq7A2rVr7ejl3Ifcx/w7Vtp5Eo/7g/swPiHe3ZcpqJBeHnXr1kG9enXRrGlj1KxZE+XKpe3al8w7ZtL+LBvcX94+5vMdZh/OmT0X8+YvwLx5C+wxyxNk3LfcrwXmOI2PTzDHXyJS09KQlppqx7Fo0KA+WrZshlatWiDNzC++zOJ5KNwUL7OJv4UslxYuXGzvkrBo0WJ7QpE9pXZs32lPwOTl5dp8mmzKoKSkZKSkJiM1Nc32TKtbp7a9VR+fp5q0YR7e/TsiVXb2Vjzbrz+GDv3E7ldfMA26du2Ct4cMsq91jPvm3HMvxZSp04ryV2k4SR6Hiy++AHfdeYs5XlPtfAmuqAtOx4z9DQ+Z4JQFpE+bZnIi7+15zjln4NFHHrCZOdYLBP7o3mOCU1/TgX/Ha4Fvvvl6G/T7asOGjbaVzNeCnvlhwYKFePiRJ0wlf7s7t3RscGqW8/RTj6NZsya+5bH/YFvuq1axQUWgMeBbuXKV/Q6TIs7MEjP73/zXpHFDW5HwFSs0jkLbujDso0/xzdffY+asv92KusMcec69it1sVzypd8+K3nsNGzYw++YxtG3b2ua7cMU02LVdhbYyN3Hinxg3bgIm//mXrexu37bnPMrt4uYW37p95UMObNbSVII7mEogBzjr1KmDrSzb5Zi/42M4p1U4YnI7gYSTbl4lfeLEyfht3HjMnPE35puyhr1Fiu+r4s93T3O7B/e2H90/ZGW1Qf16dn9269YZhx92iAlYa5hl8SQq/zzyK/UeHhPsHeEkyV7SZZ/ikJmZYXtAsQeQP7zjlft80aKl+PSzL8yxOh5z5843ZdZO91P/5O3fPe5Xd38mJCSiefOmOOTgA3HKKSegSZNGdv/x4/zzcDkuud1cF+YvnhgbPfpXjPp5DCZP/ssEpovs+3uzr3Rwk8Hetq9161YmEOuEE44/2p5Yc9LB+Xwk5ulIDE6Z3mvWrDX153Xud/1zf5WM85vdunVLuzx/15m9ptirxB/33/8IZs+dZ+tvXp4qDW7DSSceh0svvRCJiYnu3EAKbJpFg6gLTkeNGo2HHu5tu/j5gpmCme+SSy7APXffbl8rn/zrN8Un/qQj9+0nnw7Hk0/287nVcxf/N4abYooQ50WAsZXriisuxh233+TmP/+/xyvwBr36Jp5/7iW/UuDjj99FOxP8lQbzDzeDrX2rVq3CtOkz8dWX39gKTkFhvt0lbGHgE69IKm3RZFLKCU6fedyuXyDSLdC4TWxNYAvLqtVr8OefU2wll4Epu77ZhDDiefLArr8v6eGUWV7eYZf8gsICu2SmUXp6ug1suu/fFZ27dEL1alVta44z+Jvzt7Jn3j5giz5PlLGHztSpMzB6zFjMnj3PrYQ6n2FaxxVVqn3L1zYPcz86r8xk9qVb0fX2Z/36dXHQQd2xX7euaNbMaV2tUKG8/Uw4HgMlwTRikH/LrXdja7bv5f3JJx9vTzJnZKS7c0qO68CJJ0V5gpa3Q/vSlFk2YDb/mLJe0OTs0l37eF+K71M+39WNO872eDjjjFPsscnxHipWzAzpPuT2MMji5RPTZ8zEyJGjMWbMr/84ieiU285nvTTgOu8rLXZPA37Wy9d8zZ4vxxxzJA4//BDUrVcHlSpWsicYQpkWpRWJwWlOTi5ef+MtvPjiK2afuDNLievI3h2TJo6x+9XXEwtMM/7taaefj7//nuPO9ZWPG/MvQUp/s1hu68zpf9jtjuWBWD1RF5yOHPmLDU75g+KbONuqcMXll+COO262B1oElYdBs6u1y3dMR18LV+7bzz7/0ganPKPuu5JVIP6LPQMXhIKKycPg9MorL8Gtt9zg5j//v4fbzOW89tpbeP55JzgtbTpwNRg0DRv2Ntq0KV2XZn7X4sVL8PMvY/HD9yMxddoM25rOFh9TLbG/Hf7uF1Z1wjE45WZxVdhKPM1s919/TcHvv/9h02DLli122+0HrF1pEIh8Sl46cGnemWP7lWaqmJmJjp3a44Du+6Fdu7a2i11ion4Yi2N6MQ25/+bOm4dZM+eYfTcdEyZMxIoVK+3JBu4qtqLuvs8CtQ+LK56v+Zw9OTiHrXDsHrn/fl3RsWN7tGvfBk0aN3I+aITL8VASTDf2ImBwumP7DuT7ULnn/jjxhONMcHo/0ksRnHr7bNmy5fY45Xr8+tvvTiu4ectJx1371Z99/M99wvxjKuSmTMw0QekhhxyIww49yJ54qFSpkvuZ4PO2h73P2DI67vcJ+O3X8Vixknmd3ZT/WYaQP2ng8dLCPprFcZnlypfDwQcfYMunQw892ATvzjggkZCXIzU4feONIRjw0iCbF33Zrfz94GUJE/8Ybfehv8HpmWddhJkz/3bn+sr/ep+T9sFJf554Yfk95a/f7HYrODV5330UD8tFE4ht2+6drfW/0I0G/EHyd/K7YDWFi1Ng+jMFZn+yQrjn5fs7ect1vyjAWKWwrWg+TU4BX5p14+c3b8nG++9/hHvvexgvvPAyJpkKDwNTvldQkG+PNz6PNl56saWfJ83uuPM+e+KMP/y//jbeCUxd/07jwKVH0fLMxB8+PveOxI2mwv3zz2PxvNkvDz3UC3fe9YB5PQY7dzotI4Fcj0jjbTuvHf3ll7F44sln8OCDvdCn77P45OPPbaupF5iaTxelbfEpGIov31Z67XMOQJNnr/kb+tGndl0feOBR9H/xFRtARypnO71jo5QTT6gyYUqB38cBfEaM+A6PPPK42df98PW339vjhGzcZJe/ax/4o/hyuFw7z/zjyXX2LHn8iafxYI9eGG1bK3P9/r598ZadvXUrPh/+lf3e3o/1xbChn2LpsmVuC++ufG7+Zx8DtU7esrh8/kaxkGLZ+cMPI02Q9yLuvbcHPvlkuPtpCaZdedw9lko1OX8XKP9evi+T/3nU9/QoycT1C1yaRYMoDU59D4T4VyYLuhXHwBS6IrGIlQxeL3LnnQ/gmWdfsF15nWtHnEpINLMVLFM5Hj/+D1xz7c0mMH8Iv5ggkK3Htkuc/aFzpxCUM0XfbSbzPzvQ0oKFi/DjjyNx9z09cPMtd+HPP6fabbABUIxhuvA3hGlw0cVX4y4TtH/22Rf2GkNWmO1e89IvBPvv3/65P/n7NW3aTLz55hBccOGVGPTqYNttfNc6y56wfOrVuw8efvQxjJ8w0eml46ZpWaWd8x3mu8w/Bqm8vvOeu3ugnwnQnAHiAn888juZ33mt+0033YnevfrY1mKOUWDXpIy2vTjvO1n+8HruyX9OsSddLr/8+qIBL8t6nUSkbERdcMrrRdmtwNciyyns4rBlc7b9ofK7tU8kxvAYYmvTxEl/4uprbsLYsb/Z4KfQVDJ4PEVzhYLbxpE6eT3p3ff2MNt/s+0atyV7q9ti7Vb0fC6hAs+ujbterPiyIsjryi659Go8/Ehve31ssFttwgW3ka3GU6dOxw033I6LL7nKduHN3rrNtpIytbzPhStv3XhGnvuNIwS/8MIAHH/C6bYFmL9rsbAvS8rZ5zttnj/muNPw+edfYYdJIwZFoSyv+L38frZYbtq8GUPefg/XX38b1q9fH9ATRlwWg96X//cqTjrpLIwfPxHbw7C85nrwd+T38X/gssuuxfff/+Sc6BORqBN1wWlauTQ7NLs/ISV/1NetW2dHNRWRkmMFgmfb331vKK666kb3GPIqy04AFI24XaxELlmyDG8OfgdnnXURvhnxndPt07xve2RExLZ7+wp23T/99As7DP+wYZ/YAYCidf8Rt40towMHvo7bbrsXI0f9Ym9h5Oy7XScWIgnX1wlk4uwonGwVf/bZF20LGU9ERPP+LAlu/8aNm/D+Bx/hzrsfRNbaLBOQMWDbdcImlHZfB47kffY5l9iB5PwNzLhcLoODsnE0/ldeed1efsMM731v8e8ONa6Lc8IAWGnKIrZwv/baYHttp4hEl6gKTnmWLz29gp2c6qBveD0hWz5Y0QynwlkknPFYWblyNf73ymv2Gka2nvLwCbdKTqB5lSZeq9mz5xMmuHkDGzZsKKrkMREiafuddd21zitXrcJzz79kr39ja7hzvXX07E9uC7tvfvjhJ+jxUC+8YoLTlatX298Tr7U70nnbwFbxocM+Mfn0SXz/40g7L5r2ZWlwuxnYsEVy0KA3sWXzFrvPwzE9uE7eevEk0RNPPIPhw0eYfOvbSMbesr799gcb5P3yy5hd10+H4fYX560778jw6mtv4ZlnXrAnGEQkekRdy2lGerodNp4/Mr7iX7Jyyevldg3zLiJ7w+CMlYVBg97AZ59+gZyd3r3/wruiExhxeHHAQFvJG/f7H/bG/BSOldzS4jawLLWDOo0abe8X9967Hxa9F+nYQsbKfp8+/dDvuRftdZreVkXD9hXnbQ9/0zgo2eOPPYX3P/zIzos1zujzcRhoyqt33/nQBDfO6P7hvs+d9Su0g1w99/wAO9Baaeso3jbyJFrfp57H3Dnz7GvOD/ft93jryi74n3z6uR28atOmze67IhLpoq7ltGrVKqhapYq9eb+vWOjl5uXh19/G2eHUnW5RIrInXoXm/feHYdiwT+31ShQpFR1fcfs2b96CK6+6wXYFXbsmy8wzZYWZH03bzm2xkykHV6xYZVtQe/Xua1vGIxnL9XXr1+O22++z91BmK5q3/+wUhbx8yX25fsN6PNXnOQwYMDDi92VpMA147rp//5fx+utDsNW9b3ZkHbMcLGkTHnr4McwxwWVJ6yjeNvL60v4DXrEn4SO7JwTHN8i3XfCfeba/O+CeiES6qGs5TU5ORtVq1ez9/PxpPeXpc47UOHvOXP+WIxLFWKnhNPyLEbbCY14VzY9W3DS2VnD04RtuvB2/j5tg5jpdQKMZ9ylv/cN703788Wd45NEnbAtOJO5rBmPcf+eccwmmTp3mbkP05tniuK38TeP1tDkmHYa8/T7effdDU7HfYfN2tGP3Vd6S5LU3hsBkZRvYRVoe9vIrB3K64sobsGDB4v/cBr7P4G3w4HcwZMj7todYNJx4Z/UsLzcPX4341l47zPsRi0hki7rglDftbdyoAVJTU905vuPIcG8P+cAOGhBpP14iZYX37Oz56JO2wsvjJJqPFW/7JkyYhCefeAaTJv3lBuSxUz6wdZGVwS+//BqPP/405s9fGFH7nBX6r776BjfecDtWFRv0Lprz7e64rc5JV+d621dfG4wRX39n50dzOnDb/pg4Ga+99pYJzp17LEcqZz9xQKeN6PFwr/8cIyPXHLPffvcjBr/1rr3VULT0CLPbbLIyR1geMuQ9/D5+QlTnYZFYEHXBKbVu3RLlK5R3f3x9w8KNxdv4CX/YM8vePBHZZdmy5fjf/17Fzpwc2z0sFowbNx6PPf4UpkydZl5Fd2V+b1g6svWYg0Dxeq/Vq9e474Q3nmj86qtv8UL//9lrpFmptWV9Ge9D+9tkJvuPj7tN5n/OYxB5282J99Psb9Jk7K+/ue9GH24n8+kHH3yEZcuXl/k+Dwa7Dea/mTNn4e133t9nt9Y5c+aasvp1ZK1d586JHt6+5IjUHLzNu6eviESmqAtOWSC1aNEclSpW5O+7Xz/w/EueXXz55Vfx119TnZkiYvFWFB99/BlmTJ9ljjvnlhvRiuUKp19//R333fcwFi5cVDQvmLzyi4/sFRKfEI8Eey/nf04JCQnO+2YyYU3QAxvitrMr819TpuLa627BOgZ7YYxl+Zix4/DMsy/YSqzZe0Hff7RrH5p9F59g9188+5My/7jrwBY8O/G5meLManFf2s+6+zTY1mZloUePXli+PDK7av8XnkwZM/Y3e6/XPLaa+rCNux+PPO6KH498bifuM+5j97NBZRbP+9l+880PGD36139tFwd/Ym+B22+/1+zbFX7ne297vPKGaVC8LPLSweZbkwb8fNDTwPC2ae7seXik5xNl8p0iEhxR2XKamJiAww87GAX5/v/AskKTm5tjCrsnsYwFexT+aEcC+0NjJv7wJSUm+TwlJiS6S/QPl7On5fs7cbmJCUllUBX1H6/VGzlytL1+j/snEBUeJ7BygrB4Vvz2OLHik4A4Vn5sBcit/AQx0VgOsAsvu7FyIJlgdYkrSof4OLOdzrYlJychLS0VFSqUR2Z6BiplZqJSpYqoXLmSnXgirqKZl5mZgfLlyyM1NcXmI6fyaNLJXWYwcJ8zLebPX4BHH30cmzaH54iZXM9Fi5aY4KsnNm3cbNc5WGV5UXqbR5uPzX7gWAjlyqUhIzMdlc2+q1m7Jrp164qjjzoCp59+Cs6/4Gycf+E5OOnE48xv16Fo2641atWqiYoZZp9WqIAUd58yuGWedxYf2P3KQZLWZa1Hr8f6RF3LE/c3W4d5L0/+npcm5XYdk9yXcaacTrSXDdnj0RxzlSpmFh2LlXksmn1WIb2C3d/JScl2/7PcYn6wywn0fjP7iUtkuTR02Kf2HqBe+cT38vPz8PDDj9n6i5lR6v3qra8tT8x28MQKy5hy5crZuyOw7KlotruoPDL5m2VUJtOhQjmnPDJ1Mqc8Cm6warfNLPqbr7/Dr7+OK/W2SviJj0v4Vz2ptJPNFH5ivWRPyw7EZMv16AzHfBZnDt6oPHoXLlqM0049Dznmh8ifTSwqmE3GPOzwQ3D/fXeifv26QStcZc+4D2fMmIWff+HNx30dWbIQ69ZtwBdfjLDd+3zB/c51Oeus01G1WhUuMuAYlHTr2gUHHLBfwPIZ15nL4rVlzz03oGheafDveRwMG/Y2mjZtjFcGvmFvgu5rRZ/L89KTQWliklPpY2UvPSPdBloMzGwrk+Gd8ef1jqw8b9u+zY6wumVLtj3OOb9+/Xp45unH0a5dm4Cm3axZs+2tYqZOnW6311vvQNh9PZNTku2I47Vr10aN6lXRoGED1K1TG3XMVKVqZTOvOlLMZ5KS+KMLO5DN9h3bsXHDJqxcucpee8Z7ky5cuBirV6+2rSW8D6BXYfUEev0ZgF180Xm44YarTaW0QsDS31/cTl4Xe9XVN9nbxnC1ArXtxRXfXrYcValUCbXr1LJ5klPTJo3RrFkTs19r2Qr77vaUp9bzlmbzF2H2nHm2W+bSJUtNkL0Ya9Zm2ZZATyC2x1v/dBNw3H7bjTjnnDPt8RcK3J5x4ybg5lvustcS5u+Wd0uC5QaD/UcffcCWJ8/2exGvv/6Wfa+k6eW0/Dl5u1bNmuYYrIUWrZqjYf36aMjjsl4de+u68iZQ4zJ5GyneL5X5jMEge1gsXLDI3v+Zzzdv2WL3G7+dqR2I/ebh/mPwx+091+w7z9cmUHu055P22uLdy4C98fKCs55xtrypWbOGzbvc5kZm2xuYPM15NWpUR5oJxMulpdm/YSstb/GStW4dVixfiaVLl2H5ipV2VOEsk2+XLltu18Ve7+seMoFOB+60/ffriv4vPIVMEyh721OW+Nv0bL/+GDr0kxKn++64P7uausDbQwbZ18HeDtat3nhjCF4c8IrdJ77sFzYgML9MmjjW/j23wRf8W27vu+8NtT1d/PH5Z19i1Zo1pkzw7Xebx0Cbtq1snYwnfAPNnow26XTrLTcUbXesi8rg1NukG2+8AyN/Hm3LP38202YU8+esPB9+2CG4zwSo9UwBrUxU9vzZj/zTWbP+xsWXXG3v2+gLFm7sJvXJJ++hTZtW7tzAC3S+8vJqIILTjz9+F5kmgLzaVPYXmQDICxr/C/+++DHDv0hJTkFbk47Nmze1FXieeWeFh7eEqmi+IyUl5R8/bvyR54kFVvI2b9psW0PWrVuPLaays9JUgPj+hRecg0aNGrp/4T8u/6GHemPUL2NsJvInD+6OLTF2cWaqWasGunTpZPNVcxPENG/ezKaBF4QWzxNcB289OH/394ijVq4yQeqsv+dg1sy/MX36LEz+8y873/l84LbF+/4qlSvjrrtvxamnnGRbS8LBipUr0dNUztnlkQK5/8hLf5YLbEnq2KkdunTuZAPR5i2aoaapvLPC5n22NN/vpSv/hkHNpk2bzH6cib+mTMNvv03A9Bkz7UkZfiwQ22XXzzx26tQBTzz2iD2OmEfLGrclEMHpiScei0ceecBei3nqaefZWz/tK997+8d75LF35BGHoVPnDmjXtrU9JtPTKxR91uMFH5znzfe+gz1LsrLW4c+/ptrjkCdYF5hykwMy0d7WxRf87nr16uKD9980ZWlle+sn9hbgIFBcx//6Lmfd+RknHzDwPujA7mjfvo0pp3dtv1cmF99Wb9nF04C8+TyhyECVo2TzMqnffvvdnkzzBDod+FvywP134+STj//H+pQVBaf+BaeeQOSL88+/zJaZTL/SLs9J8jhcfPEFuOvOm+0J9GAJRT4NV1HbcsrNYkvbBRdegdy83ACNyud0tWtnCurHej1kKh9NnbnKUBGBeYIVu0svu9bv4JQBGlvnIgW3nfnU/+A0Do8++iBWrV5jb+LOa01Luhx7DRY/aw6Xxo0b4aSTjsOBB+zvBqIVbTc4foc37Yv3ncW/m60WOTtzUL58uaKAzh9cNqf7H+xpR3e1o3sW+z5/eNvI5dWtUwdnnX26qQTuj7p16yAjM8NWrAMRFHjbwICeAwDNX7AQw4ePsDfvZ+sFKw7eZ/zl7bOaNWvivXdft60s/7Ufg42tygNeGoj33huKnTt5/93SV072xe5D88iuWaeffjKOP+5o26uAedrpUr0rXQKFFV3eh3v1qtUYPeY3vPrqYNtCbu/tbVbG3+3j+vL4uffeO3DB+WcXBdZlidsQiOD05JNPwKOP3G8r2++8+6EzaNu+0sdsO3cXu1AfaI7HKy6/2OzPJrarKrvm+rMvud/YqshWRA4kxvIze0u2WVGzSgGpn7h5zUwXX3ge7r//Tnz44cfoZ8p7BuclyRfe9jEAPfbYo3DO2WfYYDcjI8OebPI3LzvJX2B7uzAwHTHiW3z8yef2JKPz/q4TA/7i8XfccUehx4P3oFq1qu7csqPgNDDBqT+89T/vvMvsAIa+5C0nyc0xddH5uOuuW5Dm9hCQ4ApdrikDDB4POeRAk0MDdVA711dNmzodF118FUaNGu3Ol8gRmMI9yL8RYYmFOiuJj/Z60lSsXjevS3gm3ky8Vomfb96yOfr164NPTHB/4w3XoH37tjYgY2WIlT/+kJXkWOVnOPHz3sRuZcVbGv3F5XOk7i8+/yoggWnxdSZu7+2334wvv/wI1193Jdq2bW3P9ifadAhUPnW+j2d7eQ3jgQd0x9NPPYZ33n4NHTq0teWZt16c/OGlDwOl66+/3Sw7MEGvr/jdv/02Hp9//qU9cWFSIyDrU5RWZuLyjjj8UPz001fo3auHCWi6226OrKBxH/qbpnvC/ZmSnGyPG/YS+O7bz3DYoQfb3zkKxHfmmkrq++8Pw9at20K6D/3BQHTipD9x3/2P4JNPv9hnYOrtzwSzz6pWroI+T/bCyy89j/3262ZPNHB/+puu3G+s2DZu1BBXXnEJfvn5Oxx3/NEmMC2WpwKAge6wjz7F7Xfcb09GljQw5frxc40bNcKAAf3wWO+H7QnYKlUqmzLV/+0nLoLfw2t12bPgjjtuxluDB6Fjpw7m6HTSIFDHKO/JzBZaXmseqXlY/BPI48oRyGXJvkRtcMoMyR8UXgNlr38KYKbiKKVbsrNx97097HUs7KpS/PofkWhlC3vzyB/7//rB934U0kxgxArZU30fw2efvIcTTzjWBkt839/WiGDhto2fMNHeD9G2bASgcuMsI84OFHLSScfj6xGf4Lprr7Bdl5kGrLQFk5PeTiDPrsPDhr6DPn16oX6Deras9D7jDy9fzJk3Fy+9PMi5vi4AaVda/M61a7Pw4dCPbYuxl2f9xfThcngCpHWrFnj2mSfxYv9nUL1aVXcfBroytHfcj5xSUlLx0kvP4YH770KVypXs9/uzDtw+tsIuWLAIX3/znTs3EhVixYoV+PGnUbaXgNmwPaaLN6+cKZO6778fhrz9qu0KymPCG5QskLz9lpaWYo+/++693XaHp0DsO243r/n84Yef7K1z/ivfe9/JQZzOPvt0fPDBm/Z6Ta6jHcgpSLyTkbyk47VBA3DmmaehQnnnWnV/0oC4zWw5X71qjW0xy8vLc98RkUgQ1S2nrCi0atUSxx13tB010d8Cj+wPt1kOz05u37YNb7w+BD169MaXX35jKkPr/vOHQCSSMX+ztW1f+bx45YJdOy+79EK8aiof7PbIyggF4lgMJg4i9Oqrb9ob3Pvb5c5LD25727at8MADd6NXzwftNbYUqFbS0uI+PP20k/Hcs31w/PHHFA1oYtbWPvqKy2XF8KOPPsWkyX+5c8uOlze/++4ne09a2ld+LSmbZ81ieGKFA6LxZMspp5xQ1KoUqjzN/MNA6vzzz7Yt8Wzp83d9nBZ1YNCgwc7gNQFIv1Dx0oGPu2+H9x67fV511WUYOLA/mjRuZOf5kXwlYgNUk5cuuuh83P/AXbY84NoFIqW57iXZ/95nOLjTHbfdZFtLOYBQWeI6sOdM794P4dbbbkD16tWL5vuDt7kqNP94SQa72EZyHhaJNVEdnLJwYze/s848zRb8/hZ2Hq+Qsw9mkRMmTETvx/raWyl89/1P9roS8vU6A5FI5R1jPDbatG2NniYIu/baK+wol8T3A3UcBgsHDPruux8xefIUv4/h4tvKa7h693rIBDQnonz5fw+qUtb43awgt27dEvfcfRtuuOEaM8++4fd6Md04evBHH31mRwouaytWrsJrr7/l8/0sd8f04FI4aBXz9N133Wq7JXrvhRoDVLbAM1i+845bnG6ofp5kIHbR5rWf4bCNvuL+96Y9YTfs66+/GldeeWnRJQFltb38Hl6fd9KJx5t81cPenoYZzd/v39f2Fsdv4aBXd9x+s2019b43FPubefj8887CTTdeY0crp0Csx4L5C7FkydKQbJOI+Caqg1NigcSR5ji0Ogc58O6LGAhe4c+zc9u2brOjefJ+YjfceAd+GvmLrfiRc+2VfSoStYofV4cffggGvdIfBx90gL0fXqRgl/0VK1bivfeGmSCVA+j4zksPPt5y8/V4rPdDaNmyha2EBagICgiuX/Xq1XDppRfgueeeAhtyuX7+lJP8Ww5Ex2s+J06cXKKKcqDwu196aRDWrF7DQtqd6xsvDfhQr24d9O3bG6ecfIINIvxJn2Bhqy4HAWIFn2nuzzralDP/GzLkfbusstyHZYG/z+kV0nHddVfZE9i8l3Co9inLhO77d8VLA/qZfejcZijY68K6UGUTBN5224044ohD7e1yQpmn+d08OXDqqSfangk82eLN90dObi5+GT3WPo+2PCwSraI+OCVe23DZZRehS7fOAd/gosLOlJ8cNIWj0HGI9BtvvB2nnna+7e7LlgPe+Dsaf+BFyKtAsIsjrx16/rk+dnAfVgBDWeEpLVYS33jzbXv7kUAcr+y2d/NN19lWGbaWcvnhiPuIldMTjj8GTz31uFlvt4uvj/uO6ca/Xb9+PT4fPgLr1m8ok54k/F6OSMyb8Mcl+Ffac/25PF4SUqd2bTzU417s161r0fW54YrXSbIlsEu3Tva1r/vQ/pX536LFSzBv3nyflxOOuC288f01115uW+vYehnq7WNZ2a1rZ1N3uCao13pyO+1JevP8/PPPwnHHHmXL7XDAdeOgUVdeeYm9rRbLS68s8YVXfn/2+Zf2ufdaRMJbTASntjA2ZduzTz+BVq1bmUKZrwP7Q+QVet4Iplz+7Nmzcd99D+Oii66wZ/J//32C7V7CwQp2fV6tqhLZ7LFk8jDvWXrySSfgtltvQKoJbryeA5GCPRymz5iFTz4dbssIXysyTA/ecoeVrEsuvQCXXXahbZVh0BDOuN7c5mOOOdKOosnbZ3jzfeGl35ixv2HGjJk+L6ek+HUclZeDWOXl5aPQBMO+7kNy/jIOtWrUxD333I5DDz04bE8uFMfjjicC7rrjVlSuVMmdW3rOb1Ohve0Wu7hHC+ZDttBddvlFuObqy+3rYOfNkmJQevJJx9tbbDHvBW29zH499pijcNON19qX4bL9Ht5f9dprrjDlZjkbSPtzHJuNw6qVq+0Jx0j7TRKJVTFzpLLwrVKlEnr17GGvsfIC1GAVyixMuWxelL9w0WI7pPvtd9xnb+Y/YMArGPH1d/YMv/tp5/9uZUAkkjDP8ke/a7fOuPbaK20X0UioxO9u+/Zt9tpxs0HmiPTtOHTKFPPEpMdFF52Lq6+6DOXLl3fejABcf7YinX76Kf/oWuczk4w5JmDk/RbtyyCWb0z3jRs2OgP4ePuP+8PkxdKW885+jEO5tFTcfc9t9nrh0i4jlLiuvCb2hBOOtSdF/Fl3jqEwc+bfUTEivZcOHCTxxhuuts/Dab9yXXjLp1NOPRGVK1c0M9w3AsTkavvYrGkTUxe5135fOG3/LnHo3r2bvRc2y2O/1pHluZkm/vGnO0NEwl1MnUZiAdeyZTPcccdN9kbpLO9YaAWrcOayvYnYvXfixD/x1pD38OSTz+D22+/D9Tfcjnfe+QBz5863N8r3eH8jEtbMscPAlNfgcVCdBg3qB+14CiYeb99//xNmzphlK3C+HH/edvO+hezafP11VyM9PT3i0oPry/15+WUXoVu3Lt5M57GUvCCRlzpMnz7TPg+mylUq4647b8WAF5+1A7zYgVVsb2KnEl6SfeF9hq3fbEFmt0fnb+3siODtwwMP6m6CnMp2L5Rk23fH44A9Cni7tHXr1kf075K3/bz/OUcQZ88GX9Ik2LhOvD978+bNbFkUUGZxbJ3lSUTmi3DcfuJqMa/dfPN1SM9Id2b4afKff9llRnIeFokVMdfHgdcL8Ubp9913J6pWrWavO2FhFexC2isQWVnLzc21995jQDpmzK/o+9RzOPPsi3DyKefYllV2ocrN3XVfrlDdK1Dkv7AA4c3tX3nlBbRs2TwiW0yJN6r/5LMv7IBI7O3gC6fiA3Q/YD/cd8/tKF++XNhW/v4L15s333/yyUdtF0h/toLpwksZXn9jiF1uMMuylORkNGhQzw7I1fPRHvjyi2F4sk8vNG/RzOZTRmnxpsxnV8G9sfvRPB511BE444xT7MmXSMS07tSxne0pxFv7+Jru/LuVq1Zh8ZKlQd13wcZ153XVp516kpMmYbpfud8qZmbixBOPQ1KiOfYCtJ5eWXRA9/3QtatzPWe4q16tGk49+URT/vhfR5s1a477TETCXWT+6vqJhdxBB3XHE48/gmo1qtkBL8rqJ9f7cXceC53KcEEh8kzAyrPTH3/yOS686AocfMgxdtTfd9/9EPPmLcCq1WuQnZ1tA1XdokbCga0smErv2WedbgeviNSKK9f7l1/GYtGCxXzlUyWIf8Puo7xlDgc0YVdefytT4YCVwyeeeNRU6llJ9n17GByN+nm0vcVLsDHdGXiwOyuvmz3TBJjDP/sAwz//ENdce4XtPVOpYkUkJCbaz9l95+4r73m9enVx+eUXRfx+rFixElo0b45E3ovV51MMhVi3bgNWr1rjvo483Ic8KdGhQzvbVTQSTjgce8yRKFehnKmk7cqf/mDxzNGcDz3sYHvpRbjna2/9TjiRXdP9G7CJ+563Rdq+3b8R2EWkbMRscErsOvPCc0/ZERgT+GNl5pdlge0FqBxEyQs4ne+Pw5YtmzFy5M947PGnceZZF+LOO+9Hv+cGYOiwT+3tGVabYJXdgIsHu5EaHEjk8Y6Thg3r2y5yzHtleewECg8ZjrA9esxvWLd+vTvPt+OofLlyOO+8s9ChfVsbGEU67k+mxVFHHo7DDz+URZXP+5it0Xm5efjs0y/cOcHHdfW2gVOrli1w5x03Y/CbA+0N/y++8Dw7OmpGRoYNnhm88fO8zvbkE49D61a87U9k70e2jnXu3BEVypfjz4rPOCjSmrVrfT42wgFHpGVerlmzhs/5uCxlZmbagZHyC/J56PmNJ5caNmxg83yk5Gvmt9q1aqJp0ybmuTuzlGyeNRN7oy1btiIi9r1IrIvJ4JS8ikvHju3Q89EHcPrpJ9vbPnjzQ8GrRDnBqlMSc1XYuvrn5Cn44IOP0KfPs3jo4d548MGe6P3YU3betGkzij5PXEbx1yLBwGuXTjzhWNvKFLk/+IWYP38BJk36s+j48wUre+3btbVdBtl1MFpwv7K15ZxzzrCtLd48XzBtJ06ajOzsre6cssH13VUZj7OV/mOOPgL33ns7Hn/8EfTu1QNXXX0ZmjdvaoMAnnA57bST7XZHg+YtmqKcHy3A3G/sscPBpopfbhJJuO28/viUU05w54Q3ri93l73e2f7zH09UtGrVAk2acLyNyCivuZ4cubdjh3Z2/f3Jw7ycasWKFT6X8SJSdmI2OPWwsOPZxPvvuxN33nmLPWvOwitcCm+ui709jXvulAXsqlVr8Nu48fjss+F4tt+LuPGmO3HKqeeid+++GDVqDLZs2WILco8KYwkk59iIQ6NGDXDwwQcU3TQ+EuUXFGDmrNn2jLqvmB7seXHhRedFTKtMabAVuF27NjiAt7cw2+ZLeeKUY8Dy5Sswe87ckJVJ3DXe7uH4AzyxcswxR+HGG67Bq68OwBuvvYxbb73RBqjRsB+ZzjWqV0OVypVsgOP7NhViw8aN/xi0L1Jwm5kOF1xwjr33ciTt165dOztdsv1cZW5zSlKyDfLC5Z6mJcWTRBx52myFM8MHrD/l5eVhbVaWO0dEwlnMB6fEgpujal5y8fkY+uEQe2YxMcH8ILhn6sLlx8yp4DnBKrsBs0WV3a2yTIG7aNEivP/BMFx/w6049LATzONt+Oqrb00gu9reCsDe9y9EFUKJLsxHPPnRvHlzO9BMJFX2iuPxszV7qzlOvvH5nphOq0acvX/y0UcdHrXHWEZ6hr1On9dq+j5ASyFWrlyN8eMnFl3GEGrMuwy+eR/a6tWr22086sjDIjZP7wlbjRs3aog8prmv2dP8Ha855cBhkTjmAXt5nHTS8RG1X5nOHJSMlwv4E5hRXFw8Uk0e33//bhGXt5l/2WsjPaOCO8c3+fkmOF2r4FQkEig4dbHA5tTCVLaHfviW7eZVt04dG6SywhmOBTrXixN/xDixkmxWFDt27MDPo8bg7nsexGlnXIBbb7sXn3z6OaZMmWaD1eKBarRWpiV4eCywMs9rl8qlpblzIw8D7MWLl2DqtBn2zLovTJ0PySnJ6NXzwaIyJBoxrTjKJ1vL40xS+bKdLGvYLXTRosX2Ot9wU7y3SbRpaIJT3hqHvw++4NGxfsMG7IywllP7m2jwlki1a9c0v5OR93vXuEljZ6RpH/edLZfMY8WKFVG/ft2I+83n+mdkZqBiRqY7xzesI+3csdN9JSLhTMHpHlSoUAHXX3cVHuv9ME4/4xRTqDuFYjhXPvmDYyvYfCws4K+yxeuERo8ei56PPonb77gPvXr3xeC33sHkyX+ZINYpqBWgSmnwGKiYWdF26Y1UzPPcjm+++8GOlO0L/j0PnWOPPcreRifaj6OqVatgv/26Fm13adm/M/8WLlyENWsie3CdSMPAzMnzvqc579Ods5OD8LkzIoH9HYzDGaefYl9G1gkIZ11r1qxun/mx6+yAZB07tDf7P/KqfCw3MtLTkZ7ue8sp8z7z7fYdGq1XJBIoON0DFoZsGerevRvuvutWvPzSczj00IPtNUo8B+l1a+PnwpVTGPPXzHuEbTUdNeoXvPTSIDzwYE/cedcD+Oyzr7B582b7fiR215Ky5QQmhWjQoL6t8EYq75gY/vkI223Me11avB7q3HPOsM/DuTwIlJNPOg4JSYnO6OalxDRmCik4LTvMk5x4SyAntX3Po2ztzs3LNfstsn4nGNS0bds64vKbV5zwdkiWH8ULt71V6xZ2mZFYTrE+xm7J/mAaOPeMd2eISNhScLoPLMTZasp7OPZ/4SkMfKU/mrVo6vzImf+8Qj4SCnueOfV+nNliumTJMhuoPtrzcZx22vkYMGAg1q/fYN9nkBppP+RStngTe17HFYkVHWJA+udfU4puH1Na3nZ36tQBDRo2iNh0KA0WCY0bN0KTxo3t7S183eZt27abAHWxToaVobRyaf7ENtbOnTts5T6S8Hesdu1adsTXSMWT4n4zxyoH+YpUScnJduJ2+Ip5gd16C0zZJSLhTcFpCbASxhYSdmP8/NMP8MILT+NAd3CQpMQkW2BGSuXUCTqdiZVDjmC3as0avPTyIJxx5oXo/+IrNnDlwBf8rP24SJE4k28K0aFDW/d15Prpx19shd2XEzH8Cwbnh5gyoZLb7T/asUskg/pjjjnCpJtv5Z1TphTizz+nICeHrXAqYMpChh9dIh087s2D2V2R1DWUv8uNTFCWkhK5t3cKSN3CHGe8hVKkYk8N21vDz+LCXrsrImFPwWkJeT8QfDzhuKPx6qAX8dTTj+Hsc8+wN2svHqSyEheQH5Qg8iqFtvXCPOf6rl27Fv/732u48MIr8PLLr5oK5FQ70i+pEinEfMKpVeuW7pzIw7zMkzLjx//hzik9Ht0cQbJ582Y2SI0lhx92sJMAfvj779kReVuSSOWNL+A756RCJP0KeGUVbxXHW8TxeSziVvOEQmZGhjMjArGMTWRPHfe1r2IzB4hEHgWnpeT9wCUlJeHggw7AvXfzRu6Ponfvh3DyScejRo3qjPWsePODEAk/iLbS4U5cXY7KOOTt9/HwI73R/8X/2WvERMhmZzPVqF7dObERoZYvX4kVq1bZShvzfWnYY9pMvO6Wo9eyNTFWMK2aNm2CcuXKOengo1Wr12Dz5i1+LUNKbuXKVc6TmDvHGIfadWoHpmtspDKHGMsoXrcZyUpZTItIBFNw6gdWrMqVS0Orls1x2mkn4eGH78PgN19Bjx73on2HdkXXefJzdhAlPoZ5ZcwLUtmyNH/+Qrz77oe4+tqb8daQ9+wtakpbkZfowm5R5U2ej7Qbue/ur7+mYMd2jtxY+vzMY4CVvXr16qJa9Wru3NjAbWcXyVYtW9jnpkRz3ykd3p95vY/X+0rJcR9xGjN2nHnljJYcS+IT4mx5FcvM7rd4P18RkUig0ioAGHCysloxMxMNGzbExRedh2EfDsEP33+Be+6+Hc2aNkFqSorTLSUu3ukGGOaBKis0lJubixXLV+KZZ17ALbfejfkLFkZ0i5n4yeSLzIru6JERbMaMv+3JFp/ysjlueTw3adLIHtPesRILvDKrdZtW9tHH2NT+2dSpM+zzWEq/UGAL9W/jfreBWiylNbc0OckdSMfXjBpVlAYiEhkUnAaYd70pKwH169fD1Vdfhs8//xAffvAW7rvvThxxxCFo3qwpqlapbCq2iTao5ee9KZx4FRlW4AsLCjFmzG+49pqb8elnX2LDho1mviqVsSjMsmmpMShdszbL5O8Cn445HuO8717nTh2Kjt9Y4W1r82ZN7KOvWHL8NWWq80KCguU3b//y+htDsHrlGluGx1JeJW5vfIxts4hIpFNwGiReJYAVBFZgeZP+Sy+5AC/2fwYvvPAUHupxH6655nIcf/wxtnsgr2El58c0fCq8RQGqe2+75StXoWfPJ/Hss/0xc+asovclNkTD/t64cVNRl1KftqcwDimpKahbt447I/ZUqlzJ5zLKS/OZM2fbR5UhgVM8LXlf6zdMYPrZZ19gx07nkoyYSmuzqbz8IKavNxURiUAKToOMFbjilTh26eXogccffzRuvPEaE6Tei379+qBvn164/LKL7OifvK7Pq0QwsA2X1hm7TmbKy8vF58O/wuNPPI3ff5+gbr4SMZiHs7LW2QDVPcRKjSdqqlSpjAoVyrtzYk96hQq20u9rsMPyjCcIcnPzwqJsizRMd/Zc2VPZy3vIDhz4Bm6/4z68/fb7Nr/Hqt1/f0VEJPwpOC1j3g8lH9laykpum9atTLB6LO688xa8/96b+O67z3HbbTehQ4f2SDAVwIJ8Z2Aldk8Kl0CVAyZNmTIdDz7YCxMmTLLzfK2oipQV5lG2KDEw8qVbuq3sohC1a9Uq6u0QixiYJ9tr+XzD/bBt23Zs3rxZwcNeOAFoQdFUHNPMu+8su+7+8cdkDHp1MC648Aqcc+4l9r7VU6dOxzY76JfKZhERiRwKTsMAR9HjxMoeR/9tUL8ebrzhagz98C38PPJrPPzI/TjssENQr0F9pKenIzEp8R+j/5Z15c6r6BQU5NtbFFx51Y34/vuRNmAVCWfMu7zedNMmBkXuzFJi9q9StYr7PPYq/dzmpKRkv7tL5ubmYK3ZF+KkKQPQ/PwCW47yvqQMOnlt/5o1a7FixSrMmTMP436fgB9+HImXXnoVt912L4459jQceNDRuOjiq/Dccy/ir7+mYevWbXYZTt6Msa68IiIS8eLMD5d+ucIUdw0DTz6y4sJKNc+GT5o4GYuXLMOypcuxYtVKe0sMpxVo1+fLgvNd7HrsBMiPPPwATjvtRKSlhefQ/UyX6dNn4dLLrrG3svAFW6+Z1p988i7atm3jzg1/Xl569bXBphI7oGieL+rUrY2RP46weZItN5GElfbXXn8LL774it3+0qaBd3xdd+1VOPuc05mI7juxZYkpf+666wFs3LTJnVM6TEcaPHggDui+n30eLbw85W0jefO8PMfgM3vrVmSbAHSreWR5tNVMmzdtsa/XZq2zJ/5Wr16DrKws8znzWfu57ebvnVZULpHfwMnLhfYxCHmS28ITEu+//yZat2oZ9NuSMI3GjZuAm2+5y/y+bUf+bi3HJROHSpUy8VTfx3DwwQcGfZ0DjWnAdO/Ttx+GDHmvaF5pcRnx8QkY/cu3qOqeVIs0PInVo0dvjBnza9H4F6XF36ozzzgVvXr1KJPrkLOzt+LZfv0xdOgn9rfSF1znrl274O0hg+zr4mVKMOTk5Nrr1F8c4NvvIzFtebuxSRPH2r8PhzrCuedeiilTp9n0K+02OUkeh4svOt/85t0a8fcLjhQKTiOAt4u8A4sTW34WLV6CxYuW4O85czD+94mmwrjUVmx2/2yweQVm5UqVcMcdN+P000+xA1GEG6aFgtPYDk6531/o/wrefsdU9szm+5oGvG68Rs0aXIA7J3Zwi3lCjAOi+dpbwiufnuvXFyeddJw7NzIVz0PedlF+fr69tpnTqlWrsGr1WqxetdoEnk6wuXnLFmwxU3Z2tq3IcmL57fz5P8tu77lX1nqcj+76XLDwexWcli2mAdNdwamCUwWn/lFwGnkUnEYg7jLvIGOgtHPnDqxf73T/GvvrOIwY8S0Wm0C10A0evF0czF3N9eFU01TYez76oKkMHGAqAwnuu+GB26/gNLaDUwYKfZ96Dp99/iUTwJ1bckU/bm5+j1W8LYn5v/PCB046FuCx3o+YisOZ7tzIwP3vHU9eHvACUQ5GNG3adMycNdu2em7csBHbTSDP0XJ37tiJnTk7kZubb8tmm3r883/lw+IVKN/TOJC4nQpOy5aXxxScKjhVcOofBaeRJ7JKa7G8AoqP/MEtV64c6tSphU6d2uPWW67Hd99+bgdWOuecM00hkWI/x9vTsJDgc+/vA4kHPAtgdkV7/IlnbMWMFTaRcJKTk2OCiI02JvBF0Q+bebQBRoxOJgGcdPBLHNasXes+D28s24pPbDFmIPrWW+/hllvvwXHHn4EDDjwKF118pT358cUXIzBhwkTMnTcfy5YvN5XrdfYa0p07c0y5mGcr2AzObXoyL/1j8tI3EGksIiISWRScRgkv6GTlhi17nTt1wOOPPYwff/gS9957B7ofsB+qVK6MeLc1MxgBqmfJ0qV47LGn7JlDro9IuMjNzbUDxkhoecWCcw2lE5SFG6csLbDl2KJFS/Drr7/jzcHv4FYTjB5x5Ik44cQz8WTfZ/H99z9iqSnzEhO9E4DOSUDv7zkx4HQCUpWHIiIi+6LgNMqwUsQBiogVId6q5orLL8aAF5+xo/5eeME5aNSoofM5MwUjSOUSf/55NAYOesNWzETCAY+HvLx8BadhZPv27e6z0CseOPLaz8mTp+CDDz5Gv+dexD339sAtt9yNZ/u9iB9/GoWsrPW2nPXKUE4cadcLRBWEioiI+EbBaRTzKk1Uvnx5HHvMkbjzjlvQt29vXHvtlcisVNHUyP75OX8VVcrM8j7+6HOMHPmznae6moQa8yG7mu/cudOdI6HilTa8xikceOXWpk2b8MGHH+Pe+x7GQw/3wjPPvoAPTYA6Y8Yse93oroLMaRV1yrbwbPkVERGJRApOYwgDUN5HtX27Nrjxhmvw5fBhOP6EY3ZVrAIUpHJ5rLhlb822LQ/r12/gokVCjsEpR5pVKBEeQl0seGXf6jVr7aUIJ554Fvr27YeRI0dj4cIltmXXhJ5FAWhRWSkiIiJBoeA0BjEA5WhqVapUwXP9+uDll55DkyaNkZyYCI7CGYgAlcsoMBW5v6ZMwzff/mC7U4qEGk+a5OTmhjwoktBikMl8sGLFKgwc9CbOPPNCvPf+UKzfsNG2rDtdc51LEiI9IGVZ7JXpgSjbRUREgknBaQzjNVOsrBx99BHo3/9pnHLKiShfobz7rn9shc5MvGULrz9ds2ZNxFfyJLIx+zE49fXenBIdWA5xgCPenuOqq2/ECy+8hPXr15t3eJuofPt+VJRVXlBq/ktPT3dnioiIhDcFpzHOO5PepHEj3HPP7XZkX1ZknEpNYLr5Tpr0F/76a5qCUwmpAGRliWAcxZzddL/55nv07PUkXuj/PyxcuMjEbt697yK/fGJ5zcneW9BsDu852KVzR1x/3ZX2dSDKcxERkWBScCoWKy0VK2binLNPxzPPPIF69erayozfAaX5c1YIP/v8S9u1VwGqiJQ1lju8v+hzz79k78M84Y9JyM/Ls+Werzf1DxdeMBofn1BUZvPyjI4d26FXr4fw1FOP47DDDjYfdP9AREQkjCk4lSKs5CQkJODQQw7Eww/dhyqVK3Gu86aPTDXJPvIegatWrdKZexEpc5s3b8H551+Ot9/5ABvWbzDB266RdiOFU3a6gWiCd09VpzzlZiQnJ6Fdh7a45ZYbMHbsjxj64RCcdeapqFO7lhO4ioiIRAAFp/IvrPQccMD+uOHGa5CRUcFWgPwJKvmnvJbrw6Gf2NdqPZVQ8LKdH1lZIgyvMZ41azYuv+I6TJ8x055qY0tpOJZBXjnrBZ3FXztTAlJTU1C5SmU0bNAAbdq0xpFHHo4rLr8Er7/+EkaN/BpDP3gLN990LapUqWS7MXvLFRERiRQKTmWPkpIScfZZp+OE4481r/yr3DiVpDgM/3wEduzQPSYlNFhHZ8+AlOQUd45EMwagM2bOQu/H+mL27Lk2SAtlUFo84PxnwOi93vVehQoVULdOHbRv1xaHHHKgHazukksvMIHndej5yAPo/8LTeHXQi/bx3ntvx8EHHYDKlSsVLZePHPBOREQk0ig4lb3iWfobb7oW9erVcWa4FR9f8E+z1q+zN7P3KlAiZYn5LiEh3t5GyV/lypVDZmYmMtLTNfkyZTiPqampbooGFoPQZcuW46mnnseUKdNsC2qZBaYs38zE/OYEiWwJNfOLfT1PklQ0+YfX9rdv3wbHHHMULr74fDz44D149tkn8dxzffD004/hiSceRa+ePfDwQ/finrtuxVVXXWpHV2/evKkNRnkSsTiVrSIiEunizA926E4lS9hj9vj5l7G44Ybbil77wqs08Xqom268xj4va1z36dNn4dLLrrG3uPFFvNkOtgR/8sm7aNu2jTs3/HHbuQ9efW2wqfgOKJrnizp1a2PkjyNshZ8V70jB7eUtRG67/R7MmTPPp+1nGvLvbr31Rpx26ok+p6E46VihQnkbZAUSl8v9dPW1N+PXseNsPg2m4gEhj4eCfBMI25GJzOvEBJQvXx6NGzVEq1bN0bJFczRoUN8OPpeRkYG0tFQbqCaazyUkJppgM4ntp2aZznKLL9sfCxYswgknnuGsnw/pwfVISkrG+++/idatWtqTPMHEfThu3ATcfMtd2LF9O/J92odxqFQpE0/1fQwHH3xg0Nc50Lx83KdvP3vbI29eaXEZ7BI++pdvUbVqFXduZFm7Ngs9evTGmDG/+jyAGfP+mWecil69ethRrIMtO3srnu3XH0OHfuJzGcR17tq1C94eMsi+DlR5sDc5Obl4440heHHAKzav+ZLfmLY8ATxp4lj79+FQRzj33EsxZeo0m36l3SYnyeNw8UXn4667brVltgSfWk5ln3gcH3rIQWjbjoGYrTE5b/ho4sTJNrjzpdAT8Rdbmthl0l/sVVCnTm3UrVtHk09TbdSvXzcogSkrgs89/zLGjv7NBonBqtA5lf54xJkpyVTIGGhXMtvTsXMHXH/91Rg4sD++/244xv36I4YNHWJbQC+44BwceOD+aN26pck/tez2Z2Zm2AA2NSUFiSZQZRBllxuk9RYREQlnCk5ln3jdEutIl11yARKTEhie+sQ5g5aAVatWIzs7250rUnZY2edZXXbJZauWPzZu2GiXp8n3KVh+H/8H3nrrHRM0xtlbqgT6RBiXy/VnKycD7YMO7I6rrr4cfZ7sheGffYj333sTd9x+E4444lDUM+8zz+3phNzu6cFJREQk1ik4lf/ESlOzZk1Ru2Yt/+r0pnLGe54uXrxEFTEJieTkZNtS5a8NGze5zyScZGWtw+C33kVebp7PXen2zAse4+yAWoccchBuufl69O79EPo9+yRuu/UGHHPMkahSpcq/TuDx75yTfCrzRERE/ouCU/lPrFTxWpVWrVvYay59xWtFduzYgaVLlwW8NUOkJNjalV6Bt0dyZ5QS8y2Ph02bFJyGG7ZOjh49FtOmTLdljb/BoPf3fIwzv5TMO8cddxQGDx6Ixx97GFdccTG679/NnuzY9dldfyciIiKlp+BUSoQVMI4QyYqXPwFqzs4crF27zn0lUrZSUlJQpUplU/L53pLFAHXjhk3Izc1150g4yMpai1GjRmPz5i12H/l7Asw7EcHuIvXq1sXAV/rjheefQscO7VCtWlUbrCoQFRERCSwFp1IiHFGyUsWKduAPf6p8HHXR15FyRfzFUVE5CE1CfIINOnzBwWqy1mWZfLzdnSOhxi688+cvxMRJf4Fj5fqLQSen9PQKOO2MU/Deu2/YgYzi4pzBisJhBEoREZFopF9YKbFKlSqiXPly7qvSY0sEK5E7d+5054iULTam8TYeHB3VVyZssUPub9iwwZ0jocRyJT8/H+PHT7Tdrf1ty/RaQ+vUro3bbr0RfZ7oierVq9l5aigVEREJLgWnUiKssHEwmaTEJHeOb5zgNMdeHyZS1hhcVK1W1QaovkYaDIa2bd+O+fMX2ecSejt27MRPP/1s90cg9glv83LLLdfj3HPPLMom6sIrIiISfApOpcR4b8ekZBOc+lP3MxXHvLw8PnFei5QhdsesU7uWHeDL11iD987ctnUb5syZE7BgSHzHoHH58hVYuHCRO8c3XA7vWZqeno7LL78EJ554LJKSkqMiKFVgLSIikSLig1NWDNkaF4hJlcx9Y1dG3qKhUPUciWAZGRnIMAEI+VJpZznB42DlylW2O6kq/qHjldnjJ0xCntkXvuI+5LL4g3joYQfjwgvOdQc8ct6PdLyFl37eREQkEkR8cLp+/QbMmjUbM2bMwoyZf/s+mb9fuzZLAepeMF1ycnJMBTDPv2u6TG0vMSlRFXoJmQoVyqN2nVq2FdWX4515lyezlq9YhXXr1rtzJRS8/ffzqNH20VdcDvdrlapVcNON15i84ftozuFo06bNLHpFRETCXkQHp7xuccKEiXj00Sdw770Pm+khn6d7zPTVV98iN5ddTmVPtmzJttfa+YMBQWpqqoJTCQnGMsx7jRo1tNdQ+5IPGcjw37Jly7F06XKfAlwJHJ4omDFzlt2Xvu4Lmw/Mn15wwblobPJGtOFJFCevK6+KiEh4i4JrTuOwatVqLFy0yF5z5Ou0aNFizJ+/wL0eUnbHEwE8+877lPpav2HliMEp7zUpEgqsnzMfdu7UwV5DzWsMfbVyxSosWrzYBkcSGixPeN/kLVu2uHN8VyG9Ai684Bxb1jmBXOSzJ1LMtGjxEvekioiISHiL6OCU9QfeUD+tXCpfFf0Q+zLRihUrkZ+fV/RaduHtX1auXI2CfFMR96Pexvulli+X5r4SKXs8vps0aYz09Ay+8CkQ4TJycnMx5a9p2LpV9+0NpdWr19iA0vdym78dwH77dUVmpskTURjC/fnnFLcbuztDREQkTEV4cBpnb6ifllbOBqr+mjtvvr3NiYLTf2J68J6Of8+ebaptflQCzU5iq2mtWjXdGSJlj+VGSkoyunXt5GerZyH+mDgZGzZuVJkRQuvWrXOf+Ya/HXHxcTju2CNt3mAQF034m5a1Nst5oXwqIiJhLuJ/hXm/wnIBaIljpSQrax0WLFhkn8s/MW3mz1vgV6NCvEnXtNQU1KlTW2ksIXfUUUeY/zMf+p4XlyxZaltPSQFqaGzezC69vqc991tKcrItl6INy1letrJx0ya/ym4REZGyEtHBKeuCmZmZtvXUnwomsYLC3+4vv/rG/qCroumw6WKSYuq0GaaCs9mvZI4z/1JSU+0N7iM9eZU9Ihvz9f77d0F6egVzvLszS8k5Ngrx3vtDdbIlhHjJgb8qpJdHRka63Z/RhNszdep0ZGdvNb9vKrRERCT8RXjLaSESExPQqGFDGzT5U0Hkjzj/+scfR2H79h2qbLpYVyssLMBnn31hH32tvDEwzS/IR40a1VGhQgUzJ7IrSsofka98+fI47rijnWPfj/05bdoMTJw4OabyRDjdF3rbtm1mXdwXPkpJTkFCYqL7KnpwgL9p06bb3zQREfGR6nxlKuKvOeV08MHdkZiQ6NfIm8Rl8b6pvD2NOHi/v/HjJ2LmrNnuHB+5x3Wnju3tNV2RWpFnHZiT05VQIpWX/0466Ti/yg2bH0xk1Kt3XxsIhEvAFkwMTDkIFO97nJ+fH/JtTkhMcJ/5jgO1MU9E0/7jtsyZMw8zZs42z8PnZIKISKRgscmSc+vWrX6OUSGlEeEtp442bVqhXFqq3z++zHgcGOOF/v+zwUes/5hzBExWQvs+9ZwXW/rM/r1Jzm7dutjXEc1sjG45FPl4vLds0RxNmzR25/jALSN4Xd933/9kn0e7KVOm45xzL8ETTzxj7w09Zco0LF++0garxcvMsio/K5SvUHTyy1d2XctmdcsMTxxMnzELixctQaEpy0VExDd5ubqTR1mK+OCUmYXdRNu0bV1UUfSLWcbixUts995Yx8alTz/9AnPmzLWv/TowzcKSU1PQrl3rqDjA12/Y4D6TSMWWsgoVyuP444/2qzWf+Tk/vwCffDIca9dmRUX+3hNvu159bbC9L/Swjz7Dgz164q67HsSjPZ9A//7/w+fDv8KsWbOxbdt2+1lPMNOEA+JxsDV/7Nyx055witQeHbtjeq9btx7fffcDtm03+yI6NktEpMyx+Ny8ZbNaTstQxAenrEywYnnG6ae4r/3bJP6o79ixA19/8z1WrVoTtRXN/8Lt/vvv2fhw6Mf+V9jM33N5xxx1ONLT092ZkYupsWbNWueFRCzm66SkJHTp3BHVqlUtmldazNvsNjll6jR88+0PtsUqWk2c9Cd+/32CGwwyKM/H8hUrMHbsOAx+6z307fsc7r7nQdxyy1145pkX8Mcfk/4RqPp3P9I9q1ylslmm+8JH7LLFKVqCU5r85xRMnPineRb4NBcRiSWbNm0Oi8tYYkVUdOvl2YwTTzwO5cr5f79TVk6YAXnd6Tfffh+z3Tc3b96MN996FwsXLLLp688ByYos//ycc86wryO9Asj1X7x4qftKIhn3ZfPmzWyAyuf+5POt2dswbNinmD17rm1JjTYsB955+wM7uE6+WyZ4kxOo5pkf8E32dly/jRtvgtV3ceVVN+LkU87Bvfc+jB9+GGVH1g308V/VBKdcpK+L5fqwdXHd+ujoDeHl4RdffAW5Obn2uYhILNr1G+U7/jXHo4nmE8/hJiqCU1YuEhLibYBaYDKhP5UfZmL+Pa+fev/9YfYWKtFY0dwX3rT9889H4MfvR5r0LPArPYmV2oYN66N9+3Z+FxL+Yj4JxE32Fy30P2iX8FCxYkUccuhByMzIsBGOL/ndyQeFmD9/AT744CMTwP2zW2uk44/yqFGj8edfU5hE/0oj7zjgIyfv2ODJvRUrVuCLL0fg5lvuxAEHHoVrr70F35uyJVAn/qpXr+aOtOtHOWX+1BsIz9uWSMR157565tn+9jposzcientERPzB36rUtFT3lW/4y7Jq1Wps2aKxaMpK1ASnzDCnnHICypcr5871nZf5li1bjhdeeBlr1sRG915uI7vd/fjTKAwc9Aa273BuP+DPtnPfMBg87dSTkJyc5M4NneTkZKSmprivSo9pwe1hV8asrPXuXIlkHJH64IMOQOMmjdxWfv+O9U8//xIfffRp1Jy84DasXr3GtgqzO/t/bZf3Hh+Lf5Zlwc6dOzB6zK+YN39+QNKHy+AtgWrXqmmXtXvQXBJ2Hcx/HGeA1576u04hZVb955/H4O23Pyj6XRQRiWX8jfAXG6w4noIvvzFSelERnHo46mb37vvZ5/5mIO9H/Y8/JtvBPji4RDT/0Hvb9uWXX9trxTYEYMAfbx/UqlUDBx3U3QZ1oT6wk5ISkZaW5r7yDQN43tRetxyKHlWrVsHpp59s8ydH7PYFjyFOBfn5eOnlV/Hh0E+K5kcqrjt/lD/97AtM+GOSee2+4SMuj/c67ta1CxITk/wuD7y/P/DA7vbRV1zMyhWrMG78hID0rAgFlkvTZ87Cy/97zXaxZuAuIhLrKlbMdJ/5xvvZ+/a7n+xvTiT/pkeKqAlOmWEyMzNxyCEHIiUlJYCZpxBjxo7DQw8/hqysdVGbKVmReffdoXjq6efsQFDcbm6rP9vr/G0cDj30YDRhq1QYVPpYIa5o8ok/lWIOfsPr7jg4jCqA0YH54dRTTkSLFs3tL5F/+cO5BdP//vcqvv72e3du5OF2MB3G/vo73nrrXTtQnB/JUlSWtG3TGvXr17Mt1v7y9tOBB+5fVIHwBe+0wr/v99wAu57eukYKlkMrV67EwIFv2HubqlwSEXHUrFHDKeB9Ldbd34PffhtnG6r8qR9IyURVyymvJ+y+f1e0bds6IK10XgWl0PzQ/zJ6DO5/4BEsWrQkqq5BZSWGo2m+8cbbeP6FAdiwYaPZbm6ff2nHtOfIybVr18SRRxwWkG4VgcAuvTVr1XRf+Ybbxmtxp0+fifnzF0ZcRVb2jCe1evZ8EAnxCX6VHfxbHkNZ5kes//P/w68muIvUgRTmzVuAm2++y45ky2zuT15nurDXAu91XK1aFXduYLQzZb5fl3Rwu8wunzd3Pt7/4CN3ZmRwyvBteO21tzDyp1G21dSf/CsiEk1atWzuPPGnWDR/u2VLth2R3zmB6c6XoIiq4JQ/yA0bNsAxxxxp733nzfOHkwnNVFBoK5kPPdzb3h4hJzfXzo9krNTMnTcfT/Z5Bi/0f9kGqZznVK792zb+OVtGOnXqgK5dO4dFZYnrwHzRqGF9vvB5nWx+yC/E3LnzMOrnMbbbo0SH9u3a4NRTT7T72J/8Yf/WBKhLli7FI48+bkeqjZSRv7n+eXn5+PPPqbjxpjs4h5tiH33F9ODUrFkTUz4fEdBeFFxfdttq2aKZO8c3PAnJCsgH739kry3icsMdy2sO1PHMM/3tbb+8NY6EdRcRCTaWhZ06t0ecnw1WLFL5u/X6629hxYqVnOO8IUERVcGpIw4nnXS80z3PCHT2mTTpTzzw4KN2wKBly1bYeZFYEWDXBF4Td//9j+Djjz+3lRxvO/zdHqci6oyCesH55yDNz5HSAokDItWrVxdJif4NzmSq686oxsO/tN3oVBmMfMy33I2XXnohmjRuVDTPF8wPXBYfVyxfid6P9cWgQW9i48ZNYZ1XuG482fLzz6PtOi9ZuszZFn9LUpOMTMsjjzwMtfzsubA7LpfH9dFHH2me+1kBKSjEwkWLbPfYlStXh/2+mj5jJh5//GkMG+Zc30zhvM4iImWJ5WH16tXNVNU8d2f6wvwxl8UeUW+8+TaybW8ilbXBEnXBKesl1apWwe233YSEBHbPc9/wEzOhlxFXrlyF114bjB49euLrb77HTrfljANShCsGn5Sbm4fRo381694L/fq9iJmzZtv5AWfS6pKLz0fnzh38qiwGGs981a5Ty3Yr9H9vFdpbyjz55LP2Bs0S+dja39gEpueed5a9bzLziL/5l4HdevODxhNabEX9++85dn64lRde+TZs2GcmTz+D2bPNehYr9/zBNKxTpzbOPefMoJQHLOvbtW9jB7Yif74jPy8fY8b8igEDXnG7M4fXfmJZnpubix9+GImePfvgl9Fji8qycFtXEZFQ4glLOuzQg83/Tfno5+9Pnil7v/nmB3z55TdR0YMyXEVhy6nzA921aydcddWlbl70vQvn7ryMmLMzBxMnTrYtjzfecDumTJlmK7bkBYLhwFtfBmV/z56Le+7pgVtuvRu/jBlrK15cY34mkAcY07pVm1a4+urL+MqZGSa4bo0aNbStp7xtiD/5wkk34K+/puLscy7GmjVZAU9LKXspKck4/bSTcdBBByDBHDfcn36XH+bP2SLJ25XcdPNdGPbRp/baQAp1fvHy7ObNW3D7Hffj6Weex4qVq+09owOxbkw7dpl9+KH7UKlSRf/Tcg+4zAYN6qFjh3ZFZZov7N+ZBfA2WsO/HIFbb7sX2dnZRWkUSt73syx/6aVBuPvuHpg16++i7uKhXj8RkXDj/dxwsFQW7v78+nhlLO9m8eyz/e0JQgqH34doE5XBKSsqnG684Vp0c693DGS28TIhWz54Bvu3ceNx7nmX4rrrbsWYMb9h7dosWxENZZDK7+bommzl5TpdeeWNOP2M8/Htdz8gNyfXdl8L9AHlpHs8qlWrir5P9rKtGYEYkTPQataojmZNm9j183f7+fesxC9fvgLnnn8pvv76e6xfv8G2UO++bC+9i0/F8XU4ndiIZZmZGbj6qkttax+Dgd33VWnx73l8cP+uWLECDz/8GK648gaMGzfBDkIWqv3Oa0vZxX/48BE49bRz8e2339tgxw6K5uc2k1cWH3/8sTj00IMCsci9qlqlKg44YD+UK1/OfqevvH1dkF+AX8eOwxlnXmTLUI7A7G8+KC3v+zigFruEs9fLEUecgIGvvoncvF1n7f9rvfxJDxGRSMZBTFu3aYVatf2/pMQra7dv24677noQffo8awdK9cZs2R0/X3za3d7mx7qEnob7PKrwx5iVykaNGmDy5CnYtGmT+05w8PsWmwz63fc/2vtfbjIViS3ZW22lgiPEJiQkFn2OimfG0lYc9vS3XgZnBYojyE6ZOs0ESt/hfy+/hvfeH2qvo+JH+ZfOaLyB5a1HZsWKuOXm6+ytHZxu1aXbtrLAdWLeGDv2NxPAB+am+zbtzf5m5XHmzL9twbVt+zZ7koIBe0Ki2f97SAu+zy7BHNRk4cLFmPX33+5tNgJ/3ojbPWnyXzYg8kdGRjouu/Qiu83huH8DgdvG+3GWr1De5JNxNogLFKYZJw6qMGLEt5g7b4Gdz3vw8nZYxPe9fBmINC6+LD7n9ixYsNAeA7zlDcsItpwG4Kv+Id7k/SZNG+OhHveicuVKQT1ZxW2rUqWyLe95PAUCl7l5y2YbnDKIZ1dvfodXtgXjGCi+TD5fvGSpPWZffW2w7RrOINX7Sm+/7g2X403/9dl94d9zm8866zR78rEsTjouW7bcXjbjnCzxZd05OnQqjjn6yIDduqisMd1Z/rBnlq+c/R+PK6642ObfSMTRqEeO/AVLzLFgajru3NJhOrRq1QJHHHFoUH5fd5eT4zRczJgxy+djj+tcu3ZtnHHGKUWvg4lB3J9/TsF4P+7hzrRNTEzAdddeaV8He51LgquQaMov/i5wfwQC8yG3bcqU6fhp5M+2UWLb9u3YaeqUrPczDfaUz/ge8zNvTbl48VJ7mU+iqR+mp6eHRVqFizhz0Pj+ixUBGHx88cUI9H/xFaxbv862GAaL+Qng/0xBxAM0zo4g2aBBfdSrVw8NG9Yrur8fL8xOS+PZfffvimXIve2OPX2GZ2m2ZGcja22WDWx4/SgL70WLFmPp0uXYsmWLs738U/Pga6FeEly/tNRUnHfe2bjWFEqVKvl3L9FgYxB/8y134Xfz48FUCdRh4G0zK3I1a9ZAjerVUaVqZVvwsLDyKgfs0rlzZ64tyDab/cSTJyzcOA0b9jYamnwTSNw+rhsruM89N6Boni/q1K2NkT+OsPmvLH7kQ4Xpw218/Y0hGDBgoK0ke/MDwZYXzhObP9ia37xFM3tih2UFy4niQZCviv/9WvODOOWvaXbEcVZ4Z8+Za3tYUKC2y8PvrVy5Mu644yacdupJdtCiYOP+eu+9YfZ+zQzAA3EizjumiaPBd2jf1o4I36FDO/caV77/z7Qr/jf7UjzNvb/hPHYl/vvvufZ6Uu4vjqq+ceNG+z6VZF/Z5ZmP8dZq3fbrgjfffNvO82U/8++SkpLx/vtvonWrliZfBve45zoyIGcZvcNU+PL30CLx3+Ls79BTfR/DwQcfGPR1DjSmAdO9T99+GDLkvaJ5pcVlxMcnYPQv3xZdkx1p2ButR4/e9lpw3sbNF/ytOvOMU9GrVw8bDARbdvZWPNuvP4YO/WSPLWolwXXu2rUL3h4yyL62x3QQMaB+w/zevTjgFZvXfMlvTFteGjNp4lj79+FSR+A++PGnn/Hoo0/Ybrnky/btztsnfOTveO3atVC1SmVUrFTJ1IlT7AmyeFv2xJk6306bxttM/XPT5s2mvrfeBqkXX3QerrrqMpt2wd7HkSLqg1Nu3nbz4zZw0Jt48423kWeCgrLY5OIZjGct2SqSnl7B3ucvIyPDtiLUrVvHVHbqo47JzMzQDGZ5r8XdD2ZWsnJzc+yZe3bTZeDJVo/ly1fagyzbZHRuIys0u1fIympb+T2sVD/Xr6/djnA/wLi+E0wF/dJLr7HpzdeBTKt/7n8+ZwWBZ7CdefwqZ+J38rQBX9j/0OvRB02Qf5b9XKDSkd/DZSk4LT2eyOCtlt5998OiNAtWXmF6sksxR7pm+cDbMHXr1hmNGzVAhQoVSlWp4jryunKOKj7hj8m2lZRditet22Dv15aXl+t+Mjjbk5iUhHPPPh133nmrvc9xgLLyPnE72L3qoouvsgM6+Vop3BNuF1OJrcEs41jRZ4B69FGHo2On9shIz7DHeHFcn93Xgft49+OaZ9NZfk+bNgs//TQKU6dOx9qsLNvlm5cImCXZz5VmP/E7ksw+ePDBe+y1uLysg9/tS5o4y1JwWpaYBkx3BacKThWcBsYak494Sc1oDiLn4/btjbdvuEjnd8DpsbJr8516Mt93vtf5fj7j5YcDX+lvb3UYTukVSlEfnJK3ifc/8KhtRfVel+WmM5MWL1j43T5/P//MLKr4MrkoZ3llu012Vcz/mjZrgmFD37ZniYpvZ7hiWnE9L7viekz4/Q8WE77vjxKwaeV+p2fP31eIk048Hv369bGvApWW3ncrOC09phMrR088+Ywd0IgtqN7+DDRnfzsnMex14fYIA5KSk1GjejXUqFHDjkbOa2fYvdoGfSwMDK7X+g0bsHr1GtsCz5NXa9ausd3Nicv21tvLD4HeBmf97Ragc5eOGDSwvxuYBiYflwS3id2lTjr5LJtHve0NhF3b8c99FJ+QgKZNGtvB1th1sEXzprY7Hk9CVqhQ3q2sOCcaN2/ejKys9fZEwSKznjNnzsKCBYuwcNFiOxIkv8PZN2b55p/3jaXdBt7X77BDDkLv3g/ZivKJJ51pj1cFp5GBacB0V3Cq4FTBaWBwfT4f/hX69ulnWy69ecG0+z7b0/exh9FXX32EypUqBX0fR4qYCNG5s5kf+vbphQsuOKeoa2VZZgJmSBZQ3sTX/H5WWnjw8seDXfic5/+enPfMFBePOLeLAO1aHgu/4B5kxTlpWojEhEQcePABGPrhW/asT6QcWFxPptuD99+FylUqFc0LFq9A4qM37Y7fz1Z2XmPGaxIiJS2jHfcDr7O7885b7KA+XsUmGPvHyRvuMc3AxHwHj//83Dx7Dd6kSZPtoGaDB79rL1XgYAxP9nnGTk8987y9xRVPwLGVdOHChdiWvc3+PQMV5rjieW9PeTAQuM48WfX8c31ta28o8jFH7r311hts620geenn7SMWw0xb8wJz5szFd2bfsJX9xpvuwOlnnIdDDzvWBOkHoWOnA+3UtdshOPKok3DueZfg9jvuw/PPDzB/8yPmzp2Hgrw8u6+oqEwv+r6S7yumd5z5XaliKjqnnHoiqlevFpJ9ICISbo479mh06tyx6KRfsO36zdhzOc6ymeMIcFAlldO7xERwSt6Z6zvuuBkXXnjuPwYeCRVmVI74y4pIQUG+7drlPP/35LxnJlNh4W0ZzF/vMaOXBS/NeA3ZUUcdhl49H4zIgRa4Hbyn5RVXXGK7U3vzQoX7k7e3cVq9VrhzJRwwX9SvVxd33XUrjjziUDefBD+vOGWEKQPsyScHv5tfv/u329fuenn52JQS9u9tmWGWFawyw1knrlQcOnXqYE8EMigKBW/bzzn7DBx15GH2xJ43L9CYnkxbjtjtcfdAUZrwhJN3ktGeKLDr4qxP8fXiMuy+8mMfecvm/88+53RTETvqH98hIhKrWBayEeVOEwdUr1HdnRt6PBE5bdoM93lo6vXhJmaCU2LGrFC+PK668jJceME5KG8CKs7zJimpOCQlJuKUU07Evffegbp1akdk+nGdOUjRySefgMMOO8RWHFkwhHJbWC6xO9CMGX+rkAozzBeNGzVCjx734vTTTy6aV/yxLNiAaC+T+R8/4Twvc3Ho2qUT7rvvTrRs2dydFxrcH7ynKkeM5IBAfO1Nwca058kE78Sid+LRm5wA1AlCA7mfdm1boSnTTsSVV1xqrzkVEZFdmjVrgp49H7SNEjx5WBa/C3vj/QSM/OkX+xia3+7wE1PBKTETVqyYgeuvvwqPmszJobM5j9khlBk03DFtODkBXAGuueYKe1N9DuYUyenGdee1fLynZaOGDZEQ4gDVVFftNVZz5syz66GCKrywBwZbBO+79057awZW/s2REdI8E2q2XDA/8F26dLS9KNq2aWVbK0ON69WiRXPcdeetqFbVuf1JtB5P3FZv09q3b4tHHr7fDsAnIiL/xPLy0EMOwo03XmNemYLT/Be6328W3HH2Fj685pfPJQaDU2ImZJfUU085Ef9v706ArKruPI7/kaa7gbAITbM0yo5JtFmFFpRhkwAaiBqtIYu4phCDMWIMCLYLO7SRZQLqqKVTFY3RMKbUDJWqZJzKTFUiIZZOMsZoWIaJ0OwC3dAN3TDnd967r58vSOhuus/r199P1+Xx1nvvOeeee/7n3GXTpn91QUkvy473MIcroOkrShM1OLt2y7cNG9b487l0/9ZMSC+tQ2HhpbZgwf3W2Tdiw20WajxrdEX3wNSVVimP6UflQ1fUvddtA7PvutMu9PfvVJlpXgGq1lUBX46rB4quGOEvftSvX9+0CEwjWj5d7bikZKnLs44+nzItj2Lrc9qnu64evGL5Imvbtk28TAIAUql+1KkfN910vWXnxG5zFmrfoNlWnjzhD+2NTkFs7prt3kuFUIFAv7597Kmn1tn1103zV1Z07/j3Mq0BUyfxdFC/jq44qRPJN/xwtY0fNyYjR4pGj77Cliwu9uehhiwDujXtnr173bQv/grSjcpGbm6uzZ79LXvooe/bpV/8gnstVp1m2naRKnnb6FFQYLO+dbs9+8wP/cWP0tXIkcNt3dpV1r9/v0S9lgmi9VBgOmzYYHtw/v3Wp08vAlMAOAvVnTr14263D9cparoaefR6Y9P1Btxeyd5977/jr6BZ78GiQnjRRQX+QkkLFzxgl18+1L8WDfOHKKihJdbbpYEOFRvgGnTz5t1v8+bP9bdJyNzRB/NXY1248AF/npok0qIxuUQvLd1jpbtLTRfMQjo7bddM/ZItWfqw3Tzza/4exiouQcpNA0usk5sUDOkerAvmf8/uuGNmWgdDUT4MHz7UH+46qmhERtRhycs/adLVNn/eXD9y2tTXCwAag+rKbt262j1zZtmNN36lZj/mXm/MejSa05Yt7/iBn0w9/aQ26F51VAjVgzLVNTJLVi3xvc95XTp/anSwOezwk9dV24bSZPbsO239+ifshuun+XMzMzkdtG6aRo4Ybo89utCuvGqUXvW3ZWhUbna6D2Jp6V4qqTQXlZnPXzLQvjNnti1b9qg/zzHTOrc+tS6uTOqwftWV48ZdFb+oRHqvp5ZPDQ+NLuo+h1+Zfq17Hrt1V1PLI7+8WmQ9uOXXRZ+KNXp/qUbvm9a6AEBIqjO7ds23+777bb9vSL4lYmPVp2rnqcN329btdvx4RfzV5o3gNIkaKiqkt9zyDXv5xy/YdNeAycnJde/EAxRXUDNx5+/XKb5umlpmZdnYsVfZiz96zr577912Uc+CtDqPrKHpPpYaIV7/T0/4++K6VEk0Yhsr/6urq/wN+k+cOBF/BelO5/lNGD/W1x2z774zdv/LAGXnfEksb2LZW9ioUUX21lubfECkHuemVi9oeS+++CJbvvwxKy6el8ij2GPSOqeh5Pzw+6ou+bZqxWK75567fEdiUytfAJAOVHe2a9fOn4P63LNPWt8+vfVqok5tjLpVAWpZebl98MGH8VeaN4LTFNrpS0FBDz8y8MILT9mXr53sArSelpNdc0x6NDVpbvl1X03RrWG0zlMmT7Knn1zrL27St6820Jo0aU6Utzk52fawa8CuW1tiQ4cM9pVX9F5DUiWl6f3/ed/Kysr8/5H+VC78BYJycuze79xtb77+ik2ffo316NHdWmXXXHAt3esNv4zxowX0/w7t21tR0QhbtWqxbVi/2rq7oFRlMt3X42x0uPzXZtxor218ydV5E63ThRcmAu10zKNoeaL8mDh+rG14co1NmzbVL3dzrKMB4HyJ6tjBgy+zp59eZzNmfNV3wGa1zPKvN/Q+QXfBOHbsuP3RtftAcPqZVBDVABs86DJ7/PFlVlKyxG6/faaNHHm5tW6t0VSnCR66l1je+GNWq1Z2hWt43nrrN2zlikX2gx8ss9GjixKfbc6i9Z84cZytWbPSH8pYVHR57PYh8fRryDT6353/Z+Xlx+LP0FREZUIX1lq86CFbsfwxu/3Wm21Q4WWu7NTs6Bqy7NSFlkdBTqwrpIX17Flg114zxebNu89WP7HCpn15aqLuS7dlr63oioiXXDLAFi0qtgULvmfjJ4y1Nq3b+NclHdbR54mb1D+lC06N+Ycrbf78+23lyiX2xS9ckvgMAKD+tA/U0YIPLZxnS5c8YjfddJ0V9OyhcVT/5zsCG6DOVbyhI+V27Njpb3HZ3BGcnoV2+tE0eFCh3TXrDlu8uNjWrF7lD/3tP6CftWyZ5RsOvhHhCq3/vPuLvh9KNG+/PJriy6Zl1WG7ukrxzG/OsLVrS2yRW6d75txlw4YN8b3w0XdQk35duuTZjH/8qm/IPl6y1Ca4hqwufpOa9+6fxHdqK/qer/ycvXv22b79++v0W2cTzafWU0r5xt+nUVRdOGjOnFm2bNkjtnTpozZlyiTr2LFj/BPx/FCeu8foeaPQfFPmrasGDiq81O6799u2atUSKy7+vl1/3XR/2Gimat++nQvCJ1uxa4ysXrPSX7mxnXtNQbrSJ7Ftx583lMRvx+epKaqvx4690h555EF/LrzOl9Uh5LVdlmg96jM1ttg8z7ws5zplArcmZ1y3c50yQbQeqet2rlN0lFhjSsy7jtuecj6EMy1L7aamH1pkZbW0UaNG2gMP3GcrVyy222672S7udbE/6qaFq5eT89T9E3s8R9Fna77rfsv93qlTp+zjj3fZkSNH/PvNWQsXrWsfjHOk5NJ08uRJKysrt+3bd9jPf/4L++Uv37K9+/b50VQVNl9w3RN/tdWkMttQyZ28YWgOGhlwS+HmX+3nqYKvW+VMmXy1XeMaYr3dRqaeeI3kNLXzxkJSWqoC0Unryu9f/eo/bOPGn9n2HTv1pv9MVGm5kmKnfQfYGfJcL/lKSU9ieXdKH3a/oQu1dOve1eeVroSa17mzf78+fBlwM3vppVft2edeSLxWK/Fl7dY133780vO+bHNPrtqpqqqyysoTdujQIdvy+3ftxRdfto8+2urK03H/vgIRl7A+SExWn3ojuW4QPdfke2fd72qeun/xpInj7YYbplv37t38CKnOvVZZbk50j2Hlz+7dpfbqT1+z11//Nztw4IAr9e6vpUtHJVnS9lyffInU5I+bh9ueTrt80Tzafq6tfWnSRLtl5tf9FeVzc1vHOw/jH6+FnTv/arfeNsvPS/VXbel7rbJa2bp1JTZgQL8GLxdKV92UvvjhJVbh6lpfN9ZBhw4d7MH5c23EiOFNrixHdfb6Dc/Yxp/+TMWjTuVNv6F9yis/+Zf47fKanoMHD1pJyVrbvHnL39SN50r5r9vhzZ07x9dtDU1HPf3zM8/bm29u8vlW17wbNKjQVj+xPPG8Iald+/JPNtrzz//IPavbMitts7Oz7c03XvXfz4R9iNZD+wXtp9977w/2yquv2W/f3mzlZTqyzW2n7u+Clm493ed8TZXS7k9Qcro8VD6qrj/l9jdRGrdp08bfb1/1/Zgxo30aNmcEp/WgpEuuLP70pz+7Buc79l//+Rv7y9ZtdvzYcT9Mf8Jt8NVVrhD6T8U2eP//pKQ/12zQ/Px89ad5a/bxwq7fU8Wgw05VsNXAHDiwvyvoV9qwoYP9IWxRRZG67KidKL+iNFQnxbuu0vrtbzbbH/74vh0tK/MV/akqF2iog8D91QRzriJTnrm8UGNT+aX7yOr2NbqV0aDCQuvfv6/vuUNmirY/PR44cNBfQv7f3/q1rz8qKirtpNsRqt5QMHtawYQrK77MuckXPRUj/58zUX0QlU3/Qf9qlitrOoxf51LnZOdYr969bMKEMVY0coT17dfHst17qeW6uat09ffvfvd7e+ONTfbOO+/a0aNlrpFS4er1ky5fXF4omdyjwsnPzo8aiXR1jz6PfP7E8iY7J8faugbKwM8PsKmTr7Zx48fahR07+PeFPAGAMFL3jYcOfeLb/G+/vcXe3rzFSktLXZuvyu+zT1Wrg1mBp/9orK53/1zQ4gIXxLr9sNrp2VnWvWs3GzpsiL8P99Ahg/xRPIghOD0PUgutnldWVvoREZ03uNNNu3aV2uFPDvvGTVm5m8rKfc+aGjpVJ6t9z7AaodVn6NXW7/qCHQ9mWrrHXBd4qiHTtm1bX6DVy56Xl+cPPy0o6G59evd2wWh/H6QmL5dEz1F/Z8p7jUhpZGzXrt12+MhRO+omdVIcr6iw1rm5vsesdW5ra9f+c67x2dHyu+b7RmiUz9HvyPnOK/1u9Nt1p7JIGaqvWF7EjnKInstHf9lq27ftsL9+vMt2795j+/fv96NHujjWMfdY4cqR6peqaldvuCkKcCSrVZYPPrNd8Jnrylo7Vy/osVPnTpafn2c9uvdwgWhv69+v76cODW2o8taUKU2S0+fo0aP24Ydb7YM/f2jbtm339yI+4rZtNVJ0lcVjbqqqqvajr6mjk2qUaLuPdR5m+aNW2ndo77f7zi5vdAXhgQMH2JDBhb4OT57v+cqTuoyYpmrsUZDzscz+kLkmXKxVBqLtsz6a+gjW+UgHbUuNWcc1xbxrisvc2Pyhva4YqSxFaaVRVd3+b8/evVbu2vdq62tf4I9idHWQLorYztX7HVy9n5fX2brkd/EdwhKVSY5Gq0Fw2gCiJI0KnJ5rJ6teFR1L/okLUg8fPmJHXGNHo6snqzRCUu1H2ipdw1OHrUTFUz+lETQFmWp4apRNvew6BEBBqc571KE6upKsGj2pla/mnfwcDSs175OdLS/O9j00D6llQM81aQen0VTVGT5APXbMd3SovlBHSHKJyXY7QB3+mZub4zuutCPUfdtUb6ixkPzbQnk7N8npFeWLOgkOusB03959dtjV6wpUlScaVa1wDZXoO9LK1d+qw2MdB9nWUUFpp07+ftq6+m50rr/oe+QLAKS/5Hq+NvV2tB/Rd6jv/xbBaSNSSqsMRoUykmiUaErpKY6+k9z7G303+p4eo88ByFypdcdnSa4b0HCivEitk1NH/M6UD3qN/AEA4NMITgEAAAAAwWXuQeEAAAAAgCaD4BQAAAAAEBzBKQAAAAAgOIJTAAAAAEBwBKcAAAAAgOAITgEAAAAAwRGcAgAAAACCIzgFAAAAAARHcAoAAAAACI7gFAAAAAAQHMEpAAAAACA4glMAAAAAQHAEpwAAAACA4AhOAQAAAADBEZwCAAAAAIIjOAUAAAAABEdwCgAAAAAIjuAUAAAAABAcwSkAAAAAIDiCUwAAAABAcASnAAAAAIDgCE4BAAAAAMERnAIAAAAAgiM4BQAAAAAER3AKAAAAAAiO4BQAAAAAEBzBKQAAAAAgOIJTAAAAAEBwBKcAAAAAgOAITgEAAAAAwRGcAgAAAACCIzgFAAAAAARHcAoAAAAACI7gFAAAAAAQHMEpAAAAACA4glMAAAAAQHAEpwAAAACA4AhOAQAAAADBEZwCAAAAAIIjOAUAAAAABEdwCgAAAAAIjuAUAAAAABAcwSkAAAAAIDiCUwAAAABAcASnAAAAAIDgCE4BAAAAAMERnAIAAAAAgiM4BQAAAAAER3AKAAAAAAiO4BQAAAAAEBzBKQAAAAAgOIJTAAAAAEBwBKcAAAAAgOAITgEAAAAAwRGcAgAAAACCIzgFAAAAAARHcAoAAAAACI7gFAAAAAAQHMEpAAAAACA4glMAAAAAQHAEpwAAAACA4AhOAQAAAADBEZwCAAAAAIIjOAUAAAAABEdwCgAAAAAIjuAUAAAAABAcwSkAAAAAIDiCUwAAAABAcASnAAAAAIDgCE4BAAAAAMERnAIAAAAAgiM4BQAAAAAER3AKAAAAAAiO4BQAAAAAEBzBKQAAAAAgOIJTAAAAAEBwBKcAAAAAgOAITgEAAAAAwRGcAgAAAACCIzgFAAAAAARHcAoAAAAACI7gFAAAAAAQmNn/A3GOmnorLU1RAAAAAElFTkSuQmCC;" vertex="1" parent="1">
                    <mxGeometry x="1020" y="196.2" width="116.41" height="67.61" as="geometry"/>
                </mxCell>
            </root>
        </mxGraphModel>
    </diagram>
</mxfile>